<?xml version="1.0" encoding="UTF-8" standalone="no"?>
<!-- Created with Inkscape (http://www.inkscape.org/) -->

<svg
   xmlns:dc="http://purl.org/dc/elements/1.1/"
   xmlns:cc="http://creativecommons.org/ns#"
   xmlns:rdf="http://www.w3.org/1999/02/22-rdf-syntax-ns#"
   xmlns:svg="http://www.w3.org/2000/svg"
   xmlns="http://www.w3.org/2000/svg"
   version="1.1"
   width="500.69644"
   height="498.12762"
   id="svg2">
  <defs
     id="defs4" />
  <metadata
     id="metadata7">
    <rdf:RDF>
      <cc:Work
         rdf:about="">
        <dc:format>image/svg+xml</dc:format>
        <dc:type
           rdf:resource="http://purl.org/dc/dcmitype/StillImage" />
        <dc:title></dc:title>
      </cc:Work>
    </rdf:RDF>
  </metadata>
  <g
     transform="translate(318.69643,-72.915165)"
     id="layer1">
    <path
       d="M 180,320.93362 A 248.57143,248.57143 0 0 1 8.2413596,557.3391 L -68.571426,320.93362 z"
       transform="matrix(0.94684316,-0.32169554,0.32169554,0.94684316,-107.2116,-4.87501)"
       id="path2985"
       style="fill:#008000;fill-opacity:1;stroke:#008000;stroke-width:4;stroke-miterlimit:4;stroke-opacity:0;stroke-dasharray:4, 4;stroke-dashoffset:1.60000009" />
    <path
       d="M 8.2413596,557.3391 A 248.57143,248.57143 0 0 1 -269.66993,467.04025 L -68.571426,320.93362 z"
       transform="matrix(0.94684316,-0.32169554,0.32169554,0.94684316,-106.82768,-5.521338)"
       id="path2985-0"
       style="fill:#00aa00;fill-opacity:1;stroke:#008000;stroke-width:4;stroke-miterlimit:4;stroke-opacity:0;stroke-dasharray:4, 4;stroke-dashoffset:1.60000009" />
    <path
       d="m -269.66993,467.04025 a 248.57143,248.57143 0 0 1 0,-292.21325 l 201.098504,146.10662 z"
       transform="matrix(0.94684316,-0.32169554,0.32169554,0.94684316,-106.5328,-4.2093385)"
       id="path2985-0-3"
       style="fill:#00ff00;fill-opacity:1;stroke:#008000;stroke-width:4;stroke-miterlimit:4;stroke-opacity:0;stroke-dasharray:4, 4;stroke-dashoffset:1.60000009" />
    <path
       d="M -269.66993,174.827 A 248.57143,248.57143 0 0 1 8.2413579,84.528146 L -68.571426,320.93362 z"
       transform="matrix(0.94684316,-0.32169554,0.32169554,0.94684316,-105.30229,-2.8079348)"
       id="path2985-0-3-8"
       style="fill:#55ff55;fill-opacity:1;stroke:#008000;stroke-width:4;stroke-miterlimit:4;stroke-opacity:0;stroke-dasharray:4, 4;stroke-dashoffset:1.60000009" />
    <path
       d="M 8.2413579,84.528146 A 248.57143,248.57143 0 0 1 180,320.93362 l -248.571426,0 z"
       transform="matrix(0.94684316,-0.32169554,0.32169554,0.94684316,-108.23721,-3.0088428)"
       id="path2985-0-3-8-0"
       style="fill:#005500;fill-opacity:1;stroke:#008000;stroke-width:4;stroke-miterlimit:4;stroke-opacity:0;stroke-dasharray:4, 4;stroke-dashoffset:1.60000009" />
  </g>
</svg>
