<?xml version="1.0" encoding="UTF-8" standalone="no"?>
<svg
   xmlns:ooo="http://xml.openoffice.org/svg/export"
   xmlns:dc="http://purl.org/dc/elements/1.1/"
   xmlns:cc="http://creativecommons.org/ns#"
   xmlns:rdf="http://www.w3.org/1999/02/22-rdf-syntax-ns#"
   xmlns:svg="http://www.w3.org/2000/svg"
   xmlns="http://www.w3.org/2000/svg"
   xmlns:sodipodi="http://sodipodi.sourceforge.net/DTD/sodipodi-0.dtd"
   xmlns:inkscape="http://www.inkscape.org/namespaces/inkscape"
   version="1.2"
   width="1156.2891"
   height="96.744896"
   viewBox="0 0 32633.046 2730.356"
   preserveAspectRatio="xMidYMid"
   clip-path="url(#presentation_clip_path)"
   xml:space="preserve"
   id="svg3098"
   inkscape:version="0.48.4 r9939"
   sodipodi:docname="foreign texts.svg"
   style="fill-rule:evenodd;stroke-width:28.22200012;stroke-linejoin:round"><metadata
     id="metadata3171"><rdf:RDF><cc:Work
         rdf:about=""><dc:format>image/svg+xml</dc:format><dc:type
           rdf:resource="http://purl.org/dc/dcmitype/StillImage" /></cc:Work></rdf:RDF></metadata><sodipodi:namedview
     pagecolor="#ffffff"
     bordercolor="#666666"
     borderopacity="1"
     objecttolerance="10"
     gridtolerance="10"
     guidetolerance="10"
     inkscape:pageopacity="0"
     inkscape:pageshadow="2"
     inkscape:window-width="1366"
     inkscape:window-height="744"
     id="namedview3169"
     showgrid="false"
     fit-margin-top="0"
     fit-margin-left="0"
     fit-margin-right="0"
     fit-margin-bottom="0"
     inkscape:zoom="0.31714785"
     inkscape:cx="1717.1367"
     inkscape:cy="233.78858"
     inkscape:window-x="0"
     inkscape:window-y="24"
     inkscape:window-maximized="1"
     inkscape:current-layer="id3" /><defs
     class="ClipPathGroup"
     id="defs3100"><clipPath
       id="presentation_clip_path"
       clipPathUnits="userSpaceOnUse"><rect
         x="0"
         y="0"
         width="21000"
         height="29700"
         id="rect3103" /></clipPath></defs><defs
     class="TextShapeIndex"
     id="defs3105"><g
       ooo:slide="id1"
       ooo:id-list="id3"
       id="g3107" /></defs><defs
     class="EmbeddedBulletChars"
     id="defs3109"><g
       id="bullet-char-template(57356)"
       transform="scale(4.8828125e-4,-4.8828125e-4)"><path
         d="M 580,1141 1163,571 580,0 -4,571 580,1141 z"
         id="path3112"
         inkscape:connector-curvature="0" /></g><g
       id="bullet-char-template(57354)"
       transform="scale(4.8828125e-4,-4.8828125e-4)"><path
         d="m 8,1128 1129,0 L 1137,0 8,0 8,1128 z"
         id="path3115"
         inkscape:connector-curvature="0" /></g><g
       id="bullet-char-template(10146)"
       transform="scale(4.8828125e-4,-4.8828125e-4)"><path
         d="M 174,0 602,739 174,1481 1456,739 174,0 z m 1184,739 -1049,607 350,-607 699,0 z"
         id="path3118"
         inkscape:connector-curvature="0" /></g><g
       id="bullet-char-template(10132)"
       transform="scale(4.8828125e-4,-4.8828125e-4)"><path
         d="M 2015,739 1276,0 717,0 l 543,543 -1086,0 0,393 1086,0 -543,545 557,0 741,-742 z"
         id="path3121"
         inkscape:connector-curvature="0" /></g><g
       id="bullet-char-template(10007)"
       transform="scale(4.8828125e-4,-4.8828125e-4)"><path
         d="m 0,-2 c -7,16 -16,29 -25,39 l 381,530 c -94,256 -141,385 -141,387 0,25 13,38 40,38 9,0 21,-2 34,-5 21,4 42,12 65,25 l 27,-13 111,-251 280,301 64,-25 24,25 c 21,-10 41,-24 62,-43 C 886,937 835,863 770,784 769,783 710,716 594,584 L 774,223 c 0,-27 -21,-55 -63,-84 l 16,-20 C 717,90 699,76 672,76 641,76 570,178 457,381 L 164,-76 c -22,-34 -53,-51 -92,-51 -42,0 -63,17 -64,51 -7,9 -10,24 -10,44 0,9 1,19 2,30 z"
         id="path3124"
         inkscape:connector-curvature="0" /></g><g
       id="bullet-char-template(10004)"
       transform="scale(4.8828125e-4,-4.8828125e-4)"><path
         d="M 285,-33 C 182,-33 111,30 74,156 52,228 41,333 41,471 c 0,78 14,145 41,201 34,71 87,106 158,106 53,0 88,-31 106,-94 l 23,-176 c 8,-64 28,-97 59,-98 l 735,706 c 11,11 33,17 66,17 42,0 63,-15 63,-46 l 0,-122 c 0,-36 -10,-64 -30,-84 L 442,47 C 390,-6 338,-33 285,-33 z"
         id="path3127"
         inkscape:connector-curvature="0" /></g><g
       id="bullet-char-template(9679)"
       transform="scale(4.8828125e-4,-4.8828125e-4)"><path
         d="M 813,0 C 632,0 489,54 383,161 276,268 223,411 223,592 c 0,181 53,324 160,431 106,107 249,161 430,161 179,0 323,-54 432,-161 108,-107 162,-251 162,-431 0,-180 -54,-324 -162,-431 C 1136,54 992,0 813,0 z"
         id="path3130"
         inkscape:connector-curvature="0" /></g><g
       id="bullet-char-template(8226)"
       transform="scale(4.8828125e-4,-4.8828125e-4)"><path
         d="m 346,457 c -73,0 -137,26 -191,78 -54,51 -81,114 -81,188 0,73 27,136 81,188 54,52 118,78 191,78 73,0 134,-26 185,-79 51,-51 77,-114 77,-187 0,-75 -25,-137 -76,-188 -50,-52 -112,-78 -186,-78 z"
         id="path3133"
         inkscape:connector-curvature="0" /></g><g
       id="bullet-char-template(8211)"
       transform="scale(4.8828125e-4,-4.8828125e-4)"><path
         d="m -4,459 1139,0 0,147 -1139,0 0,-147 z"
         id="path3136"
         inkscape:connector-curvature="0" /></g></defs><defs
     class="TextEmbeddedBitmaps"
     id="defs3138" /><g
     id="g3140"
     transform="translate(-13713.494,-14842.986)"><g
       id="id2"
       class="Master_Slide"><g
         id="bg-id2"
         class="Background" /><g
         id="bo-id2"
         class="BackgroundObjects" /></g></g><g
     class="com.sun.star.drawing.TextShape"
     id="g3152"
     transform="translate(-13713.494,-14842.986)"><g
       id="id3"><path
         inkscape:connector-curvature="0"
         id="path3397"
         style="font-size:40px;font-style:normal;font-weight:normal;line-height:125%;letter-spacing:0px;word-spacing:0px;fill:#000000;fill-opacity:1;stroke:none;font-family:Sans"
         d="m 27448.865,14913.542 917.222,0 0,83.784 -299.861,0 0,762.882 352.778,0 0,83.785 -1014.236,0 0,-83.785 343.958,0 0,-762.882 -299.861,0 0,-83.784 m 529.166,846.666 0,-762.882 -141.111,0 0,762.882 141.111,0 m 264.584,-608.541 88.194,30.868 c -35.278,158.75 -82.316,301.331 -141.111,427.743 l -83.785,-44.097 c 52.916,-123.472 98.483,-261.643 136.702,-414.514 m -657.049,8.819 c 44.097,129.353 73.495,261.644 88.195,396.875 l -88.195,26.459 c -14.699,-144.051 -44.097,-277.812 -88.194,-401.285 l 88.194,-22.049" /><path
         inkscape:connector-curvature="0"
         id="path3399"
         style="font-size:40px;font-style:normal;font-weight:normal;line-height:125%;letter-spacing:0px;word-spacing:0px;fill:#000000;fill-opacity:1;stroke:none;font-family:Sans"
         d="m 29130.071,15128.516 0,728.155 -82.682,0 0,-563.342 c -29.398,49.977 -64.492,102.343 -105.282,157.096 l -46.853,-68.901 c 110.978,-145.153 189.617,-317.5 235.92,-517.04 l 83.785,20.395 c -26.092,90.032 -54.387,171.244 -84.888,243.637 m 330.729,-88.746 c 18.741,-66.512 32.706,-129.351 41.893,-188.516 l 90.951,15.986 c -14.333,57.327 -32.339,114.837 -54.02,172.53 l 315.296,0 0,816.901 -82.683,0 0,-67.799 -426.64,0 0,67.799 -81.029,0 0,-816.901 196.232,0 m -115.203,72.209 0,257.418 426.64,0 0,-257.418 -426.64,0 m 0,327.422 0,278.364 426.64,0 0,-278.364 -426.64,0" /><path
         inkscape:connector-curvature="0"
         id="path3401"
         style="font-size:40px;font-style:normal;font-weight:normal;line-height:125%;letter-spacing:0px;word-spacing:0px;fill:#000000;fill-opacity:1;stroke:none;font-family:Sans"
         d="m 30558.821,15071.189 0,-228.203 77.722,0 0,228.203 101.975,0 0,73.312 -101.975,0 0,210.013 c 28.295,-8.084 69.085,-20.578 122.37,-37.483 l 5.512,70.005 c -67.249,23.519 -109.876,37.85 -127.882,42.995 l 0,350.021 c 0,32.706 -7.901,54.203 -23.702,64.492 -12.862,8.085 -35.83,12.127 -68.902,12.127 -30.501,0 -66.514,-1.837 -108.038,-5.512 l -14.883,-83.233 c 39.687,6.614 74.23,9.921 103.628,9.921 22.783,0 34.175,-11.208 34.175,-33.624 l 0,-289.388 c -63.573,18.007 -112.447,31.236 -146.623,39.688 l -25.907,-77.722 c 61.369,-12.494 118.879,-25.723 172.53,-39.687 l 0,-232.613 -156.545,0 0,-73.312 156.545,0 m 534.128,0 265.135,0 0,73.312 -583.186,0 0,-73.312 237.022,0 0,-206.705 81.029,0 0,206.705 m -15.985,666.971 3.858,-11.024 c 44.832,-159.118 80.477,-339.732 106.936,-541.845 l 85.99,22.049 c -34.544,202.112 -73.68,379.052 -117.409,530.82 l 235.92,0 0,73.312 -660.356,0 0,-73.312 345.061,0 m -173.633,-71.107 c -14.7,-163.159 -40.791,-310.15 -78.273,-440.972 l 81.58,-23.702 c 38.585,138.906 65.962,285.897 82.131,440.972 l -85.438,23.702" /><path
         inkscape:connector-curvature="0"
         id="path3403"
         style="font-size:40px;font-style:normal;font-weight:normal;line-height:125%;letter-spacing:0px;word-spacing:0px;fill:#000000;fill-opacity:1;stroke:none;font-family:Sans"
         d="m 32768.092,15116.389 c -3.308,43.73 -11.209,72.394 -23.702,85.99 -18.007,20.211 -73.313,30.317 -165.916,30.316 -72.761,0 -114.102,-7.165 -124.023,-21.497 -6.615,-10.289 -9.923,-28.663 -9.922,-55.122 l 0,-165.915 -443.177,0 0,130.638 -81.029,0 0,-198.438 921.632,0 0,194.028 -73.863,0 m -8.819,-18.19 0,-108.038 -237.023,0 0,138.355 c 0,17.639 4.042,28.296 12.127,31.97 9.186,4.411 32.521,6.615 70.004,6.615 46.669,0 73.862,-7.165 81.58,-21.498 5.512,-9.921 8.819,-32.888 9.922,-68.902 l 63.39,21.498 m -340.651,292.695 0,141.111 458.06,0 0,73.312 -458.06,0 0,251.354 -83.785,0 0,-251.354 -445.933,0 0,-73.312 445.933,0 0,-141.111 -351.124,0 0,-68.902 794.852,0 0,68.902 -359.943,0 m -484.518,-170.877 c 95.911,-20.21 164.078,-47.587 204.501,-82.131 35.645,-30.132 64.491,-74.597 86.54,-133.394 l 74.414,23.703 c -32.706,88.195 -84.152,153.238 -154.34,195.13 -42.995,26.091 -99.77,46.486 -170.325,61.185 l -40.79,-64.493" /><path
         inkscape:connector-curvature="0"
         id="path3405"
         style="font-size:40px;font-style:normal;font-weight:normal;line-height:125%;letter-spacing:0px;word-spacing:0px;fill:#000000;fill-opacity:1;stroke:none;font-family:Sans"
         d="m 34350.08,15047.487 c -7.718,382.544 -23.519,620.669 -47.404,714.375 -8.821,36.38 -26.827,60.817 -54.019,73.312 -20.213,8.452 -49.243,12.678 -87.093,12.678 -50.345,0 -98.116,-2.571 -143.315,-7.717 l -15.986,-85.99 c 57.694,9.187 109.691,13.781 155.994,13.781 34.175,0 55.672,-10.474 64.492,-31.42 23.151,-55.489 38.217,-243.821 45.2,-564.995 l 1.104,-49.61 -287.183,0 c -33.809,80.846 -76.253,152.32 -127.331,214.423 l -54.019,-62.287 c 77.537,-94.441 135.047,-230.591 172.53,-408.451 l 81.58,21.497 c -12.495,57.695 -27.194,111.163 -44.097,160.404 l 339.548,0 m -813.042,-18.19 13.78,-40.79 c 12.494,-38.952 22.6,-82.13 30.317,-129.536 l 85.99,12.127 c -21.314,72.394 -38.953,125.127 -52.917,158.199 l 176.94,0 0,684.058 -305.924,0 0,80.478 -77.722,0 0,-764.536 129.536,0 m -51.814,70.004 0,228.203 228.203,0 0,-228.203 -228.203,0 m 0,296.003 0,248.047 228.203,0 0,-248.047 -228.203,0 m 593.107,155.443 c -48.14,-91.869 -98.3,-167.753 -150.482,-227.652 l 57.878,-45.2 c 60.633,67.616 113.182,142.03 157.648,223.242 l -65.044,49.61" /><path
         inkscape:connector-curvature="0"
         id="path3407"
         style="font-size:40px;font-style:normal;font-weight:normal;line-height:125%;letter-spacing:0px;word-spacing:0px;fill:#000000;fill-opacity:1;stroke:none;font-family:Sans"
         d="m 35376.994,15341.285 c -14.699,0.735 -74.598,3.675 -179.696,8.819 l -29.214,-76.619 c 58.796,0 99.769,-0.367 122.921,-1.102 l 61.185,-2.205 56.224,-55.673 c -70.189,-76.434 -135.6,-137.803 -196.233,-184.106 l 57.326,-57.326 c 20.946,18.007 44.281,39.872 70.005,65.595 54.753,-69.453 97.748,-134.496 128.984,-195.131 l 76.619,39.137 c -48.14,75.701 -100.873,143.868 -158.199,204.501 20.211,20.211 43.913,46.118 71.107,77.721 70.187,-74.597 128.249,-143.499 174.184,-206.706 l 74.414,45.2 c -76.804,93.707 -162.609,181.901 -257.418,264.583 l 141.112,-6.063 c 59.163,-2.94 99.034,-5.144 119.613,-6.615 -25.724,-41.524 -52.55,-78.456 -80.477,-110.794 l 64.492,-35.829 c 58.796,70.189 109.691,145.338 152.687,225.447 l -71.107,45.2 c -8.82,-19.844 -19.845,-42.076 -33.073,-66.697 -2.207,0.735 -6.432,1.286 -12.678,1.653 -5.881,0.368 -10.29,0.736 -13.229,1.102 -58.062,6.616 -142.031,13.23 -251.905,19.844 -9.188,20.212 -24.255,47.773 -45.2,82.682 l 264.583,0 47.405,44.098 c -40.056,78.64 -91.686,146.807 -154.892,204.501 73.862,44.097 164.629,79.742 272.301,106.935 l -56.776,78.273 c -109.141,-36.748 -200.459,-81.213 -273.954,-133.394 -86.725,66.146 -199.356,117.225 -337.895,153.238 l -51.814,-73.312 c 130.454,-21.314 240.697,-63.022 330.73,-125.126 -52.183,-44.097 -94.627,-88.929 -127.331,-134.496 -45.935,53.652 -92.605,96.646 -140.009,128.984 l -52.917,-55.673 c 103.261,-72.76 182.636,-162.975 238.125,-270.646 m 141.111,284.427 c 49.242,-44.832 85.622,-91.502 109.141,-140.009 l -248.047,0 c 34.175,46.302 80.477,92.972 138.906,140.009 m -444.83,-333.486 0,564.445 -77.722,0 0,-468.533 c -32.705,37.115 -67.799,72.026 -105.282,104.731 l -52.916,-58.429 c 113.55,-101.056 204.868,-218.097 273.954,-351.124 l 71.106,35.278 c -35.278,64.676 -71.658,122.554 -109.14,173.632 m -228.204,-170.325 c 108.039,-77.537 188.516,-165.18 241.433,-262.93 l 73.312,37.483 c -70.924,115.021 -158.567,210.565 -262.93,286.632 l -51.815,-61.185" /><path
         inkscape:connector-curvature="0"
         id="path3409"
         style="font-size:40px;font-style:normal;font-weight:normal;line-height:125%;letter-spacing:0px;word-spacing:0px;fill:#000000;fill-opacity:1;stroke:none;font-family:Sans"
         d="m 36845.983,15001.185 c -39.321,39.321 -89.849,75.517 -151.584,108.589 l 0,113 c 82.314,-8.084 175.286,-20.579 278.915,-37.483 l 2.757,58.98 c -159.485,30.501 -324.482,54.203 -494.991,71.107 l -28.112,-72.209 c 53.284,-3.675 109.324,-7.901 168.12,-12.678 l 0,-87.092 c -63.573,26.826 -148.644,50.528 -255.212,71.106 l -34.727,-67.799 c 183.371,-23.518 329.627,-74.23 438.768,-152.136 l -420.578,0 0,-65.594 450.343,0 0,-85.99 83.785,0 0,85.99 459.162,0 0,65.594 -431.05,0 c 31.97,52.55 71.473,96.28 118.511,131.19 50.344,-26.458 104.914,-63.022 163.711,-109.692 l 68.351,42.995 c -50.713,41.525 -107.121,76.435 -169.223,104.731 73.494,37.483 161.505,65.778 264.032,84.887 l -40.239,68.902 c -230.042,-52.917 -386.955,-158.382 -470.739,-316.398 m 115.204,411.207 0,59.531 c 0,17.639 25.172,26.459 75.516,26.458 36.747,0 59.347,-4.225 67.8,-12.678 4.042,-4.042 6.614,-19.476 7.717,-46.302 l 63.39,12.678 c -1.104,37.483 -7.902,64.125 -20.395,79.926 -11.025,14.332 -51.264,21.498 -120.716,21.498 -60.635,0 -99.403,-3.307 -116.307,-9.922 -15.067,-5.88 -22.6,-22.967 -22.6,-51.263 l 0,-79.926 -128.984,0 c -13.229,52.549 -35.094,92.788 -65.595,120.716 -31.97,29.766 -85.622,54.203 -160.954,73.311 l -37.483,-62.287 c 109.508,-19.108 173.816,-63.022 192.925,-131.74 l -200.642,0 0,444.279 -77.721,0 0,-509.874 856.588,0 0,425.538 c 0,51.079 -28.297,76.619 -84.887,76.619 -48.14,0 -87.644,-2.757 -118.511,-8.268 l -14.332,-77.721 c 31.97,7.716 66.88,11.575 104.731,11.575 23.518,0 35.277,-11.759 35.278,-35.278 l 0,-326.87 -234.818,0 m -239.227,351.675 0,48.507 -71.107,0 0,-236.472 392.465,0 0,187.965 -321.358,0 m 250.251,-57.326 0,-75.517 -250.251,0 0,75.517 250.251,0" /><path
         inkscape:connector-curvature="0"
         id="path3411"
         style="font-size:40px;font-style:normal;font-weight:normal;line-height:125%;letter-spacing:0px;word-spacing:0px;fill:#000000;fill-opacity:1;stroke:none;font-family:Sans"
         d="m 37873.448,15586.025 151.585,0 0,82.13 c 0,87.46 -30.134,158.934 -90.4,214.423 l -71.106,0 c 44.832,-44.832 71.106,-97.014 78.823,-156.545 l -68.902,0 0,-140.008" /><path
         inkscape:connector-curvature="0"
         id="path3413"
         style="font-size:40px;font-style:normal;font-weight:normal;line-height:125%;letter-spacing:0px;word-spacing:0px;fill:#000000;fill-opacity:1;stroke:none;font-family:Sans"
         d="m 39880.423,15216.71 c 73.127,233.348 218.832,404.225 437.114,512.63 l -63.39,81.029 c -206.523,-119.43 -346.899,-287.918 -421.128,-505.464 -42.996,239.595 -183.371,417.453 -421.129,533.576 l -63.389,-77.721 c 137.436,-50.712 245.106,-135.415 323.012,-254.11 51.813,-80.11 84.519,-176.757 98.116,-289.94 l -426.641,0 0,-78.824 431.051,0 0,-268.993 89.296,0 0,268.993 439.319,0 0,78.824 -422.231,0" /><path
         inkscape:connector-curvature="0"
         id="path3415"
         style="font-size:40px;font-style:normal;font-weight:normal;line-height:125%;letter-spacing:0px;word-spacing:0px;fill:#000000;fill-opacity:1;stroke:none;font-family:Sans"
         d="m 41191.765,15010.556 -295.452,0 0,-83.785 820.209,0 c 0,335.139 -10.291,529.902 -30.869,584.288 -20.579,54.387 -63.207,81.58 -127.881,81.58 -49.978,0 -98.485,-5.88 -145.521,-17.639 l -22.049,-92.604 c 55.856,11.76 111.712,17.639 167.57,17.639 26.457,0 42.626,-11.759 48.506,-35.278 11.759,-52.916 17.638,-204.317 17.639,-454.201 l -343.958,0 0,732.014 515.938,0 0,83.784 -983.369,0 0,-83.784 379.237,0 0,-732.014" /><path
         inkscape:connector-curvature="0"
         id="path3417"
         style="font-size:40px;font-style:normal;font-weight:normal;line-height:125%;letter-spacing:0px;word-spacing:0px;fill:#000000;fill-opacity:1;stroke:none;font-family:Sans"
         d="m 43279.768,15047.487 c -7.718,382.544 -23.52,620.669 -47.405,714.375 -8.82,36.38 -26.826,60.817 -54.019,73.312 -20.212,8.452 -49.242,12.678 -87.092,12.678 -50.345,0 -98.117,-2.571 -143.316,-7.717 l -15.985,-85.99 c 57.693,9.187 109.691,13.781 155.994,13.781 34.174,0 55.672,-10.474 64.492,-31.42 23.15,-55.489 38.217,-243.821 45.2,-564.995 l 1.104,-49.61 -287.184,0 c -33.808,80.846 -76.252,152.32 -127.33,214.423 l -54.019,-62.287 c 77.536,-94.441 135.047,-230.591 172.53,-408.451 l 81.58,21.497 c -12.495,57.695 -27.194,111.163 -44.098,160.404 l 339.549,0 m -813.042,-18.19 13.78,-40.79 c 12.494,-38.952 22.599,-82.13 30.317,-129.536 l 85.989,12.127 c -21.314,72.394 -38.953,125.127 -52.916,158.199 l 176.94,0 0,684.058 -305.925,0 0,80.478 -77.721,0 0,-764.536 129.536,0 m -51.815,70.004 0,228.203 228.204,0 0,-228.203 -228.204,0 m 0,296.003 0,248.047 228.204,0 0,-248.047 -228.204,0 m 593.108,155.443 c -48.14,-91.869 -98.301,-167.753 -150.482,-227.652 l 57.878,-45.2 c 60.633,67.616 113.182,142.03 157.647,223.242 l -65.043,49.61" /><path
         inkscape:connector-curvature="0"
         id="path3419"
         style="font-size:40px;font-style:normal;font-weight:normal;line-height:125%;letter-spacing:0px;word-spacing:0px;fill:#000000;fill-opacity:1;stroke:none;font-family:Sans"
         d="m 44336.999,15202.379 0,122.921 433.255,0 0,77.721 -426.641,0 0,338.446 c 0,30.868 -5.512,53.101 -16.536,66.697 -13.965,18.007 -45.016,27.01 -93.155,27.01 -38.586,0 -94.626,-3.308 -168.121,-9.922 l -17.088,-93.707 c 66.146,9.555 119.981,14.332 161.506,14.332 30.868,0 46.302,-13.78 46.303,-41.341 l 0,-301.515 -453.651,0 0,-77.721 447.036,0 0,-162.609 c 93.706,-41.892 183.186,-93.522 268.442,-154.891 l -599.171,0 0,-75.517 712.17,0 49.609,51.814 c -113.551,84.153 -228.203,156.914 -343.958,218.282" /><path
         inkscape:connector-curvature="0"
         id="path3421"
         style="font-size:40px;font-style:normal;font-weight:normal;line-height:125%;letter-spacing:0px;word-spacing:0px;fill:#000000;fill-opacity:1;stroke:none;font-family:Sans"
         d="m 45612.511,15275.139 17.639,79.375 c -44.098,26.459 -89.665,49.977 -136.701,70.556 l 0,366.006 c 0,29.399 -9.555,50.712 -28.664,63.942 -19.108,13.228 -47.772,19.843 -85.989,19.843 -29.398,0 -57.327,-1.47 -83.785,-4.41 l -13.229,-83.784 c 20.579,2.94 45.567,4.409 74.965,4.409 32.338,0 48.507,-4.409 48.507,-13.229 l 0,-317.5 c -35.278,14.7 -70.555,27.929 -105.833,39.688 l -30.868,-83.785 c 47.037,-17.638 92.604,-33.807 136.701,-48.507 l 0,-185.208 c 55.856,-64.675 105.833,-127.881 149.931,-189.618 l -273.403,0 0,-74.966 366.007,0 0,83.785 c -47.038,79.376 -98.484,154.341 -154.34,224.896 l 0,105.833 119.062,-57.326 m 299.861,-410.104 88.195,0 0,903.993 c 0,41.157 -6.616,69.821 -19.844,85.99 -13.23,16.168 -37.483,24.253 -72.761,24.253 -44.097,0 -85.255,-5.88 -123.472,-17.639 l -13.229,-88.194 c 44.097,14.699 89.664,22.048 136.701,22.048 2.94,0 4.41,-13.229 4.41,-39.687 l 0,-890.764 m 224.896,216.076 c 58.795,167.57 107.302,351.308 145.521,551.215 l -88.195,39.688 c -35.278,-205.787 -80.845,-390.995 -136.701,-555.625 l 79.375,-35.278 m -383.646,4.41 83.785,30.868 c -35.278,220.487 -79.376,407.165 -132.292,560.035 l -83.784,-52.917 c 55.856,-158.75 99.953,-338.078 132.291,-537.986" /><path
         inkscape:connector-curvature="0"
         id="path3423"
         style="font-size:40px;font-style:normal;font-weight:normal;line-height:125%;letter-spacing:0px;word-spacing:0px;fill:#000000;fill-opacity:1;stroke:none;font-family:Sans"
         d="m 13929.019,17545.23 c -143.684,-141.478 -215.526,-310.517 -215.525,-507.118 0,-194.762 71.841,-362.882 215.525,-504.362 l 88.194,0 c -145.889,143.684 -218.833,312.724 -218.832,507.118 0,192.559 72.943,360.679 218.832,504.362 l -88.194,0" /><path
         inkscape:connector-curvature="0"
         id="path3425"
         style="font-size:40px;font-style:normal;font-weight:normal;line-height:125%;letter-spacing:0px;word-spacing:0px;fill:#000000;fill-opacity:1;stroke:none;font-family:Sans"
         d="m 15045.23,17032.049 c -14.7,0.735 -74.598,3.675 -179.696,8.819 l -29.215,-76.619 c 58.796,0 99.77,-0.367 122.921,-1.102 l 61.185,-2.205 56.224,-55.673 c -70.188,-76.434 -135.599,-137.803 -196.232,-184.106 l 57.326,-57.326 c 20.946,18.007 44.28,39.872 70.004,65.595 54.754,-69.453 97.749,-134.496 128.985,-195.131 l 76.619,39.137 c -48.141,75.701 -100.873,143.868 -158.199,204.501 20.21,20.211 43.913,46.118 71.107,77.721 70.187,-74.597 128.248,-143.499 174.184,-206.706 l 74.414,45.2 c -76.804,93.707 -162.61,181.901 -257.418,264.583 l 141.111,-6.063 c 59.163,-2.94 99.034,-5.144 119.614,-6.615 -25.724,-41.524 -52.55,-78.456 -80.477,-110.794 l 64.492,-35.829 c 58.795,70.189 109.691,145.338 152.686,225.447 l -71.106,45.2 c -8.821,-19.844 -19.845,-42.076 -33.073,-66.697 -2.205,0.735 -6.432,1.286 -12.678,1.653 -5.881,0.368 -10.291,0.736 -13.229,1.102 -58.063,6.616 -142.031,13.23 -251.906,19.844 -9.187,20.212 -24.254,47.773 -45.2,82.682 l 264.584,0 47.404,44.098 c -40.055,78.64 -91.686,146.807 -154.891,204.501 73.862,44.097 164.629,79.742 272.3,106.935 l -56.775,78.273 c -109.141,-36.748 -200.459,-81.213 -273.954,-133.394 -86.725,66.146 -199.357,117.225 -337.895,153.238 l -51.814,-73.312 c 130.454,-21.314 240.697,-63.022 330.729,-125.126 -52.182,-44.097 -94.626,-88.929 -127.331,-134.496 -45.935,53.652 -92.604,96.646 -140.008,128.984 l -52.917,-55.673 c 103.26,-72.76 182.635,-162.975 238.125,-270.646 m 141.111,284.427 c 49.241,-44.832 85.621,-91.502 109.141,-140.009 l -248.047,0 c 34.175,46.302 80.477,92.972 138.906,140.009 m -444.831,-333.486 0,564.445 -77.721,0 0,-468.533 c -32.706,37.115 -67.8,72.026 -105.282,104.731 l -52.917,-58.429 c 113.55,-101.056 204.868,-218.097 273.954,-351.124 l 71.107,35.278 c -35.278,64.676 -71.658,122.554 -109.141,173.632 m -228.203,-170.325 c 108.038,-77.537 188.516,-165.18 241.433,-262.93 l 73.311,37.483 c -70.923,115.021 -158.566,210.565 -262.929,286.632 l -51.815,-61.185" /><path
         inkscape:connector-curvature="0"
         id="path3427"
         style="font-size:40px;font-style:normal;font-weight:normal;line-height:125%;letter-spacing:0px;word-spacing:0px;fill:#000000;fill-opacity:1;stroke:none;font-family:Sans"
         d="m 16514.219,16691.949 c -39.321,39.321 -89.849,75.517 -151.585,108.589 l 0,113 c 82.315,-8.084 175.286,-20.579 278.916,-37.483 l 2.757,58.98 c -159.486,30.501 -324.483,54.203 -494.991,71.107 l -28.112,-72.209 c 53.284,-3.675 109.324,-7.901 168.12,-12.678 l 0,-87.092 c -63.574,26.826 -148.644,50.528 -255.212,71.106 l -34.727,-67.799 c 183.371,-23.518 329.626,-74.23 438.767,-152.136 l -420.577,0 0,-65.594 450.343,0 0,-85.99 83.785,0 0,85.99 459.162,0 0,65.594 -431.05,0 c 31.97,52.55 71.473,96.28 118.511,131.19 50.344,-26.458 104.914,-63.022 163.711,-109.692 l 68.351,42.995 c -50.713,41.525 -107.121,76.435 -169.223,104.731 73.494,37.483 161.505,65.778 264.032,84.887 l -40.239,68.902 c -230.041,-52.917 -386.954,-158.382 -470.738,-316.398 m 115.204,411.207 0,59.531 c 0,17.639 25.172,26.459 75.517,26.458 36.747,0 59.346,-4.225 67.799,-12.678 4.041,-4.042 6.614,-19.476 7.717,-46.302 l 63.39,12.678 c -1.104,37.483 -7.902,64.125 -20.395,79.926 -11.025,14.332 -51.264,21.498 -120.716,21.498 -60.635,0 -99.403,-3.307 -116.307,-9.922 -15.067,-5.88 -22.6,-22.967 -22.599,-51.263 l 0,-79.926 -128.985,0 c -13.23,52.549 -35.094,92.788 -65.594,120.716 -31.971,29.766 -85.623,54.203 -160.955,73.311 l -37.483,-62.287 c 109.508,-19.108 173.816,-63.022 192.925,-131.74 l -200.642,0 0,444.279 -77.722,0 0,-509.874 856.589,0 0,425.538 c 0,51.079 -28.296,76.619 -84.887,76.619 -48.14,0 -87.644,-2.757 -118.511,-8.268 l -14.332,-77.721 c 31.97,7.716 66.88,11.575 104.731,11.575 23.518,0 35.277,-11.759 35.278,-35.278 l 0,-326.87 -234.818,0 m -239.227,351.675 0,48.507 -71.107,0 0,-236.472 392.465,0 0,187.965 -321.358,0 m 250.251,-57.326 0,-75.517 -250.251,0 0,75.517 250.251,0" /><path
         inkscape:connector-curvature="0"
         id="path3429"
         style="font-size:40px;font-style:normal;font-weight:normal;line-height:125%;letter-spacing:0px;word-spacing:0px;fill:#000000;fill-opacity:1;stroke:none;font-family:Sans"
         d="m 18052.109,16893.143 0,122.921 433.256,0 0,77.721 -426.641,0 0,338.446 c 0,30.868 -5.513,53.101 -16.537,66.697 -13.964,18.007 -45.016,27.01 -93.155,27.01 -38.585,0 -94.626,-3.308 -168.121,-9.922 l -17.087,-93.707 c 66.145,9.555 119.981,14.332 161.506,14.332 30.867,0 46.301,-13.78 46.302,-41.341 l 0,-301.515 -453.65,0 0,-77.721 447.035,0 0,-162.609 c 93.706,-41.892 183.187,-93.522 268.442,-154.891 l -599.171,0 0,-75.517 712.17,0 49.61,51.814 c -113.551,84.153 -228.204,156.914 -343.959,218.282" /><path
         inkscape:connector-curvature="0"
         id="path3431"
         style="font-size:40px;font-style:normal;font-weight:normal;line-height:125%;letter-spacing:0px;word-spacing:0px;fill:#000000;fill-opacity:1;stroke:none;font-family:Sans"
         d="m 19327.623,16965.903 17.639,79.375 c -44.1,26.459 -89.665,49.977 -136.703,70.556 l 0,366.006 c 0,29.399 -9.554,50.712 -28.663,63.942 -19.109,13.228 -47.772,19.843 -85.99,19.843 -29.398,0 -57.326,-1.47 -83.784,-4.41 l -13.23,-83.784 c 20.579,2.94 45.568,4.409 74.966,4.409 32.337,0 48.506,-4.409 48.507,-13.229 l 0,-317.5 c -35.278,14.7 -70.556,27.929 -105.834,39.688 l -30.868,-83.785 c 47.037,-17.638 92.604,-33.807 136.702,-48.507 l 0,-185.208 c 55.856,-64.675 105.833,-127.881 149.93,-189.618 l -273.403,0 0,-74.966 366.009,0 0,83.785 c -47.038,79.376 -98.485,154.341 -154.342,224.896 l 0,105.833 119.064,-57.326 m 299.861,-410.104 88.194,0 0,903.993 c 0,41.157 -6.615,69.821 -19.846,85.99 -13.227,16.168 -37.481,24.253 -72.759,24.253 -44.097,0 -85.254,-5.88 -123.472,-17.639 l -13.228,-88.194 c 44.094,14.699 89.662,22.048 136.7,22.048 2.938,0 4.408,-13.229 4.411,-39.687 l 0,-890.764 m 224.894,216.076 c 58.796,167.57 107.304,351.308 145.523,551.215 l -88.195,39.688 c -35.28,-205.787 -80.848,-390.995 -136.703,-555.625 l 79.375,-35.278 m -383.644,4.41 83.783,30.868 c -35.278,220.487 -79.375,407.165 -132.291,560.035 l -83.784,-52.917 c 55.855,-158.75 99.952,-338.078 132.292,-537.986" /><path
         inkscape:connector-curvature="0"
         id="path3433"
         style="font-size:40px;font-style:normal;font-weight:normal;line-height:125%;letter-spacing:0px;word-spacing:0px;fill:#000000;fill-opacity:1;stroke:none;font-family:Sans"
         d="m 21049.619,16795.577 310.334,0 0,395.222 -249.702,0 0,276.71 c 0,51.814 -28.479,77.721 -85.437,77.721 -47.038,0 -90.401,-2.94 -130.087,-8.819 l -14.882,-80.478 c 41.523,8.452 80.292,12.678 116.307,12.678 22.781,0 34.174,-12.494 34.174,-37.482 l 0,-240.33 -273.403,0 0,-395.222 214.421,0 c 12.494,-35.644 22.784,-70.187 30.87,-103.628 l -350.021,0 0,223.242 c 0,179.329 -8.269,312.539 -24.807,399.631 -15.065,81.213 -42.627,159.118 -82.68,233.716 l -70.005,-62.839 c 62.47,-117.225 93.706,-290.49 93.706,-519.796 l 0,-349.47 890.764,0 0,75.516 -371.52,0 c -12.861,39.688 -25.538,74.231 -38.032,103.628 m 232.613,63.39 -447.588,0 0,99.219 447.588,0 0,-99.219 m -447.588,163.711 0,103.629 447.588,0 0,-103.629 -447.588,0 m 563.341,467.431 c -66.881,-87.46 -134.862,-159.301 -203.948,-215.525 l 62.837,-49.61 c 79.008,62.839 149.011,130.822 210.013,203.95 l -68.902,61.185 m -744.691,-36.38 c 75.334,-59.532 138.17,-133.211 188.516,-221.038 l 73.313,37.483 c -56.961,97.749 -122.922,178.961 -197.889,243.637 l -63.94,-60.082" /><path
         inkscape:connector-curvature="0"
         id="path3435"
         style="font-size:40px;font-style:normal;font-weight:normal;line-height:125%;letter-spacing:0px;word-spacing:0px;fill:#000000;fill-opacity:1;stroke:none;font-family:Sans"
         d="m 22177.957,16831.958 -195.131,0 0,-73.312 437.114,0 0,-202.296 85.988,0 0,202.296 445.383,0 0,73.312 -212.217,0 c -42.997,169.407 -110.981,306.843 -203.951,412.309 106.201,80.845 243.454,143.683 411.757,188.515 l -63.387,84.336 c -166.836,-53.651 -302.802,-125.493 -407.902,-215.525 -120.898,104.731 -265.133,183.004 -432.703,234.818 l -60.082,-83.785 c 183.004,-44.097 327.604,-112.448 433.807,-205.052 -103.63,-106.935 -183.188,-245.474 -238.676,-415.616 m 84.887,0 c 49.976,148.461 120.165,267.707 210.563,357.738 81.579,-95.176 139.824,-214.422 174.735,-357.738 l -385.298,0" /><path
         inkscape:connector-curvature="0"
         id="path3437"
         style="font-size:40px;font-style:normal;font-weight:normal;line-height:125%;letter-spacing:0px;word-spacing:0px;fill:#000000;fill-opacity:1;stroke:none;font-family:Sans"
         d="m 23912.631,16721.163 c 22.783,-45.933 42.993,-92.603 60.632,-140.008 l 71.109,27.009 c -42.997,98.485 -90.768,186.312 -143.318,263.481 l 144.419,0 0,67.8 -196.232,0 c -2.202,1.837 -4.042,4.042 -5.512,6.614 -28.296,33.809 -64.127,71.107 -107.487,111.897 l 251.906,0 0,485.069 -73.313,0 0,-48.507 -251.906,0 0,55.122 -73.31,0 0,-369.865 c -24.254,17.639 -63.39,43.913 -117.41,78.823 l -46.302,-59.531 c 113.183,-62.838 221.59,-147.174 325.216,-253.008 l -298.207,0 0,-67.799 230.409,0 0,-135.599 -168.12,0 0,-65.595 173.632,0 0,-145.521 74.413,0 0,145.521 149.381,0 0,44.097 m -9.923,21.498 -146.07,0 0,135.599 52.917,0 c 33.437,-44.097 63.203,-87.827 89.295,-131.189 l 3.858,-4.41 m -239.779,380.89 0,114.652 251.906,0 0,-114.652 -251.906,0 m 0,179.144 0,126.229 251.906,0 0,-126.229 -251.906,0 m 660.908,-332.934 c 88.561,90.768 132.842,187.046 132.842,288.837 0,90.4 -36.565,135.599 -109.692,135.599 -40.055,0 -77.537,-2.387 -112.448,-7.165 l -13.778,-82.132 c 39.319,8.452 74.227,12.678 104.73,12.678 25.354,0 40.422,-8.635 45.2,-25.907 2.202,-9.187 3.305,-21.681 3.308,-37.483 0,-95.543 -45.754,-188.147 -137.253,-277.812 45.198,-91.501 80.109,-187.78 104.73,-288.837 l -173.632,0 0,859.896 -77.721,0 0,-931.002 305.923,0 41.34,38.585 c -38.585,129.72 -76.434,234.634 -113.549,314.743" /><path
         inkscape:connector-curvature="0"
         id="path3439"
         style="font-size:40px;font-style:normal;font-weight:normal;line-height:125%;letter-spacing:0px;word-spacing:0px;fill:#000000;fill-opacity:1;stroke:none;font-family:Sans"
         d="m 25516.116,16792.27 -66.698,0 c -42.627,119.063 -97.564,224.713 -164.812,316.949 l -58.982,-60.634 c 98.118,-133.026 168.12,-303.167 210.013,-510.425 l 81.582,15.985 c -12.864,62.105 -26.828,116.675 -41.893,163.711 l 459.715,0 0,74.414 -336.243,0 0,163.711 282.223,0 0,74.414 -282.223,0 0,162.609 299.311,0 0,73.311 -299.311,0 0,281.12 -82.682,0 0,-755.165 m -330.728,19.293 0,735.872 -81.029,0 0,-572.161 -4.411,8.819 c -31.236,54.387 -66.698,107.12 -106.384,158.199 l -48.508,-67.8 c 110.244,-146.99 191.09,-321.541 242.536,-523.654 l 83.233,20.946 c -22.417,79.743 -50.896,159.669 -85.437,239.779" /><path
         inkscape:connector-curvature="0"
         id="path3441"
         style="font-size:40px;font-style:normal;font-weight:normal;line-height:125%;letter-spacing:0px;word-spacing:0px;fill:#000000;fill-opacity:1;stroke:none;font-family:Sans"
         d="m 26703.983,16639.032 87.094,0 0,323.012 c 0,158.016 -26.458,280.202 -79.375,366.559 -47.405,80.11 -117.41,143.316 -210.013,189.618 l -61.736,-71.107 c 107.304,-47.404 180.614,-116.49 219.933,-207.257 29.399,-69.085 44.097,-163.159 44.097,-282.222 l 0,-318.603 m 307.03,-9.37 85.987,0 0,729.257 c 0,20.579 6.432,33.808 19.293,39.688 15.802,5.88 42.81,8.819 81.029,8.819 64.307,0 100.505,-12.126 108.591,-36.38 6.612,-18.741 12.307,-76.619 17.085,-173.632 l 87.644,29.765 c -6.615,129.719 -21.313,206.522 -44.097,230.408 -21.683,21.681 -78.824,32.522 -171.427,32.522 -71.659,0 -118.697,-4.594 -141.111,-13.781 -28.666,-12.494 -42.997,-41.341 -42.994,-86.54 l 0,-760.126" /><path
         inkscape:connector-curvature="0"
         id="path3443"
         style="font-size:40px;font-style:normal;font-weight:normal;line-height:125%;letter-spacing:0px;word-spacing:0px;fill:#000000;fill-opacity:1;stroke:none;font-family:Sans"
         d="m 28470.079,16893.143 0,122.921 433.254,0 0,77.721 -426.641,0 0,338.446 c 0,30.868 -5.512,53.101 -16.536,66.697 -13.964,18.007 -45.017,27.01 -93.156,27.01 -38.585,0 -94.626,-3.308 -168.119,-9.922 l -17.089,-93.707 c 66.147,9.555 119.981,14.332 161.507,14.332 30.867,0 46.302,-13.78 46.302,-41.341 l 0,-301.515 -453.65,0 0,-77.721 447.034,0 0,-162.609 c 93.707,-41.892 183.188,-93.522 268.445,-154.891 l -599.172,0 0,-75.517 712.171,0 49.609,51.814 c -113.552,84.153 -228.205,156.914 -343.959,218.282" /><path
         inkscape:connector-curvature="0"
         id="path3445"
         style="font-size:40px;font-style:normal;font-weight:normal;line-height:125%;letter-spacing:0px;word-spacing:0px;fill:#000000;fill-opacity:1;stroke:none;font-family:Sans"
         d="m 29926.941,16707.383 0,180.799 c 126.778,57.694 265.501,136.334 416.168,235.92 l -67.251,71.107 c -102.892,-77.905 -219.199,-152.503 -348.917,-223.794 l 0,576.02 -88.194,0 0,-840.052 -404.041,0 0,-78.824 946.986,0 0,78.824 -454.751,0" /><path
         inkscape:connector-curvature="0"
         id="path3447"
         style="font-size:40px;font-style:normal;font-weight:normal;line-height:125%;letter-spacing:0px;word-spacing:0px;fill:#000000;fill-opacity:1;stroke:none;font-family:Sans"
         d="m 31610.352,16966.454 0,319.154 -358.29,0 0,81.58 -77.721,0 0,-400.734 436.011,0 m -77.721,67.8 -280.569,0 0,183.554 280.569,0 0,-183.554 m 300.964,-433.807 0,833.989 c 0,32.338 -7.535,56.04 -22.6,71.107 -15.435,14.331 -47.405,21.497 -95.913,21.497 -58.429,0 -118.328,-2.204 -179.694,-6.614 l -19.293,-89.297 c 74.964,9.187 138.538,13.78 190.72,13.78 27.926,0 41.891,-13.229 41.891,-39.687 l 0,-731.463 -705.003,0 0,873.676 -84.886,0 0,-946.988 874.778,0 m -720.99,190.721 567.752,0 0,71.107 -567.752,0 0,-71.107" /><path
         inkscape:connector-curvature="0"
         id="path3449"
         style="font-size:40px;font-style:normal;font-weight:normal;line-height:125%;letter-spacing:0px;word-spacing:0px;fill:#000000;fill-opacity:1;stroke:none;font-family:Sans"
         d="m 32405.756,17545.23 c 145.889,-143.683 218.832,-312.355 218.832,-506.015 0,-192.19 -72.943,-360.678 -218.832,-505.465 l 88.194,0 c 143.682,141.48 215.525,309.968 215.525,505.465 0,195.865 -71.843,364.537 -215.525,506.015 l -88.194,0" /><path
         inkscape:connector-curvature="0"
         id="path3451"
         style="font-size:40px;font-style:normal;font-weight:normal;line-height:125%;letter-spacing:0px;word-spacing:0px;fill:#000000;fill-opacity:1;stroke:none;font-family:Sans"
         d="m 33912.777,17276.789 151.585,0 0,82.13 c 0,87.46 -30.133,158.934 -90.399,214.423 l -71.106,0 c 44.831,-44.832 71.106,-97.014 78.822,-156.545 l -68.902,0 0,-140.008" /><path
         inkscape:connector-curvature="0"
         id="path3453"
         style="font-size:40px;font-style:normal;font-weight:normal;line-height:125%;letter-spacing:0px;word-spacing:0px;fill:#000000;fill-opacity:1;stroke:none;font-family:Sans"
         d="m 35817.777,16667.144 0,880.291 -77.721,0 0,-233.715 c -102.159,28.663 -219.199,55.673 -351.124,81.028 l -27.008,-82.13 c 15.801,-2.205 38.032,-5.513 66.697,-9.923 l 41.89,-7.165 0,-628.386 -94.807,0 0,-71.106 528.064,0 0,71.106 -85.991,0 m -77.721,0 -194.028,0 0,148.828 194.028,0 0,-148.828 m 0,216.628 -194.028,0 0,148.828 194.028,0 0,-148.828 m 0,216.628 -194.028,0 0,183.003 c 39.689,-6.614 104.363,-19.109 194.028,-37.483 l 0,-145.52 m 455.857,-163.711 c 94.44,98.851 141.661,200.459 141.661,304.822 0,90.399 -39.138,135.599 -117.41,135.599 -42.994,0 -87.458,-3.859 -133.392,-11.576 l -14.885,-87.643 c 44.098,11.392 86.174,17.088 126.23,17.088 36.378,0 54.57,-21.13 54.57,-63.39 0,-101.424 -48.141,-196.232 -144.418,-284.427 52.18,-96.646 89.848,-189.25 112.999,-277.813 l -188.516,0 0,878.086 -79.926,0 0,-951.397 316.95,0 50.71,41.892 c -38.219,113.551 -79.742,213.137 -124.573,298.759" /><path
         inkscape:connector-curvature="0"
         id="path3455"
         style="font-size:40px;font-style:normal;font-weight:normal;line-height:125%;letter-spacing:0px;word-spacing:0px;fill:#000000;fill-opacity:1;stroke:none;font-family:Sans"
         d="m 36988.559,16555.799 79.375,26.458 c -5.878,20.58 -14.698,42.628 -26.458,66.146 l 171.981,0 0,74.965 c -14.701,41.158 -32.34,79.376 -52.917,114.653 l 105.833,0 0,467.431 -366.008,0 0,-418.924 c -8.82,11.76 -19.109,23.519 -30.867,35.278 l -39.689,-79.375 c 73.497,-91.134 126.413,-186.678 158.75,-286.632 m 83.786,282.222 c 23.518,-38.217 42.627,-76.434 57.325,-114.653 l -123.472,0 c -23.517,44.098 -47.038,82.316 -70.555,114.653 l 136.702,0 m -92.605,198.438 66.147,0 0,-123.473 -66.147,0 0,123.473 m 136.703,-123.473 0,123.473 70.555,0 0,-123.473 -70.555,0 m -136.703,321.91 66.147,0 0,-127.882 -66.147,0 0,127.882 m 136.703,-127.882 0,127.882 70.555,0 0,-127.882 -70.555,0 m 154.339,242.535 13.23,70.555 c -117.593,44.098 -249.885,82.315 -396.875,114.653 l -30.869,-88.194 c 152.871,-29.398 291.041,-61.736 414.514,-97.014 m 502.708,-798.16 39.689,79.375 -185.208,52.917 0,176.389 229.305,0 0,83.784 -194.028,0 c 23.518,138.172 92.603,277.813 207.256,418.924 l -70.556,66.146 c -85.256,-114.653 -142.581,-226.366 -171.977,-335.139 l 0,476.25 -88.195,0 0,-507.118 c -47.038,146.991 -108.774,267.523 -185.208,361.597 l -57.328,-70.555 c 94.073,-120.532 161.691,-257.234 202.847,-410.105 l -189.617,0 0,-83.784 229.306,0 0,-158.75 c -49.979,11.76 -104.366,22.049 -163.161,30.868 l -26.458,-83.785 c 152.868,-20.578 293.979,-52.916 423.333,-97.014" /><path
         inkscape:connector-curvature="0"
         id="path3457"
         style="font-size:40px;font-style:normal;font-weight:normal;line-height:125%;letter-spacing:0px;word-spacing:0px;fill:#000000;fill-opacity:1;stroke:none;font-family:Sans"
         d="m 39092.549,17148.355 c 60.999,66.146 146.439,120.165 256.314,162.058 l -56.224,67.799 c -124.206,-58.061 -219.383,-134.68 -285.53,-229.857 l -336.79,0 c -27.929,47.772 -65.414,92.421 -112.449,133.946 l 235.921,0 0,-89.297 81.026,0 0,89.297 246.394,0 0,63.389 -246.394,0 0,108.039 415.617,0 0,66.697 -894.071,0 0,-66.697 397.428,0 0,-108.039 -238.125,0 0,-61.185 c -47.775,41.158 -104.916,78.089 -171.43,110.795 l -56.775,-60.083 c 114.653,-44.097 201.194,-106.384 259.622,-186.862 l -244.737,0 0,-64.492 244.737,0 0,-368.212 -199.54,0 0,-63.39 199.54,0 0,-120.716 79.928,0 0,120.716 335.689,0 0,-120.716 79.926,0 0,120.716 207.808,0 0,63.39 -207.808,0 0,368.212 253.009,0 0,64.492 -243.086,0 m -89.849,-432.704 -335.689,0 0,81.029 335.689,0 0,-81.029 m 0,142.214 -335.689,0 0,81.028 335.689,0 0,-81.028 m 0,142.213 -335.689,0 0,83.785 335.689,0 0,-83.785" /><path
         inkscape:connector-curvature="0"
         id="path3459"
         style="font-size:40px;font-style:normal;font-weight:normal;line-height:125%;letter-spacing:0px;word-spacing:0px;fill:#000000;fill-opacity:1;stroke:none;font-family:Sans"
         d="m 40117.808,16613.125 184.108,0 0,60.083 -184.108,0 0,69.453 232.614,0 0,61.185 -224.895,0 0,165.915 c 0,42.261 -23.704,63.391 -71.109,63.39 -22.783,0 -48.689,-1.837 -77.721,-5.512 l -6.615,-64.492 c 19.109,5.145 37.485,7.717 55.124,7.717 18.005,0 27.008,-8.635 27.008,-25.907 l 0,-141.111 -234.817,0 0,-61.185 224.894,0 0,-211.116 75.517,0 0,81.58 m 512.079,251.354 c 58.795,44.833 126.596,81.764 203.4,110.795 l -52.917,66.697 c -82.316,-41.892 -149.38,-84.519 -201.193,-127.882 -55.858,49.242 -131.008,91.869 -225.448,127.882 l -47.405,-63.39 c 93.34,-29.03 167.386,-65.962 222.14,-110.794 -62.472,-62.103 -109.141,-135.047 -140.007,-218.833 l -48.509,0 0,-65.594 389.71,0 40.239,35.277 c -38.955,101.792 -85.623,183.739 -140.01,245.842 m -51.814,-44.097 c 39.686,-46.301 72.76,-103.444 99.218,-171.428 l -218.832,0 c 22.784,57.327 62.656,114.47 119.614,171.428 m 112.999,245.291 0,481.762 -79.925,0 0,-45.199 -571.61,0 0,45.199 -78.825,0 0,-481.762 730.36,0 m -651.535,60.082 0,65.595 571.61,0 0,-65.595 -571.61,0 m 0,122.921 0,65.595 571.61,0 0,-65.595 -571.61,0 m 0,122.921 0,69.454 571.61,0 0,-69.454 -571.61,0 m 201.193,-384.748 c -20.579,-44.097 -48.875,-87.826 -84.887,-131.189 l 61.183,-31.419 c 35.278,37.483 64.677,78.457 88.195,122.921 l -64.491,39.687 m -418.925,11.024 c 42.627,-47.036 76.068,-102.341 100.322,-165.915 l 63.39,29.214 c -26.825,70.924 -62.103,131.19 -105.834,180.799 l -57.878,-44.098" /><path
         inkscape:connector-curvature="0"
         id="path3461"
         style="font-size:40px;font-style:normal;font-weight:normal;line-height:125%;letter-spacing:0px;word-spacing:0px;fill:#000000;fill-opacity:1;stroke:none;font-family:Sans"
         d="m 42295.661,16738.251 c -7.719,382.544 -23.52,620.669 -47.405,714.375 -8.819,36.38 -26.828,60.817 -54.02,73.312 -20.21,8.452 -49.242,12.678 -87.091,12.678 -50.346,0 -98.117,-2.571 -143.315,-7.717 l -15.985,-85.99 c 57.691,9.187 109.691,13.781 155.992,13.781 34.175,0 55.671,-10.474 64.494,-31.42 23.148,-55.489 38.215,-243.821 45.198,-564.995 l 1.1,-49.61 -287.183,0 c -33.808,80.846 -76.251,152.32 -127.331,214.423 l -54.02,-62.287 c 77.538,-94.441 135.049,-230.591 172.531,-408.451 l 81.579,21.497 c -12.494,57.695 -27.192,111.163 -44.097,160.404 l 339.55,0 m -813.043,-18.19 13.781,-40.79 c 12.494,-38.952 22.598,-82.13 30.317,-129.536 l 85.99,12.127 c -21.316,72.394 -38.955,125.127 -52.917,158.199 l 176.939,0 0,684.058 -305.923,0 0,80.478 -77.724,0 0,-764.536 129.537,0 m -51.813,70.004 0,228.203 228.202,0 0,-228.203 -228.202,0 m 0,296.003 0,248.047 228.202,0 0,-248.047 -228.202,0 m 593.107,155.443 c -48.141,-91.869 -98.301,-167.753 -150.484,-227.652 l 57.879,-45.2 c 60.632,67.616 113.182,142.03 157.649,223.242 l -65.044,49.61" /><path
         inkscape:connector-curvature="0"
         id="path3463"
         style="font-size:40px;font-style:normal;font-weight:normal;line-height:125%;letter-spacing:0px;word-spacing:0px;fill:#000000;fill-opacity:1;stroke:none;font-family:Sans"
         d="m 43322.024,17217.257 c -114.653,124.942 -266.607,221.956 -455.857,291.042 l -48.505,-64.492 c 203.214,-66.881 363.801,-166.1 481.762,-297.657 -8.82,-18.741 -19.293,-37.666 -31.42,-56.775 -101.055,94.442 -230.039,172.715 -386.952,234.818 l -48.508,-63.39 c 148.093,-44.097 280.385,-118.143 396.875,-222.14 -16.906,-19.108 -31.053,-34.542 -42.444,-46.302 -105.466,67.249 -212.033,116.123 -319.704,146.624 l -44.097,-61.737 c 146.256,-39.319 276.527,-101.423 390.81,-186.31 l -234.818,0 0,-67.8 646.577,0 0,67.8 -210.013,0 c 23.151,79.375 52.917,150.114 89.295,212.218 73.864,-55.856 131.742,-109.692 173.635,-161.506 l 68.902,49.609 c -51.08,53.284 -115.39,107.12 -192.925,161.506 l -12.68,8.819 c 67.248,94.075 150.851,173.45 250.805,238.125 l -62.289,76.619 c -193.661,-155.075 -322.645,-350.205 -386.952,-585.39 l -23.704,0 c -22.047,19.477 -47.955,40.606 -77.721,63.389 115.756,102.159 173.634,232.981 173.634,392.466 0,65.043 -7.902,113.918 -23.703,146.623 -16.903,36.013 -55.672,54.019 -116.307,54.019 -36.748,0 -75.147,-2.571 -115.203,-7.717 l -15.435,-82.131 c 46.671,9.555 86.174,14.332 118.514,14.332 33.807,0 55.12,-12.862 63.94,-38.585 6.982,-20.212 10.473,-47.956 10.473,-83.234 0,-41.892 -5.328,-86.173 -15.985,-132.843 m 18.74,-551.215 417.271,0 0,213.32 -81.029,0 0,-144.418 -748.549,0 0,144.418 -82.683,0 0,-213.32 411.206,0 0,-134.497 83.784,0 0,134.497" /><path
         inkscape:connector-curvature="0"
         id="path3465"
         style="font-size:40px;font-style:normal;font-weight:normal;line-height:125%;letter-spacing:0px;word-spacing:0px;fill:#000000;fill-opacity:1;stroke:none;font-family:Sans"
         d="m 44443.194,16555.799 c 41.16,55.857 74.967,114.653 101.425,176.389 l -83.786,48.507 c -23.517,-61.736 -55.854,-120.532 -97.014,-176.389 l 79.375,-48.507 m -158.75,326.319 207.259,0 0,502.709 c 23.517,-23.519 47.035,-51.447 70.555,-83.785 l 57.325,52.917 c -35.278,55.856 -83.783,108.773 -145.519,158.75 l -61.736,-57.327 0,-493.889 -127.884,0 0,-79.375 m 489.481,-330.729 c 26.458,41.158 48.505,86.725 66.144,136.701 l 158.75,0 c 29.399,-47.036 51.447,-92.603 66.148,-136.701 l 92.602,22.049 c -17.639,44.098 -35.277,82.315 -52.916,114.652 l 163.161,0 0,74.966 -207.259,0 0,233.715 238.125,0 0,79.375 -740.833,0 0,-79.375 229.306,0 0,-233.715 -194.028,0 0,-74.966 154.342,0 c -14.701,-38.216 -30.87,-72.024 -48.509,-101.423 l 74.967,-35.278 m 92.603,445.382 114.652,0 0,-233.715 -114.652,0 0,233.715 m 330.73,-207.257 70.556,39.688 c -23.521,58.796 -55.858,108.773 -97.014,149.93 l -70.556,-44.097 c 44.095,-47.037 76.435,-95.543 97.014,-145.521 m -533.578,4.41 c 35.278,41.158 66.148,88.195 92.606,141.111 l -79.375,35.278 c -20.58,-55.856 -48.508,-104.363 -83.786,-145.521 l 70.555,-30.868 m 529.167,343.958 0,432.153 -79.375,0 0,-44.097 -374.825,0 0,44.097 -88.194,0 0,-432.153 542.394,0 m -454.2,158.75 374.825,0 0,-83.785 -374.825,0 0,83.785 m 0,149.931 374.825,0 0,-79.375 -374.825,0 0,79.375" /><path
         inkscape:connector-curvature="0"
         id="path3467"
         style="font-size:40px;font-style:normal;font-weight:normal;line-height:125%;letter-spacing:0px;word-spacing:0px;fill:#000000;fill-opacity:1;stroke:none;font-family:Sans"
         d="m 46213.148,16874.952 133.393,0 0,133.395 -133.393,0 0,-133.395 m 0,402.939 133.393,0 0,133.394 -133.393,0 0,-133.394" /></g></g></svg>