<?xml version="1.0" encoding="UTF-8" standalone="no"?>
<!-- Created with Inkscape (http://www.inkscape.org/) -->

<svg
   xmlns:dc="http://purl.org/dc/elements/1.1/"
   xmlns:cc="http://creativecommons.org/ns#"
   xmlns:rdf="http://www.w3.org/1999/02/22-rdf-syntax-ns#"
   xmlns:svg="http://www.w3.org/2000/svg"
   xmlns="http://www.w3.org/2000/svg"
   version="1.1"
   width="148.28125"
   height="177.65625"
   viewBox="0 0 118.625 142.12499"
   id="svg2"
   style="fill-rule:evenodd">
  <metadata
     id="metadata72">
    <rdf:RDF>
      <cc:Work
         rdf:about="">
        <dc:format>image/svg+xml</dc:format>
        <dc:type
           rdf:resource="http://purl.org/dc/dcmitype/StillImage" />
        <dc:title></dc:title>
      </cc:Work>
    </rdf:RDF>
  </metadata>
  <defs
     id="defs4">
    <marker
       markerUnits="strokeWidth"
       refX="0"
       refY="5"
       markerWidth="4"
       markerHeight="3"
       orient="auto"
       viewBox="0 0 10 10"
       id="ArrowEnd">
      <path
         d="M 0,0 10,5 0,10 z"
         id="path7" />
    </marker>
    <marker
       markerUnits="strokeWidth"
       refX="10"
       refY="5"
       markerWidth="4"
       markerHeight="3"
       orient="auto"
       viewBox="0 0 10 10"
       id="ArrowStart">
      <path
         d="M 10,0 0,5 10,10 z"
         id="path10" />
    </marker>
  </defs>
  <path
     d="m 52.25,18.249964 3,-6.5 3,-5.1250001 4.25,-3.625 4.125,-1.875 L 70.875,-3.6104905e-5 74.5,0.9999639 l 1.875,1.875 1.375,3.25 0.5,2.875 0.125,3.2500001 -0.5,4.75 -1,3.25 -1.375,3.25 -2.375,3.125 -2.75,2.75 -2.75,1.5 -3.25,0.875 -3.625,0 -2.5,-1.25 -2.25,-1.5 -1.875,-2 -1.375,-3.125 -1.375,-0.125 -2.75,1.125 -2.875,2.375 -1.875,0.375 -1.375,-0.625 -0.75,-2.125 0.375,-1.5 1.375,-1.5 3.25,-1.25 3.25,-1 2.25,-1.375 z"
     id="path32"
     style="fill:#000000;stroke:none" />
  <path
     d="m 54.5,36.374964 3.5,-1.75 4.5,-0.5 3.25,0.125 3.25,1.25 2,1.75 1.25,2.375 0.125,3.375 -0.625,2.75 -0.875,2.875 -2.25,3.25 -0.875,2.625 0,2.25 0.5,2.25 1.625,2 3.25,3.5 2.375,3 1.125,3 0.25,2.75 -0.5,2.875 -1.625,2.5 -1.375,2.125 -2.375,1.875 -2.5,1.375 -4.125,0.5 -3.75,0 -2.875,-0.875 -2.75,-1.375 -2.75,-2.25 -2.875,-3.875 -2.125,-4 -1.5,-4.625 -1,-5.125 0,-6 1,-5.5 1.375,-4.75 1.875,-3.625 2.25,-2.875 2.875,-2.375 0.375,-0.875 z"
     id="path34"
     style="fill:#000000;stroke:none" />
  <path
     d="m 46.25,36.999964 7.5,2.625 5.375,2.375 2.5,3.25 -1.5,4.25 -6,1.75 -4.625,-2.875 -5.625,-6.875 -6.5,-5.625 -5.375,-4.625 -3.875,-0.75 -4,1.625 -4.375,2.5 -3,2.75 -1.125,3.125 0,0.625 1.875,4.125 0.375,2.75 -1.75,0.875 -2.875,-0.5 -1.375,-1.875 0,-3 0.625,-3.875 -0.125,-3.125 -1.75,-1 -3.25,-0.375 -3.625,0.75 -2.625,-0.375 -1.125,-1.75 0,-2 2,-1.25 2.625,-0.25 -0.25,-1.75 1.5,-1 2.75,0.5 2,2 2.625,1.75 2.5,0.5 4.25,-1 4.375,-2.375 4.625,-2.25 3.75,-0.875 2.5,1.25 3.125,2.875 3.375,2.875 2.75,2.625 1.75,1.625 z"
     id="path36"
     style="fill:#000000;stroke:none" />
  <path
     d="m 66.5,37.249964 -3.5,2 -2.5,3.625 1.375,3.25 4.25,1.5 4.25,-1 6,-3.125 6,-3.25 5.625,-2.375 3.25,-0.125 2.75,0.125 1.5,2.25 2.625,3.25 2.375,4.125 0.875,3.375 0.25,3.125 -0.625,2.375 -1.75,1.875 -2.5,0.875 -2.25,1.75 -1,1.75 1,1.5 1.375,0.375 2.25,0.5 1.875,-1.75 1.875,-2.375 0.625,-1.75 1,-0.5 0.875,0 3.125,1.25 2,3.375 3.25,1.75 2.375,-0.75 0.25,-1.375 -1.25,-2.375 2.375,0.5 2.125,-1.375 -0.5,-2.5 -3.25,-1.25 -3.5,-0.125 -3.75,-0.5 -1.875,-1.875 -0.875,-3.5 -1,-5 -1.375,-3.25 -1.5,-3.75 -3.125,-3.375 -3.75,-2.75 -1.875,-0.5 -2.75,0.125 -5.25,1.375 -5.125,1.25 -5.875,1.625 -4.625,1.375 -2.125,0.25 z"
     id="path38"
     style="fill:#000000;stroke:none" />
  <path
     d="m 69.125,72.999964 2.875,3.125 3.25,3.25 2.625,3.875 1.5,4.125 1.25,5.375 0,5.125 -0.375,4.749996 -1.25,4.75 -1.375,4.625 -2.5,5.125 -1.75,4.5 -1.125,4.375 0,2.125 0.625,1.5 2.25,0.875 4.125,0.375 6.5,1 5.125,2.25 2.5,2.5 0,1.375 0,0.75 -1,1.125 -3.625,2.25 -2.375,-0.875 -1.875,-1.875 -2.5,-2.25 -5.875,-2.75 -4.125,-0.625 -2,1 -2.125,0.375 -1.625,-1.25 -1.375,-2 0.5,-2.875 1.125,-2.75 2.25,-3.5 1.375,-4.875 0.75,-5.375 1.125,-4.625 1.75,-3.25 0.625,-3.875 -1,-5.124996 -1.5,-5.625 -3.125,-4.5 -3.375,-3.25 -2.75,-3.875 0.125,-4.5 2.125,-2 2.5,-0.375 1.75,1.5 z"
     id="path40"
     style="fill:#000000;stroke:none" />
  <path
     d="m 48.5,83.624964 3.75,-7.25 3.75,-2.75 4.625,0.875 1.5,4 -0.5,4.25 -1.625,1.375 -4.125,4.75 -2.75,4.25 -1.75,4.5 -0.875,4.249996 0,5 1.75,6.5 1,3.375 0.25,4.5 -0.25,4.75 0.875,4.125 0.5,2.375 -0.875,1.875 -2.875,0.5 -4.75,-0.5 -5.625,-0.5 -4.625,0.875 -3.125,1 -2.375,0.625 -1.25,-1.5 -0.125,-1.75 1.375,-3 3.625,-2.125 3,0 5.125,0.375 4.125,0.875 1.875,-1.25 1.25,-2.875 -0.75,-4.25 -2,-6.125 -1.875,-5.375 -0.75,-3.875 0,-3.75 0.375,-3.249996 1.25,-4.5 1.125,-5.25 0.875,-3.25 0.875,-1.875 z"
     id="path42"
     style="fill:#000000;stroke:none" />
  <g
     transform="translate(-103.5,-689.76504)"
     id="g68" />
</svg>
