<?xml version="1.0" encoding="UTF-8" standalone="no"?>
<svg
   xmlns:dc="http://purl.org/dc/elements/1.1/"
   xmlns:cc="http://creativecommons.org/ns#"
   xmlns:rdf="http://www.w3.org/1999/02/22-rdf-syntax-ns#"
   xmlns:svg="http://www.w3.org/2000/svg"
   xmlns="http://www.w3.org/2000/svg"
   xmlns:sodipodi="http://sodipodi.sourceforge.net/DTD/sodipodi-0.dtd"
   xmlns:inkscape="http://www.inkscape.org/namespaces/inkscape"
   version="1.0"
   width="88.326752mm"
   height="63.500061mm"
   id="svg3433"
   inkscape:version="0.91 r13725"
   viewBox="0 0 88.326749 63.500061"
   sodipodi:docname="Menschengruppe.svg">
  <metadata
     id="metadata3544">
    <rdf:RDF>
      <cc:Work
         rdf:about="">
        <dc:format>image/svg+xml</dc:format>
        <dc:type
           rdf:resource="http://purl.org/dc/dcmitype/StillImage" />
        <dc:title></dc:title>
      </cc:Work>
    </rdf:RDF>
  </metadata>
  <sodipodi:namedview
     pagecolor="#ffffff"
     bordercolor="#666666"
     borderopacity="1"
     objecttolerance="10"
     gridtolerance="10"
     guidetolerance="10"
     inkscape:pageopacity="0"
     inkscape:pageshadow="2"
     inkscape:window-width="1280"
     inkscape:window-height="657"
     id="namedview3542"
     inkscape:document-units="mm"
     showgrid="false"
     fit-margin-top="0"
     fit-margin-left="0"
     fit-margin-right="0"
     fit-margin-bottom="0"
     inkscape:zoom="1.8457916"
     inkscape:cx="117.42191"
     inkscape:cy="128.35962"
     inkscape:window-x="-8"
     inkscape:window-y="-8"
     inkscape:window-maximized="1"
     inkscape:current-layer="svg3433" />
  <defs
     id="defs3435">
    <pattern
       id="WMFhbasepattern"
       patternUnits="userSpaceOnUse"
       width="6"
       height="6"
       x="0"
       y="0" />
  </defs>
  <g
     id="g3546"
     transform="matrix(-1,0,0,1,110.24306,-10.186468)">
    <path
       inkscape:connector-curvature="0"
       id="path3438"
       d="m 79.286947,20.549301 -0.308751,-2.337167 -0.529167,-1.411111 -0.881945,-1.058333 -0.793891,-0.617333 -1.10236,-0.176389 -1.234722,0.220472 -1.543473,0.749639 -0.969998,1.367028 -0.573476,1.411111 -0.308468,1.5875 0.08805,1.807972 0.220415,1.631611 0.617503,1.499306 0.617502,1.278805 0.793609,0.485084 0.925971,0.308694 0.749864,0.08817 1.058334,-0.308666 0.837635,-0.308666 0.926254,-1.234723 0.793608,-1.5875 0.48514,-1.190639 0,-0.970139 1.543474,0.220501 1.71958,0.264555 0.308751,-0.132278 0.308751,-0.926056 -0.352778,-1.146499 -0.793891,0.08817 -1.367084,0.308695 z"
       style="fill:#000000;fill-opacity:1;fill-rule:evenodd;stroke:none" />
    <path
       inkscape:connector-curvature="0"
       id="path3440"
       d="m 74.348058,29.898053 0.881662,0.13208 1.411111,0.48514 1.279031,0.61722 0.749582,0.749865 1.10236,1.322775 0.661529,1.367085 0.617503,1.190695 0.352777,2.601807 -0.04431,1.895969 -0.440831,1.719862 -0.48514,1.455138 -0.925971,1.367084 -1.058333,0.97028 -1.763889,1.190414 -1.543473,0.352777 -1.146387,0.08834 -1.367084,-0.397087 -0.926254,-1.23444 -0.705555,-1.235004 -0.08805,-1.895969 0.308751,-1.279031 0.61722,-0.969998 0.48514,-0.793891 0.308752,-0.749582 0.176388,-0.61722 -0.08834,-1.234722 -0.220416,-0.926254 -0.529166,-0.881662 -0.176389,-1.146669 -0.132362,-1.367084 0.352777,-1.234723 0.573476,-0.705555 0.837635,-0.61722 z"
       style="fill:#000000;fill-opacity:1;fill-rule:evenodd;stroke:none" />
    <path
       inkscape:connector-curvature="0"
       id="path3442"
       d="m 70.467502,32.808329 1.543191,-1.323058 1.279031,-0.220415 0.528885,1.367084 0,1.10236 -0.837636,0.617502 -1.675835,0.749582 -1.807916,0.837918 -1.367084,1.058334 -0.61722,0.749582 0.176389,0.793609 0.308751,0.617502 0.61722,0.881944 1.058333,1.058334 0.925971,1.058333 0.661529,0.749582 0.04403,0.661529 -0.04403,1.058333 -0.925971,0.48514 -1.278749,0.484858 -0.749864,0.617502 -0.48514,0.925972 0.264724,0.925971 -0.48514,0.705555 -0.793609,0.04431 -0.705555,-0.925971 0,-0.97028 0.61722,-1.323058 1.279031,-0.969998 1.675553,-0.793891 0.529167,-0.308469 -0.308751,-0.705555 -1.10236,-0.881945 -1.323058,-1.279031 -0.969998,-1.058333 -0.61722,-1.058333 0,-0.925971 0,-0.925972 0.837636,-0.925971 1.367084,-1.102642 1.411111,-1.190413 z"
       style="fill:#000000;fill-opacity:1;fill-rule:evenodd;stroke:none" />
    <path
       inkscape:connector-curvature="0"
       id="path3444"
       d="m 79.727778,30.956387 -2.469445,0.04403 -1.190695,0.440831 0.397086,1.543474 1.146387,0.61722 1.058333,0.264724 1.675836,-0.308751 2.337082,-0.705555 2.469445,-1.411112 1.851942,-1.278748 0.441113,-1.014307 0.308751,-0.749582 0.08805,-1.5875 0.529166,-2.778139 0.925971,-3.704167 1.058334,-1.940278 0.573475,-0.308666 2.513471,-0.661445 0.264443,-0.308694 -0.132363,-0.617361 -0.61722,0 -1.10236,0.485055 -1.014306,0.176389 -0.04403,-0.617333 0.793609,-0.837861 0.176389,-0.926028 -0.529167,-0.617389 -0.440831,0.396889 -0.308751,1.058333 -0.749582,0.705556 -0.441114,-0.308667 -0.529166,-1.058333 -0.529167,-0.926056 -0.529167,0.308667 -0.264442,0.617389 0.705556,0.926028 0.61722,1.102416 0.176389,1.234722 -0.308751,1.675723 -0.925972,2.425333 -0.881944,2.072555 -0.484858,2.116667 -0.617502,1.499334 -0.925971,1.411167 -1.543473,0.749583 -1.851943,0.48514 z"
       style="fill:#000000;fill-opacity:1;fill-rule:evenodd;stroke:none" />
    <path
       inkscape:connector-curvature="0"
       id="path3446"
       d="m 98.954167,27.737134 0.132362,-1.146499 -0.132362,-1.234723 -0.396805,-1.234722 -0.441113,-0.837861 -0.440831,-0.308695 -0.926254,-0.264555 -0.925971,-0.04411 -1.146386,0.485055 -0.749865,0.485084 -0.837635,1.058333 -0.617503,0.970139 -0.440831,1.411111 -0.308751,1.587359 -0.176389,1.235004 0.04403,1.190414 0.48514,1.146669 0.617502,0.61722 0.793609,0.441113 1.014307,0.04403 1.10236,-0.176389 0.793609,-0.352778 0.926253,-0.925971 0.61722,-1.411111 0.529167,-1.058334 1.234722,-0.48514 1.367078,-0.440831 0.92597,-0.441113 0.17639,-0.705556 -0.48514,-0.396861 -0.88166,0 -0.6175,0.881945 -1.146385,0.352778 z"
       style="fill:#000000;fill-opacity:1;fill-rule:evenodd;stroke:none" />
    <path
       inkscape:connector-curvature="0"
       id="path3448"
       d="m 92.824582,34.439856 1.499447,0 1.322775,0.529166 0.926254,1.014307 0.484858,1.146387 0.396804,1.367084 0.176671,1.807916 0,2.116666 -0.308751,1.896251 -0.308751,1.543474 -0.617502,1.367084 -0.573194,1.10236 -0.837917,1.014307 -0.749583,0.749582 -0.793609,0.529167 -1.10236,0.308751 -0.926253,0 -1.10236,-0.441114 -0.617502,-0.396804 -0.484858,-0.749582 -0.352778,-1.234722 0,-1.234723 0.176389,-1.014306 0.440831,-1.10236 0.97028,-1.058334 0.61722,-0.661529 0.132363,-0.881944 -0.08834,-1.234722 -0.220416,-1.10236 -0.308468,-1.058334 -0.08834,-1.499446 0.132362,-1.278749 0.573194,-0.793609 0.837917,-0.617502 z"
       style="fill:#000000;fill-opacity:1;fill-rule:evenodd;stroke:none" />
    <path
       inkscape:connector-curvature="0"
       id="path3450"
       d="m 90.531527,35.410136 1.058333,-0.617503 1.058333,0 0.617503,1.367085 -0.617503,1.234722 -1.10236,0.308751 -1.411111,0.176389 -1.852224,0.881944 -0.881662,1.058334 -0.793892,2.07264 -0.661528,2.866249 -0.264443,2.733886 -0.04403,1.763889 0.661246,0.925971 -0.308469,0.926254 -0.97028,0.61722 -0.925971,0.132362 -1.278749,-1.543473 0.308469,-1.058334 0.925971,-0.705555 0.529449,-1.366803 0.440831,-3.04292 0.440832,-2.733886 0.793891,-2.205002 1.455137,-1.940278 1.675836,-1.10236 z"
       style="fill:#000000;fill-opacity:1;fill-rule:evenodd;stroke:none" />
    <path
       inkscape:connector-curvature="0"
       id="path3452"
       d="m 95.073611,35.939302 -0.925971,0.529167 0,1.058333 0.04403,0.749582 1.10236,0.441114 1.146669,-0.308751 1.455137,-0.881945 2.733884,-1.852224 3.43972,-3.086665 1.1907,-1.411111 1.14639,-1.499446 0.52916,-0.837636 0.61751,0 0.61722,0.484858 0.83791,-0.13208 0.70556,-0.661529 0.52917,-1.05839 -0.35278,-1.411111 -0.70556,-0.881944 -0.0883,-0.793779 0.6175,-1.234722 -0.22042,-0.881944 -0.79389,-0.308667 -0.44083,1.190611 0,1.234722 -0.52917,1.411111 -0.70555,1.367028 -1.10264,1.411112 -1.05834,1.411111 -1.41111,1.367084 -1.67555,1.499165 -2.072638,1.5875 -1.807916,0.749864 -1.367084,0.440831 z"
       style="fill:#000000;fill-opacity:1;fill-rule:evenodd;stroke:none" />
    <path
       inkscape:connector-curvature="0"
       id="path3454"
       d="m 94.14764,52.563884 -0.176389,-2.293055 -0.573193,-1.543473 -1.014307,-0.705556 -1.10236,0.705556 -0.48514,1.234722 0.793609,0.925971 0.661529,2.028613 0.61722,2.866249 0.176671,3.439725 0.13208,2.557497 -0.264442,2.337365 -0.220416,2.866249 -0.308751,1.5875 -0.132362,0.749582 0.352778,0.61722 0.61722,0.441113 1.102642,-0.132362 1.366802,-0.13208 1.323058,0.440831 1.10236,0.440831 1.279031,0.132362 0.08805,-0.396804 -0.440831,-1.234722 -0.617502,-0.617502 -1.719862,0 -1.455138,-0.04403 -1.10236,-0.08805 -0.617502,-0.705556 0,-1.455138 0.48514,-2.293338 0.308751,-2.381108 0.176389,-2.733887 0,-2.55778 -0.176389,-2.469445 z"
       style="fill:#000000;fill-opacity:1;fill-rule:evenodd;stroke:none" />
    <path
       inkscape:connector-curvature="0"
       id="path3456"
       d="m 88.988053,49.829716 0.352778,-2.160694 0.97028,0.04403 1.367085,0.573475 0.308751,1.367085 -0.308751,1.366802 -0.573476,3.086947 -0.308469,3.395415 -0.176389,3.483751 0.08805,3.571805 0.264724,3.615831 0.308751,1.146669 0,0.749582 0.528885,0.617502 1.323057,1.014025 0.749583,0.97028 -0.484858,0.617502 -1.102642,0.396804 -0.969998,-0.264724 -0.352778,-0.440831 -0.264724,-1.234722 -0.661529,-1.102643 -0.661247,-0.793608 -0.308751,-0.749583 0.308751,-1.367084 0.264442,-1.499165 0,-2.601806 -0.13208,-2.822222 -0.308751,-2.381392 -0.220698,-2.337082 -0.08805,-2.293055 0,-2.425418 z"
       style="fill:#000000;fill-opacity:1;fill-rule:evenodd;stroke:none" />
    <path
       inkscape:connector-curvature="0"
       id="path3458"
       d="m 75.141667,45.287913 0,-1.543473 2.160693,-0.308751 1.146669,0.97028 0,1.851942 0.308469,6.041249 -0.440831,3.836529 -0.176389,5.335693 0,2.469445 0.04403,1.852224 0.573194,1.190696 0,0.793609 1.014306,1.058333 1.455138,1.234722 0.617502,0.308751 0,0.573194 -0.529166,0.48514 -1.5875,0.352777 -0.749582,-0.61722 -0.176389,-0.441113 -0.529167,-1.411111 -1.234722,-1.058333 -0.925971,-0.661529 -0.04431,-0.573194 0.176389,-1.10236 0.48514,-1.631809 0,-1.851942 -0.308751,-3.66014 -0.352778,-3.395415 -0.352778,-2.469445 -0.264442,-2.557498 -0.132362,-2.160975 z"
       style="fill:#000000;fill-opacity:1;fill-rule:evenodd;stroke:none" />
    <path
       inkscape:connector-curvature="0"
       id="path3460"
       d="m 71.261111,46.390273 0.396805,-2.469444 1.190695,0.04403 1.675553,0.661528 0.397087,1.5875 -0.397087,1.543474 -0.661246,3.527778 -0.397087,3.880555 -0.220415,3.968609 0.08834,4.056944 0.308751,4.14528 0.396805,1.278749 0,0.881945 0.705555,0.705555 1.5875,1.146387 0.925971,1.146669 -0.617502,0.661529 -1.322775,0.48514 -1.190696,-0.308751 -0.484858,-0.529167 -0.308751,-1.367084 -0.793891,-1.278749 -0.793609,-0.881945 -0.397087,-0.881944 0.397087,-1.5875 0.308469,-1.675836 0,-2.954584 -0.176107,-3.219027 -0.352777,-2.733887 -0.264725,-2.68986 -0.132362,-2.601806 0,-2.778196 z"
       style="fill:#000000;fill-opacity:1;fill-rule:evenodd;stroke:none" />
    <path
       inkscape:connector-curvature="0"
       id="path3488"
       d="m 59.663471,26.061468 -0.220415,-1.278834 -0.352778,-0.749666 -0.396805,-0.837834 -0.573193,-0.485055 -0.617502,-0.264611 -0.97028,-0.04408 -0.881662,0.220472 -0.926254,0.573278 -0.705555,0.749667 -0.573194,1.014222 -0.352777,1.102445 -0.264443,1.543389 -0.04431,1.675694 0.220416,1.455138 0.573476,1.058333 0.484857,0.573476 0.749865,0.220415 1.146386,0.264443 0.793892,-0.08805 0.881944,-0.529166 0.837918,-0.793892 0.61722,-1.190413 0.48514,-1.146669 0.352778,-1.190639 0.484857,-0.485055 0.882227,-0.617361 1.278749,-0.176389 0.969998,-0.132306 0.264724,-0.440944 0,-0.705556 -0.573475,-0.308694 -0.528885,0.04408 -0.749864,0.308695 -0.793609,0.485083 -0.793891,0.485055 z"
       style="fill:#000000;fill-opacity:1;fill-rule:evenodd;stroke:none" />
    <path
       inkscape:connector-curvature="0"
       id="path3490"
       d="m 55.474164,34.484164 0.926254,-0.08834 1.234722,0.132362 0.925971,0.484858 0.661529,0.882227 0.573193,0.793608 0.220416,0.793609 0.264724,1.367085 0.13208,1.411111 0.176671,1.675835 0.04403,1.763889 -0.176389,1.895969 -0.308751,1.675836 -0.441113,1.411111 -0.793609,1.058333 -0.617502,1.014307 -0.573194,0.793609 -0.793609,0.617502 -0.793891,0.308751 -0.837635,0.04403 -1.190696,0 -0.97028,-0.308751 -0.925971,-0.617503 -0.617502,-0.661246 -0.308469,-1.190696 -0.220416,-1.367084 0.176107,-1.5875 0.661529,-1.10236 0.749582,-0.881945 0.441114,-1.367084 0.04403,-1.146387 -0.176389,-1.323058 -0.440831,-1.367084 -0.04403,-1.851942 0.352777,-1.543474 0.573194,-1.058333 0.969997,-0.661247 z"
       style="fill:#000000;fill-opacity:1;fill-rule:evenodd;stroke:none" />
    <path
       inkscape:connector-curvature="0"
       id="path3492"
       d="m 48.992084,14.993051 0,-0.926027 -0.352777,-0.970168 -0.705556,-0.793721 -0.661529,-0.396889 0,-1.058334 0.881945,-0.661444 1.10236,0.04408 1.014306,0.881945 0.308751,1.411111 0.396805,0.396861 0.969998,-0.440944 0.661529,0.749638 -0.529167,1.543417 -1.10236,0.970111 -1.411111,1.234722 -1.058334,1.896195 -0.969997,2.160749 -0.617503,1.719806 -0.617502,1.367028 -0.08805,0.926028 0,1.499305 0.705555,1.675695 0.661529,1.234722 0.925971,1.631527 1.234723,1.411111 1.411111,1.367084 0.837918,0.793609 0.881944,0.705556 0.969998,0.837917 0.176389,2.249029 -0.925971,0.440831 -0.529167,-0.264442 -1.896251,-1.807915 -1.851942,-2.205003 -2.381392,-3.924582 -1.014024,-2.469444 -0.705556,-2.248973 -0.08833,-1.852055 0.573193,-1.719806 0.837918,-1.675694 1.367084,-2.160778 1.10236,-1.763889 0.352778,-0.970111 z"
       style="fill:#000000;fill-opacity:1;fill-rule:evenodd;stroke:none" />
    <path
       inkscape:connector-curvature="0"
       id="path3494"
       d="m 57.326389,34.924996 1.322775,0.04403 1.235005,0.793891 1.499164,1.499165 1.10236,1.278749 1.279031,1.631809 0.881663,1.322775 0.220697,0.97028 -0.04403,0.61722 -0.48514,0.352778 -1.102642,0.573475 -1.278749,0.837636 -0.61722,0.308751 -0.441114,0.396805 0.176389,0.617502 0.573476,0.529166 1.146386,0.61722 1.278749,0.396805 0.617503,0 0.440831,0.705555 -0.48514,0.397087 -0.925971,0 -1.543474,-0.573193 -1.10236,-0.617502 -0.969998,-0.529167 -0.352777,-0.925971 -0.132363,-1.190696 0.617503,-0.661529 0.925971,-0.573193 1.190695,-0.661529 0.705556,-0.484858 0.220415,-0.705555 -0.220415,-0.882227 -1.235005,-0.925971 -1.455137,-0.969998 -1.367085,-0.881944 -1.322775,-0.97028 -0.661529,-0.573194 -0.176389,-0.661528 z"
       style="fill:#000000;fill-opacity:1;fill-rule:evenodd;stroke:none" />
    <path
       inkscape:connector-curvature="0"
       id="path3496"
       d="m 55.07736,48.859718 0.749582,-0.61722 0.882227,0.705555 0.749582,0.925971 0.484858,2.20472 0.48514,2.68986 -0.08805,2.778196 -0.08834,2.513471 -0.220416,2.734169 -0.352777,2.249029 -0.176389,1.10236 0.264724,0.749582 0.176107,0.661529 0.397087,0.441113 1.322775,0.793609 0.793891,0.573194 0.04403,0.308751 -0.176389,0.48514 -0.617502,0.573193 -0.705556,0.04403 -0.749582,-0.220416 -0.484858,-0.837918 -0.661529,-0.837917 -0.97028,-0.705556 -0.573193,-0.528884 -0.308751,-0.837918 0.48514,-0.925971 0.881944,-0.926254 0.176389,-1.234722 0.176389,-2.469444 -0.441113,-3.395416 -0.04403,-1.851942 -0.661529,-1.763889 -0.61722,-1.719862 -0.61722,-1.411111 -0.04431,-1.234723 z"
       style="fill:#000000;fill-opacity:1;fill-rule:evenodd;stroke:none" />
    <path
       inkscape:connector-curvature="0"
       id="path3498"
       d="m 52.784304,49.829716 1.146669,-0.396805 1.322776,0.705556 0.264724,1.543473 -0.48514,2.601807 -0.264724,2.601524 -0.220416,3.880556 -0.132362,2.160975 0.132362,3.219027 0,1.10236 0.176389,0.617502 1.146669,0.881945 1.014025,1.190413 0.441113,0.529449 -0.08834,0.528884 -1.146386,0.529449 -1.146387,-0.220698 -0.176671,-1.058333 -0.396805,-0.573193 -0.793608,-1.10236 -0.661529,-0.48514 -0.176389,-1.058334 0.396804,-0.881944 0.308751,-1.10236 0,-2.116667 -0.48514,-2.822222 -0.396804,-2.68986 -0.08805,-2.822222 0.08805,-2.601807 0,-1.367084 z"
       style="fill:#000000;fill-opacity:1;fill-rule:evenodd;stroke:none" />
    <path
       inkscape:connector-curvature="0"
       id="path3500"
       d="m 33.249164,49.256522 -0.793608,-0.705555 -0.881945,0.793891 -0.749582,1.014306 -0.48514,2.469445 -0.529167,2.998329 0.08834,3.086946 0.08805,2.822223 0.220416,3.042637 0.397086,2.513754 0.176107,1.190413 -0.308469,0.881945 -0.132362,0.749864 -0.440831,0.484858 -1.323058,0.881944 -0.837861,0.617502 -0.04408,0.352778 0.176388,0.529167 0.661529,0.661529 0.705556,0.04403 0.749582,-0.220697 0.48514,-0.969998 0.661247,-0.925971 1.014306,-0.793891 0.573476,-0.573194 0.352778,-0.97028 -0.48514,-1.014024 -0.925971,-1.014307 -0.176671,-1.367084 -0.176107,-2.733887 0.440831,-3.836529 0.04403,-2.07264 0.661529,-1.984304 0.661528,-1.852225 0.61722,-1.631526 0.04431,-1.366803 z"
       style="fill:#000000;fill-opacity:1;fill-rule:evenodd;stroke:none" />
    <path
       inkscape:connector-curvature="0"
       id="path3502"
       d="m 36.468473,28.574996 -0.441113,-1.940278 -0.61722,-1.322917 -0.617502,-0.837833 -0.61722,-0.749667 -0.97028,-0.529167 -0.749582,-0.08819 -0.837918,0.08819 -0.881945,0.39689 -0.837635,0.705555 -0.48514,0.793722 -0.264725,0.749667 -0.220415,1.146528 -0.08805,1.367084 0.264443,1.411111 0.220415,1.146387 0.749582,1.014306 0.749865,0.837918 1.014024,0.61722 0.749865,0.48514 0.969998,0 0.926253,-0.176389 0.749582,-0.61722 0.61722,-0.661529 0.352778,-1.058333 0.308751,-1.367084 1.10236,0.396804 0.881944,0.176389 0.617503,0 0.396804,-0.573193 0.08805,-0.97028 -0.61722,-0.176107 -1.190695,0 z"
       style="fill:#000000;fill-opacity:1;fill-rule:evenodd;stroke:none" />
    <path
       inkscape:connector-curvature="0"
       id="path3504"
       d="m 32.411529,35.18972 1.455138,-0.308751 1.367084,0.176389 1.014307,0.440831 0.793609,0.48514 0.440831,0.925971 0.48514,1.102642 0.48514,1.411111 0.264724,1.499165 0.04403,2.028613 0,1.984305 -0.352778,2.381108 -0.176389,1.279032 -0.48514,1.587217 -0.617502,0.793891 -0.925971,0.529167 -0.969998,0.352778 -1.10236,0.08805 -1.190695,-0.264442 -0.793892,-0.793891 -0.529166,-0.837636 -0.573194,-1.234722 -0.220415,-1.278749 0.220415,-1.014306 0.308752,-1.367085 0.61722,-1.278749 L 32.102778,42.77416 31.75,41.363049 31.176807,40.0843 l -0.308751,-1.10236 -0.04403,-1.234722 0.220415,-0.97028 0.440832,-0.661247 z"
       style="fill:#000000;fill-opacity:1;fill-rule:evenodd;stroke:none" />
    <path
       inkscape:connector-curvature="0"
       id="path3506"
       d="m 28.927778,40.393051 0.97028,-2.55778 0.749582,-1.23444 0.969998,-0.926253 0.793891,-0.352778 0.705555,0.441113 0.220416,2.249029 -1.10236,1.322776 -1.234722,1.367084 -1.279031,1.984305 -0.793609,1.719862 -0.573194,1.807915 -0.48514,1.896252 -0.661472,1.675553 -0.881944,1.411111 -0.352778,0.926253 0.308694,0.705556 -0.264583,0.837635 -0.529167,1.014307 -1.852083,-0.617502 -1.102416,-0.13208 -0.573278,-0.749582 -0.04411,-1.102643 1.278834,-0.749582 1.719777,-0.04403 0.881945,-1.543474 0.617389,-2.160693 0.529167,-2.160693 0.617333,-2.249029 0.881888,-1.852225 z"
       style="fill:#000000;fill-opacity:1;fill-rule:evenodd;stroke:none" />
    <path
       inkscape:connector-curvature="0"
       id="path3508"
       d="m 35.145416,35.365827 1.543473,0.441113 1.851942,0.441113 1.719862,0.176107 1.852225,0.132362 1.366802,-0.308469 0.705556,-1.058333 0.529448,-1.852224 0.573194,-3.836529 0,-3.219027 -0.397087,-0.970139 -0.793609,-0.749667 -0.837918,-0.617333 -0.220415,-0.793778 0.617502,-0.308666 0.61722,0.352777 1.234722,0.926056 0.529167,0 0.705556,-1.102444 0.529166,-1.058334 0.617502,0.08819 0.396805,0.308694 -0.396805,0.926028 -0.529448,1.102416 0.308751,0.308695 0.926253,-0.749639 0.61722,-0.749667 0.441113,-0.04411 0.573194,0.352778 -0.264725,0.749667 -1.058333,1.058333 -1.146387,0.749667 -1.234722,0.661444 -0.396804,1.234722 0.08805,3.042779 -0.08805,3.130974 -0.308752,1.939995 -0.48514,1.279031 -0.529166,0.881945 -0.837918,0.308469 -1.763889,0.220697 -2.645833,0.08805 -1.851942,-0.308751 -2.160694,-0.264443 -1.014306,-0.441113 -0.617503,-1.23444 0.08834,-0.793891 0.529167,-0.308751 z"
       style="fill:#000000;fill-opacity:1;fill-rule:evenodd;stroke:none" />
    <path
       inkscape:connector-curvature="0"
       id="path3510"
       d="m 35.498193,47.360271 1.146669,0.97028 0.749582,1.323058 0.48514,2.337082 0.308469,2.645833 -0.176106,3.395416 -0.617503,2.778196 -0.48514,2.469444 -0.48514,2.337082 -0.352777,1.940278 0.397086,1.058333 0.08805,0.837918 0.97028,0.881945 1.322775,1.014024 0.529167,0.573476 0,0.529166 -0.661247,0.440831 -1.499446,0.352778 -0.793892,-0.308469 -0.13208,-0.397086 -0.04403,-0.881945 -0.48514,-0.837635 -0.749865,-0.749865 -0.661246,-0.661247 -0.220416,-0.352777 0,-1.058334 0.661247,-0.837917 0.397086,-1.5875 0.61722,-2.160694 0.176389,-2.998893 -0.04403,-2.601525 -0.352778,-2.07264 -0.749582,-1.984304 -0.352778,-1.896251 -0.352778,-1.763889 -0.08834,-1.411111 0.48514,-1.10236 z"
       style="fill:#000000;fill-opacity:1;fill-rule:evenodd;stroke:none" />
  </g>
</svg>
