<?xml version="1.0" encoding="UTF-8" standalone="no"?>
<!-- Created with Inkscape (http://www.inkscape.org/) -->

<svg
   xmlns:dc="http://purl.org/dc/elements/1.1/"
   xmlns:cc="http://creativecommons.org/ns#"
   xmlns:rdf="http://www.w3.org/1999/02/22-rdf-syntax-ns#"
   xmlns:svg="http://www.w3.org/2000/svg"
   xmlns="http://www.w3.org/2000/svg"
   version="1.1"
   width="169.21875"
   height="353.4375"
   viewBox="0 0 135.37501 282.74999"
   id="svg2"
   style="fill-rule:evenodd">
  <metadata
     id="metadata30">
    <rdf:RDF>
      <cc:Work
         rdf:about="">
        <dc:format>image/svg+xml</dc:format>
        <dc:type
           rdf:resource="http://purl.org/dc/dcmitype/StillImage" />
        <dc:title></dc:title>
      </cc:Work>
    </rdf:RDF>
  </metadata>
  <defs
     id="defs4">
    <marker
       markerUnits="strokeWidth"
       refX="0"
       refY="5"
       markerWidth="4"
       markerHeight="3"
       orient="auto"
       viewBox="0 0 10 10"
       id="ArrowEnd">
      <path
         d="M 0,0 10,5 0,10 z"
         id="path7" />
    </marker>
    <marker
       markerUnits="strokeWidth"
       refX="10"
       refY="5"
       markerWidth="4"
       markerHeight="3"
       orient="auto"
       viewBox="0 0 10 10"
       id="ArrowStart">
      <path
         d="M 10,0 0,5 10,10 z"
         id="path10" />
    </marker>
  </defs>
  <g
     transform="translate(0,-558.89004)"
     id="g12">
    <path
       d="m 65.125,566.14 -6.625,-4.625 -14.25,-2.625 -14.125,3.125 -11.375,11 -7.5,14 -3.75,19.875 -2.875,28.625 0.875,29.125 2.875,15.625 4.75,12.5 6.625,7.875 11.75,0 14.25,-4.125 6.625,-13.125 -1,-21.375 -4.25,-14 -4.75,-21.875 -2.75,-9.875 1.875,-16.75 6.625,-4.625 7,0 L 67,588.64 69.375,579.265 67,569.89 65.125,566.14 z"
       id="path14"
       style="fill:#000000;stroke:none" />
    <path
       d="m 71.25,570.64 9,-7.375 12,-3.5 18,0.625 16.5,6.25 7.5,10.875 1.125,12 -4.625,8 -9,5.125 -13.5,2.25 -7.5,-1.75 -13,20.5 -3,-0.5 10.5,-21.625 -9.5,-2.375 -6,-5.125 -5.5,-6.875 -3.5,-8.5 0.5,-8 z"
       id="path16"
       style="fill:#000000;stroke:none" />
    <path
       d="m 59.875,582.765 5.125,6.25 2.5,10.25 0.5,20.375 -2,26.25 0.5,27.25 1,18.125 4.625,17.125 -1.125,10.25 -9.125,10.75 -8.125,1.125 -2.5,-4.5 3,-1.75 4.625,0 6.125,-3.375 1.5,-10.875 -2.125,-6.75 -6,-1.75 0,-11.375 3.5,-8.5 -0.5,-24.375 0,-20.5 0,-14.75 -2.5,-14.25 -4.625,-14.75 2.5,-5.125 3.125,-5.125 z"
       id="path18"
       style="fill:#000000;stroke:none" />
    <path
       d="m 22.75,684.265 8.5,0 6,3.5 2,12.5 0,20.5 -3,22.25 -6,10.25 -6,22.25 -4.5,18.875 0,18.25 0,12 16.5,-1.75 15,2.25 7.625,5.125 -3.625,9.75 -4.5,1.625 -4.5,-5.125 -8.5,-5.125 -12.5,0 -11.5,0.625 -5,-0.625 0,-4.5 2,-3.375 3,-14.375 0,-21.625 4,-20.5 3.5,-13.75 8.5,-15.875 0,-20.5 -4.5,-15.5 -4.5,-10.25 2,-6.875 z"
       id="path20"
       style="fill:#000000;stroke:none" />
    <path
       d="m 14,670.515 8.5,0 6,3.5 2,12.5 0,20.5 -3,22.25 -6,10.25 -6,22.125 -4.5,18.75 0,18.25 0,12 16.5,-1.75 15,2.25 7.625,5.125 -3.625,9.75 -4.5,1.625 -4.5,-5 -8.5,-5.125 -12.5,0 -11.5,0.5 -5,-0.5 0,-4.625 2,-3.375 3,-14.25 0,-21.625 4,-20.5 3.5,-13.625 8.5,-16 0,-20.5 -4.5,-15.375 -4.5,-10.25 2,-6.875 z"
       id="path22"
       style="fill:#000000;stroke:none" />
    <path
       d="m 50.875,571.265 5,6.25 2.5,10.25 0.5,20.5 -2,26.125 0.5,27.375 1,18.25 4.375,17 -0.875,10.25 -9,10.875 -8,1.125 -2.5,-4.5 3,-1.75 4.5,0 6,-3.375 1.5,-10.875 -2,-6.875 -6,-1.625 0,-11.375 3.5,-8.625 -0.5,-24.375 0,-20.5 0,-14.875 -2.5,-14.25 -4.5,-14.75 2.5,-5.125 3,-5.125 z"
       id="path24"
       style="fill:#000000;stroke:none" />
  </g>
  <g
     transform="translate(0,-558.89004)"
     id="g26" />
</svg>
