<?xml version="1.0" encoding="UTF-8" standalone="no"?>
<!-- Created with Inkscape (http://www.inkscape.org/) -->

<svg
   xmlns:dc="http://purl.org/dc/elements/1.1/"
   xmlns:cc="http://creativecommons.org/ns#"
   xmlns:rdf="http://www.w3.org/1999/02/22-rdf-syntax-ns#"
   xmlns:svg="http://www.w3.org/2000/svg"
   xmlns="http://www.w3.org/2000/svg"
   xmlns:sodipodi="http://sodipodi.sourceforge.net/DTD/sodipodi-0.dtd"
   xmlns:inkscape="http://www.inkscape.org/namespaces/inkscape"
   id="svg19005"
   sodipodi:docname="Anonymous_hand.svg"
   viewBox="0 0 298.5 102.55"
   sodipodi:version="0.32"
   version="1.0"
   inkscape:output_extension="org.inkscape.output.svg.inkscape"
   inkscape:version="0.91 r13725">
  <defs
     id="defs3590" />
  <sodipodi:namedview
     id="base"
     bordercolor="#666666"
     inkscape:pageshadow="2"
     inkscape:window-width="1280"
     pagecolor="#ffffff"
     inkscape:zoom="3.9597978"
     inkscape:window-x="-8"
     showgrid="false"
     borderopacity="1.0"
     inkscape:current-layer="layer1"
     inkscape:cx="149.25005"
     inkscape:cy="51.275249"
     inkscape:window-y="-8"
     inkscape:window-height="657"
     inkscape:pageopacity="0.0"
     inkscape:document-units="px"
     inkscape:window-maximized="1" />
  <g
     id="layer1"
     inkscape:label="Layer 1"
     inkscape:groupmode="layer"
     transform="translate(-189.75 -194.42)">
    <g
       id="g19034"
       transform="translate(102,-243)"
       style="fill:#ffffff">
      <g
         id="g2605"
         transform="matrix(13.267 0 0 13.267 -251.11 -480.19)"
         style="fill:#ffffff">
        <path
           id="path2607"
           sodipodi:nodetypes="cccccccccccc"
           style="fill:#ffffff"
           d="m25.68 74.205c2.467-0.113 6.731 0.475 8.988 1.448 1.135 0.255 2.088 1.249 3.29 1.103 0.98-0.19 1.864-0.703 2.852-0.867 1.16-0.294 2.564-0.114 3.447-1.084 1.122-1.006 2.49-1.731 3.544-2.853 0.435-1.429-0.509-1.974-2.653-0.575-1.701-0.294-2.985 1.401-4.315 1.158 1.013-0.224 1.696-1.458 0.484-2.294-1.209-0.645-2.663-0.092-3.911 0.206-1.358 0.517-2.607-0.441-3.87-0.783-1.362-0.554-6.259-0.368-7.676-0.21" />
        <path
           id="path2609"
           sodipodi:nodetypes="ccccccccccccccccccccccccccccccccc"
           style="stroke-linejoin:round;stroke:#000000;stroke-linecap:round;stroke-width:0.25684;fill:#ffffff"
           d="m40.494 72.504c-0.973 0.316-1.925 0.429-2.93 0.351-0.913 0.055-1.739 0.543-2.615 0.695m-9.236-4.118c2.533-0.13 1.5 0.062 3.952 0.029 1.417-0.158 2.571-0.354 3.933 0.201 1.263 0.341 2.512 1.3 3.869 0.783 1.249-0.298 2.703-0.852 3.912-0.206 1.212 0.835 0.049 2.269-1.08 2.33m-14.623 1.611c2.466-0.113 6.797 0.498 9.054 1.47 1.135 0.255 2.088 1.249 3.29 1.103 0.98-0.189 1.864-0.703 2.852-0.867 1.16-0.293 2.563-0.113 3.446-1.084 1.123-1.005 2.421-1.801 3.484-2.874-0.011-1.17-1.479-0.909-2.139-0.455-0.898 0.658-1.901 1.225-2.986 1.524-1.224 0.03-2.483 0.411-3.697 0.107-0.239-0.186 1.006-0.044 1.381-0.064l0.112 0.001 0.112-0.001m7.267-1.56c0.446-1.38-1.657-0.906-2.14-0.212-1.158 0.581-2.314 1.237-3.576 1.549-0.519 0.057-1.063 0.007-1.551 0.223m5.867-2.22c-1.732 0.368-3.09 1.71-4.858 1.984-0.222 0.051-0.446 0.097-0.666 0.156m3.779-1.48c-1.198-0.4-2.051 1.005-3.264 0.925-0.317 0.064-0.64 0.111-0.964 0.106m-14.808-3.161c0.007 1.694-0.002 3.165 0.005 4.859" />
      </g>
      <path
         id="path2611"
         style="stroke:#000000;stroke-width:1.9259;fill:#ffffff"
         d="m278.12 477.58c-2.31-6.89-6.09-14.55-3.15-21.74 5.32-4.63 13.7-5.15 19.37-1.17 5.45 5.4 4.55 15.78-1.74 20.05-4.6 2.48-9.22 4.44-14.48 2.86z" />
    </g>
  </g>
  <metadata
     id="metadata3588">
    <rdf:RDF>
      <cc:Work>
        <dc:format>image/svg+xml</dc:format>
        <dc:type
           rdf:resource="http://purl.org/dc/dcmitype/StillImage" />
        <cc:license
           rdf:resource="http://creativecommons.org/publicdomain/zero/1.0/" />
        <dc:publisher>
          <cc:Agent
             rdf:about="http://openclipart.org/">
            <dc:title>Openclipart</dc:title>
          </cc:Agent>
        </dc:publisher>
        <dc:title>hand</dc:title>
        <dc:date>2008-02-05T05:18:21</dc:date>
        <dc:description />
        <dc:source>https://openclipart.org/detail/12799/hand-by-anonymous-12799</dc:source>
        <dc:creator>
          <cc:Agent>
            <dc:title>Anonymous</dc:title>
          </cc:Agent>
        </dc:creator>
        <dc:subject>
          <rdf:Bag>
            <rdf:li>anatomy</rdf:li>
            <rdf:li>body part</rdf:li>
            <rdf:li>hand</rdf:li>
          </rdf:Bag>
        </dc:subject>
      </cc:Work>
      <cc:License
         rdf:about="http://creativecommons.org/publicdomain/zero/1.0/">
        <cc:permits
           rdf:resource="http://creativecommons.org/ns#Reproduction" />
        <cc:permits
           rdf:resource="http://creativecommons.org/ns#Distribution" />
        <cc:permits
           rdf:resource="http://creativecommons.org/ns#DerivativeWorks" />
      </cc:License>
    </rdf:RDF>
  </metadata>
</svg>
