<?xml version="1.0" encoding="UTF-8" standalone="no"?>
<!-- Created with Inkscape (http://www.inkscape.org/) -->

<svg
   xmlns:dc="http://purl.org/dc/elements/1.1/"
   xmlns:cc="http://creativecommons.org/ns#"
   xmlns:rdf="http://www.w3.org/1999/02/22-rdf-syntax-ns#"
   xmlns:svg="http://www.w3.org/2000/svg"
   xmlns="http://www.w3.org/2000/svg"
   version="1.1"
   width="85.366379"
   height="98.806969"
   id="svg2">
  <defs
     id="defs4" />
  <metadata
     id="metadata7">
    <rdf:RDF>
      <cc:Work
         rdf:about="">
        <dc:format>image/svg+xml</dc:format>
        <dc:type
           rdf:resource="http://purl.org/dc/dcmitype/StillImage" />
        <dc:title></dc:title>
      </cc:Work>
    </rdf:RDF>
  </metadata>
  <g
     transform="translate(-221.13355,-260.34091)"
     id="layer1">
    <path
       d="m 267.19294,357.21394 c 0.88333,-3.37785 -1.681,-8.89145 -5.51042,-11.84802 -2.0254,-1.56375 -8.40755,-5.49086 -14.18255,-8.72692 -11.41004,-6.39369 -18.83341,-12.64016 -22.52837,-18.95672 -5.04031,-8.61642 -5.12846,-25.05137 -0.19219,-35.8336 2.26471,-4.94677 9.03961,-13.71018 10.58692,-13.6943 0.3485,0.004 0.65949,3.71608 0.6911,8.25 0.047,6.73887 0.54598,9.30869 2.734,14.07939 3.54989,7.74014 7.86808,13.0374 12.36868,15.17307 3.53482,1.67739 3.73366,1.67298 5.03877,-0.11187 1.93459,-2.64572 0.97551,-6.13988 -5.40223,-19.68169 -5.48636,-11.64914 -7.15025,-18.17838 -5.90097,-23.15589 0.8846,-3.52452 1.79402,-3.1807 3.94949,1.49317 2.28698,4.95901 9.26099,10.40576 16.0729,12.55302 l 5.15623,1.62536 -0.0372,9.63447 c -0.0321,8.32241 0.30329,10.31496 2.46283,14.63127 1.41794,2.83407 3.71554,5.64743 5.30839,6.5 2.67468,1.43163 2.92064,1.37426 5.16591,-1.2048 2.83266,-3.25378 4.05967,-12.54005 2.71227,-20.52704 -0.48574,-2.87928 -0.67337,-5.44483 -0.41697,-5.70123 1.06856,-1.06855 9.68657,7.40612 13.66354,13.43627 5.51724,8.36563 7.56686,14.67061 7.56686,23.27701 0,12.18938 -5.6669,19.18564 -18.14353,22.3997 -6.6587,1.71532 -6.93789,1.91194 -7.92617,5.58215 -1.22708,4.557 -8.72013,12.74114 -11.66526,12.74114 -1.56181,0 -1.95221,-0.48026 -1.57207,-1.93394 z"
       id="path3000"
       style="fill:#000000" />
  </g>
</svg>
