<?xml version="1.0" encoding="utf-8"?>

<!DOCTYPE svg PUBLIC "-//W3C//DTD SVG 1.1//EN" "http://www.w3.org/Graphics/SVG/1.1/DTD/svg11.dtd">
<svg version="1.1" id="Layer_1" xmlns="http://www.w3.org/2000/svg" xmlns:xlink="http://www.w3.org/1999/xlink" x="0px" y="0px"
	 viewBox="159.6378 165.039 955.4401 1690.1705" enable-background="new 159.6378 165.039 955.4401 1690.1705" xml:space="preserve"
	>
<path d="M640.0239,214.6625c7.8692-2.3739,15.9406-4.5896,24.2319-4.5017c8.2912-0.2814,16.4946,1.1166,24.6627,2.3212
	c7.3593,1.2221,14.7537,2.4795,21.9371,4.5369c4.9853,1.4156,9.4079,4.405,12.9952,8.1066
	c8.2737,8.5638,15.2988,18.2267,22.1393,27.9423c6.5504,9.6541,13.4788,19.528,16.178,31.0636
	c2.8839,11.4038,1.0815,23.2208,1.7673,34.818c0.8353,11.4125,0.0264,22.8778,0.7385,34.2992
	c0.765,9.0298,5.0909,17.3474,10.5949,24.3989c4.7655,5.4865,11.6763,8.9683,15.457,15.334
	c3.1565,6.5504,2.9191,14.4723,0.2726,21.1545c-1.9607,4.7919-6.524,7.6054-10.3663,10.7267c0,0.888,0.0088,1.7761,0.0352,2.6729
	c7.5439,2.3915,14.9999,5.0293,22.4998,7.5527c14.2525,4.9589,28.672,9.5134,42.6255,15.29
	c7.3417,2.9103,13.5228,8.0275,19.0268,13.5755c6.3218,6.3217,13.637,11.4829,20.6182,17.0309
	c11.2807,8.8539,19.6862,20.7765,26.6674,33.1826c6.8054,12.4413,13.0128,25.4188,16.2044,39.3196
	c2.5146,11.4389,4.9061,22.913,7.1746,34.4135c2.1102,12.4764,4.5809,25.1727,3.1477,37.8777
	c-0.2726,4.106-0.9584,8.2033-0.765,12.3358c0.5099,9.4254,3.7896,18.4992,8.4319,26.6586
	c3.728,6.4097,6.735,13.3205,11.5797,19.0179c6.1635,7.5615,12.9248,14.9735,16.389,24.2495
	c3.6138,8.7661,2.6026,18.4641,2.1102,27.696c-1.9695,23.168-5.6359,46.2041-6.6822,69.4512
	c-1.3541,21.9459,0.1406,43.9181,0.3693,65.8815c0.7649,10.8323,0.4572,21.7173,1.2485,32.5583
	c0.5276,23.1505,1.8552,46.3008,1.3716,69.4689c-0.721,9.4958-2.1454,18.9476-3.9918,28.2852
	c-1.1606,4.9238-2.1541,10.0849-4.9765,14.3756c-1.6354,2.6113-5.3018,3.2004-7.8604,1.6354
	c-5.7327-3.1125-10.1025-9.575-17.2507-9.3375c-8.2736,0.123-16.6616,1.1342-24.4956,3.9038
	c-1.3629,0.6682-3.7983,1.2573-3.2532,3.3059c1.2837,5.3107,5.4601,10.0586,4.3259,15.8528
	c-1.8728,8.0187-7.7902,14.6041-8.7045,22.9305c-0.5539,5.4249,1.4067,10.6827,2.7432,15.8616
	c3.7104,12.4236,8.1242,24.6187,12.7666,36.7258c6.2426,16.0286,11.9049,32.2946,18.7629,48.0769
	c6.8581,15.9318,14.1207,31.6791,20.9788,47.6021c5.9084,14.6394,13.8217,28.593,17.1891,44.1556
	c5.1788,20.8994-1.0286,43.0564,5.8734,63.6746c3.728,12.0016,10.3398,23.1328,11.8698,35.7764
	c1.2924,8.1417,0.7209,16.3977,0.9056,24.6011c0.4308,10.208,4.6599,19.6686,9.0649,28.7073
	c19.3522,45.826,38.4229,91.7751,57.1771,137.8561c2.2333,6.0229,4.871,11.9314,6.4976,18.1652
	c1.5387,5.8118,0.2111,12.1072,2.5586,17.7344c2.418,5.5303,7.9923,8.4319,12.0632,12.5554
	c2.2595,2.9015,4.6335,6.2251,4.6423,10.0674c0.0791,2.2333-1.6442,3.9038-3.0159,5.4601
	c-5.5566,5.5919-11.7114,10.8235-15.6417,17.7694c-3.6487,6.603-3.7279,14.4371-2.6465,21.7261
	c1.3717,8.9858,1.064,18.1035,1.1871,27.1686c0.712,19.2905,0.0262,38.625,1.4506,57.8979
	c0.3958,8.2122,1.1696,16.8727-2.2069,24.6188c-2.8838,7.1571-8.8451,12.3182-13.3468,18.4113
	c-6.2426,8.0187-12.0631,16.5122-19.7477,23.2648c-4.5634,4.0884-11.0609,4.8094-16.9254,4.2908
	c-6.4976-0.5277-13.0656-0.4749-19.4401-1.952c-7.9395-1.7321-15.9581-3.3762-23.5461-6.3041
	c-2.1365-0.7474-3.1476-3.306-2.1013-5.2931c2.1629-4.6512,3.2883-9.6628,4.9413-14.4899
	c3.4729-10.4718,6.9372-21.0403,12.3621-30.6943c3.429-6.5416,7.368-12.8192,10.3136-19.5983
	c2.919-6.7614,2.9805-14.3403,2.1541-21.5326c-0.976-7.4912-1.187-15.035-1.653-22.5526c-0.6418-5.2314-0.7913-10.797-3.4994-15.457
	c-1.187-2.2771-4.1764-1.3013-5.8469-0.1758c-7.2274,4.6687-12.6699,11.8258-20.5567,15.5449
	c-8.2824,3.6753-16.8726,7.8077-26.1838,7.1835c-4.8094,0.0176-9.2233-2.0839-13.4436-4.1326
	c-10.7003-5.3809-20.8907-11.7905-31.978-16.3715c-4.5721-1.9254-9.3903-3.4817-14.3932-3.4377
	c-12.9952-0.6417-25.4013,3.8511-37.6403,7.5703c-5.3809,1.7496-10.1552,4.8708-15.2548,7.2449
	c-8.0715,3.895-17.3914,3.4379-26.0519,2.4092c-6.3745-0.5627-12.1951-3.5433-18.5432-4.2643
	c-7.412-1.4596-15.334-1.3541-22.1569-4.9502c-1.9958-1.0552-4.3083-1.3628-6.436-0.5627
	c-9.1353,2.6201-18.0684,6.1107-26.3772,10.7444c-1.7585,0.8792-3.2004,2.6993-2.6993,4.7831
	c1.2485,8.3528,4.0533,16.3802,5.6799,24.6626c2.8312,12.4766,2.0838,25.4805,5.2666,37.8953
	c2.0135,8.3969,5.7239,16.2397,9.6014,23.9154c3.3674,6.8494,8.0275,13.8304,6.9372,21.858
	c-0.4044,3.3938-3.8071,4.9501-6.524,6.2601c-9.8738,4.5369-20.2929,7.7813-30.7646,10.63
	c-11.3685,3.1741-23.2295,3.7632-34.9147,4.9766H525.8456c-2.5674-6.1283-1.6705-13.3381,1.5211-19.0532
	c2.119-3.895,6.7789-4.9764,10.7619-5.8557c10.7443-2.1101,21.9459-3.007,31.9428-7.8605
	c21.0842-10.0585,41.4474-21.7523,60.3336-35.5302c5.4865-4.3346,9.9442-10.0497,12.45-16.6
	c4.2995-10.8235,5.8118-22.447,7.7197-33.8508c0.1846-1.7496,0.255-4.8885-2.1893-4.8445
	c-12.4501-1.2397-25.3661-0.0265-37.3502-4.2908c-4.2555-1.6266-9.0825-4.3787-9.8211-9.3289
	c-1.7849-8.9594-2.2245-18.1211-2.8663-27.2124c-1.3892-23.1241-1.8464-46.2832-2.5673-69.4336
	c-0.1407-22.2888-1.0728-44.5688-0.9584-66.8663c-0.932-50.9696-0.7473-101.9392-1.6442-152.9087
	c-0.1846-9.9883,0.0439-20.0204-0.9495-29.9646c-1.398-3.9302-5.6711-5.5656-8.7397-7.9484
	c-3.0949-2.1542-5.3722-5.6887-5.082-9.566c0.2374-22.3503,2.0662-44.6392,3.095-66.963
	c1.4155-26.6235,2.9278-53.2645,2.6465-79.9407c-0.1319-6.5327,0.088-13.171-1.4595-19.5543
	c-1.5914-4.616-5.2579-8.1594-8.9419-11.184c-6.946-5.715-15.2021-9.4342-22.746-14.2349
	c-2.9279-1.9519-6.4712-4.6161-5.9173-8.6078c0.8529-6.1107,6.4185-9.8387,9.4694-14.824c0.7914-0.9584,0.6946-2.1718,0.6683-3.3147
	c-8.7309-3.4642-19.0356-1.3717-27.2037-6.5768c-5.2403-3.6488-5.6271-10.7532-5.4513-16.5562
	c0.5275-12.3708,3.7543-24.4077,6.1459-36.5061c5.1172-18.9476,12.1951-37.2797,18.4993-55.8493
	c7.3153-21.0842,15.2285-41.9398,22.6932-62.9713c5.5832-14.7625,10.3574-29.8854,17.5936-43.9532
	c4.6336-10.0145,10.8146-19.8533,11.5181-31.1339c0.3517-8.3704-4.3347-15.7296-9.364-22.0074
	c-4.6424-5.8734-9.0034-12.072-11.8082-19.062c-6.2602-13.9888-12.7841-28.1182-15.5977-43.285
	c-1.9695-11.0521,2.3212-21.7788,3.7192-32.6022c0.7386-2.2684-1.864-3.3851-3.6927-3.3587
	c-5.7591-0.2814-12.2391,0.9144-16.0814,5.6008c-6.4097,7.1218-12.9424,15.3163-22.6844,17.7607
	c-12.9073,3.1037-26.2629,3.3587-39.4252,4.5632c-5.7766,0.0352-11.817,1.8728-15.7648,6.2778
	c-2.6553,2.9191-0.8353,7.623-3.6313,10.5069c-2.4619,2.2685-6.0667,2.2948-9.1705,2.9719
	c-8.5814,1.1518-17.2947,2.119-25.964,1.5035c-5.2755-0.4308-8.5287-5.2755-13.2853-6.8845
	c-4.0797,0.6771-5.6711,5.5568-9.6628,6.6031c-5.0029,1.6266-11.4126,3.1652-15.8264-0.5979
	c-2.8487-3.9302-4.3083-8.6605-6.3393-13.0215c-11.0696-26.9224-20.7501-54.3986-32.2857-81.1364
	c-5.8734-11.3071-13.6986-22.2097-24.9265-28.7072c-18.6575-10.0761-39.9175-14.3756-58.1354-25.3573
	c-7.368-5.0117-13.9623-11.6588-22.7811-14.0855c-7.3768-1.9167-15.2285-1.8991-22.2975-5.0029
	c-8.5462-3.7192-17.1716-7.5703-24.6363-13.2325c-3.4202-2.6905-6.8405-5.9349-7.9923-10.2783
	c-1.3452-6.1811,1.2749-12.1775,3.0685-17.9717c0.765-2.7432,1.8376-5.8382,0.51-8.5814
	c-2.0926-5.0996-7.6318-7.7813-9.5749-12.9424c-1.2837-4.6248,2.7432-8.2913,6.3745-10.3047
	c5.6887-3.0598,12.283-5.1259,18.7894-4.2906c12.0808,2.585,22.7724,9.1441,34.2904,13.3029
	c2.8136-1.5651,6.7789-3.1301,9.2672-0.1143c11.9489,11.5093,22.8163,24.0736,34.0618,36.2599
	c5.6799,6.0844,10.3135,13.0215,15.4746,19.5367c2.1629,2.4355,4.4666,5.548,8.0714,5.6008
	c3.8599-0.0703,7.6142-1.6794,11.5092-1.143c6.2866,0.5275,11.9665,4.1412,18.3674,3.8334
	c6.7789-0.2637,13.637-1.6177,20.3896-0.1846c9.1617,1.5034,15.9143,9.3111,25.2694,10.2079
	c9.3112,0.7122,17.9717-4.6336,27.318-3.6489c6.8669,0.5012,12.2039,5.2491,17.6112,8.9858c2.4706,1.697,5.803,3.4203,8.7397,1.7936
	c5.2051-3.5785,6.8317-10.8234,12.7929-13.5227c4.194-1.864,8.6429,0.4308,12.1687,2.6817
	c4.5281,2.5938,8.2649,7.0427,13.5667,7.9835c5.9876-1.5475,8.1154-8.4144,13.2238-11.4214
	c11.3686-7.1306,23.6428-12.8809,34.3167-21.093c6.0052-4.7391,9.8651-11.4741,13.7426-17.9189
	c4.8358-8.0714,11.2894-14.9647,17.4529-22.0162c8.2561-9.6541,16.4242-19.8708,20.5391-32.0659
	c3.2532-9.3112,6.2338-19.1938,13.3029-26.43c9.0034-9.1529,20.8556-14.7712,32.5495-19.651
	c7.2361-2.7256,14.2349-6.1898,21.8052-7.9044c1.6794-0.5276,3.5609-0.8089,4.9589-1.9607c1.6354-1.864,1.8992-4.5984,1.1694-6.902
	c-1.0903-3.4906-2.884-6.8932-5.6711-9.3112c-1.1254-1.2221-2.9103-0.8177-4.3083-0.4396
	c-9.1617,2.9982-17.5057,8.0187-26.5531,11.2895c-4.8622,1.1166-8.3792-3.3412-11.2015-6.5679
	c-2.5938-2.7872-2.9982-6.7174-2.5146-10.3311c0.7561-6.5592-0.554-13.0919-1.9343-19.4664
	c-0.5363-1.7497-0.7298-3.7807-2.0486-5.1436c-2.4794-0.9584-5.9085-1.4332-6.6734-4.4665
	c-0.3342-2.5058-1.4948-4.6688-3.2005-6.4888c-3.0334-3.8687,1.0112-8.1242,1.8464-12.0192
	c-6.3217-2.1718-13.4172-1.609-19.4489-4.7479c-2.708-1.3452-4.8622-4.2379-4.3258-7.3768
	c1.8816-11.351,9.0386-20.8556,12.5115-31.6615c-0.9144-4.0709-5.5216-5.9261-6.7526-9.9002
	c-1.9958-6.1547-1.2836-12.8282-0.0703-19.062c2.3739-8.8188,7.6669-16.5737,9.8474-25.4628
	c1.4508-6.7614,1.9255-13.9272-0.0175-20.627c-2.0663-6.4976-8.0363-10.8322-10.208-17.2419
	c-1.0463-2.9982,1.5474-5.8909,4.5369-5.9085c7.922-0.1319,15.8615,3.8071,23.7395,1.3628
	c7.667-2.5938,11.1752-10.5773,17.5145-15.0262C624.4173,220.7556,632.0315,217.0716,640.0239,214.6625z"/>
</svg>
