<?xml version="1.0" encoding="utf-8"?>

<!DOCTYPE svg PUBLIC "-//W3C//DTD SVG 1.1//EN" "http://www.w3.org/Graphics/SVG/1.1/DTD/svg11.dtd">
<svg version="1.1" id="Layer_1" xmlns="http://www.w3.org/2000/svg" xmlns:xlink="http://www.w3.org/1999/xlink" x="0px" y="0px"
	 viewBox="0 0 1252 1183" enable-background="new 0 0 1252 1183" xml:space="preserve">
<path d="M68.22,39.35c1.1-1.5,3.21-3.39,4.93-1.56c11.86,9.38,22.58,20.1,33.68,30.35c6.61,7.67,12.68,16.21,21.25,21.83
	c3.42-4.61,2.29-10.74,2.83-16.11c0.69-5.38-0.72-10.67-1.31-15.98c-0.48-4.27,1.32-8.43,3.55-11.97c1.29-2.49,4.96-2.68,6.88-0.82
	c3.34,2.55,3.11,7.18,4.05,10.88c2.2,10.1,3.93,20.37,7.42,30.14c3.66,13.24,7.83,26.56,15.1,38.32
	c5.91,10.55,16.97,16.26,27.26,21.69c28.14,14.35,57.91,25.1,86.46,38.58c25.63,12.05,52.06,22.33,77.51,34.76
	c19.97,10.1,40.43,19.71,62.29,24.92c27.61,6.64,55.97,9.11,83.95,13.65c11.61,2.22,22.35,7.37,33.17,11.92
	c5.02,1.76,9.85,3.97,14.64,6.29c4.6,2.27,10.05,3.35,15.03,1.7c5.19-1.7,9.4301-5.35,14.4-7.55c4.53-1.91,9.29,0.25,13.86,0.77
	c4.46-0.74,5.44-6.31,5.2-10.07c0.15-6.29-7.81-7.39-9.6-12.74c-2.67-7.51-4.18-15.39-5.72-23.2c-2.07-12.62-3.8-25.45-2.78-38.27
	c1.13-13.56,6.59-26.35,13.46-37.94c7.67-12.22,16.79-24.38,29.67-31.45c11.66-6.61,25.79-6.94,38.59-4
	c15.57,3.39,28.73,13.92,37.71,26.81c8.71,12.48,12.04,27.75,13.7,42.64c1.24,11.71,0.31,23.65-3.03,34.96
	c-3.37,14.1-9.38,27.42-16.6,39.93c-2.53,4.03-4.72,8.41-8.24,11.69c-3.3101,2.53-7.9,0.82-11.44,2.7
	c-0.94,1.39-0.39,3.22-0.32,4.78c0.82,5.22,2.49,10.33,5.1,14.94c3.38-0.8,6.26-4.6,9.96-3.22c6.17,3.51,10.82,9.51,17.72,11.81
	c8.32,2.56,17.04,0.59,25.5,0.08c5.42-0.21,10.47-2.76,15.92-2.68c4.4301-0.22,8.4301,2.05,12.33,3.84
	c10.26,5.22,20.08,11.22,30.06,16.96c6.05,3.39,13.07,3.94,19.79,5.04c16.5699,2.72,33.25,4.88,49.7,8.3
	c12.62,2.91,25.22,6.18,38.14,7.5c10.61,1.19,21.32,0.79,31.98,0.67c17.33-0.52,34.65-1.4,51.94-2.62
	c17.35-1.44,34.81-2.19,51.97-5.36c13.45-2.02,26.66-5.35,40.14-7.2c4.1799-0.7,6.72,3.33,10.13,4.84
	c6.1799,1.1,13.5699-1.31,16.3199-7.34c3.04-6.52,5.8301-13.21,10.0601-19.08c6.34-8.72,9.85-19.09,15.8199-28.03
	c2.04-2.4,6.14-5.62,9.11-2.94c1.76,2.59,3.1001,6,1.89,9.1c-2.71,7.89-6.6799,15.34-8.84,23.43c2.7,2.34,6.53,3.7,10.03,2.41
	c8.2899-2.8,17.33-2.12,25.5299-5.3c7.3301-2.56,13.52-7.46,20.7401-10.26c7.2999-2.88,14.3899-6.64,22.0599-8.38
	c3.73,1.74,3.09,6.3,1.63,9.39c4.42-0.79,8.87-3.32,13.42-2c1.23,3.92-1.3301,7.45-2.1901,11.13c-0.26,2.21,0.22,4.48-0.24,6.67
	c-1.36,3.49-4.4,5.99-5.96,9.37c-0.66,2.28,0.72,5.28-1.6,6.93c-7.4601,6.09-15.78,11.08-24.28,15.56
	c-6.4501,3.54-13.5601,5.54-20.61,7.45c-22.92,5.89-46.0701,10.8-69.2101,15.69c-4.2899,0.8-8.74,0.08-12.97,1.18
	c-2.23,0.53-4.09,2.64-3.79,5.02c-0.1499,11.73,3.3601,23.26,2.42,35.03c-2.2,27.75-5.4,55.41-8.52,83.08
	c-0.9399,7.37-1.6599,14.79-3.0499,22.09c-1.14,6.22-5.61,11.44-5.66,17.91c0.1,11.84,4.65,23.23,4.36,35.09
	c-1.51,6.5-5.51,12.51-10.7,16.6801c-2.1001-1.45-1.88-4.21-2.4701-6.41c-18.1499,2.01-36.0599,6.88-54.4399,6.32
	c-15.53,0.02-30.59-4.16-45.85-6.41c-50.09-8.16-100.21-16.22-150.0699-25.67c-8.05-1.2-14.9-5.73-21.64-9.96
	c-3.03-1.6801-6.65-4.15-10.21-2.59c-3.73,3.11-3.61,8.43-4.72,12.78c-1,6.74-5.21,12.24-8.79,17.81
	c-5.23,7.67-10.64,15.29-17.05,22.03c-2.85,3.03-6.53,5.29-10.62,6.15c-4.69,1.39-10.33,1.52-13.67,5.59
	c-2.05,2.73-2.34,6.3-2.83,9.57c-1.13,9.94-0.98,19.97-1.68,29.94c-0.27,3-2.69,5.09-4.66,7.11c3.05,12.58,5.94,25.21,8.21,37.96
	c3.62,17.46,4.13,35.33,5.26,53.06c1.73,35.96,2.66,71.95,3.82,107.93c0.74,25.37,1.69,50.73,1.97,76.1
	c0.34,25.97-0.36,51.93-0.78,77.8799c-0.76,28.74-1.6,57.5-4.12,86.16c-0.91,10.9399-2.98,21.78-3.3,32.78
	c-0.82,12.73-0.53,25.5299-2.11,38.21c-1.17,9.36-3.25,18.9-8.55,26.88H380.91c-1.5-7.28-0.88-14.8101,0.43-22.0601
	c2.29-12.6499,5.36-25.1899,6.24-38.0499c3.06-25.22,7.27-50.28,11.02-75.39c11.09-71.67,22.42-143.33,30.34-215.43
	c5.55-46.97,9.88-94.09,15.81-141.02c1.1-8.75,2.31-17.5,4.28-26.11c4.13-16.94,13.3-31.96,19.92-47.93
	c4.46-10.11,3.56-21.72,0.45-32.07c-5.88-18.35-9.82-37.25-15.99-55.5c-6.62-19.41-14.07-39.3-28.11-54.69
	c-10.72-12.35-24.77-21.06-38.83-29.12c-14.2-8.01-27.58-17.37-41.78-25.37c-17.93-10.27-36.09-20.2-54.71-29.17
	c-6.25-3.39-14.17-1.8-19.99-6.13c-3.31-2.21-3.48-6.57-4.38-10.05c-4.32-21.94-7.54-44.1-12.6-65.89
	c-5.33-23.1-11.63-46.29-22.81-67.33c-9.14-16.41-22.12-30.33-35.96-42.89c-23.99-21.49-51.2-39.05-79.2-54.82
	c-10.05-5.6-21.15-8.84-32.11-12.12c-6.97-1.91-13.56-4.9-20.3-7.45c-3.45-1.57-7.25-2.51-10.38-4.71c-1.56-1.39-0.98-3.9,0.18-5.35
	c1.55-1.54,3.8-0.29,5.64-0.17c7.64,1.27,15.1,3.93,22.9,4.01c-12.95-8.57-26.72-15.9-39.52-24.71c-4.1-2.4-0.96-7.98,2.41-9.38
	c13.57,5.65,26.42,13.02,40.17,18.21c1.28-4.26-2.86-7.26-5.54-9.84C69.92,84.63,61.08,77.1,52.7,69.06
	c-2.49-2.65-5.14-6.23-3.73-10.06c0.63-2.07,2.33-5.06,4.9-4.19c4.06,1.77,7.08,5.16,10.75,7.55c7.08,4.4,13.4,9.9,20.01,14.96
	c3.23,2.4,6.06,5.4,9.78,7.08c0.35-1.87-1.83-2.77-2.65-4.18c-8.29-11.1-17.03-21.9-24.51-33.58
	C65.47,44.36,66.78,41.42,68.22,39.35z"/>
</svg>
