<?xml version="1.0" encoding="UTF-8" standalone="no"?>
<!-- Created with Inkscape (http://www.inkscape.org/) -->
<svg xmlns:dc="http://purl.org/dc/elements/1.1/" xmlns:cc="http://creativecommons.org/ns#" xmlns:rdf="http://www.w3.org/1999/02/22-rdf-syntax-ns#" xmlns:svg="http://www.w3.org/2000/svg" xmlns="http://www.w3.org/2000/svg" xmlns:xlink="http://www.w3.org/1999/xlink" xmlns:sodipodi="http://sodipodi.sourceforge.net/DTD/sodipodi-0.dtd" xmlns:inkscape="http://www.inkscape.org/namespaces/inkscape" width="468.17575" height="499.27365" id="svg2" version="1.1" inkscape:version="0.48.1 r9760" sodipodi:docname="New document 1">
  <title id="title3949">Ghost</title>
  <defs id="defs4">
    <linearGradient inkscape:collect="always" id="linearGradient3785">
      <stop style="stop-color:#ffffff;stop-opacity:1;" offset="0" id="stop3787"/>
      <stop style="stop-color:#ffffff;stop-opacity:0;" offset="1" id="stop3789"/>
    </linearGradient>
    <linearGradient inkscape:collect="always" id="linearGradient3777">
      <stop style="stop-color:#000000;stop-opacity:1;" offset="0" id="stop3779"/>
      <stop style="stop-color:#000000;stop-opacity:0;" offset="1" id="stop3781"/>
    </linearGradient>
    <linearGradient inkscape:collect="always" xlink:href="#linearGradient3777" id="linearGradient3783" x1="458.34503" y1="123.50094" x2="317.30603" y2="591.35809" gradientUnits="userSpaceOnUse"/>
    <linearGradient inkscape:collect="always" xlink:href="#linearGradient3785" id="linearGradient3791" x1="458.34503" y1="123.50094" x2="317.30603" y2="591.35809" gradientUnits="userSpaceOnUse"/>
    <filter inkscape:collect="always" id="filter3825" color-interpolation-filters="sRGB">
      <feGaussianBlur inkscape:collect="always" stdDeviation="5.2338707" id="feGaussianBlur3827"/>
    </filter>
    <filter inkscape:collect="always" id="filter3937" color-interpolation-filters="sRGB">
      <feGaussianBlur inkscape:collect="always" stdDeviation="0.87452524" id="feGaussianBlur3939"/>
    </filter>
    <filter inkscape:collect="always" id="filter3941" x="-0.11301557" width="1.2260311" y="-0.097946823" height="1.1958936" color-interpolation-filters="sRGB">
      <feGaussianBlur inkscape:collect="always" stdDeviation="0.87452524" id="feGaussianBlur3943"/>
    </filter>
    <filter inkscape:collect="always" id="filter3945" x="-0.11301557" width="1.2260311" y="-0.097946823" height="1.1958936" color-interpolation-filters="sRGB">
      <feGaussianBlur inkscape:collect="always" stdDeviation="0.87452524" id="feGaussianBlur3947"/>
    </filter>
  </defs>
  <sodipodi:namedview id="base" pagecolor="#ffffff" bordercolor="#666666" borderopacity="1.0" inkscape:pageopacity="0.0" inkscape:pageshadow="2" inkscape:zoom="1.4" inkscape:cx="86.925796" inkscape:cy="200.77558" inkscape:document-units="px" inkscape:current-layer="layer1" showgrid="false" fit-margin-top="0" fit-margin-left="0" fit-margin-right="0" fit-margin-bottom="0" inkscape:window-width="1852" inkscape:window-height="1026" inkscape:window-x="66" inkscape:window-y="24" inkscape:window-maximized="0"/>
  <g inkscape:label="Layer 1" inkscape:groupmode="layer" id="layer1" transform="translate(-188.07421,-108.14983)">
    <path style="fill:url(#linearGradient3791);fill-opacity:1;stroke:url(#linearGradient3783);stroke-width:5;stroke-linecap:butt;stroke-linejoin:miter;stroke-miterlimit:4;stroke-opacity:1;stroke-dasharray:none;filter:url(#filter3825)" d="m 250,592.36219 191.42857,-2.85715 c 0,0 52.31479,-92.938 58.57143,-142.85714 3.88435,-30.99172 -2.75702,-80.64675 22.14285,-102.14286 19.41943,-16.76483 109.44801,-6.44669 117.85715,-49.28571 8.61646,-43.89516 -31.775,-45.19009 -51.42857,-37.14286 -36.44623,14.92305 -80.22131,24.32713 -102.85714,-1.42857 -16.45498,-18.72295 13.40111,-49.83189 8.57143,-74.28572 -4.00589,-20.28276 -11.22115,-45.63747 -30.00001,-54.28571 -23.62427,-10.8797 -57.95239,-2.59159 -76.42857,15.71428 -24.91363,24.684 3.34427,78.76575 -22.14285,102.85715 -21.19315,20.03257 -41.65616,23.09791 -86.42857,13.57142 -23.44862,-4.98929 -59.02152,-33.38913 -73.57144,-4.28571 -13.18582,26.37489 27.24783,60.32709 52.14286,67.85714 33.63753,10.17441 54.81525,11.78702 69.28572,32.85715 17.84345,25.98144 14.35647,63.60367 7.14286,94.28572 C 321.72546,504.35675 250,592.36219 250,592.36219 z" id="path2985" inkscape:connector-curvature="0" sodipodi:nodetypes="ccssssaaaaasssaac"/>
    <path sodipodi:type="arc" style="opacity:0.8828125;fill:#000000;fill-opacity:0.88235294;stroke:#000000;stroke-opacity:0.78431373;filter:url(#filter3937)" id="path3755" sodipodi:cx="428.80975" sodipodi:cy="227.06755" sodipodi:rx="19.17803" sodipodi:ry="12.366935" d="m 447.98778,227.06755 c 0,6.83007 -8.58629,12.36694 -19.17803,12.36694 -10.59173,0 -19.17803,-5.53687 -19.17803,-12.36694 0,-6.83007 8.5863,-12.36693 19.17803,-12.36693 10.59174,0 19.17803,5.53686 19.17803,12.36693 z"/>
    <path sodipodi:type="arc" style="opacity:0.8828125;fill:#000000;fill-opacity:0.88235294;stroke:#000000;stroke-opacity:0.78431373;filter:url(#filter3945)" id="path3757" sodipodi:cx="291.42856" sodipodi:cy="185.21933" sodipodi:rx="9.2857141" sodipodi:ry="10.714286" d="m 300.71427,185.21933 c 0,5.91734 -4.15735,10.71429 -9.28571,10.71429 -5.12836,0 -9.28572,-4.79695 -9.28572,-10.71429 0,-5.91734 4.15736,-10.71429 9.28572,-10.71429 5.12836,0 9.28571,4.79695 9.28571,10.71429 z" transform="translate(120,-1.4285714)"/>
    <path sodipodi:type="arc" style="opacity:0.8828125;fill:#000000;fill-opacity:0.88235294;stroke:#000000;stroke-opacity:0.78431373;filter:url(#filter3941)" id="path3757-9" sodipodi:cx="291.42856" sodipodi:cy="185.21933" sodipodi:rx="9.2857141" sodipodi:ry="10.714286" d="m 300.71427,185.21933 c 0,5.91734 -4.15735,10.71429 -9.28571,10.71429 -5.12836,0 -9.28572,-4.79695 -9.28572,-10.71429 0,-5.91734 4.15736,-10.71429 9.28572,-10.71429 5.12836,0 9.28571,4.79695 9.28571,10.71429 z" transform="translate(162.85716,-3.5714343)"/>
  </g>
  <metadata>
    <rdf:RDF>
      <cc:Work>
        <dc:format>image/svg+xml</dc:format>
        <dc:type rdf:resource="http://purl.org/dc/dcmitype/StillImage"/>
        <cc:license rdf:resource="http://creativecommons.org/licenses/publicdomain/"/>
        <dc:publisher>
          <cc:Agent rdf:about="http://openclipart.org/">
            <dc:title>Open Clip Art Library</dc:title>
          </cc:Agent>
        </dc:publisher>
        <dc:title>Ghost, Classical</dc:title>
        <dc:date>2011-06-15T04:42:14</dc:date>
        <dc:description>Classical ghost</dc:description>
        <dc:source>http://openclipart.org/detail/145435/ghost-classical-by-serioustux</dc:source>
        <dc:creator>
          <cc:Agent>
            <dc:title>SeriousTux</dc:title>
          </cc:Agent>
        </dc:creator>
        <dc:subject>
          <rdf:Bag>
            <rdf:li>Classical ghost</rdf:li>
            <rdf:li>clip art</rdf:li>
            <rdf:li>clipart</rdf:li>
            <rdf:li>monochrome</rdf:li>
            <rdf:li>spirit</rdf:li>
          </rdf:Bag>
        </dc:subject>
      </cc:Work>
      <cc:License rdf:about="http://creativecommons.org/licenses/publicdomain/">
        <cc:permits rdf:resource="http://creativecommons.org/ns#Reproduction"/>
        <cc:permits rdf:resource="http://creativecommons.org/ns#Distribution"/>
        <cc:permits rdf:resource="http://creativecommons.org/ns#DerivativeWorks"/>
      </cc:License>
    </rdf:RDF>
  </metadata>
</svg>
