<?xml version="1.0" encoding="UTF-8"?>
<svg viewBox="0 0 375 399" xmlns:xlink="http://www.w3.org/1999/xlink" version="1.1" width="375pt" xmlns:inkscape="http://www.inkscape.org/namespaces/inkscape" xmlns="http://www.w3.org/2000/svg" height="399pt">
 <title>Untitled</title>
 <defs>
  <clipPath id="Clip0">
   <path d="M0 0 L375.094 0 L375.094 399.094 L0 399.094 L0 0 Z"/>
  </clipPath>
  <clipPath id="Clip1">
   <path d="M0 0 L375.094 0 L375.094 399.094 L0 399.094 L0 0 Z"/>
  </clipPath>
  <clipPath id="Clip2">
   <path d="M0 0 L375.094 0 L375.094 399.094 L0 399.094 L0 0 Z"/>
  </clipPath>
  <clipPath id="Clip3">
   <path d="M0 0 L115.364 0 L115.364 157.484 L0 157.484 L0 0 Z"/>
  </clipPath>
  <clipPath id="Clip4">
   <path d="M0 0 L81.5495 0 L81.5495 100.256 L0 100.256 L0 0 Z"/>
  </clipPath>
  <clipPath id="Clip5">
   <path d="M0 0 L299.524 0 L299.524 373.633 L0 373.633 L0 0 Z"/>
  </clipPath>
  <clipPath id="Clip6">
   <path d="M0 0 L299.524 0 L299.524 373.633 L0 373.633 L0 0 Z"/>
  </clipPath>
 </defs>
 <g inkscape:groupmode="layer" id="Layer 1" inkscape:label="Layer 1">
  <g id="GruppeLayer 1" style="fill:none; stroke:none" clip-path="url(#Clip0)" transform="translate(-0.046875, -0.046875) scale(1, 1)" clip-rule="evenodd">
   <g id="Gruppe4" style="fill:none; stroke:none" clip-path="url(#Clip1)" transform="translate(0, 0) scale(1, 1)" clip-rule="evenodd">
    <g id="Gruppe1" style="fill:none; stroke:none" clip-path="url(#Clip2)" transform="translate(0, 0) scale(1, 1)" clip-rule="evenodd">
     <path d="M0 0 L375 0 L375 399 L0 399 L0 0 Z M185.37 14.3 C184.13 14.8 182.86 15.2 181.64 15.72 C179.58 16.66 177.42 17.34 175.36 18.28 C173.68 18.93 171.99 19.53 170.36 20.31 C169.25 21.21 167.75 21.22 166.63 20.32 C164.97 19.49 163.23 18.88 161.48 18.29 C160.52 18.01 159.57 17.69 158.64 17.34 C155.08 14.39 150.04 17.49 146.39 15.08 C143.76 14.98 141.12 14.85 138.49 15.11 C131.26 22.31 123.52 29.16 117.64 37.53 C117.42 38.04 116.97 39.06 116.74 39.57 C116.49 40.07 115.99 41.06 115.73 41.56 C114.91 43.18 114.11 44.81 113.25 46.41 C112.76 47.48 112.24 48.53 111.76 49.61 C111.25 50.54 110.74 51.47 110.22 52.39 C109.65 53.7 108.48 55.06 109.57 56.47 C111.23 58.91 112.81 61.41 114.89 63.52 C115.69 65.55 113.43 66.86 112.71 68.54 C109.99 73.76 106.02 78.23 103.28 83.45 C101.75 85.62 100.76 88.38 98.48 89.88 C95.87 90.15 93.24 89.97 90.62 89.99 C91.49 90.94 92.38 91.88 93.28 92.81 C88.55 92.74 90.12 98.34 90.11 101.43 C91.27 103.2 93.84 103.62 95.1 105.49 C92.46 107.76 95.37 111.98 93.14 114.6 C93.25 117.06 92.68 119.4 91.26 121.42 C90.76 122.48 90.24 123.52 89.75 124.59 C88.89 126.19 88.09 127.82 87.26 129.45 C87.02 129.93 86.53 130.91 86.29 131.4 C85.65 132.76 84.97 134.11 84.19 135.4 C83.19 137.35 83.03 139.56 82.24 141.58 C81.99 142.96 82.04 144.47 81.08 145.61 C80.46 151.89 81.94 158.45 80.32 164.55 C80.01 165.55 79.67 166.54 79.3 167.53 C79 168.54 78.68 169.55 78.33 170.55 C78 171.57 77.62 172.58 77.19 173.58 C77.1 174.04 76.91 174.96 76.82 175.43 C74.78 178.79 77.12 183.06 75.33 186.53 C74.94 187.96 74.32 189.31 73.68 190.65 C73.32 191.57 72.98 192.5 72.67 193.45 C71.97 194.65 72.01 196.02 72 197.36 C73.27 198.86 72.8 201 73.85 202.61 C74.03 204.3 73.73 206.15 74.85 207.6 C75.05 209.3 74.69 211.19 75.91 212.61 C76 215.65 76.55 218.94 74.76 221.64 C74.5 222.11 73.97 223.06 73.7 223.53 C72.68 225.43 71.96 227.46 71.29 229.51 C70.98 230.97 70.32 232.32 69.64 233.65 C68.63 235.52 69.49 237.9 68.08 239.61 C68.16 241.92 67.29 244.6 68.89 246.59 C68.97 248.19 69.02 249.8 69.12 251.4 C69.96 252.62 69.91 254.12 70.26 255.5 C71.43 257.3 73.13 258.69 74.72 260.12 L75.33 258.69 C77.03 260.64 77.89 263.39 80.52 264.38 C81.85 264.82 83.21 265.19 84.52 265.72 C85.9 265.91 87.2 266.44 88.16 267.49 C86.46 268.68 87.31 271.02 86.19 272.58 C86.1 273.04 85.91 273.97 85.81 274.43 C85.38 275.42 84.99 276.42 84.64 277.45 C84.06 279.15 84.07 281.05 83.09 282.61 C82.89 288.39 83.05 294.18 83 299.97 C81.53 299.99 80.06 300.02 78.59 300.09 C76.61 301.69 73.93 300.77 71.61 301.08 C68.66 303.43 64.36 300.57 61.42 302.91 C59.94 302.97 58.47 303 56.99 303.03 L57 304 C65.8 303.95 74.6 304.1 83.39 303.92 C86.32 302 90.09 303.45 93.38 302.92 C94.52 301.95 96.04 302.02 97.41 301.76 C98.64 301.06 100.05 300.98 101.42 300.76 C102.64 300.06 104.06 299.98 105.42 299.76 C107.74 298.85 110.38 298.82 112.42 297.21 C113.75 296.61 115.1 296.04 116.55 295.79 C117.74 295.17 118.92 294.52 120.08 293.84 C119.89 294.54 119.51 295.95 119.33 296.65 L118.6 295.76 C116.52 298.04 114.48 300.48 111.63 301.82 C109.53 302.62 107.4 303.33 105.36 304.29 C103.67 304.92 101.98 305.53 100.35 306.31 C99.43 306.68 98.5 307.03 97.56 307.35 C96.28 307.85 94.92 308.01 93.58 308.24 C92.35 308.94 90.94 309.01 89.58 309.24 C87.93 309.97 86.08 310.02 84.42 310.75 C83.13 310.97 81.82 311.13 80.6 311.61 C79.27 312.33 77.93 313.03 76.59 313.75 C74.64 314.59 72.36 315.32 71.6 317.54 C71.28 318.5 70.98 319.47 70.68 320.45 C70.25 321.6 69.95 322.78 69.78 324 L68.99 324.01 C69 322.21 69.01 320.41 69 318.62 C66.49 321.46 62.52 323.52 61.66 327.45 C60.93 328.86 61.01 330.46 60.9 332 L59.98 332.01 C59.99 331.15 60 329.44 60.01 328.59 C59.01 329.39 58.11 330.35 57.73 331.6 C55.79 335.34 52.88 338.49 51.26 342.41 C49.81 345 48.92 347.84 47.78 350.58 C46.64 352.36 46.03 354.39 45.31 356.37 C43.79 358.43 43.94 360.96 43.89 363.39 C42.11 366.03 43.37 369.42 42.93 372.39 C40.69 375.02 43.3 378.95 41.09 381.6 C41.01 383.2 40.97 384.8 40.97 386.41 C42.29 385.45 43.11 384.05 43.75 382.58 C45.04 379.37 47.42 376.78 48.78 373.6 C50.17 371.5 50.16 369.02 49.93 366.61 C49.23 365.52 48.85 364.31 48.78 363 L49.7 362.99 C49.94 363.6 50.41 364.83 50.65 365.44 C51.2 366.56 51.78 367.72 52.91 368.4 C53.52 367.12 54.1 365.83 54.67 364.53 C55.51 363.14 56.49 361.85 57.32 360.47 C57.77 359.48 58.22 358.5 58.66 357.52 C61.6 352.8 66.22 349 67.72 343.48 C68.41 339.3 72.93 337.46 75.19 334.2 C76.88 331.32 79.32 329.01 81.79 326.8 C88.44 322.54 94.48 317.26 101.58 313.72 C102.54 313.24 103.49 312.77 104.45 312.3 C105.85 311.49 107.15 310.51 108.54 309.68 C109.89 309.02 111.24 308.37 112.61 307.77 C117.01 305.11 120.9 301.66 125.09 298.68 C125.1 301.07 125.13 303.52 123.79 305.61 C123.27 306.54 122.75 307.46 122.25 308.4 C121.32 310.87 120.02 313.3 117.45 314.35 C109.29 321.21 100.96 327.88 92.47 334.34 C90.82 335.33 89.49 336.8 88.66 338.54 C88.43 339.05 87.98 340.06 87.75 340.56 C86.9 342.17 86.1 343.81 85.25 345.42 C84.76 346.47 84.24 347.52 83.74 348.59 C82.77 350.41 80.83 352.74 82.93 354.6 C82.98 356.04 83 357.48 83.02 358.93 L84.41 359.11 C83.16 361.42 81.38 357.16 79.93 356.58 C80.07 358.27 79.64 360.19 80.89 361.6 C80.95 363.85 80.74 366.23 82.01 368.23 C80.39 367.64 79.03 366.6 77.61 365.67 C78.04 367.04 78.68 368.33 79.3 369.64 C79.94 371.28 80.51 372.95 81.21 374.58 C82.06 375.97 82.75 377.46 83.31 378.99 L84.04 379.01 C84 377.87 83.96 376.73 83.9 375.6 C83.15 374.4 82.79 373.08 82.82 371.64 C83.97 372.04 85.07 372.56 86.12 373.2 C86.01 371.02 85.97 368.84 85.93 366.67 C86.46 367.08 87.53 367.92 88.06 368.33 C88.21 366.02 87.28 363.35 88.91 361.39 C88.95 360.25 88.99 359.12 89.01 358 L89.69 358 C89.91 359.58 91.42 362.29 92.78 359.83 C95.07 355.61 100.18 352.39 99.04 347 L100 347 C100 347.59 100 348.78 100 349.37 C103.83 346.06 106.97 341.97 110.96 338.87 C112.42 339.85 113.8 340.97 115.38 341.77 C117.66 342.54 119.54 344.05 121.53 345.34 C122.04 345.57 123.06 346.02 123.56 346.24 C124.9 346.96 126.24 347.64 127.6 348.33 C128.9 348.82 130.23 349.21 131.54 349.71 C132.49 349.99 133.42 350.31 134.35 350.68 C135.97 351.46 137.67 352.07 139.37 352.7 C140.54 353.2 141.62 354.11 142.98 353.99 C148.99 354.05 155.01 353.95 161.03 354.03 C162.58 353.98 164.24 354.22 165.58 353.22 C166.94 353 168.38 352.98 169.58 352.19 C170.04 352.1 170.96 351.9 171.43 351.8 C173.04 350.95 174.95 351.03 176.58 350.2 C177.04 350.1 177.97 349.9 178.43 349.8 C180.04 349.02 181.86 348.9 183.55 348.35 C184.56 348 185.57 347.63 186.56 347.23 C188.47 347.08 190.26 346.46 192.03 345.76 L192 344.78 C190.75 344.91 189.55 345.24 188.42 345.76 C187.06 345.99 185.64 346.07 184.41 346.76 C183.04 347.03 181.52 346.95 180.38 347.92 C175.79 348.12 171.2 347.88 166.61 348.08 C166.19 348.29 165.34 348.73 164.92 348.95 C160.49 349.09 156.04 349.02 151.61 348.92 C149.85 347.35 147.21 348.61 145.4 347.14 C144.46 347.04 143.53 346.95 142.6 346.86 C140.79 345.55 138.4 346.3 136.45 345.37 C129.75 342.76 125.05 336.62 118.66 333.47 C120.56 329.74 124.98 328.55 127.99 325.9 C131.66 327.77 134.11 331.18 137.53 333.34 C138.89 333.96 140.24 334.62 141.61 335.24 C142.54 335.75 143.46 336.27 144.39 336.8 C148.35 339.01 153.07 337.7 157.39 337.92 C161.3 335.85 166.12 337.6 170.39 336.91 C171.95 335.86 173.94 336.08 175.58 335.2 C176.04 335.1 176.97 334.91 177.43 334.81 C178.42 334.37 179.42 333.98 180.45 333.64 C182.14 333.1 183.95 332.97 185.58 332.2 C186.04 332.1 186.96 331.9 187.42 331.8 C188.62 331.03 190.05 330.98 191.41 330.76 C192.64 330.06 194.06 329.98 195.42 329.77 C197.43 328.44 200.18 329.67 201.95 327.82 C201.76 329.4 202.8 330.58 204.03 331.4 C204.02 330.56 203.99 328.89 203.98 328.05 C204.59 328.01 205.8 327.92 206.41 327.88 C207.13 327.55 208.57 326.88 209.29 326.55 C207.4 329.27 207 332.66 205.21 335.42 C204.51 337.04 203.94 338.72 203.29 340.36 C202.33 342.39 201.67 344.53 200.79 346.58 C199.34 348.74 198.88 351.35 197.68 353.63 C195.86 356.69 198.28 360.71 196.08 363.61 C195.86 368.08 196.15 372.55 195.95 377.02 C195.73 377.41 195.3 378.2 195.08 378.59 C194.97 381.06 194.99 383.54 195 386.02 L195.94 386 C195.99 385.4 196.09 384.19 196.13 383.59 C197.13 382 196.89 380 197.84 378.4 C197.94 377.46 198.05 376.53 198.15 375.6 C199.08 373.99 198.93 372.05 199.8 370.43 C199.9 369.96 200.1 369.04 200.2 368.58 C200.96 366.95 201.1 365.14 201.67 363.46 C201.98 362.45 202.32 361.45 202.68 360.46 C203 359.42 203.38 358.41 203.8 357.43 C203.9 356.96 204.1 356.04 204.2 355.57 C204.97 353.96 205.09 352.15 205.65 350.47 C206.15 348.75 206.9 347.13 207.63 345.5 C211.51 340.73 214.68 335.4 218.66 330.74 C219.36 332.98 220.81 334.91 222.26 336.72 C225.55 339.63 227.39 343.77 231.01 346.37 C231.05 340.91 230.89 335.45 231.05 330 C231.27 329.6 231.71 328.8 231.93 328.39 C231.99 326.46 231.98 324.52 232.01 322.59 C233 323.4 233.8 324.4 234.38 325.54 C234.81 326.86 235.19 328.21 235.71 329.52 C236.03 330.97 236.67 332.31 237.33 333.64 C238.77 337.33 237.73 341.51 237.91 345.39 C236.48 347.08 237.13 349.37 236.9 351.39 C235.49 353.09 236.13 355.37 235.9 357.39 C235.19 358.58 234.81 359.89 234.73 361.3 C236.38 360.41 238.02 359.49 239.38 358.19 C242.2 355.67 246.6 354.6 247.71 350.55 C248.51 349.14 249.49 347.85 250.28 346.44 C251.96 342.89 254.8 340.03 256.36 336.41 C256.7 335.46 257.02 334.5 257.33 333.55 C258.22 331.07 258 328.34 259.18 325.94 L259.63 326.02 C260.42 327.95 261.78 329.56 262.85 331.35 C263.74 333.35 263.99 335.54 264.76 337.58 C264.98 338.93 265.06 340.35 265.77 341.59 C266.03 342.95 265.95 344.47 266.92 345.62 C267.03 350.38 267.08 355.16 266.95 359.93 C266.75 360.35 266.34 361.18 266.14 361.6 C266.04 362.53 265.95 363.46 265.85 364.4 C265 365.57 265 367.04 264.76 368.42 C263.98 370.07 264.05 371.99 263.15 373.6 C263.05 374.53 262.95 375.46 262.85 376.4 C261.99 377.58 262 379.05 261.79 380.44 C261.49 381.15 260.87 382.58 260.57 383.29 C262.49 382.24 264.47 381.28 266.41 380.26 C268.43 379.31 270.44 378.32 272.41 377.26 C274.44 376.3 276.44 375.29 278.46 374.31 C284.68 370.38 290.33 365.59 296.29 361.29 C300.59 355.33 305.37 349.68 309.31 343.47 C310.08 341.82 310.89 340.19 311.73 338.58 C312.36 337.23 313.03 335.89 313.75 334.59 C314.24 333.52 314.75 332.46 315.24 331.4 C315.74 330.46 316.26 329.53 316.79 328.61 C317.79 326.42 318.52 324.13 319.13 321.81 C321.49 323 323.29 324.96 325.51 326.37 C327.13 327.09 328.75 327.85 330.47 328.35 C332.15 328.9 333.96 329.03 335.57 329.8 C336.04 329.9 336.96 330.09 337.43 330.19 C338.17 330.48 339.66 331.06 340.4 331.35 C340 330.81 339.19 329.73 338.79 329.19 C334.79 326.59 331.2 323.4 327.2 320.81 C325.53 317.66 322.57 315.52 320.95 312.36 C323.44 310.49 320.68 306.57 322.93 304.39 C323.3 301.74 322.19 298.68 323.92 296.39 C323.59 292.45 325.08 287.96 323.07 284.39 C322.5 280.77 324.03 276.66 322.1 273.39 C321.87 271.38 322.5 269.11 321.11 267.4 C321.02 265.8 320.97 264.19 320.88 262.59 C319.94 261.03 319.94 259.16 319.35 257.47 C318.92 256.05 318.32 254.7 317.73 253.35 C317.18 252.06 316.74 250.72 316.17 249.44 C316.09 248.97 315.91 248.03 315.83 247.56 C315.21 246.23 314.79 244.83 314.28 243.47 C314.01 242.51 313.69 241.57 313.32 240.64 C312.67 239.31 312.06 237.96 311.66 236.53 C311.12 235.28 310.98 233.91 310.76 232.59 C310.06 231.35 309.98 229.93 309.77 228.58 C308.49 226.71 309.57 224.19 308.12 222.41 C308.03 221.14 307.96 219.86 307.87 218.59 C306.97 217.43 307.01 215.94 306.78 214.58 C305.59 212.8 306.09 210.61 305.9 208.61 C303.71 205.94 306.29 202.04 304.08 199.38 C303.99 197.13 304 194.87 303.92 192.61 C303.7 192.2 303.27 191.37 303.05 190.96 C302.97 176.85 302.94 162.72 303.08 148.61 C303.3 148.21 303.73 147.42 303.95 147.02 C304.02 134.22 304.06 121.41 303.92 108.61 C301.42 104.69 304.51 99.42 302.17 95.43 C302.09 94.96 301.91 94.03 301.83 93.56 C301.18 92.27 300.82 90.86 300.38 89.5 C299.27 87.4 297.3 86.01 295.82 84.21 C293.66 80.86 290.85 77.81 287.48 75.65 C286.01 74.97 284.53 74.28 283.02 73.7 C282.98 72.67 282.94 71.64 282.9 70.62 C281.96 69.46 282.01 67.96 281.78 66.58 C280.62 64.72 281.33 62.37 280.3 60.46 C280.02 59.47 279.72 58.48 279.42 57.49 C275.83 53.05 272.88 48.14 269.29 43.72 C264.34 40.06 259.76 35.87 254.47 32.64 C252.73 32.1 251 31.5 249.35 30.72 C248.05 30.18 246.72 29.74 245.44 29.17 C244.97 29.09 244.04 28.91 243.57 28.82 C241.75 27.49 239.25 28.51 237.42 27.19 C236.96 27.09 236.04 26.9 235.57 26.8 C233.95 25.95 232.04 26.05 230.43 25.2 C229.96 25.1 229.03 24.91 228.56 24.81 C226.53 24.03 224.48 23.3 222.53 22.34 C218.64 20.04 215.3 16.97 211.48 14.57 C207.63 12.88 202.98 15.35 199.39 13.08 C194.75 13.4 189.58 11.81 185.37 14.3 Z" style="fill:#ffffff; fill-rule:nonzero;stroke-width:0.09375; stroke-linecap:butt; stroke-linejoin:miter; stroke-dasharray:none; stroke:#ffffff;" transform="translate(0.046875, 0.046875)"/>
    </g>
    <path d="M45.91 2.95807 C50.22 0.0180658 56.19 -1.00193 60.96 1.14807 C63.26 1.23807 65.57 1.10807 67.87 1.32807 C69.78 2.86807 71.2 4.99807 73.38 6.23807 C75.86 7.62807 77.27 10.3281 79.87 11.5481 C81.23 12.1781 82.58 12.8381 83.95 13.4781 C86.77 15.1881 89.9 16.2581 92.99 17.3981 C97.28 19.6581 100.03 23.8381 103.64 26.9581 C106.29 28.6581 105.14 32.0081 105.37 34.6281 C104.03 33.6781 103.21 32.2681 102.65 30.7581 C100.83 27.9881 99.4 24.4781 95.89 23.5081 C93.86 22.2581 91.93 20.8481 89.77 19.8281 C87.64 18.8281 85.23 19.3281 82.97 19.1381 C81.7 17.8781 79.88 18.3381 78.3 18.2081 C75.85 18.5381 73.87 16.8681 71.76 15.9381 C70.44 15.2381 69.1 14.5681 67.73 13.9781 C66 13.0881 64.47 11.8881 62.81 10.9081 C61.83 10.4481 60.86 9.96807 59.9 9.47807 C59.41 9.23807 58.44 8.74807 57.95 8.50807 C55.92 7.98807 53.81 5.03807 51.79 7.01807 C50.4 7.21807 48.93 7.20807 47.74 8.06807 C46.81 8.16807 45.88 8.26807 44.95 8.36807 C43.38 9.24807 41.55 9.30807 39.86 9.77807 C37.59 10.8181 36.88 13.3981 35.17 15.0681 C32.93 17.5881 32.05 21.5981 28.45 22.5981 C28.38 21.3381 28.31 20.0881 28.25 18.8281 C26.71 17.0581 27.98 14.4081 26.47 12.6281 C26.43 12.0181 26.36 10.8181 26.32 10.2181 L25.46 10.2081 C25.5 12.3981 24.87 14.4681 24.15 16.5081 C21.36 13.9481 19.02 10.8681 15.85 8.73807 C14.55 8.37807 13.22 8.20807 11.9 8.01807 C11.21 7.69807 9.83 7.07807 9.14 6.76807 C9.75 7.99807 10.27 9.26807 10.68 10.5781 C9.96 10.2881 8.51 9.69807 7.79 9.39807 C7.33 9.30807 6.4 9.11807 5.93 9.02807 C5.03 8.53807 4.06 8.24807 3.03 8.15807 C2.27 8.53807 0.76 9.27807 0 9.64807 C0.6 6.79807 3.55 7.16807 5.75 7.07807 C7.45 5.72807 9.67 6.33807 11.65 6.16807 C10.95 4.29807 10.04 2.50807 9.06 0.768066 C9.78 1.09807 11.22 1.74807 11.94 2.06807 C13.61 2.22807 15.38 2.05807 16.9 2.91807 C17.88 3.19807 18.87 3.48807 19.86 3.79807 C23.25 6.23807 26.38 9.05807 29.97 11.2281 C31.13 10.2081 32.55 9.57807 33.94 8.94807 C34.88 8.45807 35.82 7.96807 36.76 7.47807 C38.11 6.85807 39.45 6.18807 40.77 5.47807 C41.84 4.96807 42.89 4.43807 43.96 3.93807 C44.45 3.69807 45.42 3.20807 45.91 2.95807 Z" style="fill:#ffffff; fill-rule:nonzero;stroke-width:0.09375; stroke-linecap:butt; stroke-linejoin:miter; stroke-dasharray:none; stroke:#ffffff;" transform="translate(135.697, 17.8288)"/>
    <path d="M4.74 7.41 C7.91 5.52 10.16 2.52 12.79 0 C16.49 2.59 20.32 5.06 23.7 8.06 C18.75 8.43 13.62 7.34 8.79 8.64 C5.68 10.33 3.32 13.26 0 14.48 C0.21 13.76 0.65 12.31 0.86 11.58 C1.8 9.91 3.08 8.4 4.74 7.41 Z" style="fill:#ffffff; fill-rule:nonzero;stroke-width:0.09375; stroke-linecap:butt; stroke-linejoin:miter; stroke-dasharray:none; stroke:#ffffff;" transform="translate(118.777, 29.9769)"/>
    <path d="M0 0.0951136 C4.9 0.485114 10.05 -0.704886 14.79 0.735114 C16.12 1.45511 17.47 2.14511 18.84 2.79511 C20.23 3.61511 21.52 4.59511 22.92 5.41511 C24.56 6.19511 26.18 7.00511 27.82 7.79511 C28.26 8.03511 29.14 8.53511 29.58 8.77511 C32.16 12.7851 34.63 16.8851 37.81 20.4551 C33.81 19.7751 32.2 15.3751 28.91 13.4551 C27.27 12.5751 26.09 11.0251 24.51 10.1251 C23.35 10.5651 22.19 11.0151 21.05 11.4751 C21.36 12.0151 21.98 13.1051 22.29 13.6551 C22.35 14.6051 22.42 15.5551 22.5 16.5051 C23.23 17.7251 23.58 19.0651 23.54 20.5251 C18.85 16.3851 14.65 11.7251 10.16 7.37511 C8.71 5.93511 6.7 5.32511 4.91 4.43511 C2.9 3.47511 1.45 1.73511 0 0.0951136 Z" style="fill:#ffffff; fill-rule:nonzero;stroke-width:0.09375; stroke-linecap:butt; stroke-linejoin:miter; stroke-dasharray:none; stroke:#ffffff;" transform="translate(229.667, 29.9418)"/>
    <g id="Gruppe2" style="fill:none; stroke:none" clip-path="url(#Clip3)" transform="translate(98.91, 40.97) scale(1, 1)" clip-rule="evenodd">
     <path d="M51.05 0 L51.67 0.05 C52.9 2.34 54.16 4.69 56.1 6.46 C56.09 5.6 56.09 3.88 56.08 3.02 C56.51 3.02 57.36 3.03 57.78 3.03 C58.1 4.05 58.52 5.03 59.03 5.96 C60.84 6.43 60.82 4.1 61.4 3.03 L62.1 3.02 C62.09 4.29 62.08 5.56 62.07 6.83 C64.22 7.66 66.51 8 68.67 8.79 C70.03 9.01 71.45 9.09 72.68 9.8 C74.04 10.04 75.51 10.03 76.7 10.88 C77.63 10.98 78.56 11.07 79.49 11.17 C86.12 13.84 94.15 10.03 100.72 13.26 C101.2 13.53 102.16 14.06 102.64 14.32 C103.14 14.57 104.15 15.05 104.66 15.3 C107.88 16.59 110.72 18.58 112.81 21.38 C113.52 22.72 114.48 23.91 115.27 25.21 C113.53 24.7 112.09 23.56 110.51 22.71 C110.02 22.47 109.04 22 108.55 21.76 C106.97 20.91 105.34 20.15 103.61 19.69 C101.93 19.13 100.12 18.99 98.51 18.23 C98.05 18.13 97.12 17.94 96.66 17.84 C95.67 17.41 94.66 17.02 93.65 16.67 C92.37 16.16 91.01 16.01 89.67 15.8 C88.92 15.52 87.42 14.97 86.67 14.69 C88.39 17.95 92.08 19.13 94.39 21.83 C96.34 23.9 99.11 24.99 100.85 27.3 C102.35 29.35 104.91 30.1 106.51 32.03 C104.6 32.05 102.69 32.03 100.78 32.03 C101.62 34.25 102.67 36.39 103.89 38.43 C104.87 40.76 105.53 43.24 106.8 45.46 C107.64 47.08 108.51 48.7 109.25 50.38 C106.46 48.46 104.6 45.49 101.78 43.6 C102.03 44.34 102.53 45.83 102.78 46.57 C103.08 47.58 103.42 48.58 103.78 49.57 C104.07 50.52 104.4 51.45 104.77 52.38 C105.41 53.71 106.05 55.06 106.39 56.52 C106.65 57.24 107.18 58.69 107.45 59.42 C104.5 57.27 103.18 53.38 99.75 51.61 C100.04 52.36 100.61 53.86 100.9 54.6 C100.99 55.07 101.18 56 101.28 56.46 C101.71 57.45 102.1 58.45 102.45 59.48 C102.95 61.16 103.21 62.9 103.75 64.57 C104.19 65.85 104.7 67.11 105.17 68.39 C102.25 66.85 101.85 62.97 98.74 61.63 C99.02 62.37 99.59 63.86 99.87 64.6 C100.08 65.98 100.08 67.45 100.94 68.63 C101.04 69.56 101.14 70.49 101.24 71.42 C102.09 72.61 102.07 74.08 102.33 75.45 C103.07 77.1 103.12 78.96 103.85 80.61 C104.08 81.98 104.09 83.45 104.94 84.63 C105.04 85.56 105.14 86.49 105.24 87.43 C106.2 89.03 105.97 91.02 106.94 92.63 C107.04 93.56 107.14 94.49 107.25 95.43 C107.87 97.3 109.03 99.45 108.42 101.41 C107.57 103.05 106.97 104.8 106.38 106.54 C106.03 107.98 105.42 109.33 104.81 110.67 C104.26 111.93 103.86 113.25 103.38 114.54 C103.01 115.95 102.45 117.29 101.89 118.64 C100.74 120.57 99.79 122.6 98.81 124.62 C98.01 126.09 97.22 127.6 96.9 129.26 C95.16 127.46 92.85 126.42 91.04 124.71 C91.08 126.27 91.1 127.84 91.11 129.4 C88.78 128.03 88.12 125.23 86.07 123.62 C85.77 126.72 86.22 129.71 87.35 132.59 C85.77 131.17 84.72 129.32 83.79 127.45 C82.68 125.43 82.1 122.99 80.08 121.64 C80.07 125.1 80.11 128.57 80.09 132.04 L79.4 132.03 C78.83 130.5 78.14 129.03 77.37 127.61 C76.71 126.26 76.04 124.91 75.37 123.58 C75.11 123.1 74.6 122.14 74.34 121.67 C73.81 120.45 73.26 119.26 72.78 118.03 L71.99 118.02 C72.13 119.6 71.81 121.37 73.02 122.65 C73.4 125.28 72.27 128.34 74.01 130.63 C74.1 132.74 74.1 134.85 74.1 136.96 L75.62 137.22 C75.32 137.41 74.74 137.81 74.45 138 C71.58 135.73 70.95 131.44 67.68 129.67 C68 130.4 68.63 131.88 68.95 132.62 C69.04 133.55 69.14 134.49 69.24 135.43 C70.09 136.61 70.08 138.08 70.33 139.45 C71.36 141.01 70.56 143.34 72.24 144.51 C70.69 146.98 67.45 145.21 65.48 146.94 C64.43 146.98 63.39 147.01 62.35 147.04 C61.86 148.38 61.31 149.7 60.83 151.04 C58.99 151.03 57.14 151.02 55.3 151.01 C54.85 152.4 54.32 153.78 53.96 155.21 C52.91 154.48 51.8 153.86 50.66 153.31 C49.81 152.85 48.98 152.36 48.17 151.86 C47.68 153.7 47.12 155.52 46.78 157.39 C44.52 156.68 43.18 154.79 42.74 152.52 C40.26 149.36 37.32 146.39 33.89 144.22 C30.18 140.94 26.98 137.11 23.27 133.82 C20.65 132.41 18.78 130.08 16.61 128.12 C14.86 127.95 12.82 127.54 11.47 129.03 C8.93 129.76 7.32 128.17 6.87 125.78 C8.36 126.69 9.9 127.5 11.46 128.28 C11.17 127.57 10.6 126.17 10.31 125.47 C10.1 124.12 9.97 122.75 9.44 121.48 C8.46 116.51 2.85 115.11 0 111.5 C7.35 101.66 14.24 91.49 21.27 81.41 C22.96 78.91 25.44 76.8 26.25 73.83 C24.88 74.69 23.65 75.79 22.13 76.4 C22.06 73.48 22.14 70.56 22 67.64 C20.98 66.07 21.13 64.1 20.33 62.45 C20.07 61.08 20.11 59.58 19.2 58.42 C19.16 57.72 19.1 56.33 19.06 55.63 C17.92 56.47 17.03 57.61 16.83 59.04 L16.34 59.05 C16.12 58.43 15.68 57.19 15.46 56.57 C14.92 55.19 13.93 54.2 12.54 53.7 C10.94 52.93 9.35 52.12 7.61 51.72 C6.16 51.02 4.1 51.15 3.14 49.71 C3.88 48.63 4.73 47.63 5.42 46.52 C5.86 45.53 6.31 44.55 6.77 43.57 C7.6 42.18 8.59 40.89 9.37 39.47 C10.16 37.68 11.43 36.18 12.37 34.47 C13.29 32.38 14.84 30.68 15.85 28.64 C16.64 26.37 18.17 24.51 19.38 22.47 C20.16 20.68 21.4 19.15 22.43 17.5 C22.65 16.99 23.09 15.96 23.31 15.45 C24.16 13.38 25.57 11.59 27.61 10.61 C28.59 10.31 29.57 10.03 30.56 9.77 C31.85 9.26 33.18 8.85 34.46 8.32 C36.53 6.83 39.05 6.87 41.48 7.1 C42.85 8.36 44.76 7.97 46.43 8.17 C46.01 7.61 45.18 6.49 44.76 5.93 C46 5.99 47.25 6.06 48.5 6.15 C49.66 6.84 50.93 7.2 52.31 7.25 C52.26 5.86 51.89 4.59 51.19 3.43 C51.13 2.29 51.08 1.15 51.05 0 Z M41.57 57.76 C40.61 58.03 39.66 58.34 38.73 58.69 C37.53 59.27 36.33 59.86 35.09 60.35 C35.09 62.91 35.09 65.47 35.09 68.03 C37.23 68.02 39.37 68.02 41.52 68.1 C40.68 70.35 38.48 71.71 37.68 73.98 L36.67 74.17 L37.37 75.03 C37.91 74.69 38.99 74.03 39.52 73.7 C39.01 75.06 38.42 76.38 37.76 77.68 C37.51 78.35 36.99 79.71 36.74 80.39 C41.94 76.96 46.41 72.59 51.66 69.21 C55.77 68.81 59.94 69.04 64.07 69.08 C64.48 69.28 65.28 69.69 65.69 69.89 C66.62 69.98 67.55 70.08 68.49 70.17 C69.67 71.07 71.16 71.03 72.56 71.19 C73.1 71.48 74.17 72.05 74.7 72.33 C74.91 70.97 75.7 69.88 76.58 68.87 C77.73 70.02 79.23 70.65 80.71 71.27 C86.2 74.15 89.41 79.91 94.42 83.46 C94.14 82.71 93.57 81.21 93.28 80.46 C93.19 79.99 93 79.06 92.91 78.59 C92.19 76.89 91.6 75.14 90.88 73.44 C90.11 72.15 89.44 70.8 88.84 69.42 C88.01 67.36 86.6 65.59 84.57 64.62 C83.59 64.31 82.61 64.01 81.63 63.72 C80.38 63.13 79.01 63.02 77.67 62.8 C75.79 61.55 73.3 62.55 71.49 61.18 C69.8 61.01 68 61.23 66.51 60.26 C65.14 60.02 63.65 60.05 62.49 59.16 C61.22 59.06 59.95 59 58.68 58.91 C56.62 57.06 53.4 59.06 51.46 57.02 C50.18 57.05 48.85 56.97 47.72 57.68 C46.54 58.27 45.36 58.85 44.14 59.35 C44.12 58.7 44.06 57.38 44.04 56.72 C43.42 56.98 42.18 57.5 41.57 57.76 Z M53.49 74.26 C52.55 74.76 51.6 75.25 50.64 75.73 C49.23 76.53 47.95 77.52 46.55 78.33 C45.23 78.85 43.98 79.53 42.96 80.54 C44.09 82.29 45.17 84.31 47.55 84.34 C49.07 85.17 50.82 85.02 52.49 85.18 C54.23 86.5 56.47 85.92 58.47 86.14 C59.9 87.33 61.78 86.99 63.49 87.16 C64.62 88.33 66.26 88.24 67.52 87.39 C69.11 86.57 70.7 85.76 72.19 84.76 C72.13 86.17 72.09 87.58 72.06 88.99 C73.94 89.14 76.09 88.54 77.67 89.91 C78.9 90 80.13 90.08 81.37 90.16 C79.94 88.05 78.94 85.71 77.81 83.45 C77.06 82.08 76.4 80.66 75.84 79.2 C74.43 78.69 73.04 78.15 71.61 77.7 C69.94 77.15 68.21 76.89 66.54 76.39 C65.51 76.04 64.51 75.65 63.52 75.22 C63.06 75.12 62.14 74.93 61.67 74.83 C60.46 74.04 59.01 74.02 57.64 73.83 C56.32 72.24 54.87 73.71 53.49 74.26 Z M39.76 83.7 C40.18 85.06 40.77 86.35 41.33 87.67 C41.59 88.14 42.1 89.1 42.36 89.58 C42.84 90.54 43.32 91.49 43.79 92.46 C44.23 93.89 45.22 94.88 46.65 95.33 C48 95.99 49.34 96.67 50.69 97.33 C51.18 97.55 52.18 98 52.68 98.23 C53.66 98.82 54.63 99.43 55.58 100.07 C56.43 99.21 57.28 98.36 58.14 97.51 C56.44 95.52 55.8 92.9 54.38 90.73 C52.9 89.77 51.22 89.16 49.68 88.3 C48.32 87.65 46.97 86.99 45.64 86.31 C45.16 86.05 44.21 85.53 43.73 85.27 C42.42 84.71 41.12 84.12 39.76 83.7 Z M28.33 111.66 C27.84 113.28 27.27 114.89 26.81 116.53 C26.29 118.51 25.14 122.88 22.52 120.13 C21.24 120.05 19.96 119.99 18.68 119.91 C17.46 119.17 16.12 118.82 14.67 118.83 C16.57 121.05 19.21 122.57 21.58 124.28 C24.1 125.24 22.74 128.38 23.17 130.37 C23.78 130.08 25.01 129.51 25.63 129.22 C27.01 129.01 28.51 129.07 29.69 128.16 C30.22 128.12 31.27 128.04 31.79 128 C32.04 127.41 32.52 126.23 32.76 125.63 C33.31 124.56 33.88 123.5 34.44 122.44 C34.61 122.08 34.96 121.36 35.13 121 C33.07 117.74 30.58 114.78 28.33 111.66 Z" style="fill:#ffffff; fill-rule:nonzero;stroke-width:0.09375; stroke-linecap:butt; stroke-linejoin:miter; stroke-dasharray:none; stroke:#ffffff;" transform="translate(0.046875, 0.046875)"/>
    </g>
    <path d="M0 0 C1.22 0.08 2.44 0.17 3.67 0.26 C5.25 1.23 7.2 1.07 8.84 1.93 C9.3 2.03 10.22 2.23 10.69 2.33 C12.31 3.14 14.18 3.14 15.84 3.89 C17.19 4.13 18.63 4.17 19.84 4.93 C20.31 5.03 21.23 5.23 21.69 5.33 C23.17 6.16 24.95 6.01 26.48 6.71 C27.79 7.87 28.34 9.61 29.51 10.89 C31.53 13.15 34.17 14.91 35.6 17.66 C36.22 19.02 36.88 20.36 37.52 21.72 C38.22 23.03 38.9 24.36 39.52 25.72 C40.26 26.83 40.43 28.61 41.88 29.08 C42.62 28.34 43.35 27.6 44.08 26.84 C45.94 29.92 44.33 33.8 46.19 36.74 C46.31 44.33 46.31 51.93 46.18 59.52 C44.57 61.5 45.48 64.19 45.18 66.52 C43.09 68.85 45.43 72.41 43.33 74.74 C43.24 77.33 43.28 79.93 43.18 82.52 C41.15 86.1 42.81 90.57 42.19 94.52 C40.15 98.3 41.76 102.98 41.26 107.13 L40.26 107.13 C40.3 96.8 40.18 86.47 40.31 76.15 C40.53 75.74 40.97 74.93 41.19 74.52 C41.82 70.58 40.14 66.1 42.18 62.54 C42.29 60.27 42.29 58 42.17 55.73 C41.21 54.59 41.28 53.08 41.02 51.71 C40.21 50.06 40.37 48.1 39.37 46.53 C39.34 45.83 39.26 44.43 39.22 43.73 C37.46 44.97 37.05 47.29 35.29 48.53 C35.26 47.83 35.19 46.43 35.16 45.73 C33.18 42.13 34.8 37.68 34.19 33.74 C32.44 31.45 33.57 28.39 33.19 25.75 C31.6 24 32.9 21.32 31.37 19.54 C31.34 18.96 31.27 17.8 31.23 17.22 C29.68 17.11 28.03 17.31 26.69 16.35 C22.13 16.33 19.55 11.72 15.73 9.79 C15.22 9.54 14.21 9.04 13.7 8.79 C10.95 6.61 9.94 10.94 8.95 12.72 C8.71 13.32 8.23 14.53 7.99 15.14 L7.53 15.14 C7.08 13.92 6.55 12.74 6.05 11.54 C5.15 9.96 4.36 8.32 3.51 6.72 C3.01 5.65 2.5 4.6 2.03 3.52 C1.37 2.33 0.69 1.16 0 0 Z" style="fill:#ffffff; fill-rule:nonzero;stroke-width:0.09375; stroke-linecap:butt; stroke-linejoin:miter; stroke-dasharray:none; stroke:#ffffff;" transform="translate(251.787, 69.9169)"/>
    <path d="M14.5543 0.593997 C16.3643 -0.386003 18.4943 0.153997 20.4543 0.103997 C22.1243 1.564 24.5443 0.663997 26.4143 1.674 C27.6043 2.284 28.7943 2.884 30.0443 3.364 C30.0643 4.394 30.0843 5.424 30.1043 6.454 C31.9043 10.114 34.4643 13.584 35.2443 17.614 C32.6043 14.814 31.2343 10.964 29.7743 7.454 C29.0243 6.364 28.9243 4.574 27.4943 4.124 C26.2143 3.984 24.9343 4.064 23.6543 4.084 C22.2143 5.534 20.1443 4.944 18.3443 5.054 C18.1043 5.664 17.6243 6.894 17.3843 7.504 C17.1143 7.974 16.5643 8.934 16.2943 9.414 C15.7843 10.604 15.2343 11.784 14.7543 12.984 C15.9843 13.034 17.2143 13.074 18.4443 13.134 C20.4843 14.854 23.3943 13.354 25.5943 14.734 C27.4043 14.954 28.9743 15.724 29.3343 17.644 C27.1143 18.494 25.0143 19.654 22.7243 20.314 C23.5343 22.054 27.9743 22.144 26.5243 24.544 C20.7043 32.074 15.4143 40.004 9.58427 47.534 C8.99427 48.534 9.03427 49.504 9.70427 50.444 C10.2443 51.494 10.8043 52.554 11.3243 53.624 C12.1543 55.234 12.9643 56.854 13.7643 58.484 C14.1943 60.264 15.6043 61.204 17.4243 61.284 C16.3143 62.354 15.0343 63.194 13.6143 63.794 C13.1343 64.034 12.1543 64.524 11.6643 64.764 C10.5943 65.264 9.53427 65.794 8.46427 66.304 C6.85427 67.144 5.22427 67.944 3.64427 68.814 C2.45427 69.334 1.28427 69.874 0.0842683 70.344 C0.144268 67.434 -0.235732 64.464 0.254268 61.604 C2.26427 58.424 4.83427 55.654 6.87427 52.494 L6.38427 51.614 C4.58427 49.164 4.32427 46.104 3.12427 43.434 C3.06427 41.844 3.06427 40.244 3.13427 38.664 C4.29427 35.974 4.62427 32.954 6.33427 30.464 C7.83427 28.004 8.27427 25.074 9.77427 22.614 C10.4943 21.224 11.2243 19.834 11.8343 18.384 C12.2043 16.724 11.7643 14.834 12.9743 13.434 C13.0543 11.174 13.0443 8.914 13.1343 6.654 C14.5743 4.924 13.7043 2.544 14.5543 0.593997 Z" style="fill:#ffffff; fill-rule:nonzero;stroke-width:0.09375; stroke-linecap:butt; stroke-linejoin:miter; stroke-dasharray:none; stroke:#ffffff;" transform="translate(83.9926, 103.003)"/>
    <path d="M0 0 L0.88 0 C1.03 1.62 1.61 3.12 2.31 4.58 C3.47 6.35 4.06 8.4 4.81 10.36 C5.77 12.38 6.43 14.52 7.31 16.58 C8.94 18.99 9.29 21.99 10.84 24.45 C11.07 24.96 11.54 25.96 11.77 26.46 C20.99 40.17 31.9 52.63 41.3 66.21 C38.57 65.42 36.98 62.83 34.65 61.37 C29.56 57.95 25.1 53.6 19.7 50.69 C19.98 51.4 20.53 52.82 20.81 53.53 C21.09 54.48 21.41 55.42 21.77 56.35 C22.6 58 23.21 59.75 23.8 61.51 C24.17 62.89 24.72 64.2 25.28 65.52 C21.8 63.87 19.31 60.72 16.04 58.69 C16.08 60.59 16.1 62.49 16.19 64.39 C17.35 65.74 17.06 67.56 17.3 69.18 C15.63 68.29 13.74 67.88 12.19 66.76 C11.78 67.33 11.38 67.9 10.97 68.47 C11.24 72.77 10.99 77.08 11.18 81.39 C12.61 82.95 11.97 85.11 12.15 87 L11.3 87 C11.24 85.01 10.32 83.26 9.37 81.58 C8.86 80.52 8.34 79.48 7.85 78.42 C7 76.81 6.2 75.18 5.34 73.59 C4.85 72.51 4.33 71.44 3.86 70.37 C5.46 69.78 7.02 69.07 8.58 68.38 C9.66 67.72 10.66 66.91 11.49 65.96 C9.62 64.62 10.41 62.16 9.3 60.42 C9.2 59.96 9 59.04 8.89 58.57 C7.96 56.82 8.28 54.65 6.97 53.06 C9.04 52.39 11.14 51.81 13.35 52.01 C10.81 47.52 7.35 43.69 4.65 39.32 C4.2 38.99 3.31 38.34 2.86 38.01 L3.32 36.81 C5.28 38.27 7.36 39.58 9.51 40.76 C10.51 41.24 11.51 41.75 12.51 42.27 C12.24 41.6 11.71 40.27 11.44 39.61 C10.88 38.53 10.31 37.47 9.77 36.39 C9.18 34.72 8.6 33.04 7.89 31.42 C6.48 29.26 5.89 26.71 4.9 24.36 C4.59 23.88 3.98 22.93 3.67 22.46 C2.84 20.51 3.54 18.15 2.2 16.41 C2.12 14.8 2.07 13.19 2 11.59 C0.41 9.6 1.32 6.93 1.01 4.62 C-0.17 3.33 0.15 1.57 0 0 Z" style="fill:#ffffff; fill-rule:nonzero;stroke-width:0.09375; stroke-linecap:butt; stroke-linejoin:miter; stroke-dasharray:none; stroke:#ffffff;" transform="translate(230.947, 149.047)"/>
    <path d="M10.09 0 L11.05 0 C10.81 2.52 11.81 5.42 10.14 7.61 C9.82 9.94 10.74 12.63 9.13 14.62 C8.81 16.94 9.76 19.64 8.11 21.61 C8.06 23.2 8.06 24.8 8.12 26.39 C9.59 28.07 8.91 30.37 9.16 32.39 C10.1 33.96 10.1 35.85 10.69 37.55 C11.04 38.57 11.43 39.58 11.86 40.57 C11.96 41.03 12.15 41.96 12.25 42.43 C13.07 44.05 13.02 45.95 13.85 47.58 C13.95 48.04 14.14 48.97 14.24 49.43 C14.66 50.42 15.05 51.42 15.4 52.44 C16.87 54.98 15.05 58.27 16.97 60.61 C16.62 64.88 18.14 69.7 16.13 73.61 C16.03 76.2 16.07 78.8 15.96 81.39 C14.94 82.95 15.08 84.92 14.3 86.58 C14.07 87.91 13.92 89.27 13.39 90.54 C12.96 91.92 12.4 93.25 11.85 94.59 C10.93 96.17 10.12 97.81 9.36 99.46 C6.43 103.89 3.67 108.48 0.14 112.46 L0 111 L0.68 111 C1.43 109.08 2.45 107.29 3.31 105.43 C4.14 103.81 4.94 102.19 5.78 100.58 C6.3 99.5 6.86 98.44 7.39 97.38 C7.74 96.44 8.07 95.49 8.38 94.54 C8.94 92.85 9.11 91.06 9.81 89.42 C10.08 88.04 10 86.52 10.97 85.38 C11.08 80.92 11.14 76.45 11 71.99 C10.79 71.59 10.35 70.8 10.14 70.4 C10.06 68.47 10.04 66.53 9.96 64.6 C8.1 62.57 9.99 59.43 8.15 57.39 C7.91 55.39 8.57 53.11 7.17 51.41 C7.08 50.14 7.02 48.86 6.93 47.59 C5.13 45.53 6.99 42.41 5.12 40.39 C5.01 34.8 4.99 29.2 5.13 23.61 C6.37 22.2 6 20.3 6.19 18.6 C7.59 16.79 6.56 14.29 7.82 12.42 C8.06 11.05 8.04 9.57 8.9 8.39 C9.09 6.69 8.76 4.81 9.95 3.38 C10 2.25 10.05 1.13 10.09 0 Z" style="fill:#ffffff; fill-rule:nonzero;stroke-width:0.09375; stroke-linecap:butt; stroke-linejoin:miter; stroke-dasharray:none; stroke:#ffffff;" transform="translate(201.997, 167.047)"/>
    <path d="M8.39 1.21642 C9.42 0.866424 10.34 -0.263576 11.5 0.0564242 C14.12 1.75642 15.23 4.79642 17.32 6.98642 C13.73 6.53642 9.74 7.88642 6.44 6.13642 C5.98 6.04642 5.05 5.86642 4.59 5.76642 C3.25 4.75642 1.57 4.98642 0.01 4.88642 L0 4.01642 C2.35 4.26642 4.51 3.46642 6.46 2.23642 C6.94 1.97642 7.91 1.47642 8.39 1.21642 Z" style="fill:#ffffff; fill-rule:nonzero;stroke-width:0.09375; stroke-linecap:butt; stroke-linejoin:miter; stroke-dasharray:none; stroke:#ffffff;" transform="translate(92.0369, 181.09)"/>
    <path d="M1.36 0 C2.83 0.11 4.38 0.04 5.67 0.89 C7.03 1.11 8.47 1.15 9.67 1.93 C10.13 2.02 11.05 2.21 11.51 2.3 C11.93 2.49 12.75 2.88 13.16 3.07 C18.6 3.28 24.04 2.96 29.48 3.2 C31.24 4.71 33.8 3.6 35.67 4.89 C37.02 5.11 38.45 5.16 39.66 5.89 C43.33 5.47 45.33 8.82 47.08 11.46 C46.03 13.07 45.24 14.83 44.36 16.54 C43.83 17.61 43.27 18.66 42.72 19.73 C41.46 22.15 42.53 25 41.89 27.55 C39.74 31.14 36.62 33.96 34.38 37.47 C33.91 35.79 33.18 34.21 32.44 32.65 C31.39 31.01 30.2 29.45 29.34 27.7 C28.51 26.1 27.36 24.64 26.9 22.87 C28.16 23.64 29.25 24.63 30.43 25.51 C30.02 23.78 29.17 22.22 28.38 20.66 C28.12 20.18 27.59 19.23 27.33 18.75 C26.84 17.58 26.31 16.43 25.85 15.25 C23.8 14.41 21.56 14.17 19.51 13.33 C19.05 13.22 18.13 13.02 17.67 12.92 C16.03 12.06 14.09 12.19 12.49 11.27 C11.55 11.17 10.6 11.08 9.67 10.99 C9 10.68 7.68 10.06 7.02 9.75 C7.13 11.42 6.83 13.23 7.87 14.7 C8.1 16.08 8.04 17.58 9 18.73 C9.06 20.09 9.09 21.45 9.12 22.81 C6.88 23.62 4.77 24.75 2.66 25.83 C1.76 26.32 0.87 26.82 0 27.35 C0.24 19.6 -0.02 11.84 0.11 4.09 C0.09 2.62 0.96 1.36 1.36 0 Z" style="fill:#ffffff; fill-rule:nonzero;stroke-width:0.09375; stroke-linecap:butt; stroke-linejoin:miter; stroke-dasharray:none; stroke:#ffffff;" transform="translate(83.9569, 189.927)"/>
    <g id="Gruppe3" style="fill:none; stroke:none" clip-path="url(#Clip4)" transform="translate(126.69, 229.95) scale(1, 1)" clip-rule="evenodd">
     <path d="M78.59 0.04 L79.1 0 C80.97 3.56 80.12 7.61 80.38 11.45 C82.4 15 80.89 19.5 81.23 23.44 C79.06 26.08 81.5 29.9 79.49 32.63 C79.4 33.09 79.21 34.01 79.12 34.48 C78.68 35.46 78.32 36.48 78.01 37.52 C77.53 38.81 77.15 40.14 76.6 41.41 C75.97 42.74 75.36 44.09 74.99 45.53 C74.64 46.51 74.31 47.5 74.01 48.51 C73.64 49.5 73.3 50.5 72.98 51.51 C72.28 53.87 72.02 56.39 70.58 58.48 C70.07 59.53 69.54 60.57 69.05 61.63 C66.28 64.46 68.35 68.63 66.38 71.65 C66.3 73.58 66.29 75.51 66.39 77.43 C67.35 78.57 67.29 80.09 67.55 81.47 C68.21 83.05 68.4 84.77 68.94 86.4 C69.48 87.67 71.05 89.06 69.8 90.44 C68.84 90.83 67.85 91.13 66.84 91.35 C65.85 91.7 64.85 92.03 63.85 92.34 C62.5 92.84 61.12 93.24 59.78 93.77 C58.76 94.06 57.76 94.38 56.77 94.74 C55.76 95.04 54.76 95.38 53.77 95.75 C52.76 96.04 51.76 96.37 50.77 96.72 C49.73 97.04 48.72 97.42 47.74 97.86 C47.27 97.95 46.34 98.14 45.88 98.24 C44.89 98.67 43.89 99.05 42.87 99.4 C37.41 100.84 31.54 99.76 25.92 99.96 C24.37 98.99 22.47 99 20.79 98.4 C19.06 97.93 17.42 97.17 15.85 96.32 C15.35 96.09 14.36 95.62 13.86 95.39 C12.07 94.63 10.77 93.2 9.86 91.52 C9.39 89.83 9.34 88.01 8.46 86.45 C8.36 85.51 8.26 84.58 8.16 83.65 C7.24 82.04 7.33 80.12 6.55 78.47 C6.31 77.09 6.31 75.63 5.46 74.44 C5.36 73.51 5.26 72.57 5.17 71.65 C4.01 70.33 4.34 68.57 4.28 66.98 C4.29 62.87 4.4 58.76 4.22 54.66 C3.17 53.1 3.37 51.12 2.55 49.47 C2.28 48.1 2.32 46.61 1.44 45.44 C1.36 44.49 1.28 43.54 1.21 42.6 C0.91 42.06 0.3 40.99 0 40.45 C0.68 40.18 2.04 39.65 2.72 39.38 C4.93 38.45 6.82 36.98 8.86 35.77 C11.58 34.43 13.88 32.4 16.76 31.37 C18.16 30.54 19.46 29.56 20.85 28.71 C21.35 28.49 22.37 28.04 22.88 27.81 C25.61 25.95 28.79 25.2 31.88 24.25 C32.34 24.15 33.27 23.95 33.73 23.85 C34.93 23.08 36.37 23.04 37.73 22.81 C39.38 22.06 41.25 22.05 42.89 21.25 C43.35 21.15 44.28 20.95 44.74 20.85 C46.31 20.06 48.1 19.96 49.78 19.47 C53.96 16.74 57.86 13.63 61.8 10.58 C62.9 9.89 63.92 10 64.88 10.9 C65.35 10.98 66.29 11.12 66.76 11.2 C67.4 11.5 68.69 12.11 69.33 12.41 C69.3 11.16 69.26 9.9 69.21 8.65 C68.9 7.91 68.26 6.42 67.95 5.67 C70.21 6.22 71.97 7.82 73.76 9.21 C74.75 8.17 75.48 6.94 76.06 5.64 C76.55 4.56 77.1 3.5 77.63 2.44 C77.87 1.84 78.35 0.64 78.59 0.04 Z M41.9 26.88 C44.62 29.4 46.01 33.07 49.1 35.2 C49.85 34.05 50.46 32.84 51.03 31.61 C51.51 30.71 52.01 29.83 52.54 28.97 C51.88 28.97 50.57 28.96 49.92 28.96 C48.77 28 47.26 28.07 45.89 27.83 C44.64 27.19 43.32 26.88 41.9 26.88 Z M35.01 34.61 C35.68 35.9 36.37 37.19 37.1 38.46 C37.65 39.73 38.23 40.98 38.74 42.27 C37.05 41.05 35.02 40.95 33.03 40.88 C33.74 42.04 34.43 43.24 35.09 44.45 C35.56 45.55 36.09 46.64 36.57 47.75 C34.47 48.68 32.27 49.26 29.95 49.11 C31.14 50.38 32.37 51.63 33.62 52.86 C31.8 53.4 30.01 54.1 28.08 54.1 C29.4 55.7 30.23 57.66 30.52 59.71 C29.84 59.96 28.49 60.46 27.82 60.7 C26.59 62.03 28.12 63.4 28.6 64.67 C30.56 66.41 26.77 66.95 25.78 67.84 C24.91 69.68 25.83 72 24.4 73.65 C24.32 75.58 24.3 77.51 24.22 79.45 C22.97 80.84 23.37 82.75 23.21 84.44 C25.08 83.38 25.72 81.27 26.58 79.45 C26.83 78.96 27.33 77.99 27.58 77.5 C28.27 76.16 28.93 74.81 29.58 73.46 C30.28 72.13 30.96 70.79 31.6 69.44 C31.84 68.96 32.33 67.98 32.58 67.5 C33.27 66.16 33.95 64.81 34.6 63.45 C34.84 62.96 35.33 61.99 35.58 61.5 C36.27 60.17 36.94 58.82 37.58 57.47 C38.4 55.86 39.21 54.24 40.04 52.64 C40.67 51.28 41.34 49.95 42.05 48.64 C42.55 47.57 43.07 46.52 43.57 45.46 C44.94 43.05 45.89 40.4 47.51 38.13 C45.25 37.44 42.86 37.2 40.71 36.21 C39.77 36.1 38.83 36 37.9 35.91 C37.18 35.58 35.73 34.93 35.01 34.61 Z" style="fill:#ffffff; fill-rule:nonzero;stroke-width:0.09375; stroke-linecap:butt; stroke-linejoin:miter; stroke-dasharray:none; stroke:#ffffff;" transform="translate(0.046875, 0.046875)"/>
    </g>
    <path d="M3.21 5.6 C4.65 3.93 3.25 0.25 6.08 0 C8.91 0.5 8.6 4.83 7.13 6.61 C6.95 10.86 7.17 15.13 6.98 19.39 C5.28 21.55 6.31 24.45 6.06 26.96 C4.92 26.99 3.79 27.03 2.65 27.09 C1.99 27.41 0.66 28.06 0 28.38 C0.14 26.69 -0.32 24.77 0.98 23.39 C1.08 20.79 1.04 18.2 1.13 15.6 C2.99 13.58 1.17 10.48 2.92 8.4 C3.02 7.46 3.11 6.53 3.21 5.6 Z" style="fill:#ffffff; fill-rule:nonzero;stroke-width:0.09375; stroke-linecap:butt; stroke-linejoin:miter; stroke-dasharray:none; stroke:#ffffff;" transform="translate(86.9869, 271.047)"/>
    <path d="M3.21884 1.4 C4.36884 0.96 5.49884 0.45 6.63884 0 C6.97884 0.69 7.64884 2.09 7.97884 2.78 C8.02884 4.38 8.03884 5.97 7.99884 7.57 C6.06884 9.57 8.00884 12.75 6.13884 14.79 C6.08884 15.81 6.05884 16.83 6.03884 17.86 C5.44884 18.12 4.26884 18.63 3.67884 18.89 C2.46884 19.44 1.25884 20.02 0.0188353 20.5 C0.198835 18.52 -0.511165 16.25 0.948835 14.59 C1.02884 12.98 1.06884 11.37 1.14884 9.77 C2.82884 7.29 1.43884 3.94 3.21884 1.4 Z" style="fill:#ffffff; fill-rule:nonzero;stroke-width:0.09375; stroke-linecap:butt; stroke-linejoin:miter; stroke-dasharray:none; stroke:#ffffff;" transform="translate(108.998, 271.867)"/>
    <path d="M0 0 C0.68 0.68 0.68 0.68 0 0 Z" style="fill:#ffffff; fill-rule:nonzero;stroke-width:0.09375; stroke-linecap:butt; stroke-linejoin:miter; stroke-dasharray:none; stroke:#ffffff;" transform="translate(201.237, 280.237)"/>
    <path d="M4.39397 0.01 L5.07397 0 C5.10397 0.6 5.17397 1.81 5.20397 2.41 C7.16397 4.77 5.06397 8.17 6.91397 10.58 C7.00397 11.04 7.19397 11.97 7.29397 12.43 C7.71397 13.42 8.07397 14.44 8.38397 15.49 C8.63397 16.11 9.14397 17.36 9.40397 17.98 C7.15397 18 4.91397 18 2.66397 18.08 C2.03397 18.41 0.773966 19.06 0.143966 19.38 C0.353966 15.77 -0.636034 11.9 0.773966 8.47 C1.07397 7.51 1.39397 6.56 1.73397 5.62 C2.29397 4.54 2.86397 3.48 3.42397 2.41 C3.66397 1.81 4.15397 0.61 4.39397 0.01 Z" style="fill:#ffffff; fill-rule:nonzero;stroke-width:0.09375; stroke-linecap:butt; stroke-linejoin:miter; stroke-dasharray:none; stroke:#ffffff;" transform="translate(201.953, 300.037)"/>
   </g>
   <g id="Gruppe6" style="fill:none; stroke:none" clip-path="url(#Clip5)" transform="translate(40.97, 12.8707) scale(1, 1)" clip-rule="evenodd">
    <g id="Gruppe5" style="fill:none; stroke:none" clip-path="url(#Clip6)" transform="translate(0, 0) scale(1, 1)" clip-rule="evenodd">
     <path d="M144.4 1.42927 C148.61 -1.06073 153.78 0.529267 158.42 0.209267 C162.01 2.47927 166.66 0.0092672 170.51 1.69927 C174.33 4.09927 177.67 7.16927 181.56 9.46927 C183.51 10.4293 185.56 11.1593 187.59 11.9393 C188.06 12.0393 188.99 12.2293 189.46 12.3293 C191.07 13.1793 192.98 13.0793 194.6 13.9293 C195.07 14.0293 195.99 14.2193 196.45 14.3193 C198.28 15.6393 200.78 14.6193 202.6 15.9493 C203.07 16.0393 204 16.2193 204.47 16.2993 C205.75 16.8693 207.08 17.3093 208.38 17.8493 C210.03 18.6293 211.76 19.2293 213.5 19.7693 C218.79 22.9993 223.37 27.1893 228.32 30.8493 C231.91 35.2693 234.86 40.1793 238.45 44.6193 C238.75 45.6093 239.05 46.5993 239.33 47.5893 C240.36 49.4993 239.65 51.8493 240.81 53.7093 C241.04 55.0893 240.99 56.5893 241.93 57.7493 C241.97 58.7693 242.01 59.7993 242.05 60.8293 C243.56 61.4093 245.04 62.0993 246.51 62.7793 C249.88 64.9393 252.69 67.9893 254.85 71.3393 C256.33 73.1393 258.3 74.5293 259.41 76.6293 C259.85 77.9893 260.21 79.3993 260.86 80.6893 C260.94 81.1593 261.12 82.0893 261.2 82.5593 C263.54 86.5493 260.45 91.8193 262.95 95.7393 C263.09 108.539 263.05 121.349 262.98 134.149 C262.76 134.549 262.33 135.339 262.11 135.739 C261.97 149.849 262 163.979 262.08 178.089 C262.3 178.499 262.73 179.329 262.95 179.739 C263.03 181.999 263.02 184.259 263.11 186.509 C265.32 189.169 262.74 193.069 264.93 195.739 C265.12 197.739 264.62 199.929 265.81 201.709 C266.04 203.069 266 204.559 266.9 205.719 C266.99 206.989 267.06 208.269 267.15 209.539 C268.6 211.319 267.52 213.839 268.8 215.709 C269.01 217.059 269.09 218.479 269.79 219.719 C270.01 221.039 270.15 222.409 270.69 223.659 C271.09 225.089 271.7 226.439 272.35 227.769 C272.72 228.699 273.04 229.639 273.31 230.599 C273.82 231.959 274.24 233.359 274.86 234.689 C274.94 235.159 275.12 236.099 275.2 236.569 C275.77 237.849 276.21 239.189 276.76 240.479 C277.35 241.829 277.95 243.179 278.38 244.599 C278.97 246.289 278.97 248.159 279.91 249.719 C280 251.319 280.05 252.929 280.14 254.529 C281.53 256.239 280.9 258.509 281.13 260.519 C283.06 263.789 281.53 267.899 282.1 271.519 C284.11 275.089 282.62 279.579 282.95 283.519 C281.22 285.809 282.33 288.869 281.96 291.519 C279.71 293.699 282.47 297.619 279.98 299.489 C281.6 302.649 284.56 304.789 286.23 307.939 C290.23 310.529 293.82 313.719 297.82 316.319 C298.22 316.859 299.03 317.939 299.43 318.479 C298.69 318.189 297.2 317.609 296.46 317.319 C295.99 317.219 295.07 317.029 294.6 316.929 C292.99 316.159 291.18 316.029 289.5 315.479 C287.78 314.979 286.16 314.219 284.54 313.499 C282.32 312.089 280.52 310.129 278.16 308.939 C277.55 311.259 276.82 313.549 275.82 315.739 C275.29 316.659 274.77 317.589 274.27 318.529 C273.78 319.589 273.27 320.649 272.78 321.719 C272.06 323.019 271.39 324.359 270.76 325.709 C269.92 327.319 269.11 328.949 268.34 330.599 C264.4 336.809 259.62 342.459 255.32 348.419 C249.36 352.719 243.71 357.509 237.49 361.439 C235.47 362.419 233.47 363.429 231.44 364.389 C229.47 365.449 227.46 366.439 225.44 367.389 C223.5 368.409 221.52 369.369 219.6 370.419 C219.9 369.709 220.52 368.279 220.82 367.569 C221.03 366.179 221.02 364.709 221.88 363.529 C221.98 362.589 222.08 361.659 222.18 360.729 C223.08 359.119 223.01 357.199 223.79 355.549 C224.03 354.169 224.03 352.699 224.88 351.529 C224.98 350.589 225.07 349.659 225.17 348.729 C225.37 348.309 225.78 347.479 225.98 347.059 C226.11 342.289 226.06 337.509 225.95 332.749 C224.98 331.599 225.06 330.079 224.8 328.719 C224.09 327.479 224.01 326.059 223.79 324.709 C223.02 322.669 222.77 320.479 221.88 318.479 C220.81 316.689 219.45 315.079 218.66 313.149 L218.21 313.069 C217.03 315.469 217.25 318.199 216.36 320.679 C216.05 321.629 215.73 322.589 215.39 323.539 C213.83 327.159 210.99 330.019 209.31 333.569 C208.52 334.979 207.54 336.269 206.74 337.679 C205.63 341.729 201.23 342.799 198.41 345.319 C197.05 346.619 195.41 347.539 193.76 348.429 C193.84 347.019 194.22 345.709 194.93 344.519 C195.16 342.499 194.52 340.219 195.93 338.519 C196.16 336.499 195.51 334.209 196.94 332.519 C196.76 328.639 197.8 324.459 196.36 320.769 C195.7 319.439 195.06 318.099 194.74 316.649 C194.22 315.339 193.84 313.989 193.41 312.669 C192.83 311.529 192.03 310.529 191.04 309.719 C191.01 311.649 191.02 313.589 190.96 315.519 C190.74 315.929 190.3 316.729 190.08 317.129 C189.92 322.579 190.08 328.039 190.04 333.499 C186.42 330.899 184.58 326.759 181.29 323.849 C179.84 322.039 178.39 320.109 177.69 317.869 C173.71 322.529 170.54 327.859 166.66 332.629 C165.93 334.259 165.18 335.879 164.68 337.599 C164.12 339.279 164 341.089 163.23 342.699 C163.13 343.169 162.93 344.089 162.83 344.559 C162.41 345.539 162.03 346.549 161.71 347.589 C161.35 348.579 161.01 349.579 160.7 350.589 C160.13 352.269 159.99 354.079 159.23 355.709 C159.13 356.169 158.93 357.089 158.83 357.559 C157.96 359.179 158.11 361.119 157.18 362.729 C157.08 363.659 156.97 364.589 156.87 365.529 C155.92 367.129 156.16 369.129 155.16 370.719 C155.12 371.319 155.02 372.529 154.97 373.129 L154.03 373.149 C154.02 370.669 154 368.189 154.11 365.719 C154.33 365.329 154.76 364.539 154.98 364.149 C155.18 359.679 154.89 355.209 155.11 350.739 C157.31 347.839 154.89 343.819 156.71 340.759 C157.91 338.479 158.37 335.869 159.82 333.709 C160.7 331.659 161.36 329.519 162.32 327.489 C162.97 325.849 163.54 324.169 164.24 322.549 C166.03 319.789 166.43 316.399 168.32 313.679 C167.6 314.009 166.16 314.679 165.44 315.009 C164.83 315.049 163.62 315.139 163.01 315.179 C163.02 316.019 163.05 317.689 163.06 318.529 C161.83 317.709 160.79 316.529 160.98 314.949 C159.21 316.799 156.46 315.569 154.45 316.899 C153.09 317.109 151.67 317.189 150.44 317.889 C149.08 318.109 147.65 318.159 146.45 318.929 C145.99 319.029 145.07 319.229 144.61 319.329 C142.98 320.099 141.17 320.229 139.48 320.769 C138.45 321.109 137.45 321.499 136.46 321.939 C136 322.039 135.07 322.229 134.61 322.329 C132.97 323.209 130.98 322.989 129.42 324.039 C125.15 324.729 120.33 322.979 116.42 325.049 C112.1 324.829 107.38 326.139 103.42 323.929 C102.49 323.399 101.57 322.879 100.64 322.369 C99.27 321.749 97.92 321.089 96.56 320.469 C93.14 318.309 90.69 314.899 87.02 313.029 C84.01 315.679 79.59 316.869 77.69 320.599 C84.08 323.749 88.78 329.889 95.48 332.499 C97.43 333.429 99.82 332.679 101.63 333.989 C102.56 334.079 103.49 334.169 104.43 334.269 C106.24 335.739 108.88 334.479 110.64 336.049 C115.07 336.149 119.52 336.219 123.95 336.079 C124.37 335.859 125.22 335.419 125.64 335.209 C130.23 335.009 134.82 335.249 139.41 335.049 C140.55 334.079 142.07 334.159 143.44 333.889 C144.67 333.199 146.09 333.119 147.45 332.889 C148.58 332.369 149.78 332.039 151.03 331.909 L151.06 332.889 C149.29 333.589 147.5 334.209 145.59 334.359 C144.6 334.759 143.59 335.129 142.58 335.479 C140.89 336.029 139.07 336.149 137.46 336.929 C137 337.029 136.07 337.229 135.61 337.329 C133.98 338.159 132.07 338.079 130.46 338.929 C129.99 339.029 129.07 339.229 128.61 339.319 C127.41 340.109 125.97 340.129 124.61 340.349 C123.27 341.349 121.61 341.109 120.06 341.159 C114.04 341.079 108.02 341.179 102.01 341.119 C100.65 341.239 99.57 340.329 98.4 339.829 C96.7 339.199 95 338.589 93.38 337.809 C92.45 337.439 91.52 337.119 90.57 336.839 C89.26 336.339 87.93 335.949 86.63 335.459 C85.27 334.769 83.93 334.089 82.59 333.369 C82.09 333.149 81.07 332.699 80.56 332.469 C78.57 331.179 76.69 329.669 74.41 328.899 C72.83 328.099 71.45 326.979 69.99 325.999 C66 329.099 62.86 333.189 59.03 336.499 C59.03 335.909 59.03 334.719 59.03 334.129 L58.07 334.129 C59.21 339.519 54.1 342.739 51.81 346.959 C50.45 349.419 48.94 346.709 48.72 345.129 L48.04 345.129 C48.02 346.249 47.98 347.379 47.94 348.519 C46.31 350.479 47.24 353.149 47.09 355.459 C46.56 355.049 45.49 354.209 44.96 353.799 C45 355.969 45.04 358.149 45.15 360.329 C44.1 359.689 43 359.169 41.85 358.769 C41.82 360.209 42.18 361.529 42.93 362.729 C42.99 363.859 43.03 364.999 43.07 366.139 L42.34 366.119 C41.78 364.589 41.09 363.099 40.24 361.709 C39.54 360.079 38.97 358.409 38.33 356.769 C37.71 355.459 37.07 354.169 36.64 352.799 C38.06 353.729 39.42 354.769 41.04 355.359 C39.77 353.359 39.98 350.979 39.92 348.729 C38.67 347.319 39.1 345.399 38.96 343.709 C40.41 344.289 42.19 348.549 43.44 346.239 L42.05 346.059 C42.03 344.609 42.01 343.169 41.96 341.729 C39.86 339.869 41.8 337.539 42.77 335.719 C43.27 334.649 43.79 333.599 44.28 332.549 C45.13 330.939 45.93 329.299 46.78 327.689 C47.01 327.189 47.46 326.179 47.69 325.669 C48.52 323.929 49.85 322.459 51.5 321.469 C59.99 315.009 68.32 308.339 76.48 301.479 C79.05 300.429 80.35 297.999 81.28 295.529 C81.78 294.589 82.3 293.669 82.82 292.739 C84.16 290.649 84.13 288.199 84.12 285.809 C79.93 288.789 76.04 292.239 71.64 294.899 C70.27 295.499 68.92 296.149 67.57 296.809 C66.18 297.639 64.88 298.619 63.48 299.429 C62.52 299.899 61.57 300.369 60.61 300.849 C53.51 304.389 47.47 309.669 40.82 313.929 C38.35 316.139 35.91 318.449 34.22 321.329 C31.96 324.589 27.44 326.429 26.75 330.609 C25.25 336.129 20.63 339.929 17.69 344.649 C17.25 345.629 16.8 346.609 16.35 347.599 C15.52 348.979 14.54 350.269 13.7 351.659 C13.13 352.959 12.55 354.249 11.94 355.529 C10.81 354.849 10.23 353.689 9.68 352.569 C9.44 351.959 8.97 350.729 8.73 350.119 L7.81 350.129 C7.88 351.439 8.26 352.649 8.96 353.739 C9.19 356.149 9.2 358.629 7.81 360.729 C6.45 363.909 4.07 366.499 2.78 369.709 C2.14 371.179 1.32 372.579 0 373.539 C0 371.929 0.04 370.329 0.12 368.729 C2.33 366.079 -0.28 362.149 1.96 359.519 C2.4 356.549 1.14 353.159 2.92 350.519 C2.97 348.089 2.82 345.559 4.34 343.499 C5.06 341.519 5.67 339.489 6.81 337.709 C7.95 334.969 8.84 332.129 10.29 329.539 C11.91 325.619 14.82 322.469 16.76 318.729 C17.14 317.479 18.04 316.519 19.04 315.719 C19.03 316.569 19.02 318.279 19.01 319.139 L19.93 319.129 C20.04 317.589 19.96 315.989 20.69 314.579 C21.55 310.649 25.52 308.589 28.03 305.749 C28.04 307.539 28.03 309.339 28.02 311.139 L28.81 311.129 C28.98 309.909 29.28 308.729 29.71 307.579 C30.01 306.599 30.31 305.629 30.63 304.669 C31.39 302.449 33.67 301.719 35.62 300.879 C36.96 300.159 38.3 299.459 39.63 298.739 C40.85 298.259 42.16 298.099 43.45 297.879 C45.11 297.149 46.96 297.099 48.61 296.369 C49.97 296.139 51.38 296.069 52.61 295.369 C53.95 295.139 55.31 294.979 56.59 294.479 C57.53 294.159 58.46 293.809 59.38 293.439 C61.01 292.659 62.7 292.049 64.39 291.419 C66.43 290.459 68.56 289.749 70.66 288.949 C73.51 287.609 75.55 285.169 77.63 282.889 L78.36 283.779 C78.54 283.079 78.92 281.669 79.11 280.969 C77.95 281.649 76.77 282.299 75.58 282.919 C74.13 283.169 72.78 283.739 71.45 284.339 C69.41 285.949 66.77 285.979 64.45 286.889 C63.09 287.109 61.67 287.189 60.45 287.889 C59.08 288.109 57.67 288.189 56.44 288.889 C55.07 289.149 53.55 289.079 52.41 290.049 C49.12 290.579 45.35 289.129 42.42 291.049 C33.63 291.229 24.83 291.079 16.03 291.129 L16.02 290.159 C17.5 290.129 18.97 290.099 20.45 290.039 C23.39 287.699 27.69 290.559 30.64 288.209 C32.96 287.899 35.64 288.819 37.62 287.219 C39.09 287.149 40.56 287.119 42.03 287.099 C42.08 281.309 41.92 275.519 42.12 269.739 C43.1 268.179 43.09 266.279 43.67 264.579 C44.02 263.549 44.41 262.549 44.84 261.559 C44.94 261.099 45.13 260.169 45.22 259.709 C46.34 258.149 45.49 255.809 47.19 254.619 C46.23 253.569 44.93 253.039 43.55 252.849 C42.24 252.319 40.88 251.949 39.55 251.509 C36.92 250.519 36.06 247.769 34.36 245.819 L33.75 247.249 C32.16 245.819 30.46 244.429 29.29 242.629 C28.94 241.249 28.99 239.749 28.15 238.529 C28.05 236.929 28 235.319 27.92 233.719 C26.32 231.729 27.19 229.049 27.11 226.739 C28.52 225.029 27.66 222.649 28.67 220.779 C29.35 219.449 30.01 218.099 30.32 216.639 C30.99 214.589 31.71 212.559 32.73 210.659 C33 210.189 33.53 209.239 33.79 208.769 C35.58 206.069 35.03 202.779 34.94 199.739 C33.72 198.319 34.08 196.429 33.88 194.729 C32.76 193.279 33.06 191.429 32.88 189.739 C31.83 188.129 32.3 185.989 31.03 184.489 C31.04 183.149 31 181.779 31.7 180.579 C32.01 179.629 32.35 178.699 32.71 177.779 C33.35 176.439 33.97 175.089 34.36 173.659 C36.15 170.189 33.81 165.919 35.85 162.559 C35.94 162.089 36.13 161.169 36.22 160.709 C36.65 159.709 37.03 158.699 37.36 157.679 C37.71 156.679 38.03 155.669 38.33 154.659 C38.7 153.669 39.04 152.679 39.35 151.679 C40.97 145.579 39.49 139.019 40.11 132.739 C41.07 131.599 41.02 130.089 41.27 128.709 C42.06 126.689 42.22 124.479 43.22 122.529 C44 121.239 44.68 119.889 45.32 118.529 C45.56 118.039 46.05 117.059 46.29 116.579 C47.12 114.949 47.92 113.319 48.78 111.719 C49.27 110.649 49.79 109.609 50.29 108.549 C51.71 106.529 52.28 104.189 52.17 101.729 C54.4 99.1093 51.49 94.8893 54.13 92.6193 C52.87 90.7493 50.3 90.3293 49.14 88.5593 C49.15 85.4693 47.58 79.8693 52.31 79.9393 C51.41 79.0093 50.52 78.0693 49.65 77.1193 C52.27 77.0993 54.9 77.2793 57.51 77.0093 C59.79 75.5093 60.78 72.7493 62.31 70.5793 C65.05 65.3593 69.02 60.8893 71.74 55.6693 C72.46 53.9893 74.72 52.6793 73.92 50.6493 C71.84 48.5393 70.26 46.0393 68.6 43.5993 C67.51 42.1893 68.68 40.8293 69.25 39.5193 C69.77 38.5993 70.28 37.6693 70.79 36.7393 C71.27 35.6593 71.79 34.6093 72.28 33.5393 C73.14 31.9393 73.94 30.3093 74.76 28.6893 C75.02 28.1893 75.52 27.1993 75.77 26.6993 C76 26.1893 76.45 25.1693 76.67 24.6593 C82.55 16.2893 90.29 9.43927 97.52 2.23927 C100.15 1.97927 102.79 2.10927 105.42 2.20927 C109.07 4.61927 114.11 1.51927 117.67 4.46927 C118.6 4.81927 119.55 5.13927 120.51 5.41927 C122.26 6.00927 124 6.61927 125.66 7.44927 C126.78 8.34927 128.28 8.33927 129.39 7.43927 C131.02 6.65927 132.71 6.05927 134.39 5.40927 C136.45 4.46927 138.61 3.78927 140.67 2.84927 C141.89 2.32927 143.16 1.92927 144.4 1.42927 Z M140.59 7.86927 C140.1 8.11927 139.13 8.60927 138.64 8.84927 C137.57 9.34927 136.52 9.87927 135.45 10.3893 C134.13 11.0993 132.79 11.7693 131.44 12.3893 C130.5 12.8793 129.56 13.3693 128.62 13.8593 C127.23 14.4893 125.81 15.1193 124.65 16.1393 C121.06 13.9693 117.93 11.1493 114.54 8.70927 C113.55 8.39927 112.56 8.10927 111.58 7.82927 C110.06 6.96927 108.29 7.13927 106.62 6.97927 C105.9 6.65927 104.46 6.00927 103.74 5.67927 C104.72 7.41927 105.63 9.20927 106.33 11.0793 C104.35 11.2493 102.13 10.6393 100.43 11.9893 C98.23 12.0793 95.28 11.7093 94.68 14.5593 C95.44 14.1893 96.95 13.4493 97.71 13.0693 C98.74 13.1593 99.71 13.4493 100.61 13.9393 C101.08 14.0293 102.01 14.2193 102.47 14.3093 C103.19 14.6093 104.64 15.1993 105.36 15.4893 C104.95 14.1793 104.43 12.9093 103.82 11.6793 C104.51 11.9893 105.89 12.6093 106.58 12.9293 C107.9 13.1193 109.23 13.2893 110.53 13.6493 C113.7 15.7793 116.04 18.8593 118.83 21.4193 C119.55 19.3793 120.18 17.3093 120.14 15.1193 L121 15.1293 C121.04 15.7293 121.11 16.9293 121.15 17.5393 C122.66 19.3193 121.39 21.9693 122.93 23.7393 C122.99 24.9993 123.06 26.2493 123.13 27.5093 C126.73 26.5093 127.61 22.4993 129.85 19.9793 C131.56 18.3093 132.27 15.7293 134.54 14.6893 C136.23 14.2193 138.06 14.1593 139.63 13.2793 C140.56 13.1793 141.49 13.0793 142.42 12.9793 C143.61 12.1193 145.08 12.1293 146.47 11.9293 C148.49 9.94927 150.6 12.8993 152.63 13.4193 C153.12 13.6593 154.09 14.1493 154.58 14.3893 C155.54 14.8793 156.51 15.3593 157.49 15.8193 C159.15 16.7993 160.68 17.9993 162.41 18.8893 C163.78 19.4793 165.12 20.1493 166.44 20.8493 C168.55 21.7793 170.53 23.4493 172.98 23.1193 C174.56 23.2493 176.38 22.7893 177.65 24.0493 C179.91 24.2393 182.32 23.7393 184.45 24.7393 C186.61 25.7593 188.54 27.1693 190.57 28.4193 C194.08 29.3893 195.51 32.8993 197.33 35.6693 C197.89 37.1793 198.71 38.5893 200.05 39.5393 C199.82 36.9193 200.97 33.5693 198.32 31.8693 C194.71 28.7493 191.96 24.5693 187.67 22.3093 C184.58 21.1693 181.45 20.0993 178.63 18.3893 C177.26 17.7493 175.91 17.0893 174.55 16.4593 C171.95 15.2393 170.54 12.5393 168.06 11.1493 C165.88 9.90927 164.46 7.77927 162.55 6.23927 C160.25 6.01927 157.94 6.14927 155.64 6.05927 C150.87 3.90927 144.9 4.92927 140.59 7.86927 Z M82.5 24.4693 C80.84 25.4593 79.56 26.9693 78.62 28.6393 C78.41 29.3693 77.97 30.8193 77.76 31.5393 C81.08 30.3193 83.44 27.3893 86.55 25.6993 C91.38 24.3993 96.51 25.4893 101.46 25.1193 C98.08 22.1193 94.25 19.6493 90.55 17.0593 C87.92 19.5793 85.67 22.5793 82.5 24.4693 Z M188.65 17.1193 C190.1 18.7593 191.55 20.4993 193.56 21.4593 C195.35 22.3493 197.36 22.9593 198.81 24.3993 C203.3 28.7493 207.5 33.4093 212.19 37.5493 C212.23 36.0893 211.88 34.7493 211.15 33.5293 C211.07 32.5793 211 31.6293 210.94 30.6793 C210.63 30.1293 210.01 29.0393 209.7 28.4993 C210.84 28.0393 212 27.5893 213.16 27.1493 C214.74 28.0493 215.92 29.5993 217.56 30.4793 C220.85 32.3993 222.46 36.7993 226.46 37.4793 C223.28 33.9093 220.81 29.8093 218.23 25.7993 C217.79 25.5593 216.91 25.0593 216.47 24.8193 C214.83 24.0293 213.21 23.2193 211.57 22.4393 C210.17 21.6193 208.88 20.6393 207.49 19.8193 C206.12 19.1693 204.77 18.4793 203.44 17.7593 C198.7 16.3193 193.55 17.5093 188.65 17.1193 Z M108.99 28.0993 C109.02 29.2493 109.07 30.3893 109.13 31.5293 C109.83 32.6893 110.2 33.9593 110.25 35.3493 C108.87 35.2993 107.6 34.9393 106.44 34.2493 C105.19 34.1593 103.94 34.0893 102.7 34.0293 C103.12 34.5893 103.95 35.7093 104.37 36.2693 C102.7 36.0693 100.79 36.4593 99.42 35.1993 C96.99 34.9693 94.47 34.9293 92.4 36.4193 C91.12 36.9493 89.79 37.3593 88.5 37.8693 C87.51 38.1293 86.53 38.4093 85.55 38.7093 C83.51 39.6893 82.1 41.4793 81.25 43.5493 C81.03 44.0593 80.59 45.0893 80.37 45.5993 C79.34 47.2493 78.1 48.7793 77.32 50.5693 C76.11 52.6093 74.58 54.4693 73.79 56.7393 C72.78 58.7793 71.23 60.4793 70.31 62.5693 C69.37 64.2793 68.1 65.7793 67.31 67.5693 C66.53 68.9893 65.54 70.2793 64.71 71.6693 C64.25 72.6493 63.8 73.6293 63.36 74.6193 C62.67 75.7293 61.82 76.7293 61.08 77.8093 C62.04 79.2493 64.1 79.1193 65.55 79.8193 C67.29 80.2193 68.88 81.0293 70.48 81.7993 C71.87 82.2993 72.86 83.2893 73.4 84.6693 C73.62 85.2893 74.06 86.5293 74.28 87.1493 L74.77 87.1393 C74.97 85.7093 75.86 84.5693 77 83.7293 C77.04 84.4293 77.1 85.8193 77.14 86.5193 C78.05 87.6793 78.01 89.1793 78.27 90.5493 C79.07 92.1993 78.92 94.1693 79.94 95.7393 C80.08 98.6593 80 101.579 80.07 104.499 C81.59 103.889 82.82 102.789 84.19 101.929 C83.38 104.899 80.9 107.009 79.21 109.509 C72.18 119.589 65.29 129.759 57.94 139.599 C60.79 143.209 66.4 144.609 67.38 149.579 C67.91 150.849 68.04 152.219 68.25 153.569 C68.54 154.269 69.11 155.669 69.4 156.379 C67.84 155.599 66.3 154.789 64.81 153.879 C65.26 156.269 66.87 157.859 69.41 157.129 C70.76 155.639 72.8 156.049 74.55 156.219 C76.72 158.179 78.59 160.509 81.21 161.919 C84.92 165.209 88.12 169.039 91.83 172.319 C95.26 174.489 98.2 177.459 100.68 180.619 C101.12 182.889 102.46 184.779 104.72 185.489 C105.06 183.619 105.62 181.799 106.11 179.959 C106.92 180.459 107.75 180.949 108.6 181.409 C109.74 181.959 110.85 182.579 111.9 183.309 C112.26 181.879 112.79 180.499 113.24 179.109 C115.08 179.119 116.93 179.129 118.77 179.139 C119.25 177.799 119.8 176.479 120.29 175.139 C121.33 175.109 122.37 175.079 123.42 175.039 C125.39 173.309 128.63 175.079 130.18 172.609 C128.5 171.439 129.3 169.109 128.27 167.549 C128.02 166.179 128.03 164.709 127.18 163.529 C127.08 162.589 126.98 161.649 126.89 160.719 C126.57 159.979 125.94 158.499 125.62 157.769 C128.89 159.539 129.52 163.829 132.39 166.099 C132.68 165.909 133.26 165.509 133.56 165.319 L132.04 165.059 C132.04 162.949 132.04 160.839 131.95 158.729 C130.21 156.439 131.34 153.379 130.96 150.749 C129.75 149.469 130.07 147.699 129.93 146.119 L130.72 146.129 C131.2 147.359 131.75 148.549 132.28 149.769 C132.54 150.239 133.05 151.199 133.31 151.679 C133.98 153.009 134.65 154.359 135.31 155.709 C136.08 157.129 136.77 158.599 137.34 160.129 L138.03 160.139 C138.05 156.669 138.01 153.199 138.02 149.739 C140.04 151.089 140.62 153.529 141.73 155.549 C142.66 157.419 143.71 159.269 145.29 160.689 C144.16 157.809 143.71 154.819 144.01 151.719 C146.06 153.329 146.72 156.129 149.05 157.499 C149.04 155.939 149.02 154.369 148.98 152.809 C150.79 154.519 153.1 155.559 154.84 157.359 C155.16 155.699 155.95 154.189 156.75 152.719 C157.73 150.699 158.68 148.669 159.83 146.739 C160.39 145.389 160.95 144.049 161.32 142.639 C161.8 141.349 162.2 140.029 162.75 138.769 C163.36 137.429 163.97 136.079 164.32 134.639 C164.91 132.899 165.51 131.149 166.36 129.509 C166.97 127.549 165.81 125.399 165.19 123.529 C165.08 122.589 164.98 121.659 164.88 120.729 C163.91 119.119 164.14 117.129 163.18 115.529 C163.08 114.589 162.98 113.659 162.88 112.729 C162.03 111.549 162.02 110.079 161.79 108.709 C161.06 107.059 161.01 105.199 160.27 103.549 C160.01 102.179 160.03 100.709 159.18 99.5193 C159.08 98.5893 158.98 97.6593 158.88 96.7293 C158.02 95.5493 158.02 94.0793 157.81 92.6993 C157.53 91.9593 156.96 90.4693 156.68 89.7293 C159.79 91.0693 160.19 94.9493 163.11 96.4893 C162.64 95.2093 162.13 93.9493 161.69 92.6693 C161.15 90.9993 160.89 89.2593 160.39 87.5793 C160.04 86.5493 159.65 85.5493 159.22 84.5593 C159.12 84.0993 158.93 83.1693 158.84 82.6993 C158.55 81.9593 157.98 80.4593 157.69 79.7093 C161.12 81.4793 162.44 85.3693 165.39 87.5193 C165.12 86.7893 164.59 85.3393 164.33 84.6193 C163.99 83.1593 163.35 81.8093 162.71 80.4793 C162.34 79.5493 162.01 78.6193 161.72 77.6693 C161.36 76.6793 161.02 75.6793 160.72 74.6693 C160.47 73.9293 159.97 72.4393 159.72 71.6993 C162.54 73.5893 164.4 76.5593 167.19 78.4793 C166.45 76.7993 165.58 75.1793 164.74 73.5593 C163.47 71.3393 162.81 68.8593 161.83 66.5293 C160.61 64.4893 159.56 62.3493 158.72 60.1293 C160.63 60.1293 162.54 60.1493 164.45 60.1293 C162.85 58.1993 160.29 57.4493 158.79 55.3993 C157.05 53.0893 154.28 51.9993 152.33 49.9293 C150.02 47.2293 146.33 46.0493 144.61 42.7893 C145.36 43.0693 146.86 43.6193 147.61 43.8993 C148.95 44.1093 150.31 44.2593 151.59 44.7693 C152.6 45.1193 153.61 45.5093 154.6 45.9393 C155.06 46.0393 155.99 46.2293 156.45 46.3293 C158.06 47.0893 159.87 47.2293 161.55 47.7893 C163.28 48.2493 164.91 49.0093 166.49 49.8593 C166.98 50.0993 167.96 50.5693 168.45 50.8093 C170.03 51.6593 171.47 52.7993 173.21 53.3093 C172.42 52.0093 171.46 50.8193 170.75 49.4793 C168.66 46.6793 165.82 44.6893 162.6 43.3993 C162.09 43.1493 161.08 42.6693 160.58 42.4193 C160.1 42.1593 159.14 41.6293 158.66 41.3593 C152.09 38.1293 144.06 41.9393 137.43 39.2693 C136.5 39.1693 135.57 39.0793 134.64 38.9793 C133.45 38.1293 131.98 38.1393 130.62 37.8993 C129.39 37.1893 127.97 37.1093 126.61 36.8893 C124.45 36.0993 122.16 35.7593 120.01 34.9293 C120.02 33.6593 120.03 32.3893 120.04 31.1193 L119.34 31.1293 C118.76 32.1993 118.78 34.5293 116.97 34.0593 C116.46 33.1293 116.04 32.1493 115.72 31.1293 C115.3 31.1293 114.45 31.1193 114.02 31.1193 C114.03 31.9793 114.03 33.6993 114.04 34.5593 C112.1 32.7893 110.84 30.4393 109.61 28.1493 L108.99 28.0993 Z M210.77 56.9993 C211.46 58.1593 212.14 59.3293 212.8 60.5193 C213.27 61.5993 213.78 62.6493 214.28 63.7193 C215.13 65.3193 215.92 66.9593 216.82 68.5393 C217.32 69.7393 217.85 70.9193 218.3 72.1393 L218.76 72.1393 C219 71.5293 219.48 70.3193 219.72 69.7193 C220.71 67.9393 221.72 63.6093 224.47 65.7893 C224.98 66.0393 225.99 66.5393 226.5 66.7893 C230.32 68.7193 232.9 73.3293 237.46 73.3493 C238.8 74.3093 240.45 74.1093 242 74.2193 C242.04 74.7993 242.11 75.9593 242.14 76.5393 C243.67 78.3193 242.37 80.9993 243.96 82.7493 C244.34 85.3893 243.21 88.4493 244.96 90.7393 C245.57 94.6793 243.95 99.1293 245.93 102.729 C245.96 103.429 246.03 104.829 246.06 105.529 C247.82 104.289 248.23 101.969 249.99 100.729 C250.03 101.429 250.11 102.829 250.14 103.529 C251.14 105.099 250.98 107.059 251.79 108.709 C252.05 110.079 251.98 111.589 252.94 112.729 C253.06 114.999 253.06 117.269 252.95 119.539 C250.91 123.099 252.59 127.579 251.96 131.519 C251.74 131.929 251.3 132.739 251.08 133.149 C250.95 143.469 251.07 153.799 251.03 164.129 L252.03 164.129 C252.53 159.979 250.92 155.299 252.96 151.519 C253.58 147.569 251.92 143.099 253.95 139.519 C254.05 136.929 254.01 134.329 254.1 131.739 C256.2 129.409 253.86 125.849 255.95 123.519 C256.25 121.189 255.34 118.499 256.95 116.519 C257.08 108.929 257.08 101.329 256.96 93.7393 C255.1 90.7993 256.71 86.9193 254.85 83.8393 C254.12 84.5993 253.39 85.3393 252.65 86.0793 C251.2 85.6093 251.03 83.8293 250.29 82.7193 C249.67 81.3593 248.99 80.0293 248.29 78.7193 C247.65 77.3593 246.99 76.0193 246.37 74.6593 C244.94 71.9093 242.3 70.1493 240.28 67.8893 C239.11 66.6093 238.56 64.8693 237.25 63.7093 C235.72 63.0093 233.94 63.1593 232.46 62.3293 C232 62.2293 231.08 62.0293 230.61 61.9293 C229.4 61.1693 227.96 61.1293 226.61 60.8893 C224.95 60.1393 223.08 60.1393 221.46 59.3293 C220.99 59.2293 220.07 59.0293 219.61 58.9293 C217.97 58.0693 216.02 58.2293 214.44 57.2593 C213.21 57.1693 211.99 57.0793 210.77 56.9993 Z M57.53 90.6793 C56.68 92.6293 57.55 95.0093 56.11 96.7393 C56.02 98.9993 56.03 101.259 55.95 103.519 C54.74 104.919 55.18 106.809 54.81 108.469 C54.2 109.919 53.47 111.309 52.75 112.699 C51.25 115.159 50.81 118.089 49.31 120.549 C47.6 123.039 47.27 126.059 46.11 128.749 C46.04 130.329 46.04 131.929 46.1 133.519 C47.3 136.189 47.56 139.249 49.36 141.699 L49.85 142.579 C47.81 145.739 45.24 148.509 43.23 151.689 C42.74 154.549 43.12 157.519 43.06 160.429 C44.26 159.959 45.43 159.419 46.62 158.899 C48.2 158.029 49.83 157.229 51.44 156.389 C52.51 155.879 53.57 155.349 54.64 154.849 C55.13 154.609 56.11 154.119 56.59 153.879 C58.01 153.279 59.29 152.439 60.4 151.369 C58.58 151.289 57.17 150.349 56.74 148.569 C55.94 146.939 55.13 145.319 54.3 143.709 C53.78 142.639 53.22 141.579 52.68 140.529 C52.01 139.589 51.97 138.619 52.56 137.619 C58.39 130.089 63.68 122.159 69.5 114.629 C70.95 112.229 66.51 112.139 65.7 110.399 C67.99 109.739 70.09 108.579 72.31 107.729 C71.95 105.809 70.38 105.039 68.57 104.819 C66.37 103.439 63.46 104.939 61.42 103.219 C60.19 103.159 58.96 103.119 57.73 103.069 C58.21 101.869 58.76 100.689 59.27 99.4993 C59.54 99.0193 60.09 98.0593 60.36 97.5893 C60.6 96.9793 61.08 95.7493 61.32 95.1393 C63.12 95.0293 65.19 95.6193 66.63 94.1693 C67.91 94.1493 69.19 94.0693 70.47 94.2093 C71.9 94.6593 72 96.4493 72.75 97.5393 C74.21 101.049 75.58 104.899 78.22 107.699 C77.44 103.669 74.88 100.199 73.08 96.5393 C73.06 95.5093 73.04 94.4793 73.02 93.4493 C71.77 92.9693 70.58 92.3693 69.39 91.7593 C67.52 90.7493 65.1 91.6493 63.43 90.1893 C61.47 90.2393 59.34 89.6993 57.53 90.6793 Z M189.93 136.129 C190.08 137.699 189.76 139.459 190.94 140.749 C191.25 143.059 190.34 145.729 191.93 147.719 C192 149.319 192.05 150.929 192.13 152.539 C193.47 154.279 192.77 156.639 193.6 158.589 C193.91 159.059 194.52 160.009 194.83 160.489 C195.82 162.839 196.41 165.389 197.82 167.549 C198.53 169.169 199.11 170.849 199.7 172.519 C200.24 173.599 200.81 174.659 201.37 175.739 C201.64 176.399 202.17 177.729 202.44 178.399 C201.44 177.879 200.44 177.369 199.44 176.889 C197.29 175.709 195.21 174.399 193.25 172.939 L192.79 174.139 C193.24 174.469 194.13 175.119 194.58 175.449 C197.28 179.819 200.74 183.649 203.28 188.139 C201.07 187.939 198.97 188.519 196.9 189.189 C198.21 190.779 197.89 192.949 198.82 194.699 C198.93 195.169 199.13 196.089 199.23 196.549 C200.34 198.289 199.55 200.749 201.42 202.089 C200.59 203.039 199.59 203.849 198.51 204.509 C196.95 205.199 195.39 205.909 193.79 206.499 C194.26 207.569 194.78 208.639 195.27 209.719 C196.13 211.309 196.93 212.939 197.78 214.549 C198.27 215.609 198.79 216.649 199.3 217.709 C200.25 219.389 201.17 221.139 201.23 223.129 L202.08 223.129 C201.9 221.239 202.54 219.079 201.11 217.519 C200.92 213.209 201.17 208.899 200.9 204.599 C201.31 204.029 201.71 203.459 202.12 202.889 C203.67 204.009 205.56 204.419 207.23 205.309 C206.99 203.689 207.28 201.869 206.12 200.519 C206.03 198.619 206.01 196.719 205.97 194.819 C209.24 196.849 211.73 199.999 215.21 201.649 C214.65 200.329 214.1 199.019 213.73 197.639 C213.14 195.879 212.53 194.129 211.7 192.479 C211.34 191.549 211.02 190.609 210.74 189.659 C210.46 188.949 209.91 187.529 209.63 186.819 C215.03 189.729 219.49 194.079 224.58 197.499 C226.91 198.959 228.5 201.549 231.23 202.339 C221.83 188.759 210.92 176.299 201.7 162.589 C201.47 162.089 201 161.089 200.77 160.579 C199.22 158.119 198.87 155.119 197.24 152.709 C196.36 150.649 195.7 148.509 194.74 146.489 C193.99 144.529 193.4 142.479 192.24 140.709 C191.54 139.249 190.96 137.749 190.81 136.129 L189.93 136.129 Z M171.07 154.129 C171.03 155.259 170.98 156.379 170.93 157.509 C169.74 158.939 170.07 160.819 169.88 162.519 C169.02 163.699 169.04 165.179 168.8 166.549 C167.54 168.419 168.57 170.919 167.17 172.729 C166.98 174.429 167.35 176.329 166.11 177.739 C165.97 183.329 165.99 188.929 166.1 194.519 C167.97 196.539 166.11 199.659 167.91 201.719 C168 202.989 168.06 204.269 168.15 205.539 C169.55 207.239 168.89 209.519 169.13 211.519 C170.97 213.559 169.08 216.699 170.94 218.729 C171.02 220.659 171.04 222.599 171.12 224.529 C171.33 224.929 171.77 225.719 171.98 226.119 C172.12 230.579 172.06 235.049 171.95 239.509 C170.98 240.649 171.06 242.169 170.79 243.549 C170.09 245.189 169.92 246.979 169.36 248.669 C169.05 249.619 168.72 250.569 168.37 251.509 C167.84 252.569 167.28 253.629 166.76 254.709 C165.92 256.319 165.12 257.939 164.29 259.559 C163.43 261.419 162.41 263.209 161.66 265.129 L160.98 265.129 L161.12 266.589 C164.65 262.609 167.41 258.019 170.34 253.589 C171.1 251.939 171.91 250.299 172.83 248.719 C173.38 247.379 173.94 246.049 174.37 244.669 C174.9 243.399 175.05 242.039 175.28 240.709 C176.06 239.049 175.92 237.079 176.94 235.519 C177.05 232.929 177.01 230.329 177.11 227.739 C179.12 223.829 177.6 219.009 177.95 214.739 C176.03 212.399 177.85 209.109 176.38 206.569 C176.03 205.549 175.64 204.549 175.22 203.559 C175.12 203.099 174.93 202.169 174.83 201.709 C174 200.079 174.05 198.179 173.23 196.559 C173.13 196.089 172.94 195.159 172.84 194.699 C172.41 193.709 172.02 192.699 171.67 191.679 C171.08 189.979 171.08 188.089 170.14 186.519 C169.89 184.499 170.57 182.199 169.1 180.519 C169.04 178.929 169.04 177.329 169.09 175.739 C170.74 173.769 169.79 171.069 170.11 168.749 C171.72 166.759 170.8 164.069 171.12 161.739 C172.79 159.549 171.79 156.649 172.03 154.129 L171.07 154.129 Z M59.41 169.389 C58.93 169.649 57.96 170.149 57.48 170.409 C55.53 171.639 53.37 172.439 51.02 172.189 L51.03 173.059 C52.59 173.159 54.27 172.929 55.61 173.939 C56.07 174.039 57 174.219 57.46 174.309 C60.76 176.059 64.75 174.709 68.34 175.159 C66.25 172.969 65.14 169.929 62.52 168.229 C61.36 167.909 60.44 169.039 59.41 169.389 Z M44.3 177.009 C43.9 178.369 43.03 179.629 43.05 181.099 C42.92 188.849 43.18 196.609 42.94 204.359 C43.81 203.829 44.7 203.329 45.6 202.839 C47.71 201.759 49.82 200.629 52.06 199.819 C52.03 198.459 52 197.099 51.94 195.739 C50.98 194.589 51.04 193.089 50.81 191.709 C49.77 190.239 50.07 188.429 49.96 186.759 C50.62 187.069 51.94 187.689 52.61 187.999 C53.54 188.089 54.49 188.179 55.43 188.279 C57.03 189.199 58.97 189.069 60.61 189.929 C61.07 190.029 61.99 190.229 62.45 190.339 C64.5 191.179 66.74 191.419 68.79 192.259 C69.25 193.439 69.78 194.589 70.27 195.759 C70.53 196.239 71.06 197.189 71.32 197.669 C72.11 199.229 72.96 200.789 73.37 202.519 C72.19 201.639 71.1 200.649 69.84 199.879 C70.3 201.649 71.45 203.109 72.28 204.709 C73.14 206.459 74.33 208.019 75.38 209.659 C76.12 211.219 76.85 212.799 77.32 214.479 C79.56 210.969 82.68 208.149 84.83 204.559 C85.47 202.009 84.4 199.159 85.66 196.739 C86.21 195.669 86.77 194.619 87.3 193.549 C88.18 191.839 88.97 190.079 90.02 188.469 C88.27 185.829 86.27 182.479 82.6 182.899 C81.39 182.169 79.96 182.119 78.61 181.899 C76.74 180.609 74.18 181.719 72.42 180.209 C66.98 179.969 61.54 180.289 56.1 180.079 C55.69 179.889 54.87 179.499 54.45 179.309 C53.99 179.219 53.07 179.029 52.61 178.939 C51.41 178.159 49.97 178.119 48.61 177.899 C47.32 177.049 45.77 177.119 44.3 177.009 Z M164.31 217.119 C164.07 217.719 163.59 218.919 163.35 219.519 C162.82 220.579 162.27 221.639 161.78 222.719 C161.2 224.019 160.47 225.249 159.48 226.289 C157.69 224.899 155.93 223.299 153.67 222.749 C153.98 223.499 154.62 224.989 154.93 225.729 C154.98 226.979 155.02 228.239 155.05 229.489 C154.41 229.189 153.12 228.579 152.48 228.279 C152.01 228.199 151.07 228.059 150.6 227.979 C149.64 227.079 148.62 226.969 147.52 227.659 C143.58 230.709 139.68 233.819 135.5 236.549 C133.82 237.039 132.03 237.139 130.46 237.929 C130 238.029 129.07 238.229 128.61 238.329 C126.97 239.129 125.1 239.139 123.45 239.889 C122.09 240.119 120.65 240.159 119.45 240.929 C118.99 241.029 118.06 241.229 117.6 241.329 C114.51 242.279 111.33 243.029 108.6 244.889 C108.09 245.119 107.07 245.569 106.57 245.789 C105.18 246.639 103.88 247.619 102.48 248.449 C99.6 249.479 97.3 251.509 94.58 252.849 C92.54 254.059 90.65 255.529 88.44 256.459 C87.76 256.729 86.4 257.259 85.72 257.529 C86.02 258.069 86.63 259.139 86.93 259.679 C87 260.619 87.08 261.569 87.16 262.519 C88.04 263.689 88 265.179 88.27 266.549 C89.09 268.199 88.89 270.179 89.94 271.739 C90.12 275.839 90.01 279.949 90 284.059 C90.06 285.649 89.73 287.409 90.89 288.729 C90.98 289.649 91.08 290.589 91.18 291.519 C92.03 292.709 92.03 294.169 92.27 295.549 C93.05 297.199 92.96 299.119 93.88 300.729 C93.98 301.659 94.08 302.589 94.18 303.529 C95.06 305.089 95.11 306.909 95.58 308.599 C96.49 310.279 97.79 311.709 99.58 312.469 C100.08 312.699 101.07 313.169 101.57 313.399 C103.14 314.249 104.78 315.009 106.51 315.479 C108.19 316.079 110.09 316.069 111.64 317.039 C117.26 316.839 123.13 317.919 128.59 316.479 C129.61 316.129 130.61 315.749 131.6 315.319 C132.06 315.219 132.99 315.029 133.46 314.939 C134.44 314.499 135.45 314.119 136.49 313.799 C137.48 313.449 138.48 313.119 139.49 312.829 C140.48 312.459 141.48 312.119 142.49 311.819 C143.48 311.459 144.48 311.139 145.5 310.849 C146.84 310.319 148.22 309.919 149.57 309.419 C150.57 309.109 151.57 308.779 152.56 308.429 C153.57 308.209 154.56 307.909 155.52 307.519 C156.77 306.139 155.2 304.749 154.66 303.479 C154.12 301.849 153.93 300.129 153.27 298.549 C153.01 297.169 153.07 295.649 152.11 294.509 C152.01 292.589 152.02 290.659 152.1 288.729 C154.07 285.709 152 281.539 154.77 278.709 C155.26 277.649 155.79 276.609 156.3 275.559 C157.74 273.469 158 270.949 158.7 268.589 C159.02 267.579 159.36 266.579 159.73 265.589 C160.03 264.579 160.36 263.589 160.71 262.609 C161.08 261.169 161.69 259.819 162.32 258.489 C162.87 257.219 163.25 255.889 163.73 254.599 C164.04 253.559 164.4 252.539 164.84 251.559 C164.93 251.089 165.12 250.169 165.21 249.709 C167.22 246.979 164.78 243.159 166.95 240.519 C166.61 236.579 168.12 232.079 166.1 228.529 C165.84 224.689 166.69 220.639 164.82 217.079 L164.31 217.119 Z M49.18 263.729 C49.08 264.659 48.99 265.589 48.89 266.529 C47.14 268.609 48.96 271.709 47.1 273.729 C47.01 276.329 47.05 278.919 46.95 281.519 C45.65 282.899 46.11 284.819 45.97 286.509 C46.63 286.189 47.96 285.539 48.62 285.219 C49.76 285.159 50.89 285.119 52.03 285.089 C52.28 282.579 51.25 279.679 52.95 277.519 C53.14 273.259 52.92 268.989 53.1 264.739 C54.57 262.959 54.88 258.629 52.05 258.129 C49.22 258.379 50.62 262.059 49.18 263.729 Z M71.2 260.349 C69.42 262.889 70.81 266.239 69.13 268.719 C69.05 270.319 69.01 271.929 68.93 273.539 C67.47 275.199 68.18 277.469 68 279.449 C69.24 278.969 70.45 278.389 71.66 277.839 C72.25 277.579 73.43 277.069 74.02 276.809 C74.04 275.779 74.07 274.759 74.12 273.739 C75.99 271.699 74.05 268.519 75.98 266.519 C76.02 264.919 76.01 263.329 75.96 261.729 C75.63 261.039 74.96 259.639 74.62 258.949 C73.48 259.399 72.35 259.909 71.2 260.349 Z M160.22 267.319 C160.9 267.999 160.9 267.999 160.22 267.319 Z M165.33 287.129 C165.09 287.729 164.6 288.929 164.36 289.529 C163.8 290.599 163.23 291.659 162.67 292.739 C162.33 293.679 162.01 294.629 161.71 295.589 C160.3 299.019 161.29 302.889 161.08 306.499 C161.71 306.179 162.97 305.529 163.6 305.199 C165.85 305.119 168.09 305.119 170.34 305.099 C170.08 304.479 169.57 303.229 169.32 302.609 C169.01 301.559 168.65 300.539 168.23 299.549 C168.13 299.089 167.94 298.159 167.85 297.699 C166 295.289 168.1 291.889 166.14 289.529 C166.11 288.929 166.04 287.719 166.01 287.119 L165.33 287.129 Z" style="fill:#000000; fill-rule:nonzero;stroke-width:0.09375; stroke-linecap:butt; stroke-linejoin:miter; stroke-dasharray:none; stroke:#000000;" transform="translate(0.046875, 0.046875)"/>
    </g>
    <path d="M6.48 1.04 C7.09 0.78 8.33 0.26 8.95 0 C8.97 0.66 9.03 1.98 9.05 2.63 C10.27 2.13 11.45 1.55 12.63 0.96 C13.76 0.25 15.09 0.33 16.37 0.3 C18.31 2.34 21.53 0.34 23.59 2.19 C24.86 2.28 26.13 2.34 27.4 2.44 C28.56 3.33 30.05 3.3 31.42 3.54 C32.91 4.51 34.71 4.29 36.4 4.46 C38.21 5.83 40.7 4.83 42.58 6.08 C43.92 6.3 45.29 6.41 46.54 7 C47.52 7.29 48.5 7.59 49.48 7.9 C51.51 8.87 52.92 10.64 53.75 12.7 C54.35 14.08 55.02 15.43 55.79 16.72 C56.51 18.42 57.1 20.17 57.82 21.87 C57.91 22.34 58.1 23.27 58.19 23.74 C58.48 24.49 59.05 25.99 59.33 26.74 C54.32 23.19 51.11 17.43 45.62 14.55 C44.14 13.93 42.64 13.3 41.49 12.15 C40.61 13.16 39.82 14.25 39.61 15.61 C39.08 15.33 38.01 14.76 37.47 14.47 C36.07 14.31 34.58 14.35 33.4 13.45 C32.46 13.36 31.53 13.26 30.6 13.17 C30.19 12.97 29.39 12.56 28.98 12.36 C24.85 12.32 20.68 12.09 16.57 12.49 C11.32 15.87 6.85 20.24 1.65 23.67 C1.9 22.99 2.42 21.63 2.67 20.96 C3.33 19.66 3.92 18.34 4.43 16.98 C3.9 17.31 2.82 17.97 2.28 18.31 L1.58 17.45 L2.59 17.26 C3.39 14.99 5.59 13.63 6.43 11.38 C4.28 11.3 2.14 11.3 0 11.31 C0 8.75 0 6.19 0 3.63 C1.24 3.14 2.44 2.55 3.64 1.97 C4.57 1.62 5.52 1.31 6.48 1.04 Z" style="fill:#000000; fill-rule:nonzero;stroke-width:0.09375; stroke-linecap:butt; stroke-linejoin:miter; stroke-dasharray:none; stroke:#000000;" transform="translate(93.0769, 84.8661)"/>
    <path d="M10.53 1.14743 C11.91 0.597434 13.36 -0.872566 14.68 0.717434 C16.05 0.907434 17.5 0.927434 18.71 1.71743 C19.18 1.81743 20.1 2.00743 20.56 2.10743 C21.55 2.53743 22.55 2.92743 23.58 3.27743 C25.25 3.77743 26.98 4.03743 28.65 4.58743 C30.08 5.03743 31.47 5.57743 32.88 6.08743 C33.44 7.54743 34.1 8.96743 34.85 10.3374 C35.98 12.5974 36.98 14.9374 38.41 17.0474 C37.17 16.9674 35.94 16.8874 34.71 16.7974 C33.13 15.4274 30.98 16.0274 29.1 15.8774 C29.13 14.4674 29.17 13.0574 29.23 11.6474 C27.74 12.6474 26.15 13.4574 24.56 14.2774 C23.3 15.1274 21.66 15.2174 20.53 14.0474 C18.82 13.8774 16.94 14.2174 15.51 13.0274 C13.51 12.8074 11.27 13.3874 9.53 12.0674 C7.86 11.9074 6.11 12.0574 4.59 11.2274 C2.21 11.1974 1.13 9.17743 0 7.42743 C1.02 6.41743 2.27 5.73743 3.59 5.21743 C4.99 4.40743 6.27 3.41743 7.68 2.61743 C8.64 2.13743 9.59 1.64743 10.53 1.14743 Z" style="fill:#000000; fill-rule:nonzero;stroke-width:0.09375; stroke-linecap:butt; stroke-linejoin:miter; stroke-dasharray:none; stroke:#000000;" transform="translate(100.947, 101.259)"/>
    <path d="M0 0 C1.36 0.42 2.66 1.01 3.97 1.57 C4.45 1.83 5.4 2.35 5.88 2.61 C7.21 3.29 8.56 3.95 9.92 4.6 C11.46 5.46 13.14 6.07 14.62 7.03 C16.04 9.2 16.68 11.82 18.38 13.81 C17.52 14.66 16.67 15.51 15.82 16.37 C14.87 15.73 13.9 15.12 12.92 14.53 C12.42 14.3 11.42 13.85 10.93 13.63 C9.58 12.97 8.24 12.29 6.89 11.63 C5.46 11.18 4.47 10.19 4.03 8.76 C3.56 7.79 3.08 6.84 2.6 5.88 C2.34 5.4 1.83 4.44 1.57 3.97 C1.01 2.65 0.42 1.36 0 0 Z" style="fill:#000000; fill-rule:nonzero;stroke-width:0.09375; stroke-linecap:butt; stroke-linejoin:miter; stroke-dasharray:none; stroke:#000000;" transform="translate(97.7469, 111.846)"/>
    <path d="M13.66 0 C15.91 3.12 18.4 6.08 20.46 9.34 C20.29 9.7 19.94 10.42 19.77 10.78 C19.21 11.84 18.64 12.9 18.09 13.97 C17.85 14.57 17.37 15.75 17.12 16.34 C16.6 16.38 15.55 16.46 15.02 16.5 C13.84 17.41 12.34 17.35 10.96 17.56 C10.34 17.85 9.11 18.42 8.5 18.71 C8.07 16.72 9.43 13.58 6.91 12.62 C4.54 10.91 1.9 9.39 0 7.17 C1.45 7.16 2.79 7.51 4.01 8.25 C5.29 8.33 6.57 8.39 7.85 8.47 C10.47 11.22 11.62 6.85 12.14 4.87 C12.6 3.23 13.17 1.62 13.66 0 Z" style="fill:#000000; fill-rule:nonzero;stroke-width:0.09375; stroke-linecap:butt; stroke-linejoin:miter; stroke-dasharray:none; stroke:#000000;" transform="translate(72.6569, 139.806)"/>
    <path d="M0 0 C1.42 0 2.74 0.31 3.99 0.95 C5.36 1.19 6.87 1.12 8.02 2.08 C8.67 2.08 9.98 2.09 10.64 2.09 C10.11 2.95 9.61 3.83 9.13 4.73 C8.56 5.96 7.95 7.17 7.2 8.32 C4.11 6.19 2.72 2.52 0 0 Z" style="fill:#000000; fill-rule:nonzero;stroke-width:0.09375; stroke-linecap:butt; stroke-linejoin:miter; stroke-dasharray:none; stroke:#000000;" transform="translate(127.667, 244.006)"/>
    <path d="M11.8 0 C12.52 0.32 13.97 0.97 14.69 1.3 C15.62 1.39 16.56 1.49 17.5 1.6 C19.65 2.59 22.04 2.83 24.3 3.52 C22.68 5.79 21.73 8.44 20.36 10.85 C19.86 11.91 19.34 12.96 18.84 14.03 C18.13 15.34 17.46 16.67 16.83 18.03 C16 19.63 15.19 21.25 14.37 22.86 C13.73 24.21 13.06 25.56 12.37 26.89 C12.12 27.38 11.63 28.35 11.39 28.84 C10.74 30.2 10.06 31.55 9.37 32.89 C9.12 33.37 8.63 34.35 8.39 34.83 C7.75 36.18 7.07 37.52 6.37 38.85 C5.72 40.2 5.06 41.55 4.37 42.89 C4.12 43.38 3.62 44.35 3.37 44.84 C2.51 46.66 1.87 48.77 0 49.83 C0.16 48.14 -0.24 46.23 1.01 44.84 C1.09 42.9 1.11 40.97 1.19 39.04 C2.62 37.39 1.7 35.07 2.57 33.23 C3.56 32.34 7.35 31.8 5.39 30.06 C4.91 28.79 3.38 27.42 4.61 26.09 C5.28 25.85 6.63 25.35 7.31 25.1 C7.02 23.05 6.19 21.09 4.87 19.49 C6.8 19.49 8.59 18.79 10.41 18.25 C9.16 17.02 7.93 15.77 6.74 14.5 C9.06 14.65 11.26 14.07 13.36 13.14 C12.88 12.03 12.35 10.94 11.88 9.84 C11.22 8.63 10.53 7.43 9.82 6.27 C11.81 6.34 13.84 6.44 15.53 7.66 C15.02 6.37 14.44 5.12 13.89 3.85 C13.16 2.58 12.47 1.29 11.8 0 Z" style="fill:#000000; fill-rule:nonzero;stroke-width:0.09375; stroke-linecap:butt; stroke-linejoin:miter; stroke-dasharray:none; stroke:#000000;" transform="translate(108.977, 251.736)"/>
   </g>
  </g>
 </g>
</svg>
