<?xml version="1.0" encoding="UTF-8" standalone="no"?>
<!-- Created with Inkscape (http://www.inkscape.org/) -->

<svg
   xmlns:dc="http://purl.org/dc/elements/1.1/"
   xmlns:cc="http://creativecommons.org/ns#"
   xmlns:rdf="http://www.w3.org/1999/02/22-rdf-syntax-ns#"
   xmlns:svg="http://www.w3.org/2000/svg"
   xmlns="http://www.w3.org/2000/svg"
   version="1.1"
   width="491.51483"
   height="640.00159"
   viewBox="0 0 49151.484 64010.482"
   id="svg2"
   xml:space="preserve"
   style="fill-rule:evenodd"><metadata
   id="metadata271"><rdf:RDF><cc:Work
       rdf:about=""><dc:format>image/svg+xml</dc:format><dc:type
         rdf:resource="http://purl.org/dc/dcmitype/StillImage" /><dc:title></dc:title></cc:Work></rdf:RDF></metadata>
 <defs
   id="defs4" />
 <g
   id="g3110"><g
     transform="translate(5.9134821e-5,2.7001079e-7)"
     id="g3554">













































































<g
   id="g3237"><path
   d="m 21.00129,43.995285 c 0,0 0,0 0,0 0,0 0,0 0,9654.454915 0,9654.4658 0,28963.1358 0,38599.0898 0,9635.704 0,9598.682 177.116,9329.542 177.115,-269.149 531.604,-770.416 788.15104,-1130.563 256.80397,-360.137 415.66797,-579.415 584.81497,-815.396 169.147,-235.981 348.061,-488.677 556.538,-782.497 208.478,-293.821 446.002,-628.508 704.606,-989.944 258.604,-361.425 538.031,-749.848 756.532,-1051.896 218.503,-302.048 375.825,-517.981 549.084,-759.104 173.26,-240.864 362.457,-507.177 468.623,-662.704 106.167,-155.517 129.816,-200.767 187.398,-323.894 57.839,-122.878 149.867,-323.894 201.794,-473.77 51.926,-149.866 63.751,-248.572 114.649,-392.527 51.156,-143.955 141.384,-333.149 189.197,-513.867 47.815,-180.718 52.698,-353.208 90.487,-507.956 37.53,-154.748 107.965,-292.024 158.092,-438.545 50.128,-146.531 80.46,-302.048 123.904,-470.165 43.443,-168.118 100.511,-348.835 153.209,-556.541 52.697,-207.446 101.282,-441.889 176.601,-789.177 75.319,-347.287 177.373,-807.688 384.05,-1747.25 206.678,-939.821 517.979,-2359.054 715.403,-3264.429 197.423,-905.365 281.225,-1297.133 353.202,-1593.26 71.978,-296.138 132.13,-497.164 171.46,-681.216 39.331,-184.052 57.839,-351.401 87.916,-537.261 30.076,-185.859 71.976,-389.96 118.762,-590.727 46.785,-200.766 98.712,-398.447 133.158,-525.429 34.189,-127.251 51.155,-184.062 65.293,-281.999 14.139,-97.947 25.964,-236.76 46.014,-389.961 20.051,-153.21 48.585,-320.559 100.255,-561.422 51.926,-241.124 127.245,-555.772 201.793,-872.727 74.548,-317.214 148.067,-636.745 194.081,-825.939 46.014,-189.195 64.523,-247.813 77.119,-434.431 12.596,-186.629 19.279,-501.277 64.523,-796.636 45.242,-295.368 128.788,-571.447 185.855,-817.462 56.811,-246.006 87.144,-461.939 107.966,-647.788 20.822,-185.86 32.647,-341.377 38.559,-497.932 5.912,-156.546 5.912,-313.87 -7.455,-475.308 -13.367,-161.437 -40.101,-327.238 -66.835,-492.79 108.737,-63.49 217.474,-127.241 326.467,-190.732 30.076,-115.429 60.153,-230.849 105.396,-462.717 45.2431,-231.867 105.3951,-579.933 156.5502,-886.085 51.1551,-306.162 92.799,-570.678 122.1042,-793.301 29.3052,-222.612 46.0141,-403.329 56.0394,-595.09 10.0254,-191.511 13.3672,-394.074 12.5964,-588.161 -0.7708,-194.077 -5.9128,-379.936 -8.4828,-472.731 -2.571,-92.805 -2.571,-92.805 -2.571,-92.805 41.9016,-100.513 83.8021,-200.766 125.4464,-301.279 259.3749,-105.396 518.7499,-210.791 778.1249,-316.436 61.952,85.347 123.904,170.683 210.791,269.399 87.143,98.706 199.222,210.791 284.567,287.141 85.345,76.082 143.955,116.189 223.387,155.517 79.432,39.329 179.943,77.889 280.454,116.449 112.079,-30.073 224.415,-60.146 293.822,-81.234 69.406,-20.817 96.14,-32.639 123.132,-44.47 122.104,-107.193 244.465,-214.135 366.569,-321.328 140.614,-326.47 281.226,-652.68 444.203,-1051.118 163.234,-398.447 349.09,-868.612 446.002,-1146.498 97.17,-277.886 105.396,-363.233 115.421,-467.849 10.025,-104.627 21.85,-228.533 16.709,-338.042 -4.884,-109.509 -26.734,-205.129 -48.585,-300.5 -113.878,28.535 -227.756,56.811 -341.378,85.346 110.537,-379.946 220.816,-759.883 331.353,-1139.819 -1.543,-222.612 -3.342,-445.224 -4.885,-667.846 55.269,-88.682 110.538,-177.373 165.805,-266.055 8.226,-205.908 16.709,-411.816 35.989,-545.487 19.28,-133.931 49.356,-195.884 75.319,-290.476 25.964,-94.603 47.814,-221.844 64.522,-319.791 16.709,-97.937 28.534,-166.57 56.04,-241.892 27.506,-75.322 71.206,-157.324 121.333,-328.007 50.127,-170.694 107.195,-430.068 146.525,-608.47 39.331,-178.141 61.181,-275.309 56.811,-514.635 -4.113,-239.327 -34.189,-621.06 -40.102,-841.875 -5.913,-220.815 12.597,-281.231 53.469,-363.232 40.873,-82.002 104.624,-185.85 189.969,-286.103 85.343,-100.513 192.539,-197.432 318.756,-275.32 126.218,-77.889 271.971,-136.497 379.165,-182.515 107.196,-46.008 175.831,-79.426 252.693,-133.921 77.118,-54.505 162.463,-129.817 247.806,-205.139 -1.541,-107.193 -3.341,-214.136 -5.141,-321.328 61.953,-103.848 123.904,-207.446 194.082,-336.494 70.177,-128.789 149.096,-282.769 227.756,-436.748 90.486,-1.538 180.715,-3.345 258.604,-12.59 77.89,-9.256 143.183,-25.97 187.398,-48.584 44.472,-22.625 67.864,-51.161 102.054,-109.509 34.189,-58.619 79.432,-147.3 114.65,-268.631 35.217,-121.34 60.152,-275.319 77.118,-369.912 16.709,-94.602 25.192,-129.817 58.61,-186.628 33.418,-56.811 92.028,-135.468 129.816,-203.332 37.531,-67.874 54.498,-124.676 94.599,-261.182 40.101,-136.497 103.853,-352.43 149.095,-609.238 45.243,-256.799 71.978,-554.734 74.549,-738.786 2.57,-184.062 -19.28,-254.492 -46.015,-327.249 -26.734,-72.746 -58.61,-148.058 -73.776,-246.005 -15.167,-97.937 -13.367,-218.499 3.342,-323.894 16.708,-105.395 48.585,-195.884 119.533,-329.815 71.207,-133.931 181.485,-311.303 237.525,-479.421 56.039,-168.117 57.839,-327.238 58.61,-410.778 0.771,-83.809 0.771,-92.026 0.771,-100.513 150.638,-132.1341 301.276,-264.5172 451.915,-396.6506 58.61,-247.8028 117.22,-495.356 148.838,-656.0149 31.876,-160.669 36.76,-234.4437 64.522,-437.776 27.506,-203.3423 77.891,-536.4918 128.017,-869.3816 65.294,28.5254 130.588,56.8112 195.881,85.3366 -1.542,-158.8617 -3.342,-317.9831 -2.57,-396.6402 0.771,-78.6671 4.113,-77.1195 7.455,-75.3223 50.126,-145.4927 100.511,-291.2449 135.471,-384.8187 35.218,-93.8234 55.269,-135.4684 80.204,-207.4459 25.191,-71.9775 55.267,-174.0381 70.435,-295.3685 15.166,-121.3304 15.166,-261.9407 33.417,-428.5204 18.508,-166.5797 55.268,-359.1189 111.307,-500.498 56.04,-141.3891 131.359,-231.8677 186.628,-299.7317 55.268,-67.8639 90.485,-113.1132 116.191,-169.1457 25.964,-56.0424 42.673,-123.1376 59.382,-189.9732 56.811,0 113.878,0 184.056,-8.2271 70.177,-8.4768 153.979,-25.1906 224.414,-38.5597 70.179,-13.3692 127.246,-23.3935 189.969,-51.1501 62.723,-27.507 131.363,-72.7563 210.789,-134.6996 79.436,-61.9532 169.915,-140.6202 219.277,-198.4599 49.353,-57.8296 57.84,-94.5922 87.913,-148.8374 30.073,-54.4949 82.002,-126.4724 173.259,-223.381 91.258,-97.1681 221.844,-219.2774 320.56,-322.0967 98.705,-102.8293 165.8,-186.6284 209.243,-251.1576 43.442,-64.5192 63.5,-109.7585 100.513,-217.4702 36.762,-107.9613 90.488,-278.6546 115.419,-469.3965 25.191,-190.742 21.856,-401.7823 12.601,-861.1545 -9.256,-459.6218 -24.163,-1167.83528 -31.881,-1525.14698 -7.448,-357.311695 -7.448,-363.741645 -7.448,-370.171595 -7082.567,6.42995 -14165.1277,12.8599 -21247.43271,19.27987 z"
   id="path16"
   style="fill:#d1e3f6;fill-opacity:1;stroke:#aaccee;stroke-width:49.9300499" /><path
   d="m 46.044329,50.008064 0,63910.462936 49059.394671,0 0,-63910.462936 -49059.394671,0 z M 21300.642,81.214344 c 0,6.42995 -1.208,10.92241 6.242,368.234116 7.719,357.31169 25.07,1066.36514 34.326,1525.98704 9.257,459.3722 12.709,670.5514 -12.482,861.2933 -24.931,190.742 -78.701,360.1329 -115.463,468.0943 -37.012,107.7116 -59.539,153.9247 -102.981,218.4439 -43.442,64.5292 -110.376,149.9416 -209.082,252.7709 -98.716,102.8193 -227.047,224.2565 -318.304,321.4247 -91.257,96.9085 -144.683,167.0697 -174.755,221.5646 -30.073,54.2452 -38.025,91.9604 -87.378,149.7901 -49.363,57.8397 -139.008,137.767 -218.444,199.7202 -79.426,61.9432 -149.48,106.68 -212.203,134.187 -62.723,27.7566 -120.179,36.561 -190.358,49.9301 -70.435,13.3691 -154.507,32.0914 -224.685,40.5682 -70.179,8.2274 -127.306,6.2412 -184.117,6.2412 -16.709,66.8356 -33.329,134.3159 -59.292,190.3583 -25.706,56.0324 -60.196,100.65 -115.463,168.5139 -55.269,67.864 -131.199,158.1912 -187.238,299.5803 -56.04,141.3792 -90.714,335.8414 -109.222,502.4212 -18.252,166.5797 -19.16,306.1956 -34.327,427.526 -15.168,121.3304 -46.583,224.4821 -71.774,296.4597 -24.935,71.9775 -42.798,112.1381 -78.016,205.9614 -34.96,93.5738 -87.181,241.4652 -137.308,386.9579 -3.345,-1.7975 -5.472,-3.7717 -6.241,74.8951 -0.799,78.6571 1.578,237.458 3.116,396.3198 -65.293,-28.5255 -131.306,-58.8522 -196.6,-87.3776 -50.127,332.8898 -100.439,667.3129 -127.946,870.6552 -27.763,203.3323 -33.657,276.219 -65.533,436.8879 -31.619,160.659 -91.179,410.6497 -149.79,658.4526 -150.639,132.134 -298.732,264.186 -449.37,396.3203 0,8.488 -2.347,16.051 -3.116,99.86 -0.799,83.54 -0.1,240.684 -56.171,408.802 -56.04,168.117 -165.962,346.646 -237.168,480.577 -70.949,133.93 -104.996,225.391 -121.705,330.786 -16.708,105.396 -18.287,226.609 -3.115,324.546 15.166,97.946 48.16,170.662 74.895,243.409 26.734,72.756 49.38,143.603 46.809,327.665 -2.566,184.053 -29.651,482.79 -74.895,739.589 -45.242,256.81 -109.688,472.026 -149.79,608.523 -40.102,136.507 -56.087,194.259 -93.619,262.133 -37.788,67.864 -97.647,146.029 -131.066,202.84 -33.418,56.812 -42.584,92.636 -59.292,187.238 -16.966,94.593 -42.799,246.894 -78.016,368.234 -35.218,121.33 -78.153,212.876 -112.342,271.495 -34.19,58.349 -58.51,86.598 -102.981,109.222 -44.215,22.614 -109.348,37.553 -187.238,46.809 -77.889,9.247 -168.527,10.945 -259.012,12.483 -78.66,153.979 -157.628,308.099 -227.806,436.888 -70.179,129.048 -131.527,233.18 -193.479,337.028 1.798,107.192 4.704,214.231 6.241,321.424 -85.343,75.323 -172.531,151.457 -249.65,205.962 -76.862,54.494 -145.575,88.178 -252.771,134.187 -107.195,46.018 -251.378,103.108 -377.596,180.996 -126.217,77.888 -232.96,174.102 -318.304,274.615 -85.344,100.254 -149.485,205.096 -190.358,287.098 -40.872,82.002 -58.963,141.178 -53.051,361.993 5.912,220.815 33.336,603.244 37.448,842.57 4.374,239.325 -16.841,336.762 -56.172,514.903 -39.33,178.401 -96.542,437.83 -146.669,608.523 -50.128,170.683 -94.198,252.343 -121.705,327.666 -27.506,75.322 -39.462,145.472 -56.171,243.409 -16.708,97.946 -36.449,223.701 -62.412,318.304 -25.964,94.592 -55.615,156.288 -74.895,290.218 -19.28,133.671 -29.222,340.202 -37.448,546.11 -55.268,88.682 -110.125,176.572 -165.393,265.253 1.538,222.623 1.577,445.203 3.115,667.815 -110.536,379.937 -220.25,762.203 -330.786,1142.15 113.622,-28.535 229.39,-58.843 343.269,-87.378 21.85,95.372 41.925,193.193 46.809,302.701 5.143,109.509 -5.582,232.402 -15.603,337.028 -10.025,104.616 -18.294,190.208 -115.463,468.094 -96.912,277.886 -283.016,746.823 -446.25,1145.271 -162.978,398.437 -302.516,725.182 -443.129,1051.651 -122.104,107.193 -246.13,214.232 -368.234,321.425 -26.992,11.831 -52.298,22.871 -121.705,43.689 -69.407,21.087 -181.26,51.063 -293.339,81.136 -100.511,-38.56 -201.425,-76.134 -280.856,-115.463 -79.432,-39.329 -139.341,-79.95 -224.686,-156.032 -85.344,-76.351 -196.833,-188.392 -283.977,-287.097 -86.886,-98.716 -150.25,-183.028 -212.202,-268.374 -259.375,105.645 -517.661,209.788 -777.0368,315.183 -41.644,100.513 -82.9236,202.188 -124.8251,302.701 l 3.1206,90.498 c 2.5704,92.795 5.4703,280.259 6.2413,474.336 0.7689,194.087 -2.4576,395.167 -12.4825,586.678 -10.0254,191.76 -26.8661,373.428 -56.1714,596.04 -29.3052,222.622 -70.5494,486.477 -121.7044,792.639 -51.1551,306.152 -110.7881,654.391 -156.0315,886.259 -45.2423,231.868 -76.0253,349.544 -106.1013,464.973 -108.9937,63.491 -215.8083,126.868 -324.5453,190.359 26.7342,165.551 52.1661,331.621 65.5332,493.059 13.367,161.438 12.1529,317.79 6.2412,474.335 -5.9127,156.556 -16.6251,310.321 -37.4475,496.18 -20.8214,185.85 -49.2912,403.085 -106.1014,649.091 -57.0678,246.015 -141.9953,522.236 -187.2377,817.604 -45.2433,295.359 -52.9368,609.132 -65.5331,795.761 -12.5954,186.618 -28.881,244.573 -74.8951,433.767 -46.0142,189.194 -122.052,509.752 -196.5996,826.966 -74.5486,316.955 -147.7943,632.653 -199.7202,873.776 -51.6693,240.864 -79.8094,408.503 -99.8601,561.713 -20.0507,153.201 -32.6705,292.132 -46.8094,390.079 -14.1379,97.937 -31.3446,153.606 -65.5332,280.856 -34.4461,126.981 -87.4022,323.499 -134.187,524.266 -46.7859,200.767 -88.5079,407.059 -118.5839,592.919 -30.0769,185.86 -48.0471,352.696 -87.3776,536.748 -39.3305,184.052 -99.6569,384.16 -171.6345,680.297 -71.9776,296.127 -155.2085,689.275 -352.631,1594.641 -197.4235,905.376 -507.9458,2324.356 -714.6238,3264.177 -206.6771,939.562 -308.518,1400.264 -383.8373,1747.552 -75.3193,347.287 -125.1781,582.073 -177.8758,789.519 -52.6976,207.705 -109.4676,387.354 -152.9108,555.471 -43.4441,168.118 -74.6974,324.685 -124.8251,471.215 -50.1266,146.521 -118.5011,282.14 -156.0314,436.888 -37.7889,154.748 -42.6839,327.945 -90.4982,508.663 -47.8133,180.717 -139.2023,370.948 -190.3583,514.903 -50.8975,143.956 -63.5374,240.213 -115.4632,390.079 -51.9269,149.876 -141.8816,351.457 -199.7202,474.335 -57.5821,123.128 -84.1912,169.028 -190.3584,324.546 -106.1661,155.527 -294.8349,420.709 -468.0942,661.573 -173.2592,241.123 -330.7279,459.385 -549.2305,761.433 -218.5016,302.048 -496.5881,690.226 -755.192,1051.652 -258.6039,361.435 -496.7847,695.417 -705.262,989.239 -208.4772,293.821 -386.325,547.296 -555.4718,783.277 -169.1467,235.982 -329.8733,454.347 -586.678,814.484 -256.54718,360.148 -609.28306,860.518 -786.39832,1129.668 -177.116251,269.14 -177.875795,308.147 -177.875795,-9327.558 l 0,-38599.0487 0,-9655.223186 C 7134.5905,93.518144 14218.076,87.644294 21300.642,81.214344 z"
   id="rect3537"
   style="fill:#ffffff;fill-opacity:1;stroke:#565248;stroke-width:100.01612854;stroke-opacity:1" /><path
   d="m 26750.84,22914.053 959.442,1175.317"
   id="path3268"
   style="fill:none;stroke:#000000;stroke-width:100.01612854px;stroke-linecap:butt;stroke-linejoin:miter;stroke-opacity:1" /><path
   d="m 28069.663,62147.093 c -20.308,-163.494 -140.882,-526.761 -161.19,-746.548 -20.309,-219.527 -40.876,-495.356 -94.602,-704.599 -53.726,-209.512 -140.361,-352.439 -122.619,-472.482 17.992,-120.052 140.351,-216.961 181.227,-362.713 40.876,-145.502 0,-339.579 -74.034,-500.498 -74.035,-160.918 -181.227,-288.679 -186.369,-418.755 -5.142,-130.077 92.026,-262.98 130.326,-388.164 38.31,-125.184 17.743,-242.671 -46.008,-331.861 -63.75,-89.461 -171.202,-150.645 -275.829,-314.14 -104.626,-163.484 -206.937,-429.029 -252.695,-630.564 -46.008,-201.795 -35.724,-339.58 17.742,-431.606 53.726,-92.036 150.635,-137.785 201.795,-199.229 51.15,-61.174 56.292,-137.784 99.484,-181.226 43.443,-43.443 125.185,-53.727 145.493,-96.909 20.308,-43.442 -20.568,-120.052 -30.592,-204.371 -10.284,-84.308 10.284,-176.085 5.142,-252.685 -5.142,-76.61 -35.734,-137.785 -53.726,-199.229 -17.992,-61.174 -22.874,-122.618 -5.142,-168.626 18.002,-46.018 58.868,-76.61 76.61,-125.194 17.992,-48.585 12.85,-114.901 30.582,-186.369 18.002,-71.459 58.868,-148.069 18.002,-278.395 -40.876,-130.327 -163.494,-314.129 -186.369,-441.63 -22.884,-127.761 53.727,-199.229 84.309,-255.261 30.592,-56.302 15.166,-97.169 -66.317,-107.203 -81.742,-10.274 -229.811,10.284 -314.129,-7.708 -84.318,-17.992 -104.626,-74.034 -117.476,-137.785 -12.86,-63.75 -17.992,-135.468 5.142,-237.528 22.874,-102.051 74.034,-234.953 58.868,-298.704 -15.426,-63.75 -96.919,-58.608 -140.361,-81.742 -43.442,-22.884 -48.584,-74.034 -33.158,-140.361 15.426,-66.316 51.15,-148.068 43.442,-201.794 -7.708,-53.726 -58.868,-79.167 -84.318,-176.085 -25.451,-96.909 -25.451,-265.545 10.284,-349.864 35.734,-84.308 107.192,-84.308 166.06,-199.218 58.609,-114.911 104.627,-344.722 158.353,-459.622 53.726,-114.911 114.91,-114.911 168.377,-214.395 53.726,-99.485 99.734,-298.703 99.734,-451.914 0,-153.211 -46.008,-260.403 -114.901,-334.437 -68.892,-74.035 -160.918,-114.901 -191.51,-191.511 -30.593,-76.601 0,-188.935 71.458,-255.261 71.468,-66.317 183.803,-86.885 237.529,-148.069 53.726,-61.174 48.584,-163.485 28.016,-288.419 -20.308,-125.195 -56.292,-273.263 -76.6,-388.164 -20.309,-114.91 -25.451,-196.653 25.45,-245.237 51.15,-48.584 158.343,-63.75 242.661,-120.052 84.318,-56.292 145.502,-153.201 125.194,-227.235 -20.308,-74.034 -122.618,-125.194 -178.661,-196.653 -56.302,-71.468 -66.326,-163.494 -81.742,-247.553 -15.426,-84.318 -35.734,-160.919 -15.426,-206.677 20.308,-46.018 81.742,-61.184 145.493,-140.361 63.75,-79.166 130.336,-222.093 204.371,-329.295 74.034,-107.193 155.776,-178.651 153.2,-303.845 -2.566,-125.185 -89.45,-303.846 -79.166,-413.614 10.274,-109.759 117.476,-150.635 135.468,-204.361 17.992,-53.726 -53.726,-120.052 -61.184,-183.803 -7.708,-63.75 48.584,-125.184 63.75,-201.794 15.426,-76.601 -10.284,-168.627 -68.892,-224.669 -58.609,-56.292 -150.635,-76.601 -201.795,-125.185 -51.15,-48.584 -61.174,-125.194 -38.3,-196.652 22.884,-71.469 79.176,-137.785 135.219,-142.927 56.292,-5.142 112.334,51.15 135.208,20.308 22.885,-30.592 12.86,-148.069 -46.008,-275.829 -58.608,-127.76 -166.06,-265.545 -216.961,-385.587 -51.16,-120.053 -46.018,-222.103 -10.284,-306.422 35.735,-84.318 102.051,-150.634 132.903,-216.961 30.592,-66.326 25.45,-132.902 -28.017,-252.695 -53.726,-120.042 -155.786,-293.561 -171.212,-454.48 -15.416,-160.918 56.302,-308.987 53.726,-444.206 -2.566,-135.208 -79.166,-257.827 -107.192,-372.737 -28.017,-114.911 -7.708,-222.103 -20.309,-349.864 -12.85,-127.76 -58.868,-275.829 -56.292,-375.303 2.566,-99.485 53.726,-150.645 63.751,-229.821 10.284,-79.166 -20.309,-186.369 -17.743,-303.845 2.576,-117.477 38.31,-245.237 68.893,-349.864 30.592,-104.616 56.302,-186.368 -12.85,-334.427 -68.893,-148.069 -232.387,-362.723 -290.996,-500.508 -58.868,-137.785 -12.849,-199.219 43.443,-209.503 56.302,-10.284 122.618,30.593 166.07,-40.876 43.442,-71.458 63.75,-255.261 38.3,-390.729 -25.45,-135.219 -97.168,-222.103 -104.626,-280.971 -7.708,-58.609 48.584,-89.451 63.75,-137.785 15.426,-48.584 -10.284,-114.9 38.3,-173.509 48.584,-58.618 171.203,-109.768 204.371,-204.371 33.158,-94.592 -22.884,-232.376 -7.718,-334.437 15.426,-102.051 102.051,-168.627 142.927,-222.103 40.876,-53.726 35.734,-94.592 -15.167,-114.9 -51.15,-20.309 -148.068,-20.309 -196.652,-56.302 -48.584,-35.725 -48.584,-107.193 -43.442,-171.203 5.141,-63.75 15.425,-120.042 74.034,-181.227 58.608,-61.184 166.06,-127.76 201.795,-211.819 35.734,-84.318 0,-186.369 22.874,-280.971 22.884,-94.332 104.626,-181.227 56.302,-278.395 -48.584,-96.908 -227.245,-204.361 -316.705,-306.411 -89.451,-102.061 -89.451,-199.229 -137.785,-252.695 -48.584,-53.726 -145.493,-63.751 -178.651,-117.477 -33.168,-53.726 -2.576,-150.644 66.316,-216.961 68.893,-66.326 176.085,-102.05 240.095,-148.068 63.751,-46.018 84.319,-102.051 58.868,-155.777 -25.45,-53.726 -97.168,-104.626 -153.21,-194.087 -56.292,-89.45 -96.909,-216.961 -92.026,-293.561 5.142,-76.6 56.302,-102.051 109.768,-102.051 53.726,0 109.759,25.451 142.927,10.284 33.158,-15.425 43.442,-71.468 17.992,-127.76 -25.451,-56.302 -86.885,-112.344 -81.743,-155.787 5.142,-43.442 76.601,-74.034 137.785,-81.742 61.174,-7.708 112.335,7.708 96.909,-35.734 -15.426,-43.442 -96.909,-145.493 -130.327,-222.103 -33.168,-76.6 -17.742,-127.76 15.416,-166.06 33.168,-38.301 84.318,-63.751 114.911,-79.177 30.592,-15.416 40.876,-20.308 51.16,-160.918 10.274,-140.351 20.298,-416.18 -10.284,-571.957 -30.592,-155.786 -102.061,-191.51 -148.069,-234.953 -46.018,-43.452 -66.326,-94.602 -58.868,-160.928 7.708,-66.316 43.442,-148.069 68.892,-211.819 25.451,-63.751 40.877,-109.759 10.284,-188.935 -30.592,-79.176 -107.192,-191.511 -135.478,-311.563 -28.016,-120.043 -7.708,-247.803 -20.308,-359.888 -12.85,-112.334 -58.858,-209.502 -35.724,-344.711 22.874,-135.219 114.9,-308.997 94.592,-505.64 -20.308,-196.653 -153.201,-416.19 -201.785,-594.841 -48.594,-178.661 -12.86,-316.705 43.442,-370.171 56.292,-53.726 132.893,-22.885 199.219,-51.16 66.326,-28.017 122.618,-114.901 99.484,-176.085 -22.884,-61.185 -125.194,-96.909 -181.226,-153.211 -56.302,-56.292 -66.327,-132.902 -12.86,-219.527 53.726,-86.884 171.202,-183.803 288.429,-280.971"
   id="path20"
   style="fill:none;stroke:#013397;stroke-width:99.86009979" /><path
   d="m 29072.704,23877.525 c -35.735,-92.036 -71.469,-183.803 -48.584,-270.687 22.874,-86.894 104.616,-168.637 158.342,-311.563 53.726,-142.927 79.176,-347.288 89.46,-482.506 10.284,-135.209 5.142,-201.795 12.85,-270.687 7.718,-68.893 28.027,-140.351 46.018,-296.128 17.743,-155.786 33.159,-395.881 48.584,-646 15.426,-250.12 30.593,-510.782 40.877,-812.062 10.284,-301.269 15.426,-643.424 17.991,-834.935 2.566,-191.511 2.566,-232.377 33.159,-339.569 30.592,-107.203 92.026,-280.971 140.36,-464.774 48.584,-183.793 84.319,-377.88 120.043,-571.956"
   id="path22"
   style="fill:none;stroke:#013397;stroke-width:99.86009979" /><path
   d="m 28735.69,17152.273 c -51.15,-127.76 -102.05,-255.261 -130.067,-370.171 -28.026,-114.901 -33.168,-216.951 -53.726,-316.696 -20.308,-99.484 -56.302,-196.652 -120.052,-290.995 -63.75,-94.343 -155.777,-186.369 -219.527,-278.395 -63.75,-92.026 -99.485,-183.803 -127.76,-311.563 -28.017,-127.761 -48.584,-290.995 -53.726,-457.056 -5.142,-166.061 5.142,-334.437 25.45,-492.78 20.308,-158.353 51.15,-306.421 96.908,-492.79 46.018,-186.369 107.193,-411.038 137.785,-543.94 30.592,-132.902 30.592,-173.779 68.892,-237.529 38.301,-63.75 114.911,-150.635 148.069,-262.969 33.158,-112.345 22.874,-250.129 -2.566,-372.748 -25.45,-122.618 -66.326,-229.811 -112.344,-321.837 -46.008,-92.026 -96.909,-168.636 -158.343,-232.387 -61.184,-63.75 -132.902,-114.9 -199.229,-222.103 -66.316,-107.192 -127.76,-270.677 -188.934,-434.171"
   id="path24"
   style="fill:none;stroke:#013397;stroke-width:99.86009979" /><path
   d="m 28965.511,17136.847 c 0,-204.36 0,-408.472 22.874,-638.282 22.875,-229.811 68.893,-485.073 28.017,-709.741 -40.867,-224.679 -168.627,-418.756 -183.793,-674.017 -15.426,-255.261 81.742,-571.967 81.742,-804.344 0,-232.386 -96.909,-380.455 -94.602,-518.24 2.576,-137.785 104.626,-265.545 168.636,-413.614 63.751,-148.068 89.461,-316.695 109.769,-487.648 20.308,-170.942 35.724,-344.721 10.274,-523.372 -25.44,-178.661 -92.026,-362.713 -86.884,-508.216 5.142,-145.492 81.752,-252.685 114.91,-388.163 33.158,-135.209 22.874,-298.703 63.75,-490.214 40.877,-191.511 132.903,-411.038 176.085,-681.725 43.442,-270.687 38.3,-592.5245 12.85,-868.1039 -25.44,-275.819 -71.458,-505.6399 -84.308,-709.741 -12.86,-204.3607 7.708,-383.0215 96.909,-525.9482 89.46,-142.9267 247.812,-250.1192 326.729,-408.4718 79.166,-158.3525 79.166,-367.5956 137.785,-523.3822 58.608,-155.7766 176.085,-257.8271 359.887,-395.8714 183.793,-137.7847 434.172,-311.5532 776.068,-623.1164 342.145,-311.5632 776.327,-760.9011 1192.247,-1113.3304 416.18,-352.4394 814.627,-607.7005 1133.639,-788.9273 319.271,-181.2269 559.116,-288.4194 689.442,-342.1454 130.077,-53.7261 150.635,-53.7261 170.943,-53.7261 142.927,117.4765 286.113,234.9529 429.04,352.4293 321.587,-173.5188 643.425,-347.2873 965.012,-520.8062 444.196,-5.142 888.662,-10.2839 1314.866,-7.708 426.463,2.566 834.935,12.85 1156.523,25.4403 321.587,12.8599 556.54,28.0262 791.493,43.4521"
   id="path26"
   style="fill:none;stroke:#013397;stroke-width:99.86009979" /><path
   d="m 29731.554,18576.907 c -17.223,-384.299 -34.706,-768.349 -51.929,-1152.659 -133.93,-101.801 -267.861,-203.592 -401.792,-305.393 -235.722,10.793 -471.194,21.337 -706.915,32.13 -117.736,96.4 -235.722,192.799 -353.458,289.198 58.868,80.205 117.736,160.659 166.06,283.797 48.065,123.127 85.597,289.198 123.128,455.258 133.931,26.729 267.862,53.467 334.697,66.836 66.836,13.369 66.836,13.369 66.836,13.369 139.332,192.789 278.395,385.588 417.727,578.386 135.209,-87.143 270.168,-174.287 405.387,-261.431 z"
   id="path30"
   style="fill:#d1e3f6;fill-opacity:1;stroke:#013397;stroke-width:99.86009979" /><path
   d="m 28924.375,14612.761 c 58.868,-187.397 117.736,-374.794 222.363,-511.551 104.367,-136.496 254.492,-222.362 369.652,-275.829 115.16,-53.466 195.365,-75.062 249.091,-174.028 53.467,-98.965 80.464,-275.829 149.866,-449.857 69.661,-174.028 182.006,-345.49 345.49,-449.857 163.235,-104.367 377.63,-141.898 581.222,-257.068 203.592,-115.16 396.391,-307.959 591.755,-385.588 195.365,-77.628 393.555,-40.097 591.756,-2.576"
   id="path32"
   style="fill:none;stroke:#013397;stroke-width:99.86009979" /><path
   d="m 28047.795,15357.218 c 126.223,-135.738 252.436,-271.466 386.626,-363.492 134.18,-92.026 276.338,-140.61 418.236,-189.195"
   id="path34"
   style="fill:none;stroke:#013397;stroke-width:99.86009979" /><path
   d="m 28115.919,34265.634 c 114.131,-59.378 228.273,-118.755 360.397,-191.252 132.133,-72.486 281.999,-158.352 421.321,-276.078 139.332,-117.736 267.862,-267.862 428.531,-383.022 160.659,-115.17 353.457,-195.375 511.55,-238.297 158.093,-42.933 281.221,-48.335 460.651,-83.031 179.429,-34.705 415.161,-99.225 650.623,-163.235 53.466,-90.997 107.192,-182.005 160.669,-273.263 123.128,-42.923 246.265,-85.596 369.652,-128.529 64.26,85.606 128.53,171.462 273.253,246.265 144.475,75.063 369.653,139.333 546.257,187.398 176.863,48.074 305.393,80.464 388.163,123.137 83.031,42.923 120.562,96.4 187.398,181.996 66.835,85.606 163.234,203.592 265.035,289.198 101.791,85.596 208.984,139.322 374.795,206.158 166.06,66.835 390.989,147.3 554.224,187.397 163.235,40.107 265.026,40.107 361.425,18.771 96.399,-21.337 187.397,-64.27 278.395,-107.193 26.738,101.791 53.477,203.592 107.203,294.59 53.466,90.998 133.93,171.462 176.853,265.026 42.933,93.833 48.325,200.766 66.836,283.796 18.771,83.031 50.9,141.899 125.963,235.732 75.063,93.823 192.799,222.353 251.667,361.425 58.858,139.333 58.858,289.198 37.531,401.792 -21.337,112.335 -64.269,187.398 -66.835,278.395 -2.836,90.998 34.695,198.191 90.997,310.525 56.292,112.345 131.355,230.33 198.191,313.361 66.835,83.03 125.963,131.105 158.093,224.928 32.13,93.834 37.531,232.896 40.107,302.567 2.566,69.662 2.566,69.662 2.566,69.662"
   id="path36"
   style="fill:none;stroke:#013397;stroke-width:99.86009979" /><path
   d="m 28076.071,29828.756 c -72.227,-155.267 -142.148,-423.378 -211.819,-686.098 -69.661,-262.719 -139.322,-519.778 -222.353,-723.12 -83.03,-203.592 -179.429,-353.458 -251.666,-487.388 -72.238,-133.921 -120.562,-251.657 -198.191,-433.912 -77.639,-182.006 -184.831,-428.531 -286.632,-589.19 -101.791,-160.659 -198.19,-235.721 -254.482,-305.393 -56.302,-69.661 -72.237,-133.92 -104.367,-249.09 -32.14,-115.16 -80.465,-281.221 -58.868,-484.563 21.336,-203.592 112.594,-444.456 195.624,-594.581 83.03,-149.866 158.093,-208.994 270.428,-299.992 112.334,-90.997 262.459,-214.135 409.749,-313.36 147.3,-98.965 292.024,-174.028 449.857,-262.46 158.093,-88.422 329.306,-190.223 506.16,-289.188 176.853,-98.975 358.859,-195.365 477.873,-256.04 119.024,-60.406 174.807,-85.087 255.271,-77.109 80.454,7.967 185.081,48.833 261.681,74.284 76.61,25.709 124.675,36.502 167.608,65.807 42.933,29.564 80.464,77.638 120.562,192.798 40.097,115.161 83.03,297.166 144.464,447.292 61.694,149.865 141.898,267.851 200.766,364.25 58.868,96.4 96.4,171.463 115.17,270.428 18.761,98.975 18.761,222.362 -13.369,369.403 -32.129,147.29 -96.399,318.752 -136.506,452.423 -40.098,133.931 -56.292,230.33 -53.467,366.827 2.576,136.506 24.162,313.36 21.596,508.725 -2.825,195.374 -29.563,409.759 -50.9,583.788 -21.337,174.028 -37.531,307.958 -37.531,444.465 0,136.497 15.935,275.819 5.401,433.912 -10.793,158.093 -48.324,334.697 -117.736,500.758 -69.661,166.06 -171.462,321.328 -265.026,455.258 -93.833,133.931 -179.429,246.266 -259.634,334.697 -80.464,88.422 -155.267,152.692 -232.896,232.896 -77.639,80.465 -158.093,176.854 -262.46,211.56 -104.367,34.706 -232.906,7.967 -334.697,-26.479 -101.541,-34.696 -176.345,-77.119 -248.582,-232.377 z"
   id="path28"
   style="fill:#d1e3f6;fill-opacity:1;stroke:#013397;stroke-width:99.86009979" /><path
   d="m 37925.901,42631.192 c 117.736,-149.865 235.731,-299.991 310.534,-444.455 75.063,-144.724 107.193,-283.797 155.268,-406.934 48.065,-123.128 112.594,-230.32 262.46,-348.056 149.865,-117.737 385.587,-246.266 535.453,-374.795 149.866,-128.529 214.395,-257.068 208.993,-498.191 -5.401,-240.864 -80.464,-594.581 -96.399,-867.585 -15.935,-273.253 26.738,-466.052 42.933,-690.98 16.195,-224.929 5.392,-481.987 26.728,-674.786 21.337,-192.799 75.063,-321.328 42.933,-723.11 -32.13,-401.792 -149.866,-1076.578 -267.861,-1751.363 -75.063,-107.193 -149.866,-214.136 -224.929,-321.328 10.803,-224.929 21.337,-449.858 32.14,-674.786 -107.203,0 -214.136,0 -267.862,-64.27 -53.466,-64.259 -53.466,-192.788 5.402,-283.786 58.868,-91.008 176.854,-144.734 246.265,-198.201 69.661,-53.466 90.998,-107.192 112.584,-160.659 32.14,-546.256 64.27,-1092.512 96.4,-1638.769 -257.059,-64.27 -514.117,-128.529 -771.185,-192.799 -75.063,-310.534 -149.866,-621.319 -358.86,-963.983 -208.983,-342.665 -551.648,-717.709 -744.446,-1076.568 -192.799,-358.86 -235.722,-701.524 -369.653,-888.921 -133.931,-187.398 -358.859,-219.527 -508.725,-182.006 -149.866,37.531 -224.929,144.734 -514.127,160.669 -289.188,16.195 -792.771,-58.868 -1087.111,-208.994 -294.59,-149.865 -380.196,-374.794 -514.127,-444.455 -133.92,-69.661 -315.926,16.195 -567.842,117.736 -251.667,101.791 -572.995,219.527 -781.989,353.458 -208.983,133.93 -305.382,283.796 -481.987,444.455 -176.853,160.669 -433.922,332.121 -674.785,449.857 -240.864,117.736 -466.052,182.006 -605.125,230.33 -139.322,48.075 -192.798,80.465 -219.527,181.996 -26.738,101.801 -26.738,273.263 -48.075,390.999 -21.336,117.726 -64.259,181.996 -144.464,214.126 -80.464,32.139 -198.2,32.139 -321.328,15.945 -123.137,-15.945 -251.666,-48.335 -353.457,-85.607 -101.801,-37.531 -176.864,-80.464 -235.732,-80.464 -58.868,0 -101.791,42.933 -192.799,64.27 -90.998,21.336 -230.32,21.336 -364.251,80.464 -133.93,58.858 -262.46,176.854 -326.729,289.188 -64.26,112.335 -64.26,219.537 -58.868,315.927 5.401,96.399 16.194,182.005 10.803,246.265 -5.402,64.269 -26.738,107.202 -69.661,117.736 -42.933,10.803 -107.203,-10.793 -171.462,5.401 -64.27,16.195 -128.53,69.661 -187.398,112.594 -58.868,42.923 -112.334,75.063 -187.397,96.4 -75.062,21.336 -171.462,32.13 -261.431,29.044 -89.98,-3.085 -173.519,-20.308 -256.809,-37.271"
   id="path38"
   style="fill:none;stroke:#013397;stroke-width:99.86009979" /><path
   d="m 33229.129,29026.979 c 130.337,-221.075 260.403,-442.149 395.362,-638.283 134.7,-196.143 274.032,-367.595 434.691,-517.461 160.659,-149.876 342.665,-278.405 605.125,-524.92 262.46,-246.265 605.124,-610.526 830.053,-931.854 224.928,-321.328 332.121,-599.723 481.987,-797.923 149.866,-198.191 342.664,-315.927 519.518,-449.857 176.864,-133.921 337.523,-283.797 594.591,-562.452 257.058,-278.395 610.516,-685.578 883.779,-1054.971 273.253,-369.663 466.052,-701.524 589.179,-937.256 123.138,-235.721 176.864,-374.794 171.463,-637.254 -5.402,-262.46 -69.662,-648.047 -214.136,-937.246 -144.464,-289.188 -369.652,-481.986 -455.249,-701.523 -85.606,-219.527 -32.139,-466.052 -91.007,-749.849 -58.868,-283.796 -230.32,-605.114 -466.052,-996.113 -235.722,-390.989 -535.713,-851.64 -835.445,-1312.04 160.659,-107.193 321.328,-214.136 481.987,-321.328 -214.135,-149.866 -428.52,-299.991 -551.658,-444.456 -123.128,-144.474 -155.257,-283.796 -257.058,-471.194 -101.791,-187.397 -273.253,-423.128 -337.263,-706.925 -64.27,-283.797 -21.337,-615.918 21.336,-948.039"
   id="path40"
   style="fill:none;stroke:#013397;stroke-width:99.86009979" /><path
   d="m 37015.393,29620.791 c 121.331,-65.547 242.661,-131.105 453.452,-222.872 210.541,-91.766 510.532,-209.502 783.785,-295.109 273.253,-85.596 519.518,-139.322 787.38,-155.267 267.861,-16.195 557.049,5.402 771.185,21.337 214.135,15.945 353.458,26.738 455.258,-26.729 101.791,-53.466 166.061,-171.462 267.852,-299.991 101.801,-128.529 240.874,-267.861 401.533,-396.39 160.659,-128.53 342.924,-246.266 481.986,-305.393 139.333,-58.868 235.732,-58.868 369.403,-139.323 133.931,-80.464 305.393,-241.123 390.989,-364.26 85.607,-123.128 85.607,-208.994 107.193,-305.383 21.336,-96.4 64.269,-203.592 171.462,-278.405 107.192,-75.063 278.395,-117.726 481.987,-181.996 203.602,-64.269 439.064,-149.866 599.733,-289.198 160.659,-139.322 246.265,-332.121 315.926,-524.92 69.661,-192.789 123.128,-385.587 133.931,-530.311 10.793,-144.734 -21.337,-241.123 21.336,-353.468 42.923,-112.334 160.659,-241.123 246.266,-369.652 85.596,-128.53 139.322,-257.059 230.32,-455.259 91.008,-198.19 219.537,-466.052 342.664,-755.24 123.138,-289.198 241.124,-599.982 315.927,-894.323 75.063,-294.589 107.202,-572.984 230.33,-744.446 123.137,-171.462 337.523,-235.722 519.518,-348.067 182.006,-112.334 332.131,-273.253 428.531,-385.587 96.389,-112.335 139.322,-176.864 75.062,-310.535 -64.269,-133.931 -235.731,-337.522 -390.999,-557.049 -155.257,-219.527 -294.589,-455.259 -487.388,-792.522 -192.789,-337.263 -439.054,-776.587 -535.454,-1071.176 -96.399,-294.59 -42.933,-444.456 -5.401,-658.591 37.531,-214.136 58.868,-492.79 10.793,-835.445 -48.325,-342.665 -166.061,-749.858 -380.186,-1081.979 -214.135,-332.121 -524.92,-589.18 -856.791,-792.522 -332.121,-203.592 -685.579,-353.458 -969.376,-519.518 -283.796,-166.061 -498.191,-348.066 -648.057,-476.596 -149.866,-128.529 -235.722,-203.592 -326.72,-439.054 -91.007,-235.731 -187.407,-631.862 -299.991,-803.324 -112.344,-171.463 -241.123,-117.736 -444.465,-80.455 -203.592,37.532 -481.987,58.868 -749.849,53.726 -267.861,-5.401 -524.919,-37.531 -755.25,0 -230.32,37.532 -433.912,144.724 -631.852,273.253 -198.191,128.53 -390.989,278.395 -589.19,337.263 -198.19,58.868 -401.782,26.739 -637.254,-69.661 -235.722,-96.399 -503.324,-257.058 -771.185,-417.727"
   id="path42"
   style="fill:none;stroke:#013397;stroke-width:99.86009979" /><path
   d="m 37724.885,29291.755 c -93.574,-170.174 -187.398,-340.348 -191.262,-468.108 -4.113,-128.02 81.753,-213.627 124.676,-379.687 42.933,-166.061 42.933,-412.326 80.204,-669.384 37.532,-257.059 112.594,-524.92 155.268,-803.315 42.933,-278.405 53.466,-567.593 58.868,-755.25 5.401,-187.397 5.401,-273.253 37.531,-358.859 32.13,-85.596 96.4,-171.462 203.592,-273.253 107.193,-101.801 257.058,-219.537 342.665,-337.263 85.596,-117.736 107.192,-235.732 160.659,-364.261 53.476,-128.529 139.332,-267.862 224.928,-364.261 85.606,-96.389 171.462,-149.866 214.136,-289.188 42.932,-139.332 42.932,-364.261 85.606,-530.321 42.923,-166.061 128.529,-273.254 192.789,-471.194 64.269,-198.191 107.192,-487.389 133.93,-776.587 26.739,-289.188 37.532,-578.386 10.793,-953.44 -26.728,-374.794 -90.997,-835.445 -230.32,-1178.109 -139.332,-342.665 -353.457,-567.853 -498.191,-739.056 -144.465,-171.462 -219.527,-289.188 -246.265,-433.922 -26.729,-144.464 -5.392,-315.926 21.336,-530.311 26.738,-214.135 58.868,-471.194 107.203,-658.85 48.065,-187.398 112.584,-305.393 230.32,-433.922 117.736,-128.53 289.198,-267.862 460.66,-406.925"
   id="path44"
   style="fill:none;stroke:#013397;stroke-width:99.86009979" /><path
   d="m 27908.473,61400.545 c 136.496,-258.086 272.993,-516.173 448.309,-704.09 175.316,-187.906 389.711,-305.902 694.845,-487.897 305.382,-182.006 701.513,-428.531 1097.904,-557.06 396.391,-128.529 792.522,-139.322 1081.97,-230.32 289.198,-91.008 471.193,-262.46 712.317,-498.192 241.133,-235.721 540.864,-535.712 857.05,-664.242 315.927,-128.529 648.048,-85.606 931.844,-101.801 283.797,-15.935 519.529,-90.997 787.38,-123.127 267.862,-32.14 567.853,-21.337 824.652,42.923 257.068,64.269 471.453,182.005 674.795,294.599 203.592,112.335 396.381,219.527 589.18,326.72"
   id="path46"
   style="fill:none;stroke:#013397;stroke-width:99.86009979" /><path
   d="m 27528.017,50263.098 c 166.83,90.997 333.669,181.995 486.879,147.299 152.951,-34.705 292.274,-195.624 463.736,-404.358 171.462,-208.993 374.794,-466.052 508.725,-717.718 133.931,-251.667 198.19,-498.192 326.729,-631.863 128.53,-133.921 321.318,-155.257 503.324,-283.797 181.996,-128.529 353.458,-364.251 519.518,-492.78 166.061,-128.529 326.73,-149.866 466.052,-192.798 139.332,-42.933 257.068,-107.193 396.391,-85.856 139.332,21.336 299.991,128.529 605.124,214.125 305.393,85.606 755.25,149.876 1146.239,155.268 390.989,5.401 723.11,-48.325 1108.708,-112.335 385.587,-64.27 824.651,-139.322 1178.109,-187.397 353.458,-48.075 621.319,-69.661 889.181,-155.268 267.851,-85.596 535.453,-235.721 733.653,-380.195 198.191,-144.724 326.72,-283.797 487.389,-358.86 160.659,-75.052 353.458,-85.596 471.194,-42.923 117.736,42.923 160.659,139.323 235.721,235.722 75.063,96.399 182.006,192.799 315.927,289.198 133.93,96.4 294.599,192.799 514.126,257.058 219.527,64.27 498.182,96.4 701.524,112.595 203.592,15.935 332.121,15.935 433.922,-32.13 101.791,-48.335 176.854,-144.724 315.927,-235.732 139.322,-90.998 342.914,-176.854 481.986,-224.928 139.333,-48.065 214.136,-58.868 305.393,-107.193 90.998,-48.065 198.191,-133.931 267.862,-310.525 69.661,-176.863 101.791,-444.465 192.789,-653.459 90.997,-208.983 241.123,-358.849 433.922,-471.194 192.798,-112.334 428.52,-187.397 605.124,-305.382 176.854,-117.736 294.59,-278.405 342.924,-433.922 48.325,-155.268 26.728,-305.393 90.998,-476.596 64.26,-171.462 214.125,-364.251 310.525,-524.919 96.399,-160.659 139.332,-289.189 107.202,-380.196 -32.139,-90.998 -139.332,-144.724 -192.798,-171.453 -53.467,-26.738 -53.467,-26.738 -53.467,-26.738"
   id="path48"
   style="fill:none;stroke:#013397;stroke-width:99.86009979" /><path
   d="m 40817.842,47135.425 c 21.337,158.871 42.933,317.733 58.868,423.897 15.945,106.164 26.738,159.89 85.606,229.302 58.868,69.661 166.061,155.267 251.667,235.722 85.596,80.464 149.866,155.267 219.527,262.459 69.661,107.193 144.724,246.266 273.253,396.391 128.529,149.866 310.535,310.785 487.388,390.989 176.864,80.464 348.067,80.464 540.865,37.532 192.789,-42.933 407.184,-128.53 589.18,-166.061 182.005,-37.531 332.121,-26.738 465.802,21.337 133.921,48.075 251.657,133.93 374.794,155.267 123.128,21.337 251.657,-21.337 466.052,-139.332 214.126,-117.736 514.117,-310.525 739.045,-439.064 224.929,-128.529 374.805,-192.789 562.452,-224.929 187.397,-32.13 412.335,-32.13 605.124,-26.728 192.799,5.402 353.458,16.195 460.66,69.661 107.193,53.467 160.659,149.866 273.253,257.059 112.335,107.202 283.797,224.928 455.259,342.924"
   id="path50"
   style="fill:none;stroke:#013397;stroke-width:99.86009979" /><path
   d="m 35237.291,47670.888 c -46.267,119.533 -92.795,239.326 -142.667,320.559 -49.872,81.223 -103.598,124.156 -130.326,236.49 -26.738,112.335 -26.738,294.6 -26.738,423.129 0,128.53 0,203.592 42.933,267.852 42.923,64.269 128.529,117.736 224.928,198.2 96.4,80.454 203.592,187.397 289.198,294.59 85.597,107.192 149.866,214.135 224.929,305.393 75.053,90.997 160.659,166.06 203.592,294.589 42.923,128.53 42.923,310.535 10.793,481.987 -32.13,171.462 -96.399,332.131 -214.135,444.466 -117.736,112.334 -289.189,176.853 -428.521,235.721 -139.322,58.868 -246.265,112.595 -332.121,192.799 -85.606,80.465 -149.866,187.397 -198.2,337.523 -48.065,149.866 -80.455,342.664 -149.866,476.595 -69.661,133.921 -176.854,208.984 -299.991,246.265 -123.128,37.522 -262.46,37.522 -433.912,-42.933 -171.462,-80.464 -374.805,-241.123 -578.397,-401.792"
   id="path52"
   style="fill:none;stroke:#013397;stroke-width:99.86009979" /><path
   d="m 27857.313,45235.743 c 89.2,-86.116 178.401,-172.491 265.804,-231.608 87.404,-59.128 173.26,-91.258 253.464,-80.724 80.455,10.803 155.258,64.269 214.126,90.998 58.868,26.738 101.801,26.738 240.873,10.803 139.323,-15.945 374.795,-48.335 583.788,-53.467 208.984,-5.401 390.989,15.935 540.855,37.522 149.866,21.336 267.862,42.933 401.782,5.401 133.931,-37.531 283.797,-133.931 423.129,-240.863 139.323,-107.193 267.862,-224.929 396.391,-380.196 128.529,-155.268 257.058,-348.067 406.924,-439.064 149.866,-90.998 321.328,-80.455 519.518,-107.193 198.201,-26.738 423.129,-90.998 626.721,-203.592 203.592,-112.334 385.588,-273.253 514.127,-455.258 128.529,-181.996 203.592,-385.588 321.328,-551.648 117.726,-166.071 278.395,-294.6 449.857,-369.663 171.452,-75.063 353.457,-96.389 535.453,-117.726"
   id="path54"
   style="fill:none;stroke:#013397;stroke-width:99.86009979" /><path
   d="m 27606.165,40995.259 c 365.799,-75.842 731.597,-151.933 968.097,-168.377 236.491,-16.455 343.683,26.219 466.821,63.75 123.128,37.531 262.46,69.661 487.389,16.195 224.928,-53.467 535.712,-192.799 787.379,-235.732 251.667,-42.923 444.456,10.803 637.255,32.14 192.798,21.336 385.597,10.793 557.049,5.391 171.462,-5.391 321.328,-5.391 439.064,15.945 117.736,21.337 203.592,64.26 310.535,80.455 107.192,15.945 235.722,5.401 374.794,-37.532 139.323,-42.923 289.188,-117.726 396.391,-187.397 107.192,-69.661 171.462,-133.931 267.851,-160.659 96.4,-26.738 224.929,-15.935 348.067,26.728 123.127,42.933 241.123,117.996 337.263,214.136 96.399,96.399 171.462,214.135 294.589,294.59 123.138,80.464 294.6,123.137 380.196,144.733 85.606,21.337 85.606,21.337 85.606,21.337"
   id="path56"
   style="fill:none;stroke:#013397;stroke-width:99.86009979" /><path
   d="m 33329.123,4342.3784 c 75.582,-229.811 151.154,-459.6219 247.813,-606.6621 96.659,-147.0403 214.385,-211.3099 342.924,-280.971 128.529,-69.6612 267.851,-144.7239 374.794,-230.3301 107.193,-85.5963 181.996,-181.9957 230.32,-337.2631 48.075,-155.2673 69.672,-369.6524 112.345,-583.7878 42.923,-214.1254 107.192,-428.5204 171.452,-642.6558"
   id="path58"
   style="fill:none;stroke:#013397;stroke-width:99.86009979" /><path
   d="m 20875.284,3835.4728 c 200.507,101.0221 301.257,102.0382 497.91,205.8859 196.653,104.1073 389.442,211.0502 555.512,323.6443 166.061,112.3345 305.383,230.3301 444.456,364.2509 139.322,133.9307 278.395,283.7965 444.455,374.8043 166.061,90.9979 358.859,123.1276 530.322,139.3223 171.462,15.9351 321.328,15.9351 428.52,42.933 107.193,26.7282 171.462,80.4543 332.121,123.1276 160.669,42.9329 417.727,75.0627 589.189,149.8658 171.463,75.0627 257.059,192.7988 348.067,294.5997 90.997,101.791 187.397,187.3972 278.395,273.253 90.997,85.5963 176.853,171.4621 257.058,257.0584 80.464,85.6062 155.267,171.4621 219.527,149.8658 64.27,-21.3366 117.736,-149.8658 144.734,-299.9912 26.728,-149.8659 26.728,-321.328 53.466,-460.6503 26.739,-139.3323 80.465,-246.2652 171.462,-364.2608 90.998,-117.7261 219.527,-246.2652 342.665,-364.2509 123.128,-117.736 241.123,-224.9285 374.794,-337.263 133.931,-112.3345 283.797,-230.3301 385.588,-348.0662 101.801,-117.736 155.267,-235.7216 224.928,-380.1959 69.662,-144.4643 155.268,-315.9264 337.523,-412.3257 182.006,-96.3994 460.66,-117.7361 739.055,-139.3223"
   id="path60"
   style="fill:none;stroke:#013397;stroke-width:99.86009979" /><path
   d="m 18139.099,8869.2352 c 179.429,-3.5944 359.115,-7.1988 422.095,17.7322 62.98,24.9411 9.512,78.6671 36.246,137.5352 26.734,58.868 133.929,123.1276 176.859,181.9956 42.929,58.868 21.336,112.3345 32.132,182.0056 10.797,69.6612 53.469,155.2574 117.735,171.4521 64.264,16.1947 149.867,-37.5314 235.724,-58.868 85.603,-21.3267 171.46,-10.7931 246.266,5.4015 75.062,15.9351 139.327,37.5314 332.124,48.3245 192.795,10.8032 514.125,10.8032 701.523,-10.7931 187.397,-21.3367 241.123,-64.2596 294.589,-85.5963 53.467,-21.3366 107.193,-21.3366 166.061,5.3916 58.868,26.7382 123.137,80.4643 192.799,107.1925 69.661,26.7383 144.723,26.7383 181.995,53.4765 37.532,26.7282 37.532,80.4543 192.799,155.2574 155.267,75.0623 466.052,171.4623 664.252,208.9933 198.19,37.5312 283.797,15.9452 406.924,32.1402 123.138,16.195 283.797,69.661 412.326,48.324 128.529,-21.336 224.928,-117.7362 332.121,-139.3322 107.202,-21.337 224.929,32.14 390.999,48.335 166.061,15.935 380.186,-5.402 519.518,-48.075 139.323,-42.933 203.592,-107.193 257.059,-90.998 53.466,16.195 96.399,112.594 224.928,123.128 128.529,10.803 342.924,-64.26 449.857,-75.063 107.203,-10.793 107.203,42.933 273.263,133.9312 166.061,90.997 498.182,219.537 696.123,278.405 198.19,58.858 262.46,48.064 315.926,-21.337 53.466,-69.671 96.399,-198.2 139.332,-390.9992 42.923,-192.789 85.597,-449.8573 160.659,-690.9805 75.063,-240.8637 181.996,-466.0518 235.722,-642.6559 53.476,-176.8537 53.476,-305.3828 85.606,-444.4555 32.13,-139.3223 96.4,-289.1982 342.665,-396.3907 246.265,-107.1925 674.785,-171.4621 867.584,-289.1881 192.789,-117.7361 149.866,-289.1982 155.258,-428.5304 5.401,-139.3224 58.868,-246.2553 171.462,-348.0562 112.334,-101.8009 283.796,-198.1903 390.989,-278.395 107.202,-80.4643 149.866,-144.7239 219.537,-192.7988 69.661,-48.0749 166.06,-80.4642 294.589,-214.1354 128.53,-133.9307 289.199,-369.6524 423.119,-599.7229 133.931,-230.3301 241.134,-455.2587 283.797,-706.9155 42.933,-251.6667 21.337,-530.3213 -37.531,-690.9803 -58.858,-160.669 -155.258,-203.6019 -171.453,-257.0683 -16.194,-53.4665 48.325,-117.9857 139.323,-214.1255 90.998,-96.3993 208.993,-224.9385 321.328,-321.3279 112.334,-96.3994 219.527,-160.669 299.991,-278.405 80.464,-117.726 133.931,-289.1881 176.854,-487.3884 42.933,-198.1904 75.062,-423.1189 107.202,-648.0475"
   id="path62"
   style="fill:none;stroke:#013397;stroke-width:99.86009979" /><path
   d="m 17287.454,10828.304 c 174.288,29.045 348.319,57.84 526.462,67.095 178.144,8.996 360.144,-1.547 488.674,30.583 128.531,32.139 203.593,107.202 289.195,203.592 85.601,96.399 182,214.135 305.132,283.796 123.132,69.671 273.256,91.008 369.655,96.4 96.397,5.401 139.327,-5.392 181.999,26.738 42.929,32.13 85.602,107.192 144.469,192.799 58.867,85.596 133.928,181.995 198.194,257.058 64.266,75.063 117.734,128.529 208.991,224.928 91.002,96.4 219.531,235.722 305.387,332.121 85.606,96.4 128.529,149.866 149.866,230.331 21.337,80.464 21.337,187.397 21.337,283.796 0,96.4 0,181.996 -5.392,262.46 -5.401,80.454 -16.195,155.267 26.728,219.527 42.933,64.27 139.333,117.736 273.263,133.931 133.921,16.194 305.383,-5.402 492.78,-26.738 187.398,-21.327 390.99,-42.923 567.594,-75.053 176.863,-32.14 326.729,-75.063 460.66,-85.606 133.921,-10.794 251.657,10.793 374.794,37.531 123.128,26.738 251.657,58.868 380.196,90.998"
   id="path64"
   style="fill:none;stroke:#013397;stroke-width:99.86009979" /><path
   d="m 27706.678,42081.342 c -278.405,-52.189 -556.54,-104.627 -717.199,-104.108 -160.669,0.509 -203.343,54.235 -283.797,193.568 -80.464,139.322 -198.2,364.251 -364.261,503.323 -166.06,139.323 -380.196,192.799 -589.189,251.657 -208.984,58.868 -412.326,123.138 -626.711,144.734 -214.135,21.337 -439.064,0 -642.656,-58.868 -203.592,-58.868 -385.587,-155.267 -514.126,-246.265 -128.53,-90.998 -203.592,-176.864 -310.525,-257.069 -107.193,-80.454 -246.265,-155.257 -364.261,-176.853 -117.736,-21.337 -214.125,10.793 -348.056,101.801 -133.931,90.997 -305.393,241.123 -476.596,390.989"
   id="path66"
   style="fill:none;stroke:#013397;stroke-width:99.86009979" /><path
   d="m 27996.895,47805.078 c -64.52,-96.399 -128.789,-193.058 -220.037,-246.525 -91.007,-53.726 -208.993,-64.269 -326.729,-32.129 -117.736,32.129 -235.722,107.192 -315.926,155.257 -80.465,48.075 -123.138,69.671 -166.061,101.801 -42.933,32.13 -85.606,75.063 -219.537,-64.27 -133.931,-139.322 -358.859,-460.65 -481.987,-653.449 -123.137,-192.798 -144.724,-257.058 -160.669,-337.522 -15.935,-80.455 -26.728,-176.854 -96.389,-305.383 -69.671,-128.539 -198.201,-289.198 -353.468,-406.934 -155.257,-117.736 -337.523,-192.799 -449.857,-262.46 -112.334,-69.661 -155.267,-133.931 -219.527,-219.527 -64.27,-85.606 -149.866,-192.799 -315.926,-348.066 -166.071,-155.268 -412.326,-358.86 -631.863,-498.182 -219.527,-139.332 -412.326,-214.135 -605.125,-289.198"
   id="path68"
   style="fill:none;stroke:#013397;stroke-width:99.86009979" /><path
   d="m 27257.33,51858.934 c -64.259,-76.6 -128.529,-153.46 -171.202,-213.357 -42.933,-59.896 -64.26,-102.569 -80.455,-198.969 -15.945,-96.399 -26.738,-246.265 -48.334,-401.782 -21.337,-155.267 -53.467,-315.936 -187.397,-589.189 -133.931,-273.253 -369.653,-658.851 -583.788,-963.984 -214.126,-305.383 -406.924,-530.311 -631.853,-787.38 -224.928,-257.058 -481.997,-546.256 -589.189,-723.11 -107.193,-176.864 -64.26,-241.123 -241.123,-481.997 -176.854,-240.863 -572.985,-658.84 -1081.97,-1065.775 -508.725,-406.924 -1130.044,-803.314 -1430.035,-1065.774 -299.992,-262.46 -278.395,-390.989 -315.927,-530.322 -37.531,-139.322 -133.931,-289.188 -278.405,-358.859 -144.724,-69.661 -337.512,-58.868 -460.65,-42.923 -123.128,15.935 -176.854,37.531 -262.46,75.063 -85.596,37.531 -203.592,90.998 -299.991,75.063 -96.4,-15.946 -171.462,-101.801 -246.265,-187.408"
   id="path70"
   style="fill:none;stroke:#013397;stroke-width:99.86009979" /><path
   d="m 26963.769,53245.268 c -94.862,-3.345 -189.714,-6.68 -349.604,-19.02 -159.89,-12.341 -384.819,-33.678 -567.084,-146.272 -181.995,-112.334 -321.318,-315.926 -487.388,-406.924 -166.061,-90.998 -358.85,-69.661 -567.583,-208.734 -208.994,-139.332 -433.922,-439.323 -578.397,-599.723 -144.464,-160.669 -208.983,-182.005 -257.058,-251.667 -48.075,-69.661 -80.464,-187.397 -85.606,-364.26 -5.392,-176.854 15.945,-412.326 -32.13,-631.853 -48.325,-219.527 -166.061,-423.129 -224.929,-615.918 -58.868,-192.799 -58.868,-374.794 -166.06,-557.059 -107.193,-181.996 -321.328,-364.251 -390.989,-508.725 -69.661,-144.465 5.391,-251.657 26.728,-401.783 21.337,-149.866 -10.793,-342.664 -80.195,-498.181 -69.671,-155.268 -176.863,-273.263 -283.796,-390.999"
   id="path72"
   style="fill:none;stroke:#013397;stroke-width:99.86009979" /><path
   d="m 27758.857,58381.872 c -359.888,-23.134 -719.766,-46.268 -1092.763,-47.037 -372.748,-0.778 -758.335,20.558 -1106.401,-32.908 -348.056,-53.467 -658.841,-181.996 -905.106,-283.797 -246.265,-101.791 -428.53,-176.853 -653.459,-198.19 -224.929,-21.337 -492.78,10.793 -787.38,37.531 -294.589,26.729 -615.917,48.325 -921.051,32.13 -305.382,-16.195 -594.581,-69.661 -851.639,-166.06 -257.068,-96.4 -481.997,-235.732 -696.122,-380.196 -214.136,-144.724 -417.728,-294.59 -530.322,-444.456 -112.334,-149.866 -133.93,-299.991 -96.399,-444.465 37.531,-144.465 133.931,-283.797 230.33,-423.119"
   id="path74"
   style="fill:none;stroke:#013397;stroke-width:99.86009979" /><path
   d="m 27780.193,60041.718 c -281.22,-137.265 -562.711,-274.281 -810.513,-396.39 -247.803,-122.099 -461.939,-229.292 -622.608,-277.367 -160.659,-48.324 -267.851,-37.531 -433.912,-53.466 -166.06,-16.195 -390.999,-58.868 -696.122,-69.661 -305.393,-10.804 -690.99,10.793 -926.452,58.868 -235.732,48.065 -321.328,123.127 -449.857,176.853 -128.53,53.467 -299.992,85.607 -406.935,112.335 -107.192,26.738 -149.865,48.324 -278.395,64.269 -128.529,15.935 -342.924,26.729 -481.986,32.13 -139.333,5.402 -203.592,5.402 -305.393,21.337 -101.801,15.935 -240.864,48.324 -406.924,58.868 -166.071,10.793 -358.86,0 -551.659,-90.998 -192.798,-91.008 -385.597,-262.46 -690.98,-439.064 -305.393,-176.864 -723.116,-358.859 -1140.841,-540.855"
   id="path76"
   style="fill:none;stroke:#013397;stroke-width:99.86009979" /><path
   d="m 29378.346,63960.393 c 21.337,-429.558 42.933,-858.848 64.27,-1288.396 -32.14,-112.335 -64.27,-224.929 -96.4,-337.263 -589.189,-58.868 -1178.369,-117.736 -1767.298,-176.864 -342.665,37.531 -685.589,75.063 -1028.244,112.334 -117.736,160.669 -235.731,321.328 -377.63,489.965 -141.898,168.636 -307.958,345.49 -460.65,463.226 -152.701,117.736 -291.764,176.854 -406.934,289.707 -115.16,113.104 -206.158,279.943 -297.156,447.032 0,0 0,0 728.252,0 728.252,0 2185.026,0 3641.79,0 z"
   id="path78"
   style="fill:#d1e3f6;fill-opacity:1;stroke:#013397;stroke-width:99.86009979" /><path
   d="m 14116.342,18845.278 c 186.884,32.399 373.768,65.038 636.484,111.316 262.717,46.527 601.01,106.933 1139.041,100.762 538.029,-6.17 1275.282,-78.657 1770.897,-84.567 495.615,-6.171 749.335,54.494 936.733,84.567 187.397,30.333 308.216,30.333 429.036,90.749 120.818,60.405 241.637,181.226 398.959,241.632 157.065,60.416 350.632,60.416 538.03,114.911 187.399,54.494 368.626,163.234 616.438,332.38 247.803,169.146 562.192,398.957 815.906,598.435 253.723,199.478 447.291,368.624 670.931,519.778 223.651,151.154 477.364,284.056 731.348,416.959"
   id="path80"
   style="fill:none;stroke:#013397;stroke-width:99.86009979" /><path
   d="m 13514.818,23467.765 c 121.59,-45.758 243.18,-91.517 333.923,-96.399 91,-4.883 151.409,31.62 193.824,97.937 42.415,66.586 66.579,163.235 90.742,302.307 24.165,139.073 48.329,320.3 84.574,531.859 36.246,211.56 84.573,453.202 199.48,622.608 114.906,169.145 296.135,266.054 483.533,338.551 187.398,72.486 380.708,120.821 580.188,241.632 199.48,120.821 404.872,314.389 598.439,416.959 193.31,102.819 374.796,114.9 550.112,144.983 175.316,30.333 344.463,78.657 471.451,163.235 126.989,84.568 211.562,205.389 278.141,289.967 66.579,84.568 114.906,132.892 205.392,163.225 90.743,30.342 223.644,42.424 338.551,-17.992 114.906,-60.406 211.561,-193.568 374.795,-386.876 163.234,-193.308 392.79,-447.291 622.603,-701.004"
   id="path82"
   style="fill:none;stroke:#013397;stroke-width:99.86009979" /><path
   d="m 9421.1111,30368.073 c 108.2229,11.303 216.1892,22.366 306.6748,40.098 90.2281,17.742 162.9774,41.904 265.5441,17.742 102.825,-24.172 235.726,-96.659 447.287,-175.316 211.563,-78.667 501.785,-163.235 664.763,-199.488 163.233,-36.244 199.479,-24.163 271.971,-42.414 72.49,-18.251 181.227,-66.576 284.053,-102.819 102.824,-36.254 199.479,-60.416 326.468,-60.416 126.988,0 284.053,24.162 398.959,90.748 114.907,66.576 187.398,175.316 308.217,271.965 120.819,96.659 290.222,181.237 459.369,266.065"
   id="path84"
   style="fill:none;stroke:#013397;stroke-width:99.86009979" /><path
   d="m 12102.54,26936.827 c 57.325,173.01 14.89,245.734 231.079,459.1 216.19,213.357 590.728,467.33 850.617,672.729 259.889,205.389 404.873,362.714 471.452,513.608 66.579,151.154 54.497,296.137 54.497,423.119 0,126.991 12.082,235.731 102.824,332.38 90.743,96.659 259.89,181.237 356.545,259.894 96.655,78.657 120.819,151.154 132.9,253.724 12.082,102.819 12.082,235.721 12.082,416.948 0,181.227 0,411.038 78.661,598.445 78.661,187.397 235.726,332.381 423.123,471.444 187.398,139.072 404.873,271.975 592.271,368.634 187.398,96.649 344.463,157.064 441.118,241.632 96.655,84.578 132.9,193.308 199.479,314.389 66.579,120.821 163.234,253.973 374.796,338.551 211.562,84.568 538.03,120.811 773.499,169.146 235.725,48.324 380.708,108.74 495.614,157.064 114.907,48.325 199.48,84.568 284.053,187.397 84.573,102.82 169.147,271.975 217.475,404.868 48.327,132.902 60.409,229.821 96.655,314.389 36.245,84.577 96.655,157.064 181.228,199.478 84.573,42.414 193.31,54.495 289.965,72.497 96.655,18.251 181.229,42.413 271.971,126.981 90.744,84.578 187.399,229.821 229.557,507.697 42.415,277.886 30.333,688.933 54.497,1214.882 24.164,525.688 84.573,1166.537 144.983,1807.136"
   id="path86"
   style="fill:none;stroke:#013397;stroke-width:99.86009979" /><path
   d="m 27512.082,36662.219 c -229.042,52.698 -458.084,105.395 -687.386,161.957 -229.302,56.551 -459.112,116.957 -658.331,129.038 -199.479,12.081 -368.624,-24.162 -538.03,-78.657 -169.145,-54.495 -338.551,-126.991 -471.453,-211.559 -132.902,-84.578 -229.561,-181.227 -332.381,-265.805 -102.829,-84.578 -211.559,-157.065 -338.551,-199.478 -126.991,-42.414 -271.975,-54.495 -507.696,-90.749 -235.722,-36.243 -562.192,-96.649 -809.745,-151.143 -247.803,-54.505 -416.949,-102.83 -556.021,-163.235 -139.073,-60.416 -247.813,-132.903 -423.129,-205.399 -175.316,-72.487 -416.949,-144.984 -646.76,-271.965 -229.561,-126.992 -447.291,-308.219 -616.436,-489.446 -169.146,-181.227 -290.227,-362.713 -411.048,-543.95"
   id="path88"
   style="fill:none;stroke:#013397;stroke-width:99.86009979" /><path
   d="m 8341.7097,36213.65 c 153.4652,-87.913 307.188,-175.825 450.3713,-316.446 143.1842,-140.61 276.3412,-334.178 336.7508,-491.242 60.4096,-157.065 48.3275,-277.886 6.1694,-423.119 -42.4148,-144.984 -114.9065,-314.389 -66.579,-441.121 48.3285,-126.991 217.7318,-211.559 423.1239,-187.397 205.392,24.162 447.2871,157.065 646.7679,235.722 199.479,78.667 356.543,102.829 568.106,18.251 211.561,-84.568 477.363,-278.135 646.766,-441.111 169.147,-163.235 241.895,-296.137 398.96,-429.039 157.065,-132.903 398.96,-265.805 604.352,-332.381 205.392,-66.576 374.796,-66.576 580.188,-120.821 205.392,-54.495 447.287,-163.235 622.603,-271.965 175.316,-108.74 284.053,-217.48 392.791,-326.47"
   id="path90"
   style="fill:none;stroke:#013397;stroke-width:99.86009979" /><path
   d="m 7833.4988,38703.809 c 93.3132,-11.312 186.6264,-22.884 275.5704,-34.706 88.943,-11.821 173.5159,-23.903 252.177,-35.984 78.661,-12.091 151.1518,-24.172 235.7256,0 84.5729,24.163 181.2279,84.568 241.6375,175.316 60.4096,90.739 84.5738,211.56 157.0646,277.876 72.4917,66.586 193.3109,78.667 277.8838,114.911 84.5738,36.243 132.9013,96.659 223.6435,151.154 90.7432,54.494 223.6436,102.819 416.9545,157.064 193.3103,54.495 447.2873,114.901 604.3523,157.065 157.064,42.413 217.73,66.576 271.971,114.9 54.496,48.335 102.824,120.821 169.146,211.57 66.579,90.738 151.152,199.478 211.562,284.046 60.409,84.578 96.655,144.983 193.31,199.478 96.656,54.505 253.977,102.829 374.796,102.829 120.819,0 205.65,-48.324 356.545,-36.243 151.152,12.081 368.626,84.568 556.024,126.982 187.397,42.423 344.462,54.504 501.527,36.253 157.065,-18.251 314.386,-66.586 459.369,-132.902 144.983,-66.576 278.141,-151.154 495.615,-229.562 217.474,-78.657 519.778,-151.144 676.843,-102.819 157.064,48.324 169.147,217.73 229.556,284.056 60.41,66.576 169.147,30.333 247.808,12.081 78.66,-18.251 126.989,-18.251 205.392,-72.496 78.661,-54.495 187.398,-163.235 271.971,-229.552 84.573,-66.586 144.983,-90.748 199.479,-108.74 54.498,-18.251 102.826,-30.332 193.311,-78.657 90.743,-48.334 223.644,-132.902 423.123,-157.065 199.481,-24.172 465.282,12.082 676.844,0 211.562,-12.081 368.627,-72.496 519.778,-139.072 151.152,-66.576 296.136,-139.073 429.036,-175.316 132.901,-36.244 253.977,-36.244 398.96,36.243 144.983,72.497 314.387,217.47 483.533,362.713"
   id="path92"
   style="fill:none;stroke:#013397;stroke-width:99.86009979" /><path
   d="m 10790.993,39781.665 c 122.875,-80.455 245.751,-161.178 355.516,-267.862 109.765,-106.673 206.421,-239.835 297.163,-433.143 90.743,-193.308 175.316,-447.291 241.895,-616.437 66.579,-169.145 114.906,-253.973 296.135,-386.875 181.228,-132.903 495.615,-314.389 810.002,-495.616"
   id="path94"
   style="fill:none;stroke:#013397;stroke-width:99.86009979" /><path
   d="m 7340.4541,41014.538 c 233.6689,100.763 467.0812,201.535 614.1205,276.079 147.0392,74.554 207.4488,122.878 261.9457,183.284 54.4968,60.415 102.8243,132.902 132.9013,199.478 30.3326,66.586 42.4148,126.992 66.579,163.235 24.1632,36.253 60.4096,48.334 126.9886,42.414 66.579,-6.161 163.2339,-30.333 247.8068,-84.568 84.5738,-54.495 157.0646,-139.073 326.4689,-144.984 169.1457,-6.17 435.205,66.576 634.6843,114.911 199.4803,48.324 332.3808,72.487 447.2868,199.478 114.908,126.982 211.563,356.543 259.89,604.346 48.328,247.813 48.328,513.617 48.328,683.013 0,169.145 0,241.902 78.661,344.461 78.66,102.83 235.726,235.732 416.953,374.805 181.229,139.062 386.878,284.046 550.113,356.543 163.234,72.486 284.052,72.486 411.041,78.657 126.988,6.17 259.89,18.251 411.041,108.74 151.153,90.738 320.299,259.884 411.042,386.875 90.742,126.992 102.824,211.56 151.152,265.805 48.327,54.495 132.901,78.657 229.556,102.819 96.655,24.163 205.392,48.335 386.878,205.399 181.229,157.065 435.206,447.282 658.849,580.184 223.644,132.902 416.954,108.74 652.679,48.324 235.726,-60.405 513.61,-157.064 701.007,-199.478 187.398,-42.414 284.053,-30.333 386.879,0 102.824,30.333 211.561,78.667 308.216,157.065 96.655,78.667 181.229,187.397 229.556,296.137 48.328,108.74 60.41,217.47 108.738,265.805 48.327,48.324 132.9,36.243 193.309,48.324 60.41,12.081 96.655,48.325 163.234,102.829 66.579,54.495 163.234,126.982 259.89,175.317 96.655,48.324 193.567,72.486 416.954,108.73 223.643,36.243 574.276,84.577 924.65,132.902"
   id="path96"
   style="fill:none;stroke:#013397;stroke-width:99.86009979" /><path
   d="m 10458.612,42567.961 c 112.85,-30.332 225.7,-60.415 312.33,-63.501 86.63,-3.085 147.039,21.077 219.53,63.501 72.492,42.414 157.065,102.82 235.726,205.389 78.661,102.82 151.153,247.803 265.801,350.632 114.907,102.82 271.972,163.235 725.171,229.552 453.2,66.586 1202.792,139.072 1601.752,193.318 398.959,54.495 447.287,90.738 586.357,120.811 139.07,30.333 368.626,54.505 519.778,102.829 151.153,48.325 223.644,120.821 296.136,235.722 72.491,114.91 144.982,271.975 229.556,386.885 84.573,114.901 181.228,187.398 277.884,247.803 96.655,60.406 193.566,108.74 338.55,199.479 144.982,90.748 338.55,223.64 513.608,392.796 175.316,169.145 332.381,374.794 489.445,580.183"
   id="path98"
   style="fill:none;stroke:#013397;stroke-width:60.72541046" /><path
   d="m 4859.2959,50966.159 c 69.4066,83.549 138.8131,167.089 203.5929,214.645 64.7788,47.815 125.446,59.896 276.3412,47.815 151.1519,-12.081 392.7903,-48.325 604.3517,-72.487 211.5615,-24.162 392.7903,-36.253 519.7789,-78.667 126.9876,-42.414 199.4793,-114.9 362.7133,-139.063 163.2339,-24.172 416.9545,0 543.943,-54.245 126.9876,-54.495 126.9876,-187.397 151.1519,-284.056 24.1642,-96.649 72.4917,-157.065 120.8192,-217.73 48.3275,-60.405 96.655,-120.821 139.0697,-144.983 42.4157,-24.163 78.6611,-12.081 120.8192,6.17 42.4157,18.252 90.7432,42.414 211.5615,-5.911 120.8192,-48.324 314.3867,-169.145 471.4513,-241.642 157.0646,-72.487 277.8838,-96.649 441.1178,-217.73 163.2339,-120.811 368.626,-338.551 543.9421,-447.281 175.316,-108.74 320.2995,-108.74 531.8614,-54.495 211.561,54.495 489.701,163.225 791.75,253.714 302.047,90.748 628.514,163.235 985.059,169.145 356.545,6.171 743.423,-54.494 997.142,-139.072 253.72,-84.568 374.797,-193.308 501.528,-253.714 126.988,-60.415 259.889,-72.497 374.795,-139.073 114.908,-66.576 211.563,-187.397 404.872,-289.967 193.31,-102.819 483.534,-187.397 664.762,-205.648 181.229,-18.252 253.719,30.332 362.714,72.497 108.737,42.413 253.977,78.657 435.205,84.567 181.229,6.171 398.96,-18.251 592.271,-132.902 193.31,-114.9 362.713,-320.299 507.696,-386.875 144.983,-66.576 265.802,6.17 404.872,42.413 139.07,36.244 296.135,36.244 392.79,48.335 96.655,12.081 132.901,36.243 181.229,144.973 48.327,108.74 108.737,302.308 139.07,411.048 30.333,108.74 30.333,132.902 144.983,151.154 114.906,18.251 344.462,30.332 574.276,42.414"
   id="path100"
   style="fill:none;stroke:#013397;stroke-width:99.86009979" /><path
   d="m 8113.6959,50237.388 c 108.7371,84.578 217.4742,169.145 423.1229,380.715 205.3931,211.559 507.6967,550.11 688.9256,761.41 181.2288,211.56 241.895,296.137 302.3046,350.632 60.4096,54.495 120.8192,78.667 223.6436,90.748 102.8243,12.082 247.8068,12.082 392.7904,18.252 144.982,6.17 290.222,18.251 411.042,60.406 120.818,42.413 217.473,114.91 284.052,169.145 66.579,54.495 102.825,90.749 326.469,132.903 223.643,42.413 634.685,90.738 900.487,114.91 265.801,24.162 386.877,24.162 501.527,42.414 114.907,18.251 223.644,54.495 338.55,126.981 114.907,72.497 235.726,181.237 362.713,223.651 126.989,42.414 259.89,18.251 398.96,-6.17 139.071,-24.163 284.053,-48.325 392.79,-102.83 108.737,-54.495 181.229,-139.062 259.89,-205.389 78.66,-66.576 163.234,-114.91 326.468,-132.902 163.234,-18.252 404.872,-6.171 580.189,24.162 175.316,30.333 284.053,78.667 435.205,120.821 151.151,42.414 344.462,78.657 489.445,96.659 144.982,18.252 241.895,18.252 374.796,-18.251 132.901,-36.254 302.304,-108.74 447.287,-217.48 144.983,-108.73 265.802,-253.714 398.96,-423.119 132.9,-169.146 278.14,-362.714 392.79,-447.291 114.907,-84.568 199.48,-60.406 368.626,-96.649 169.147,-36.254 423.123,-132.903 658.849,-229.562 235.725,-96.649 453.2,-193.567 676.843,-296.137 223.644,-102.819 453.2,-211.559 676.839,-320.299 223.65,-108.731 441.12,-217.471 604.355,-271.966 163.235,-54.494 271.975,-54.494 441.121,-24.162 169.146,30.333 398.957,90.738 628.518,151.154"
   id="path102"
   style="fill:none;stroke:#013397;stroke-width:99.86009979" /><path
   d="m 5943.8383,51156.132 c 22.1075,153.201 44.4716,306.162 -4.8833,473.5 -49.3559,167.099 -170.1751,348.576 -230.5847,481.478 -60.4096,132.902 -60.4096,217.73 -66.579,338.551 -6.1694,120.821 -18.2515,278.145 -24.1642,447.291 -6.1694,169.146 -6.1694,350.632 102.8253,447.281 108.7371,96.659 326.4679,108.74 477.3631,114.911 151.1518,6.17 235.7257,6.17 362.7143,60.405 126.9885,54.505 296.1343,163.235 411.0417,241.643 114.9065,78.657 175.3151,126.991 241.6375,157.064 66.5789,30.333 139.0707,42.414 211.5614,60.406 72.4917,18.251 144.9835,42.424 332.3807,223.651 187.3981,181.226 489.4452,519.777 640.598,701.004 151.1518,181.227 151.1518,205.389 169.1467,320.3 18.2515,114.9 54.4969,320.299 144.9825,519.778 90.7422,199.478 235.7257,392.786 332.3806,586.353 96.655,193.318 144.9825,386.876 175.3161,568.113 30.3336,181.227 42.4147,350.632 132.9004,556.021 90.7432,205.389 259.8899,447.291 416.9545,676.842 157.0646,229.562 302.3051,447.292 429.0361,616.437 126.988,169.146 235.725,290.217 314.129,404.868 78.661,114.91 126.988,223.65 169.146,392.796 42.415,169.146 78.662,398.957 187.399,550.11 108.737,151.154 290.222,223.641 646.766,302.298 356.545,78.667 888.405,163.235 1239.037,241.642 350.632,78.658 519.779,151.154 658.85,211.56 139.069,60.415 247.806,108.74 398.959,181.227 151.152,72.496 344.463,169.145 538.03,266.064"
   id="path104"
   style="fill:none;stroke:#013397;stroke-width:99.86009979" /><path
   d="m 8510.0846,55049.838 c 85.3446,-8.476 170.9459,-17.223 316.186,-3.335 145.4966,13.879 350.8887,50.122 514.1236,32.13 163.234,-18.251 284.0532,-90.748 380.7082,-114.91 96.655,-24.162 169.1467,0 253.9761,66.586 84.5735,66.576 181.2285,175.316 350.6325,320.299 169.146,144.974 411.042,326.46 562.194,423.119 151.152,96.659 211.562,108.74 314.13,126.992 102.824,18.251 247.806,42.414 308.216,144.983 60.41,102.82 36.246,284.046 24.164,398.957 -12.082,114.9 -12.082,163.235 30.333,199.478 42.416,36.244 126.988,60.406 284.053,84.578 157.065,24.162 386.878,48.325 525.948,84.568 139.071,36.243 187.398,84.578 296.135,78.657 108.738,-6.16 278.141,-66.576 398.96,-114.9 120.819,-48.325 193.31,-84.578 477.363,-90.749 284.053,-6.16 779.668,18.252 1293.277,18.252 513.61,0 1045.728,-24.162 1408.184,-24.162 362.714,0 556.024,24.162 779.668,120.821 223.644,96.659 477.363,266.054 731.34,435.21"
   id="path106"
   style="fill:none;stroke:#013397;stroke-width:99.86009979" /><text
   x="29821.76"
   y="14446.999"
   id="text108"
   style="font-size:1499.55358887px;font-weight:normal;fill:#000000;stroke:none;font-family:DejaVu Sans">Caesarea Philippi</text>

<text
   x="18118.273"
   y="12570.413"
   id="text110"
   style="font-size:1499.55358887px;font-weight:normal;fill:#000000;stroke:none;font-family:DejaVu Sans">Tyrus</text>

<text
   x="27538.002"
   y="22542.936"
   id="text112"
   style="font-size:1499.55358887px;font-weight:normal;fill:#000000;stroke:none;font-family:DejaVu Sans">Chorazin</text>

<text
   x="30228.533"
   y="24089.994"
   id="text114"
   style="font-size:1499.55358887px;font-weight:normal;fill:#000000;stroke:none;font-family:DejaVu Sans">Bethsaida</text>

<text
   x="18379.596"
   y="22584.092"
   id="text116"
   style="font-size:1499.55358887px;font-weight:normal;fill:#000000;stroke:none;font-family:DejaVu Sans">Kapernaum</text>

<text
   x="17659.23"
   y="24089.994"
   id="text118"
   style="font-size:1499.55358887px;font-weight:normal;fill:#000000;stroke:none;font-family:DejaVu Sans">Genezareth</text>

<text
   x="19333.156"
   y="25747.631"
   id="text120"
   style="font-size:1499.55358887px;font-weight:normal;fill:#000000;stroke:none;font-family:DejaVu Sans">Magdala</text>

<text
   x="18088.375"
   y="27876.217"
   id="text122"
   style="font-size:1499.55358887px;font-weight:normal;fill:#000000;stroke:none;font-family:DejaVu Sans">Kana</text>

<text
   x="22740.559"
   y="29532.66"
   id="text124"
   style="font-size:1499.55358887px;font-weight:normal;fill:#000000;stroke:none;font-family:DejaVu Sans">Tiberias</text>

<text
   x="30918.445"
   y="25592.926"
   id="text126"
   style="font-size:1499.55358887px;font-weight:normal;fill:#000000;stroke:none;font-family:DejaVu Sans">Kursi</text>

<text
   x="22265.191"
   y="2712.0974"
   id="text128"
   style="font-size:1499.55358887px;font-weight:normal;fill:#000000;stroke:none;font-family:DejaVu Sans">Sidon</text>

<text
   x="20104.334"
   y="6918.4004"
   id="text130"
   style="font-size:1499.55358887px;font-weight:normal;fill:#000000;stroke:none;font-family:DejaVu Sans">Zarpat</text>

<text
   x="32603.541"
   y="8875.084"
   id="text132"
   style="font-size:1499.55358887px;font-weight:normal;fill:#000000;stroke:none;font-family:DejaVu Sans">Hermon</text>

<text
   x="32638.891"
   y="10389.243"
   id="text134"
   style="font-size:1499.55358887px;font-weight:normal;fill:#000000;stroke:none;font-family:DejaVu Sans"><tspan
     id="tspan4785"
     style="font-size:1200.19360352px">(Berg der Verklrung?)</tspan></text>

<text
   x="14847.425"
   y="30743.643"
   id="text144"
   style="font-size:1499.55358887px;font-weight:normal;fill:#000000;stroke:none;font-family:DejaVu Sans">Nazareth</text>

<text
   x="23190.09"
   y="33353.582"
   id="text146"
   style="font-size:1499.55358887px;font-weight:normal;fill:#000000;stroke:none;font-family:DejaVu Sans">Nain</text>

<text
   x="30488.078"
   y="30713.814"
   id="text148"
   style="font-size:1499.55358887px;font-weight:normal;fill:#000000;stroke:none;font-family:DejaVu Sans">Gadara</text>

<text
   x="15774.601"
   y="41588.809"
   id="text152"
   style="font-size:1499.55358887px;font-weight:normal;fill:#000000;stroke:none;font-family:DejaVu Sans">Aenon/Salim?</text>

<text
   x="37975.77"
   y="44671.242"
   id="text154"
   style="font-size:1499.55358887px;font-weight:normal;fill:#000000;stroke:none;font-family:DejaVu Sans">Gerasa</text>

<text
   x="7747.9004"
   y="46283.535"
   id="text156"
   style="font-size:1499.55358887px;font-weight:normal;fill:#816647;stroke:none;font-family:DejaVu Sans"><tspan
     id="tspan3378"
     style="font-size:1597.76159668px;font-weight:bold;letter-spacing:257.10308838px;word-spacing:0px;fill:#816647;stroke:none;-inkscape-font-specification:DejaVu Sans Bold">SAMARIA</tspan></text>

<text
   x="19277.625"
   y="47989.898"
   id="text158"
   style="font-size:1499.55358887px;font-weight:normal;fill:#000000;stroke:none;font-family:DejaVu Sans">Sychar</text>

<text
   x="13618.416"
   y="53896.406"
   id="text160"
   style="font-size:1499.55358887px;font-weight:normal;fill:#000000;stroke:none;font-family:DejaVu Sans">Arimatha?</text>

<text
   x="20596.09"
   y="56139.523"
   id="text162"
   style="font-size:1499.55358887px;font-weight:normal;fill:#000000;stroke:none;font-family:DejaVu Sans">Ephraim</text>

<text
   x="8572.0352"
   y="56567.277"
   id="text164"
   style="font-size:1499.55358887px;font-weight:normal;fill:#816647;stroke:none;font-family:DejaVu Sans"><tspan
     id="tspan3116"
     style="font-size:1597.76159668px;font-weight:bold;letter-spacing:499.30050659px;fill:#816647;stroke:none;-inkscape-font-specification:DejaVu Sans Bold">JUDA</tspan></text>

<text
   x="25084.904"
   y="58202.191"
   id="text166"
   style="font-size:1499.55358887px;font-weight:normal;fill:#000000;stroke:none;font-family:DejaVu Sans">Jericho</text>

<text
   x="19681.721"
   y="60987.215"
   id="text168"
   style="font-size:1499.55358887px;font-weight:normal;fill:#000000;stroke:none;font-family:DejaVu Sans">Betfage</text>

<text
   x="20167.096"
   y="62828.453"
   id="text170"
   style="font-size:1499.55358887px;font-weight:normal;fill:#000000;stroke:none;font-family:DejaVu Sans">Bethanien</text>

<text
   x="9900.9307"
   y="63516.094"
   id="text172"
   style="font-size:1499.55358887px;font-weight:normal;fill:#000000;stroke:none;font-family:DejaVu Sans">Betlehem</text>

<text
   x="10125.717"
   y="61620.086"
   id="text174"
   style="font-size:1499.55358887px;font-weight:normal;fill:#000000;stroke:none;font-family:DejaVu Sans">Jerusalem</text>

<text
   x="9464.5547"
   y="59400.617"
   id="text176"
   style="font-size:1499.55358887px;font-weight:normal;fill:#000000;stroke:none;font-family:DejaVu Sans">Emmaus?</text>

<text
   x="-23196.523"
   y="17424.301"
   transform="matrix(0.50000017,-0.86602531,0.86602531,0.50000017,0,0)"
   id="text180"
   style="font-size:2570.69262695px;font-weight:normal;fill:#013397;stroke:none;font-family:DejaVu Sans"><tspan
     id="tspan5071"
     style="letter-spacing:500.08065796px">Mittelmeer</tspan></text>

<circle
   cx="184997"
   cy="109214"
   r="1181"
   transform="matrix(0.25706162,0,0,0.25706162,-20512.686,-75.7383)"
   id="circle182"
   style="fill:#d40000;stroke:#d40000;stroke-width:388.46755981" /><circle
   cx="181521"
   cy="101521"
   r="1181"
   transform="matrix(0.25706162,0,0,0.25706162,-20512.686,-75.7383)"
   id="circle184"
   style="fill:#d40000;stroke:#d40000;stroke-width:388.46755981" /><circle
   cx="184127"
   cy="96119"
   r="1181"
   transform="matrix(0.25706162,0,0,0.25706162,-20512.686,-75.7383)"
   id="circle186"
   style="fill:#d40000;stroke:#d40000;stroke-width:388.46755981" /><circle
   cx="187615"
   cy="93862"
   r="1181"
   transform="matrix(0.25706162,0,0,0.25706162,-20512.686,-75.7383)"
   id="circle188"
   style="fill:#d40000;stroke:#d40000;stroke-width:388.46755981" /><circle
   cx="189257"
   cy="90631"
   r="1181"
   transform="matrix(0.25706162,0,0,0.25706162,-20512.686,-75.7383)"
   id="circle190"
   style="fill:#d40000;stroke:#d40000;stroke-width:388.46755981" /><circle
   cx="195122"
   cy="92426"
   r="1181"
   transform="matrix(0.25706162,0,0,0.25706162,-20512.686,-75.7383)"
   id="circle192"
   style="fill:#d40000;stroke:#d40000;stroke-width:388.46755981" /><circle
   cx="197915"
   cy="97848"
   r="1181"
   transform="matrix(0.25706162,0,0,0.25706162,-20512.686,-75.7383)"
   id="circle194"
   style="fill:#d40000;stroke:#d40000;stroke-width:388.46755981" /><circle
   cx="165699"
   cy="104344"
   r="1181"
   transform="matrix(0.25706162,0,0,0.25706162,-20512.686,-75.7383)"
   id="circle196"
   style="fill:#d40000;stroke:#d40000;stroke-width:388.46755981" /><circle
   cx="163467"
   cy="114272"
   r="1181"
   transform="matrix(0.25706162,0,0,0.25706162,-20512.686,-75.7383)"
   id="circle198"
   style="fill:#d40000;stroke:#d40000;stroke-width:388.46755981" /><circle
   cx="168185"
   cy="125552"
   r="1181"
   transform="matrix(0.25706162,0,0,0.25706162,-20512.686,-75.7383)"
   id="circle200"
   style="fill:#d40000;stroke:#d40000;stroke-width:388.46755981" /><circle
   cx="183769"
   cy="159210"
   r="1181"
   transform="matrix(0.25706162,0,0,0.25706162,-20512.686,-75.7383)"
   id="circle202"
   style="fill:#d40000;stroke:#d40000;stroke-width:388.46755981" /><circle
   cx="225490"
   cy="172179"
   r="1181"
   transform="matrix(0.25706162,0,0,0.25706162,-20512.686,-75.7383)"
   id="circle204"
   style="fill:#d40000;stroke:#d40000;stroke-width:388.46755981" /><circle
   cx="157830"
   cy="179906"
   r="1181"
   transform="matrix(0.25706162,0,0,0.25706162,-20512.686,-75.7383)"
   id="circle206"
   style="fill:#d40000;stroke:#d40000;stroke-width:388.46755981" /><circle
   cx="128922"
   cy="208577"
   r="1181"
   transform="matrix(0.25706162,0,0,0.25706162,-20512.686,-75.7383)"
   id="circle208"
   style="fill:#d40000;stroke:#d40000;stroke-width:388.46755981" /><circle
   cx="149988"
   cy="239413"
   r="1181"
   transform="matrix(0.25706162,0,0,0.25706162,-20512.686,-75.7383)"
   id="circle210"
   style="fill:#d40000;stroke:#d40000;stroke-width:388.46755981" /><circle
   cx="148881"
   cy="245205"
   r="1181"
   transform="matrix(0.25706162,0,0,0.25706162,-20512.686,-75.7383)"
   id="circle212"
   style="fill:#d40000;stroke:#d40000;stroke-width:388.46755981" /><circle
   cx="156267"
   cy="242530"
   r="1181"
   transform="matrix(0.25706162,0,0,0.25706162,-20512.686,-75.7383)"
   id="circle214"
   style="fill:#d40000;stroke:#d40000;stroke-width:388.46755981" /><circle
   cx="155604"
   cy="238978"
   r="1181"
   transform="matrix(0.25706162,0,0,0.25706162,-20512.686,-75.7383)"
   id="circle216"
   style="fill:#d40000;stroke:#d40000;stroke-width:388.46755981" /><circle
   cx="137871"
   cy="233314"
   r="1181"
   transform="matrix(0.25706162,0,0,0.25706162,-20512.686,-75.7383)"
   id="circle218"
   style="fill:#d40000;stroke:#d40000;stroke-width:388.46755981" /><circle
   cx="175605"
   cy="229408"
   r="1181"
   transform="matrix(0.25706162,0,0,0.25706162,-20512.686,-75.7383)"
   id="circle220"
   style="fill:#d40000;stroke:#d40000;stroke-width:388.46755981" /><circle
   cx="157742"
   cy="217258"
   r="1181"
   transform="matrix(0.25706162,0,0,0.25706162,-20512.686,-75.7383)"
   id="circle222"
   style="fill:#d40000;stroke:#d40000;stroke-width:388.46755981" /><circle
   cx="197029"
   cy="122404"
   r="1181"
   transform="matrix(0.25706162,0,0,0.25706162,-20512.686,24.27783)"
   id="circle224"
   style="fill:#d40000;stroke:#d40000;stroke-width:388.46755981" /><circle
   cx="202031"
   cy="49290"
   r="1181"
   transform="matrix(0.25706162,0,0,0.25706162,-20712.718,24.27783)"
   id="circle226"
   style="fill:#d40000;stroke:#d40000;stroke-width:388.46755981" /><circle
   cx="156090"
   cy="21746"
   r="1181"
   transform="matrix(0.25706162,0,0,0.25706162,-20512.686,-75.7383)"
   id="circle228"
   style="fill:#d40000;stroke:#d40000;stroke-width:388.46755981" /><circle
   cx="147598"
   cy="45026"
   r="1181"
   transform="matrix(0.25706162,0,0,0.25706162,-20512.686,-75.7383)"
   id="circle230"
   style="fill:#d40000;stroke:#d40000;stroke-width:388.46755981" /><circle
   cx="164343"
   cy="9482"
   r="1181"
   transform="matrix(0.25706162,0,0,0.25706162,-20512.686,-75.7383)"
   id="circle232"
   style="fill:#d40000;stroke:#d40000;stroke-width:388.46755981" /><text
   x="-39156.094"
   y="29222.244"
   transform="matrix(0,-1,1,0,0,0)"
   id="text236"
   style="font-size:1000.16131592px;font-style:italic;font-weight:bold;fill:#013397;stroke:none;font-family:DejaVu Sans;-inkscape-font-specification:DejaVu Sans Bold Oblique">Jordan</text>

<polygon
   points="201774,38917 202772,37188 203770,35460 204768,37188 205765,38917 203770,38917 "
   transform="matrix(0.25706162,0,0,0.25706162,-20512.686,-75.7383)"
   id="polygon238"
   style="fill:#565248;stroke:#013397;stroke-width:236.22900391" /><text
   x="36916.426"
   y="63049.336"
   id="text241"
   style="font-size:642.65661621px;font-weight:normal;fill:#000000;stroke:none;font-family:DejaVu Sans">0</text>

<text
   x="38143.633"
   y="63049.336"
   id="text243"
   style="font-size:642.65661621px;font-weight:normal;fill:#000000;stroke:none;font-family:DejaVu Sans">5</text>

<text
   x="39357.223"
   y="63049.336"
   id="text245"
   style="font-size:642.65661621px;font-weight:normal;fill:#000000;stroke:none;font-family:DejaVu Sans">10</text>

<text
   x="40993.168"
   y="63049.336"
   id="text247"
   style="font-size:642.65661621px;font-weight:normal;fill:#000000;stroke:none;font-family:DejaVu Sans">15</text>

<text
   x="42615.484"
   y="63049.336"
   id="text249"
   style="font-size:642.65661621px;font-weight:normal;fill:#000000;stroke:none;font-family:DejaVu Sans">20</text>

<text
   x="44251.418"
   y="63049.336"
   id="text251"
   style="font-size:642.65661621px;font-weight:normal;fill:#000000;stroke:none;font-family:DejaVu Sans">25 km</text>

<line
   style="fill:none;stroke:#000000;stroke-width:99.86009979;stroke-opacity:1"
   id="line255"
   y2="61815.188"
   x2="36958.066"
   y1="61775.344"
   x1="44606.676" /><line
   style="fill:none;stroke:#000000;stroke-width:99.86009979;stroke-opacity:1"
   id="line257"
   y2="62272.246"
   x2="36958.066"
   y1="61775.344"
   x1="36958.066" /><line
   style="fill:none;stroke:#000000;stroke-width:99.86009979;stroke-opacity:1"
   id="line259"
   y2="62272.246"
   x2="38487.066"
   y1="61775.344"
   x1="38487.066" /><line
   style="fill:none;stroke:#000000;stroke-width:99.86009979;stroke-opacity:1"
   id="line261"
   y2="62272.246"
   x2="40015.812"
   y1="61775.344"
   x1="40015.812" /><line
   style="fill:none;stroke:#000000;stroke-width:99.86009979;stroke-opacity:1"
   id="line263"
   y2="62272.246"
   x2="41544.816"
   y1="61775.344"
   x1="41544.816" /><line
   style="fill:none;stroke:#000000;stroke-width:99.86009979;stroke-opacity:1"
   id="line265"
   y2="62272.246"
   x2="43073.82"
   y1="61775.344"
   x1="43073.82" /><line
   style="fill:none;stroke:#000000;stroke-width:99.86009979;stroke-opacity:1"
   id="line267"
   y2="62272.246"
   x2="44602.82"
   y1="61775.344"
   x1="44602.82" /><text
   x="18673.742"
   y="35593.051"
   id="text3112"
   xml:space="preserve"
   style="font-size:3195.52319336px;font-style:normal;font-variant:normal;font-weight:normal;font-stretch:normal;text-align:center;line-height:125%;letter-spacing:-99.86009979px;word-spacing:0px;text-anchor:middle;fill:#816647;fill-opacity:1;stroke:none;font-family:Arial Narrow;-inkscape-font-specification:Arial Narrow"><tspan
     x="18923.393"
     y="35593.051"
     id="tspan3114"
     style="font-size:1597.76159668px;font-style:normal;font-variant:normal;font-weight:bold;font-stretch:normal;letter-spacing:499.30050659px;fill:#816647;stroke:none;font-family:DejaVu Sans;-inkscape-font-specification:DejaVu Sans Bold">GALILA</tspan></text>

<text
   x="30291.994"
   y="27835.049"
   id="text3270"
   style="font-size:1000.16131592px;font-style:italic;font-weight:bold;fill:#013397;stroke:none;font-family:DejaVu Sans;-inkscape-font-specification:DejaVu Sans Bold Oblique">See Genezareth</text>

</g>

</g></g></svg>