<?xml version="1.0" encoding="UTF-8" standalone="no"?>
<!-- Created with Inkscape (http://www.inkscape.org/) -->

<svg
   xmlns:dc="http://purl.org/dc/elements/1.1/"
   xmlns:cc="http://creativecommons.org/ns#"
   xmlns:rdf="http://www.w3.org/1999/02/22-rdf-syntax-ns#"
   xmlns:svg="http://www.w3.org/2000/svg"
   xmlns="http://www.w3.org/2000/svg"
   version="1.1"
   width="182.34375"
   height="392.96872"
   viewBox="0 0 145.87501 314.37496"
   id="svg3095"
   style="fill-rule:evenodd">
  <metadata
     id="metadata3127">
    <rdf:RDF>
      <cc:Work
         rdf:about="">
        <dc:format>image/svg+xml</dc:format>
        <dc:type
           rdf:resource="http://purl.org/dc/dcmitype/StillImage" />
        <dc:title></dc:title>
      </cc:Work>
    </rdf:RDF>
  </metadata>
  <defs
     id="defs3097">
    <marker
       markerUnits="strokeWidth"
       refX="0"
       refY="5"
       markerWidth="4"
       markerHeight="3"
       orient="auto"
       viewBox="0 0 10 10"
       id="ArrowEnd">
      <path
         d="M 0,0 10,5 0,10 z"
         id="path3100" />
    </marker>
    <marker
       markerUnits="strokeWidth"
       refX="10"
       refY="5"
       markerWidth="4"
       markerHeight="3"
       orient="auto"
       viewBox="0 0 10 10"
       id="ArrowStart">
      <path
         d="M 10,0 0,5 10,10 z"
         id="path3103" />
    </marker>
  </defs>
  <g
     transform="translate(-0.25,-527.51504)"
     id="g3105">
    <path
       d="m 76.5,582.515 -5,-6.5 -7,-4.875 -6.25,-3.25 -5,0.875 -3.625,3.625 -2.875,11 1.125,12.625 3,12.125 3.25,9.375 6.25,9.75 5.375,4 7.375,0 7.5,-2.75 3.75,-7 2,-8.875 -0.75,-11 17.375,1.25 0.875,-4.875 -19.875,-2 -5,-11.375 -2.5,-2.125 z"
       id="path3107"
       style="fill:#000000;stroke:none" />
    <path
       d="m 38.625,554.015 8.25,-2.375 6.625,0.375 5,3.625 3.375,5.75 -1.25,6 -4.625,0 1.25,-4.875 -3.75,-4.375 -3.625,-1.625 -6.25,1.625 2.5,4.875 0.75,4.375 -0.75,3.75 -6.25,1.625 -6.625,-1.25 -1.25,-2.875 -7,7.75 -4.125,8.5 -5.75,11 -3.75,9.75 -1.625,9.375 1.25,4.875 6.625,6.125 13.625,5.25 7.375,2.375 7.5,1.25 11.125,4.5 8.25,2.875 0.5,5.625 -4.125,4.125 -5,1.25 -7.5,-3.75 L 32,640.64 17.625,634.515 7.625,627.64 1,621.515 0.25,614.14 l 3.625,-9.75 7.5,-14.625 7,-12.125 8.75,-12.625 6.625,-7.375 8.25,-3.625 -3.375,0 z"
       id="path3109"
       style="fill:#000000;stroke:none" />
    <path
       d="m 64.375,643.265 1.25,-4.875 5.375,-2.5 4.875,0 6.25,3.625 5.875,8.625 4.125,8.875 2,12.125 1.75,14.25 0.75,13.75 0,17.875 -2.5,11 -4.5,4 -7.875,1.25 -8.25,-0.375 -4.25,-4.875 -2.375,-8.5 -2.125,-8.5 -1.625,-15.5 -0.875,-17.375 0,-20.375 2.125,-8.875 0,-3.625 z"
       id="path3111"
       style="fill:#000000;stroke:none" />
    <path
       d="m 81,638.515 10.75,1.25 11.125,2 11.625,6.5 8.25,4.875 5.375,7 2.5,4 -5,11.875 -7.875,7.25 -9.5,5.25 -5,3.25 -8.625,1.625 -0.375,3.25 6.625,2.875 9.5,2.5 9,4.875 -3.625,3.625 -3.75,1.25 -5.375,-5.375 -8.25,-3.25 -6.625,-2.375 0,-4.875 1.25,-5.25 4.125,-2.125 13.25,-5.25 7.375,-8.125 5.375,-8.5 -1.25,-4.125 -4.125,-4.875 -9.875,-6.875 -12,-2.5 -7.875,-0.375 -7,0 -2.875,-4.5 2.875,-4.875 z"
       id="path3113"
       style="fill:#000000;stroke:none" />
    <path
       d="m 89.625,721.515 -5.75,0 -1.625,8.5 4.125,5 13.25,11.75 11.625,15 7.5,15.5 1.125,10.125 -0.375,7.375 -3.25,16.625 -4.25,13.5 -3.625,7.75 -0.875,4.875 3.75,0 5.75,-1.625 1.75,0.375 12,0.75 9.125,2.875 3.25,-1.625 3,-6.125 -3,-3.25 -13.625,-0.375 -9.625,1.25 -4.875,2.375 0.75,-5.625 5,-8.625 4.125,-13.375 3.375,-11.375 -2.5,-13 -3.75,-13.875 -7.5,-15.875 -10.75,-14.625 -9.125,-10.625 -5,-3.625 z"
       id="path3115"
       style="fill:#000000;stroke:none" />
    <path
       d="m 71.875,721.265 -5.375,11.375 -3.75,16.625 -4.5,18.375 -4.125,18.625 0,6.875 4.125,12.25 5.75,6.5 5.375,8.125 3.75,6 -1.625,2.875 -9.5,1.25 -15.375,2.375 -4.5,3.75 3.75,3.25 8.625,2.375 10,-4.875 7.375,-3.25 9.5,-1.25 3.75,-1.125 -1.25,-4.125 -10.75,-10.5 -6.25,-11 -5.375,-7.375 -0.75,-7.25 2.5,-12.125 5.75,-12.625 6.25,-21.5 5.375,-12.625 -0.5,-7.375 -4.875,-3.625 -3.375,0 z"
       id="path3117"
       style="fill:#000000;stroke:none" />
    <path
       d="m 95.75,528.64 5.75,-1.125 5.5,0.375 5,2.375 2.5,4.5 0,3.625 -2.5,4.875 -4.25,2.875 -6.25,0 -3.75,2.375 -1.25,3.75 -3.25,-1.25 1.25,-4.875 4.5,-2.875 7.5,-0.75 3,-2.875 0.75,-4.5 -3.25,-4 -5,0 -5.5,1.25 -2,-1.25 1.25,-2.5 z"
       id="path3119"
       style="fill:#000000;stroke:none" />
    <path
       d="m 94.75,556.765 -3.375,-0.375 -2.25,2.5 -1,3.875 3.25,0.375 2.75,-1.75 0.625,-4.625 z"
       id="path3121"
       style="fill:#000000;stroke:none" />
  </g>
  <g
     transform="translate(-0.25,-527.51504)"
     id="g3123" />
</svg>
