<?xml version="1.0" encoding="UTF-8" standalone="no"?>
<!-- Created with Inkscape (http://www.inkscape.org/) -->

<svg
   xmlns:dc="http://purl.org/dc/elements/1.1/"
   xmlns:cc="http://creativecommons.org/ns#"
   xmlns:rdf="http://www.w3.org/1999/02/22-rdf-syntax-ns#"
   xmlns:svg="http://www.w3.org/2000/svg"
   xmlns="http://www.w3.org/2000/svg"
   version="1.1"
   width="317.1875"
   height="296.5625"
   viewBox="0 0 253.75001 237.24999"
   id="svg2"
   style="fill-rule:evenodd">
  <metadata
     id="metadata208">
    <rdf:RDF>
      <cc:Work
         rdf:about="">
        <dc:format>image/svg+xml</dc:format>
        <dc:type
           rdf:resource="http://purl.org/dc/dcmitype/StillImage" />
        <dc:title></dc:title>
      </cc:Work>
    </rdf:RDF>
  </metadata>
  <defs
     id="defs4">
    <marker
       markerUnits="strokeWidth"
       refX="0"
       refY="5"
       markerWidth="4"
       markerHeight="3"
       orient="auto"
       viewBox="0 0 10 10"
       id="ArrowEnd">
      <path
         d="M 0,0 10,5 0,10 z"
         id="path7" />
    </marker>
    <marker
       markerUnits="strokeWidth"
       refX="10"
       refY="5"
       markerWidth="4"
       markerHeight="3"
       orient="auto"
       viewBox="0 0 10 10"
       id="ArrowStart">
      <path
         d="M 10,0 0,5 10,10 z"
         id="path10" />
    </marker>
  </defs>
  <path
     d="m 135.5,75.874964 -3.125,-2 -4.125,0 -1.5,2.625 0.625,4.125 3.625,4 7.375,3.625 8.5,7.75 1.375,3.375 -0.625,1.624996 -6.5,5.125 -7.625,6.125 -1.875,2.625 0,2.75 5.875,2.875 9,3.375 3.125,0 3.375,-2.25 0,-1.75 -2.5,-1 -11.375,-1.25 -4.25,-1.125 -0.5,-2 7.375,-5.625 8.125,-5.375 1.75,-2 0.75,-2.749996 -0.75,-3.75 -2.5,-3 -8,-9.875 -5.625,-6.25 z"
     id="path14"
     style="fill:#000000;stroke:none" />
  <path
     d="m 121.625,82.624964 -3.125,-2 -4.125,0 -1.5,2.625 0.625,4.125 3.625,4 7.375,3.625 8.5,7.749996 1.375,3.375 -0.625,1.625 -6.5,5.125 -7.625,6.125 -1.875,2.625 0,2.75 5.875,2.875 9,3.375 3.125,0 3.375,-2.25 0,-1.75 -2.5,-1 -11.375,-1.25 -4.25,-1.125 -0.5,-2 7.375,-5.625 8.125,-5.375 1.75,-2 0.75,-2.75 -0.75,-3.75 -2.5,-2.999996 -8,-9.875 -5.625,-6.25 z"
     id="path16"
     style="fill:#000000;stroke:none" />
  <path
     d="m 104.875,50.124964 1.625,-8.875 6.375,-5.75 3.375,-0.75 4.25,1 3.375,3.25 1.5,4 0.875,3.25 -0.875,4.375 -0.125,3.75 -2.5,3.5 -0.125,4.125 1.25,2.875 4.75,1 2.875,3.25 0.5,6.75 -2,4.125 -7.25,2.125 -7.125,0.375 -5.75,-2.125 -5.75,-5.375 -2,-5.25 -1,-6.375 0.75,-6.875 1.75,-4.125 1.25,-2.25 z"
     id="path18"
     style="fill:#000000;stroke:none" />
  <path
     d="m 2.5,175.62496 -0.625,-14.75 2,-12.75 0,-12.125 -2.75,-14.75 -0.625,-11.5 0.625,-12.124996 2.75,-7.375 7.375,-5.375 9.375,-6.75 22.25,-7.375 22.125,-5.375 19.5,-3.375 16.125,-0.625 15.5,-4.75 13.5,-3.375 6.625,-2.625 10.75,-3.375 9.5,-4.75 8.75,-8 10,-2.75 12.75,-3.375 6.125,0.75 5.375,4.75 16.125,13.375 18.75,18.875 12.875,11.375 6,8.125 0,5.375 -2.75,4.625 -2.625,8.749996 0,22.25 -1.375,17.375 -2,12.875 -3.375,9.375 -6,2 -2.75,-2.75 1.375,-4.625 0.625,-11.5 -14.75,6.75 -8.75,4.75 -11.375,2.625 -8.75,4.125 -10.75,7.375 -10.125,5.375 -15.5,7.375 -10,3.375 -14.75,6.75 -16.875,3.25 -12.125,3.375 -13.375,3.375 -6.75,3.375 -2.75,6.75 -0.625,10.125 -2,5.375 -6,3.25 -9.5,-5.375 -2.625,-8 3.375,-6.75 -2.125,-4 -12.75,-14.125 -18.125,-16.75 -11.375,-10.75 -4.75,-2.75 -2,4.75 2,8.75 -8.75,-6.125 z"
     id="path20"
     style="fill:#996633;stroke:#000000;stroke-width:1" />
  <path
     d="m 67.125,233.62496 0.75,-14.125 -0.75,-30.875 0,-22.875 -3.375,-6 -24.875,-26.25 -16.125,-16.125 -13.375,-11.5 L 4,99.874964 l 1.375,-3.375 2,0 9.375,10.124996 12.75,10 12.125,16.25 11.375,12 10.75,8.125 6.75,6 4.75,-1.25 4.625,-3.375 14.875,-3.375 26.875,-7.375 16.125,-8.75 18.75,-8.125 19.5,-7.375 20.25,-8.75 14.125,-4.75 16.75,-7.374996 13.375,-3.375 11.5,-6 -4,10.75 -6.75,0 -8.75,1.999996 -15.5,4.75 -11.375,4.625 -14.125,4.75 -9.375,4.75 -15.5,6 -10.125,0 -14.75,10.75 -10.125,4.75 -12.75,4.625 -16.125,5.5 -12.75,3.25 -8.75,4.125 -8,4 -2,10.75 0,25.5 0,17.5 1.25,14.875 -4,4 -1.375,-2.75 z"
     id="path22"
     style="fill:#000000;stroke:none" />
  <path
     d="m 106.125,74.124964 14.75,-3.375 8.75,-4 6.125,-4.75 6,6.125 9.375,8.75 8.125,4.625 6,6.125 -3.375,5.375 -12,5.375 -12.125,5.249996 -5.375,0 -7.5,-9.374996 -7.375,-6 -7.375,-4 -4.75,-6.75 0.75,-3.375 z"
     id="path24"
     style="fill:#f8f8f8;stroke:#000000;stroke-width:1" />
  <path
     d="m 129,79.624964 -10.125,-17.5 -2.125,1.375 0.75,2 9.5,16.875 2.625,0.625 -0.625,-3.375 z"
     id="path26"
     style="fill:#000000;stroke:none" />
  <path
     d="m 110.5,9.3749639 2.125,-3.75 3.75,-4.125 3.875,-1.375 L 123.625,-3.6104905e-5 127.5,2.1249639 l 2.5,4.75 1.25,3.8750001 -0.375,4 -0.875,4.875 -1.125,4.375 0,1 1.75,4.5 3.5,4 0.875,1.25 -1,1.375 -1.75,0.25 -3.25,-5.5 -1.625,-3.625 -2,3 -1.625,2.5 -3.875,2.375 -2.875,0.625 -5.125,-1.25 -2.625,-6 -0.75,-8.375 0.375,-8.125 1.625,-2.6250001 z"
     id="path28"
     style="fill:#000000;stroke:none" />
  <path
     d="m 103.5,41.999964 4.75,-1.625 3.25,-0.375 2.75,0.375 1.375,1.375 -0.75,3.5 -4.625,1.875 -5,0 -5.375,0.875 -4,1.75 -3.75,2.75 -0.25,4 1.5,4 3.875,3.375 6,2.75 8.125,2.875 8.25,2.375 5.375,2.25 2.625,0.75 -0.875,3.125 0.875,4.25 4.75,2 5.875,2.625 0.25,3.25 -6.125,-2.75 -7.375,-3.125 -1.625,-3.375 0,-4 -3.75,-2 -9.625,-2.75 -7.125,-2.625 -8.125,-3.625 -5.625,-4 -1.125,-3.75 -0.125,-3 0.125,-4.5 3.375,-3.25 5.125,-2.25 4.25,-2 2.75,-1.125 z"
     id="path30"
     style="fill:#000000;stroke:none" />
  <path
     d="m 131.5,41.374964 -4.75,-1.625 -3.25,-0.375 -2.75,0.375 -1.375,1.375 1.125,1.875 5.25,0.75 5.25,2.25 4.125,1.375 4,1.875 3.75,2.625 0.25,4.125 -1.625,4 -3.75,3.375 -6,2.625 0.375,3 8.125,-3.625 5.5,-4 1.125,-3.875 0.25,-2.875 -0.25,-4.5 -3.375,-3.375 -5.125,-2.25 -4.25,-2 -2.625,-1.125 z"
     id="path32"
     style="fill:#000000;stroke:none" />
  <g
     transform="translate(-81.375,-555.64004)"
     id="g204" />
</svg>
