<?xml version="1.0" encoding="UTF-8" standalone="no"?>
<!-- Created with Inkscape (http://www.inkscape.org/) -->

<svg
   xmlns:dc="http://purl.org/dc/elements/1.1/"
   xmlns:cc="http://creativecommons.org/ns#"
   xmlns:rdf="http://www.w3.org/1999/02/22-rdf-syntax-ns#"
   xmlns:svg="http://www.w3.org/2000/svg"
   xmlns="http://www.w3.org/2000/svg"
   xmlns:sodipodi="http://sodipodi.sourceforge.net/DTD/sodipodi-0.dtd"
   xmlns:inkscape="http://www.inkscape.org/namespaces/inkscape"
   width="185.88954mm"
   height="36.845997mm"
   viewBox="0 0 658.66373 130.55668"
   id="svg2"
   version="1.1"
   inkscape:version="0.91 r13725"
   sodipodi:docname="TheFour.svg">
  <defs
     id="defs4" />
  <sodipodi:namedview
     id="base"
     pagecolor="#ffffff"
     bordercolor="#666666"
     borderopacity="1.0"
     inkscape:pageopacity="0.0"
     inkscape:pageshadow="2"
     inkscape:zoom="0.35"
     inkscape:cx="339.28747"
     inkscape:cy="-358.41991"
     inkscape:document-units="px"
     inkscape:current-layer="layer1"
     showgrid="false"
     fit-margin-top="0"
     fit-margin-left="0"
     fit-margin-right="0"
     fit-margin-bottom="0"
     inkscape:window-width="1280"
     inkscape:window-height="657"
     inkscape:window-x="-8"
     inkscape:window-y="-8"
     inkscape:window-maximized="1" />
  <metadata
     id="metadata7">
    <rdf:RDF>
      <cc:Work
         rdf:about="">
        <dc:format>image/svg+xml</dc:format>
        <dc:type
           rdf:resource="http://purl.org/dc/dcmitype/StillImage" />
        <dc:title></dc:title>
      </cc:Work>
    </rdf:RDF>
  </metadata>
  <g
     inkscape:label="Ebene 1"
     inkscape:groupmode="layer"
     id="layer1"
     transform="translate(-35.71253,-43.385616)">
    <g
       id="g3406"
       transform="translate(-88.571429,-514.28571)">
      <path
         id="path3404"
         d="m 176.77156,687.4477 c -22.89076,-4.09583 -42.87908,-22.21167 -50.13964,-45.44263 -2.60495,-8.33484 -3.15288,-25.75595 -1.0851,-34.5 5.05258,-21.36581 21.76517,-39.34053 43.82069,-47.13001 8.10749,-2.86337 24.38576,-3.56969 34.2753,-1.48722 18.33101,3.86003 35.33156,16.76082 43.79187,33.23127 5.3128,10.34289 7.17483,18.34821 7.19335,30.92586 0.027,18.35453 -6.16767,33.79792 -18.41234,45.90203 -12.92045,12.77213 -25.91415,18.47002 -43.53511,19.09063 -5.79577,0.20413 -12.95483,-0.0613 -15.90902,-0.58993 z"
         style="fill:#008000"
         inkscape:connector-curvature="0" />
      <path
         id="path3402"
         d="m 196.38612,661.75507 c 8.25175,-7.24316 26.3575,-26.99367 30.81914,-33.61883 7.60967,-11.29972 6.66026,-22.8161 -2.6249,-31.83979 -5.62325,-5.46491 -13.66126,-8.441 -19.72536,-7.30337 -4.59138,0.86135 -10.15979,3.68836 -12.61718,6.40558 -2.53337,2.80123 -3.68831,2.66224 -7.05198,-0.84868 -2.87252,-2.99826 -10.02112,-6.04491 -14.18366,-6.04491 -8.28815,0 -19.89793,8.58637 -22.81797,16.87573 -2.91367,8.27128 -1.66915,14.71004 4.68139,24.22005 4.22947,6.33369 34.21166,37.90422 35.99722,37.90422 0.53494,0 3.92043,-2.5875 7.5233,-5.75 z"
         style="fill:#ffffff"
         inkscape:connector-curvature="0" />
    </g>
    <g
       id="g3410"
       transform="translate(-88.571429,-514.28571)">
      <path
         id="path3400"
         d="m 352.81676,687.4542 c -2.92933,-0.52501 -8.68418,-2.35256 -12.78856,-4.06122 -21.83873,-9.09149 -36.93239,-29.27357 -39.29026,-52.53591 -2.22577,-21.95914 3.85013,-39.5173 18.81986,-54.38565 12.27233,-12.18923 24.91654,-17.79027 42.18223,-18.68558 27.69414,-1.43608 50.66819,11.90156 62.8734,36.50131 4.34751,8.76245 6.03124,16.70221 6.0146,28.36226 -0.0185,12.94251 -1.85845,20.8813 -7.24087,31.24162 -7.45721,14.35395 -20.81776,25.71009 -36.7782,31.26059 -8.18189,2.84538 -24.54327,3.96023 -33.7922,2.30258 z"
         style="fill:#008000"
         inkscape:connector-curvature="0" />
      <path
         id="path3398"
         d="m 372.46084,669.47466 c 2.04318,-1.24569 4.09667,-3.78319 5.34459,-6.60432 1.94109,-4.38816 1.95603,-4.76608 0.35409,-8.96069 -2.21033,-5.78765 -6.60702,-8.90458 -12.56069,-8.90458 -5.88783,0 -9.62356,2.49417 -12.09122,8.07275 -1.6068,3.63242 -1.76759,5.07455 -0.9177,8.23079 2.35158,8.7331 12.26124,12.80552 19.87093,8.16605 z"
         style="fill:#ffffff"
         inkscape:connector-curvature="0" />
      <path
         id="path3396"
         d="m 407.86599,632.72729 c 1.96739,-1.96822 2.27682,-3.30505 2.27682,-9.83658 0,-7.04228 -0.19173,-7.72373 -2.80576,-9.97223 l -2.80577,-2.41341 -39.02116,0 -39.02116,0 -2.92307,2.92308 c -2.56696,2.56695 -2.92128,3.63297 -2.90834,8.75 0.008,3.2048 0.57948,6.94305 1.26971,8.30721 2.50425,4.94935 3.40675,5.04522 44.93873,4.77327 l 38.72318,-0.25356 2.27682,-2.27778 z"
         style="fill:#ffffff"
         inkscape:connector-curvature="0" />
      <path
         id="path3394"
         d="m 369.32771,600.43846 c 3.87,-1.46631 7.30504,-4.8046 8.97268,-8.71996 3.79854,-8.91841 -6.65862,-20.11036 -15.90758,-17.02535 -4.55439,1.51913 -8.5987,5.5749 -9.9042,9.93224 -1.61768,5.39936 1.67668,11.93929 7.45498,14.79951 4.82554,2.38862 5.54877,2.46673 9.38412,1.01356 z"
         style="fill:#ffffff"
         inkscape:connector-curvature="0" />
    </g>
    <g
       id="g3416"
       transform="translate(-88.571429,-514.28571)">
      <path
         id="path3392"
         d="m 528.78441,687.44954 c -6.9821,-1.24988 -17.33914,-5.64116 -24.47275,-10.37618 -11.84605,-7.86296 -22.84231,-23.71837 -26.13396,-37.68233 -1.92513,-8.16686 -1.93382,-24.56843 -0.0173,-32.69767 5.07866,-21.54235 21.72927,-39.06614 44.48241,-46.81516 7.8565,-2.67568 30.1435,-2.67568 38,0 31.69686,10.79497 49.18335,37.97964 45.85985,71.29417 -2.47658,24.82513 -19.97554,46.04122 -44.8171,54.33716 -7.45584,2.48991 -24.28575,3.48229 -32.90115,1.94001 z"
         style="fill:#008000"
         inkscape:connector-curvature="0" />
      <path
         id="path3390"
         d="m 551.00795,665.43249 2.63486,-2.07258 0,-18.92742 0,-18.92742 7.03212,0 c 12.90638,0 16.50727,-3.26922 15.73849,-14.28884 -0.59817,-8.57419 -2.5002,-10.07839 -13.54404,-10.71116 l -8.72657,-0.5 -0.2869,-8.61035 c -0.25784,-7.7385 -0.54445,-8.85231 -2.83056,-11 -2.18223,-2.0501 -3.53917,-2.38965 -9.54969,-2.38965 -6.43657,0 -7.20218,0.22805 -9.41943,2.80576 -2.13917,2.48694 -2.41342,3.76532 -2.41342,11.25 l 0,8.44424 -8.44424,0 c -7.40176,0 -8.77872,0.28772 -11.15367,2.33056 -2.19644,1.8893 -2.79838,3.40305 -3.17918,7.99495 -0.91807,11.07074 2.94857,14.67449 15.74497,14.67449 l 7.03212,0 0,18.54545 c 0,18.35691 0.025,18.57041 2.45455,21 2.13248,2.13248 3.36129,2.45455 9.36514,2.45455 5.47706,0 7.45717,-0.42993 9.54545,-2.07258 z"
         style="fill:#ffffff"
         inkscape:connector-curvature="0" />
    </g>
    <g
       id="g3420"
       transform="translate(-88.571429,-514.28571)">
      <path
         id="path3388"
         d="m 704.78441,687.44954 c -17.37587,-3.11051 -35.8561,-16.55066 -44.14777,-32.10743 -5.62803,-10.55927 -7.15643,-16.3838 -7.69825,-29.33704 -0.87373,-20.88846 4.60795,-35.43337 18.68004,-49.56497 13.57015,-13.62754 29.81518,-19.69716 49.92716,-18.65426 17.56665,0.91092 30.1569,6.54223 42.70838,19.10244 6.51592,6.52044 8.90503,9.78851 12.14767,16.61679 5.35935,11.28559 6.65723,17.33951 6.5388,30.5 -0.16859,18.73525 -5.92686,32.38256 -19.20254,45.51067 -8.03326,7.94396 -17.10536,13.45041 -27.09509,16.44578 -6.61973,1.98489 -24.43464,2.81698 -31.8584,1.48802 z"
         style="fill:#008000"
         inkscape:connector-curvature="0" />
      <path
         id="path3386"
         d="m 723.64281,668.78478 c 4.31278,-2.49885 6.5,-6.35387 6.5,-11.45638 0,-5.63671 -2.50299,-9.51524 -7.85802,-12.17646 -4.90838,-2.43926 -9.71075,-1.5272 -14.35135,2.7256 -2.94714,2.70085 -3.6204,4.08793 -3.97503,8.18956 -0.55033,6.36511 2.08328,10.81796 7.95506,13.45024 4.42684,1.98453 7.35558,1.80161 11.72934,-0.73256 z"
         style="fill:#ffffff"
         inkscape:connector-curvature="0" />
      <path
         id="path3360"
         d="m 726.63615,641.50863 c 1.30478,-0.6983 2.06598,-2.63015 2.54407,-6.45666 0.65703,-5.25871 0.97014,-5.72022 8.48367,-12.50455 8.96747,-8.09716 11.97892,-13.29601 11.97892,-20.67994 0,-11.45385 -7.13522,-21.20986 -18.27976,-24.99397 -6.81289,-2.31331 -18.56719,-2.27337 -25.22024,0.0857 -9.92315,3.51859 -19.46089,13.10029 -21.07532,21.17246 -0.76843,3.84217 0.58785,4.9462 9.04878,7.36581 7.92956,2.26765 10.25918,1.66552 12.90555,-3.33569 2.70363,-5.10942 9.36636,-7.09675 15.07394,-4.49621 1.98281,0.90343 2.54705,1.89392 2.54705,4.47118 0,2.91745 -0.94109,4.08924 -7.92366,9.86606 -9.49267,7.85348 -12.08345,12.37901 -12.06103,21.06797 0.0161,6.2519 0.538,7.77402 2.98469,8.70539 2.57996,0.9821 17.03892,0.77843 18.99334,-0.26755 z"
         style="fill:#ffffff"
         inkscape:connector-curvature="0" />
    </g>
  </g>
</svg>
