<?xml version="1.0" encoding="UTF-8" standalone="no"?>
<!-- Created with Inkscape (http://www.inkscape.org/) -->
<svg xmlns:dc="http://purl.org/dc/elements/1.1/" xmlns:cc="http://creativecommons.org/ns#" xmlns:rdf="http://www.w3.org/1999/02/22-rdf-syntax-ns#" xmlns:svg="http://www.w3.org/2000/svg" xmlns="http://www.w3.org/2000/svg" xmlns:sodipodi="http://sodipodi.sourceforge.net/DTD/sodipodi-0.dtd" xmlns:inkscape="http://www.inkscape.org/namespaces/inkscape" width="24" height="40" id="svg2" sodipodi:version="0.32" inkscape:version="0.48.3.1 r9886" sodipodi:docname="dagobert83-pro.svg" version="1.0" inkscape:export-filename="E:\Vektorgrafiken\myOwn\Sonstige\thumb.png" inkscape:export-xdpi="90" inkscape:export-ydpi="90">
  <defs id="defs4"/>
  <sodipodi:namedview id="base" pagecolor="#ffffff" bordercolor="#666666" borderopacity="1.0" inkscape:pageopacity="0.0" inkscape:pageshadow="2" inkscape:zoom="1" inkscape:cx="8.2159895" inkscape:cy="11.756704" inkscape:document-units="px" inkscape:current-layer="g3754" inkscape:window-width="1389" inkscape:window-height="1181" inkscape:window-x="0" inkscape:window-y="0" width="380px" height="220px" showgrid="false" fit-margin-top="0" fit-margin-left="0" fit-margin-right="0" fit-margin-bottom="0" inkscape:window-maximized="0"/>
  <g inkscape:label="Ebene 1" inkscape:groupmode="layer" id="layer1" transform="translate(-87.573975,-241.52442)">
    <g id="g3742" transform="translate(-61.83612,-214.1298)">
      <g id="g3754" transform="matrix(0,-0.11715772,0.11715772,0,123.43579,505.06335)">
        <g id="g3778" transform="matrix(-1,0,0,-1,502.04346,648.25954)">
          <path inkscape:connector-curvature="0" sodipodi:nodetypes="ccccccccccccc" id="path1968" d="m 88.35,312.93052 c -3.658709,81.84485 59.39363,72.72137 109.08116,81.82236 9.97589,9.91392 22.96394,22.05383 42.1487,23.33181 21.05366,-3.98314 36.37834,-6.97107 62.91104,-15.75567 95.96741,14.18465 120.56734,-0.96559 113.89453,-43.31844 -6.21937,-14.71112 -57.2557,-42.01588 -88.25794,-9.20949 l -32.67409,0.50507 c -1.20133,-20.59382 -4.61284,-34.0768 -22.4475,-66.90444 -2.43789,-26.1937 -10.59046,-56.70081 -32.8471,-57.8494 -15.1473,-1.03601 -22.33959,9.57558 -30.88242,18.51462 -13.37844,0.31006 -26.35339,0.41983 -39.49252,-0.83695 -14.24236,4.88256 -22.16029,30.60717 -46.74907,30.80966 -12.77767,8.0761 -23.139458,25.86187 -34.68479,38.89087 z" style="fill:#ff0728;fill-opacity:1;fill-rule:evenodd;stroke:none"/>
          <path inkscape:connector-curvature="0" sodipodi:nodetypes="ccccccccccccc" id="path2855" d="m 95.272179,347.11066 c 10.891361,12.50986 21.782721,8.51029 32.674081,-1.76776 12.52326,18.64746 28.47314,28.06776 44.48702,5.3033 28.60252,9.04112 45.85533,-2.17353 59.81869,-21.21321 24.43519,5.0017 40.13978,-5.03475 50.51916,-24.24366 18.13158,26.49207 10.2695,48.53858 -2.76473,69.70053 5.05472,12.98323 13.91851,15.84426 20.60981,18.68782 31.78757,-9.00047 67.89122,16.15252 116.62133,-27.27412 4.82485,28.60336 -14.51999,34.94547 -33.17675,41.92133 -31.09361,4.49122 -61.32525,0.32174 -91.48743,-4.54569 l -52.78121,15.65737 -54.28924,-28.78935 c -40.88172,-0.1577 -88.028684,-5.36884 -90.230731,-43.43656 z" style="opacity:0.64000005000000004;fill:#913333;fill-opacity:0.56194693;fill-rule:evenodd;stroke:none"/>
          <path inkscape:connector-curvature="0" sodipodi:nodetypes="csssssssccccscccccssccccccccccccccccccscccccccccccsscccccc" id="path1948" d="m 161.80853,396.49461 c -17.75066,-1.15996 -27.95321,-3.10312 -35.96951,-6.8507 -12.36046,-5.77844 -31.605029,-22.74906 -37.677509,-33.22552 -3.810261,-6.57357 -7.679642,-22.62637 -7.836792,-32.51218 -0.152194,-9.57473 0.938821,-11.84387 8.01115,-16.66191 8.361024,-5.69596 13.917521,-12.21567 18.615541,-21.84248 6.30505,-12.91983 10.28222,-15.8492 21.64824,-15.94494 9.16849,-0.0772 13.70504,-2.62801 20.08133,-11.29117 8.28435,-11.25554 15.89939,-17.27107 24.11931,-19.05312 10.81899,-1.4537 22.10066,7.34123 32.70737,3.6779 5.62825,-6.55382 9.72719,-12.27458 16.50237,-17.79642 14.16587,-7.21534 34.77413,-2.08866 43.04102,10.73892 3.66489,7.55468 6.42488,19.31643 7.65863,32.63748 1.26193,13.62511 3.23477,19.4614 10.71059,31.68533 8.25014,15.34057 13.13024,24.46854 13.32019,45.20136 l 27.13723,1.23248 c 17.00383,-17.79057 30.44568,-20.69424 53.7601,-14.49884 17.86846,6.10602 31.61972,4.78666 40.4009,23.44457 3.95789,9.55264 4.67933,16.87289 2.42931,24.6496 -3.80551,13.15294 -10.23625,21.76128 -19.73237,26.41422 -17.72722,8.68603 -55.87091,10.01273 -88.99084,3.09525 -13.79808,-4.12615 -26.53665,-1.8385 -39.22124,4.34775 -22.11215,8.91474 -26.98747,5.00476 -33.45014,12.61361 -32.36385,-20.72612 -38.31492,-26.92215 -77.26488,-30.06119 z m 110.99556,7.64938 c 12.58593,-6.76947 27.37628,-5.87319 40.76646,-2.46827 27.20797,5.29457 62.68187,8.62344 87.81151,-4.16849 7.51193,-5.18559 13.57768,-17.43973 13.57768,-27.42984 -0.6389,-23.7457 -18.34632,-24.33525 -36.3267,-29.8765 -9.56178,-4.28746 -21.2003,-4.66176 -30.76544,-0.24218 -16.28781,8.48957 -23.84561,25.79412 -34.98325,39.36808 -1.27742,-8.28256 2.3916,-15.94662 5.15045,-23.49165 l -24.12096,0.98196 c -11.72156,25.3777 -34.45742,27.20814 -57.8636,17.75312 -6.36492,8.62579 -18.25088,16.36934 -35.31062,16.26413 13.18031,4.6651 23.75078,15.62884 36.79971,20.40155 13.10285,2.92509 24.10457,-0.9891 35.26476,-7.09191 z M 167.6417,345.37639 c -2.45765,-9.21725 -3.34204,-18.14229 -1.61226,-16.27059 0.48288,0.5225 3.47374,6.8 6.64636,13.95 10.30229,33.82107 52.85959,52.0017 61.14808,9.93592 0.26381,-20.13631 -20.78794,-43.38845 -9.23243,-62.61399 -2.24193,11.8571 2.78268,22.18132 7.77208,32.67807 6.57284,13.29498 8.35771,20.00405 8.40739,31.60212 0.95496,15.68071 18.11288,15.31819 29.81847,12.30485 29.527,-16.66302 14.74788,-48.34487 3.72177,-71.02464 -6.2138,-12.48295 -7.96452,-18.81399 -10.13564,-36.65303 -1.3245,-20.58657 -10.02143,-28.99572 -31.44299,-29.44026 -13.57697,-0.50507 -15.79938,21.3249 -27.59262,21.71096 -9.45393,-0.45645 -18.62572,-3.24396 -28.04541,-3.97923 -8.63213,-0.0333 -15.28298,5.25574 -21.94454,17.45134 -5.1983,9.51676 -7.18216,10.63498 -20.37256,11.48313 -5.48428,0.35265 -10.63471,1.04832 -11.4454,1.54593 -10.53514,15.14157 -13.05129,24.23993 -29.153534,36.27065 -6.682383,18.4503 5.832704,57.90132 31.006734,53.82517 -1.68816,-16.53032 -2.65669,-31.59683 6.94519,-44.06602 1.25896,5.13296 1.14111,10.4006 0.84078,15.64216 -11.64197,44.68928 53.23841,59.73886 34.67053,5.64746 z" style="fill:#000000;fill-opacity:1"/>
        </g>
      </g>
    </g>
  </g>
  <metadata>
    <rdf:RDF>
      <cc:Work>
        <dc:format>image/svg+xml</dc:format>
        <dc:type rdf:resource="http://purl.org/dc/dcmitype/StillImage"/>
        <cc:license rdf:resource="http://creativecommons.org/licenses/publicdomain/"/>
        <dc:publisher>
          <cc:Agent rdf:about="http://openclipart.org/">
            <dc:title>Open Clip Art Library</dc:title>
          </cc:Agent>
        </dc:publisher>
        <dc:title>Thumbs Down</dc:title>
        <dc:date>2012-12-17T21:58:42</dc:date>
        <dc:description>color- and dimensions-modified version of dagobert83's work</dc:description>
        <dc:source>http://openclipart.org/detail/173823/thumbs-down-by-qubodup-173823</dc:source>
        <dc:creator>
          <cc:Agent>
            <dc:title>qubodup</dc:title>
          </cc:Agent>
        </dc:creator>
        <dc:subject>
          <rdf:Bag>
            <rdf:li>anatomy</rdf:li>
            <rdf:li>anatomy</rdf:li>
            <rdf:li>body part</rdf:li>
            <rdf:li>body part</rdf:li>
            <rdf:li>clip art</rdf:li>
            <rdf:li>clipart</rdf:li>
            <rdf:li>colour</rdf:li>
            <rdf:li>colour</rdf:li>
            <rdf:li>contour</rdf:li>
            <rdf:li>contour</rdf:li>
            <rdf:li>finger</rdf:li>
            <rdf:li>finger</rdf:li>
            <rdf:li>fist</rdf:li>
            <rdf:li>fist</rdf:li>
            <rdf:li>gesture</rdf:li>
            <rdf:li>gesture</rdf:li>
            <rdf:li>hand</rdf:li>
            <rdf:li>hand</rdf:li>
            <rdf:li>image</rdf:li>
            <rdf:li>media</rdf:li>
            <rdf:li>okay</rdf:li>
            <rdf:li>okay</rdf:li>
            <rdf:li>outline</rdf:li>
            <rdf:li>outline</rdf:li>
            <rdf:li>png</rdf:li>
            <rdf:li>public domain</rdf:li>
            <rdf:li>svg</rdf:li>
            <rdf:li>thumb</rdf:li>
            <rdf:li>thumb</rdf:li>
          </rdf:Bag>
        </dc:subject>
      </cc:Work>
      <cc:License rdf:about="http://creativecommons.org/licenses/publicdomain/">
        <cc:permits rdf:resource="http://creativecommons.org/ns#Reproduction"/>
        <cc:permits rdf:resource="http://creativecommons.org/ns#Distribution"/>
        <cc:permits rdf:resource="http://creativecommons.org/ns#DerivativeWorks"/>
      </cc:License>
    </rdf:RDF>
  </metadata>
</svg>
