<?xml version="1.0" encoding="UTF-8" standalone="no"?>
<!-- Created with Inkscape (http://www.inkscape.org/) -->
<svg xmlns:dc="http://purl.org/dc/elements/1.1/" xmlns:cc="http://creativecommons.org/ns#" xmlns:rdf="http://www.w3.org/1999/02/22-rdf-syntax-ns#" xmlns:svg="http://www.w3.org/2000/svg" xmlns="http://www.w3.org/2000/svg" xmlns:sodipodi="http://sodipodi.sourceforge.net/DTD/sodipodi-0.dtd" xmlns:inkscape="http://www.inkscape.org/namespaces/inkscape" width="677.01013" height="134.01532" id="svg2839" version="1.1" inkscape:version="0.47 r22583" sodipodi:docname="Nieuw document 2">
  <defs id="defs2841">
    <inkscape:perspective sodipodi:type="inkscape:persp3d" inkscape:vp_x="0 : 526.18109 : 1" inkscape:vp_y="0 : 1000 : 0" inkscape:vp_z="744.09448 : 526.18109 : 1" inkscape:persp3d-origin="372.04724 : 350.78739 : 1" id="perspective2847"/>
    <inkscape:perspective id="perspective2834" inkscape:persp3d-origin="0.5 : 0.33333333 : 1" inkscape:vp_z="1 : 0.5 : 1" inkscape:vp_y="0 : 1000 : 0" inkscape:vp_x="0 : 0.5 : 1" sodipodi:type="inkscape:persp3d"/>
    <inkscape:perspective id="perspective2834-2" inkscape:persp3d-origin="0.5 : 0.33333333 : 1" inkscape:vp_z="1 : 0.5 : 1" inkscape:vp_y="0 : 1000 : 0" inkscape:vp_x="0 : 0.5 : 1" sodipodi:type="inkscape:persp3d"/>
    <inkscape:perspective id="perspective3663" inkscape:persp3d-origin="0.5 : 0.33333333 : 1" inkscape:vp_z="1 : 0.5 : 1" inkscape:vp_y="0 : 1000 : 0" inkscape:vp_x="0 : 0.5 : 1" sodipodi:type="inkscape:persp3d"/>
    <inkscape:perspective id="perspective3663-3" inkscape:persp3d-origin="0.5 : 0.33333333 : 1" inkscape:vp_z="1 : 0.5 : 1" inkscape:vp_y="0 : 1000 : 0" inkscape:vp_x="0 : 0.5 : 1" sodipodi:type="inkscape:persp3d"/>
    <inkscape:perspective id="perspective3663-5" inkscape:persp3d-origin="0.5 : 0.33333333 : 1" inkscape:vp_z="1 : 0.5 : 1" inkscape:vp_y="0 : 1000 : 0" inkscape:vp_x="0 : 0.5 : 1" sodipodi:type="inkscape:persp3d"/>
    <inkscape:perspective id="perspective3703" inkscape:persp3d-origin="0.5 : 0.33333333 : 1" inkscape:vp_z="1 : 0.5 : 1" inkscape:vp_y="0 : 1000 : 0" inkscape:vp_x="0 : 0.5 : 1" sodipodi:type="inkscape:persp3d"/>
    <inkscape:perspective id="perspective3703-2" inkscape:persp3d-origin="0.5 : 0.33333333 : 1" inkscape:vp_z="1 : 0.5 : 1" inkscape:vp_y="0 : 1000 : 0" inkscape:vp_x="0 : 0.5 : 1" sodipodi:type="inkscape:persp3d"/>
    <inkscape:perspective id="perspective3703-9" inkscape:persp3d-origin="0.5 : 0.33333333 : 1" inkscape:vp_z="1 : 0.5 : 1" inkscape:vp_y="0 : 1000 : 0" inkscape:vp_x="0 : 0.5 : 1" sodipodi:type="inkscape:persp3d"/>
    <inkscape:perspective id="perspective3743" inkscape:persp3d-origin="0.5 : 0.33333333 : 1" inkscape:vp_z="1 : 0.5 : 1" inkscape:vp_y="0 : 1000 : 0" inkscape:vp_x="0 : 0.5 : 1" sodipodi:type="inkscape:persp3d"/>
    <inkscape:perspective id="perspective3769" inkscape:persp3d-origin="0.5 : 0.33333333 : 1" inkscape:vp_z="1 : 0.5 : 1" inkscape:vp_y="0 : 1000 : 0" inkscape:vp_x="0 : 0.5 : 1" sodipodi:type="inkscape:persp3d"/>
    <inkscape:perspective id="perspective3769-1" inkscape:persp3d-origin="0.5 : 0.33333333 : 1" inkscape:vp_z="1 : 0.5 : 1" inkscape:vp_y="0 : 1000 : 0" inkscape:vp_x="0 : 0.5 : 1" sodipodi:type="inkscape:persp3d"/>
    <inkscape:perspective id="perspective3769-9" inkscape:persp3d-origin="0.5 : 0.33333333 : 1" inkscape:vp_z="1 : 0.5 : 1" inkscape:vp_y="0 : 1000 : 0" inkscape:vp_x="0 : 0.5 : 1" sodipodi:type="inkscape:persp3d"/>
    <inkscape:perspective id="perspective3769-19" inkscape:persp3d-origin="0.5 : 0.33333333 : 1" inkscape:vp_z="1 : 0.5 : 1" inkscape:vp_y="0 : 1000 : 0" inkscape:vp_x="0 : 0.5 : 1" sodipodi:type="inkscape:persp3d"/>
    <inkscape:perspective id="perspective3818" inkscape:persp3d-origin="0.5 : 0.33333333 : 1" inkscape:vp_z="1 : 0.5 : 1" inkscape:vp_y="0 : 1000 : 0" inkscape:vp_x="0 : 0.5 : 1" sodipodi:type="inkscape:persp3d"/>
  </defs>
  <sodipodi:namedview id="base" pagecolor="#ffffff" bordercolor="#666666" borderopacity="1.0" inkscape:pageopacity="0.0" inkscape:pageshadow="2" inkscape:zoom="0.49497475" inkscape:cx="18.035418" inkscape:cy="71.557187" inkscape:document-units="px" inkscape:current-layer="layer1" showgrid="false" inkscape:window-width="1280" inkscape:window-height="912" inkscape:window-x="-4" inkscape:window-y="-3" inkscape:window-maximized="1"/>
  <g inkscape:label="Laag 1" inkscape:groupmode="layer" id="layer1" transform="translate(-23.762945,-733.40403)">
    <g id="g3836" transform="translate(-19.517695,106)">
      <rect transform="scale(1,-1)" y="-675.58075" x="379.28571" height="36.428574" width="5" id="rect2881-8" style="fill:#000000;fill-opacity:1;stroke:none"/>
      <rect transform="matrix(0.90630779,-0.42261826,-0.42261826,-0.90630779,0,0)" y="-768.03644" x="48.499035" height="36.428574" width="5" id="rect2881-8-6" style="fill:#000000;fill-opacity:1;stroke:none"/>
      <rect transform="matrix(-0.90630779,-0.42261826,0.42261826,-0.90630779,0,0)" y="-445.33713" x="-643.53174" height="36.428574" width="5" id="rect2881-8-2" style="fill:#000000;fill-opacity:1;stroke:none"/>
      <rect transform="matrix(-0.70710678,0.70710678,0.70710678,0.70710678,0,0)" y="692.58307" x="221.40381" height="36.428574" width="5" id="rect2881-8-3" style="fill:#000000;fill-opacity:1;stroke:none"/>
      <rect transform="matrix(-0.70710678,-0.70710678,0.70710678,-0.70710678,0,0)" y="-189.08513" x="-766.33038" height="36.428574" width="5" id="rect2881-8-4" style="fill:#000000;fill-opacity:1;stroke:none"/>
    </g>
    <g id="g3832" transform="translate(-27.779195,102.53048)">
      <path d="m 437.98702,751.94069 c -7.21933,-2.28117 -13.75922,-8.42546 -16.17609,-15.19773 -1.86313,-5.22055 -1.16268,-15.3684 1.39675,-20.23673 4.56287,-8.67919 12.96781,-13.21551 23.33656,-12.59531 6.35093,0.37981 14.10318,3.91626 17.2143,7.85298 2.75483,3.48575 5.41343,10.69609 5.71399,15.49679 0.57022,9.10603 -7.07243,20.98421 -15.42295,23.97027 -4.25486,1.5215 -12.3601,1.8796 -16.06254,0.70974 z m 228.41005,11.00134 c -5.80061,-2.40619 -11.81029,-8.25983 -14.04152,-13.67713 -1.07367,-2.60677 -1.24857,-5.61884 -0.67515,-11.63047 0.70412,-7.38146 1.10499,-8.52514 4.44839,-12.69098 11.20632,-13.9628 34.39119,-11.38721 41.46982,4.60687 3.28736,7.42784 3.39162,13.27079 0.36032,20.19233 -5.62353,12.84049 -18.97066,18.4223 -31.56186,13.19938 z M 394.8986,723.84071 c -3.48921,-1.45722 -3.81408,-3.65232 -2.95796,-19.98821 0.59246,-11.30466 1.24163,-16.58195 2.18086,-17.72929 1.04581,-1.27752 11.64057,-2.82594 48.60732,-7.10404 l 47.26988,-5.47044 23.78033,-21.33758 23.7802,-21.3376 65.10795,3.41215 65.10796,3.41216 28.4777,25.11134 c 15.66274,13.81124 29.43066,26.27396 30.59539,27.69495 2.06309,2.51697 2.08762,3.15695 0.95304,24.80624 -1.40114,26.73551 -1.13524,26.11178 -10.91221,25.59938 l -6.70961,-0.35163 -1.36087,-6.07955 c -1.92825,-8.61373 -3.62362,-11.79021 -9.3508,-17.52009 -7.32405,-7.32739 -12.03515,-9.43405 -22.30026,-9.97203 -10.15777,-0.53235 -15.66093,1.21266 -23.03423,7.30384 -5.12951,4.23756 -11.10429,13.82189 -11.36369,18.22886 -0.30991,5.26359 3.89883,5.24143 -82.58202,0.43449 l -80.71103,-4.48615 -1.35119,-6.07904 c -1.912,-8.60226 -3.60879,-11.78472 -9.34099,-17.51959 -7.17163,-7.1749 -12.07043,-9.40885 -21.80117,-9.94181 -9.87622,-0.54093 -15.1071,1.00886 -22.46412,6.65577 -5.87985,4.51313 -12.16622,14.03518 -12.41631,18.80724 -0.076,1.4502 -0.70571,3.14769 -1.39933,3.77222 -1.25834,1.133 -12.88849,0.89629 -15.80484,-0.32158 z m 198.31066,-38.95778 c 1.2613,-0.70637 1.77934,-4.18612 2.80104,-18.81273 0.81773,-11.70743 0.90968,-18.6781 0.26459,-20.05183 -0.9622,-2.04894 -1.77039,-2.14674 -29.93652,-3.62286 l -28.94769,-1.51708 -18.32925,15.79671 c -14.91015,12.84994 -18.35579,16.30136 -18.47113,18.50196 -0.3036,5.79312 -0.11699,5.82571 47.60284,8.30976 25.59096,1.33216 44.10507,1.90632 45.01612,1.39607 z m 87.40271,2.63073 c 1.75531,-1.4847 2.75851,-3.35016 2.86185,-5.3218 0.13531,-2.58385 -1.99439,-5.42756 -14.30566,-19.10058 l -14.46477,-16.06476 -23.60012,-1.23683 c -12.98008,-0.68025 -24.32523,-1.00131 -25.2115,-0.71345 -1.39196,0.45209 -1.74821,3.13377 -2.61589,19.69008 -0.72708,13.87355 -0.68189,19.52501 0.16372,20.46412 0.89435,0.99325 9.76089,1.68096 37.81893,2.93331 l 36.65059,1.63588 2.70285,-2.28597 z" style="fill:#010101" id="path2962"/>
      <path d="m 342.10743,751.94069 c 7.21933,-2.28117 13.75922,-8.42546 16.17609,-15.19773 1.86313,-5.22055 1.16268,-15.3684 -1.39675,-20.23673 -4.56287,-8.67919 -12.96781,-13.21551 -23.33656,-12.59531 -6.35093,0.37981 -14.10318,3.91626 -17.2143,7.85298 -2.75483,3.48575 -5.41343,10.69609 -5.71399,15.49679 -0.57022,9.10603 7.07243,20.98421 15.42295,23.97027 4.25486,1.5215 12.3601,1.8796 16.06254,0.70974 z m -228.41006,11.00134 c 5.80061,-2.40619 11.81029,-8.25983 14.04152,-13.67713 1.07367,-2.60677 1.24857,-5.61884 0.67515,-11.63047 -0.70412,-7.38146 -1.10499,-8.52514 -4.44839,-12.69098 -11.20632,-13.9628 -34.39119,-11.38721 -41.46982,4.60687 -3.28736,7.42784 -3.39162,13.27079 -0.36032,20.19233 5.62353,12.84049 18.97066,18.4223 31.56186,13.19938 z m 271.49848,-39.10132 c 3.48921,-1.45722 3.81408,-3.65232 2.95796,-19.98821 -0.59246,-11.30466 -1.24163,-16.58195 -2.18086,-17.72929 -1.04581,-1.27752 -11.64057,-2.82594 -48.60732,-7.10404 l -47.26988,-5.47044 -23.78034,-21.33758 -23.7802,-21.3376 -65.10795,3.41215 -65.10796,3.41216 -28.4777,25.11134 c -15.66274,13.81124 -29.43066,26.27396 -30.59539,27.69495 -2.06309,2.51697 -2.08762,3.15695 -0.95304,24.80624 1.40114,26.73551 1.13524,26.11178 10.91221,25.59938 l 6.70961,-0.35163 1.36087,-6.07955 c 1.92825,-8.61373 3.62362,-11.79021 9.3508,-17.52009 7.32405,-7.32739 12.03515,-9.43405 22.30026,-9.97203 10.15777,-0.53235 15.66093,1.21266 23.03423,7.30384 5.12951,4.23756 11.10429,13.82189 11.36369,18.22886 0.30991,5.26359 -3.89883,5.24143 82.58202,0.43449 l 80.71104,-4.48615 1.35119,-6.07904 c 1.912,-8.60226 3.60879,-11.78472 9.34099,-17.51959 7.17163,-7.1749 12.07043,-9.40885 21.80117,-9.94181 9.87622,-0.54093 15.1071,1.00886 22.46412,6.65577 5.87985,4.51313 12.16622,14.03518 12.41631,18.80724 0.076,1.4502 0.70571,3.14769 1.39933,3.77222 1.25834,1.133 12.88849,0.89629 15.80484,-0.32158 z M 186.88518,684.88293 c -1.2613,-0.70637 -1.77934,-4.18612 -2.80104,-18.81273 -0.81773,-11.70743 -0.90968,-18.6781 -0.26459,-20.05183 0.9622,-2.04894 1.77039,-2.14674 29.93652,-3.62286 l 28.94769,-1.51708 18.32925,15.79671 c 14.91015,12.84994 18.35579,16.30136 18.47113,18.50196 0.3036,5.79312 0.11699,5.82571 -47.60284,8.30976 -25.59096,1.33216 -44.10507,1.90632 -45.01612,1.39607 z m -87.40271,2.63073 c -1.75531,-1.4847 -2.75851,-3.35016 -2.86185,-5.3218 -0.13531,-2.58385 1.99439,-5.42756 14.30566,-19.10058 l 14.46477,-16.06476 23.60012,-1.23683 c 12.98008,-0.68025 24.32523,-1.00131 25.2115,-0.71345 1.39196,0.45209 1.74821,3.13377 2.61589,19.69008 0.72708,13.87355 0.68189,19.52501 -0.16372,20.46412 -0.89435,0.99325 -9.76089,1.68096 -37.81893,2.93331 l -36.65059,1.63588 -2.70285,-2.28597 z" style="fill:#010101" id="path2962-7"/>
    </g>
  </g>
  <metadata>
    <rdf:RDF>
      <cc:Work>
        <dc:format>image/svg+xml</dc:format>
        <dc:type rdf:resource="http://purl.org/dc/dcmitype/StillImage"/>
        <cc:license rdf:resource="http://creativecommons.org/licenses/publicdomain/"/>
        <dc:publisher>
          <cc:Agent rdf:about="http://openclipart.org/">
            <dc:title>Open Clip Art Library</dc:title>
          </cc:Agent>
        </dc:publisher>
        <dc:title>Car accident</dc:title>
        <dc:date>2010-10-08T15:16:41</dc:date>
        <dc:description>Two abstract vehicles crashing into eachother. Uses a car svg image from user Rfc1394. </dc:description>
        <dc:source>http://openclipart.org/detail/89155/car-accident-by-z</dc:source>
        <dc:creator>
          <cc:Agent>
            <dc:title>Z</dc:title>
          </cc:Agent>
        </dc:creator>
        <dc:subject>
          <rdf:Bag>
            <rdf:li>accident</rdf:li>
            <rdf:li>car</rdf:li>
            <rdf:li>clip art</rdf:li>
            <rdf:li>clipart</rdf:li>
            <rdf:li>collision</rdf:li>
            <rdf:li>crash</rdf:li>
            <rdf:li>head on</rdf:li>
            <rdf:li>icon</rdf:li>
            <rdf:li>vehicle</rdf:li>
          </rdf:Bag>
        </dc:subject>
      </cc:Work>
      <cc:License rdf:about="http://creativecommons.org/licenses/publicdomain/">
        <cc:permits rdf:resource="http://creativecommons.org/ns#Reproduction"/>
        <cc:permits rdf:resource="http://creativecommons.org/ns#Distribution"/>
        <cc:permits rdf:resource="http://creativecommons.org/ns#DerivativeWorks"/>
      </cc:License>
    </rdf:RDF>
  </metadata>
</svg>
