<?xml version="1.0" encoding="UTF-8" standalone="no"?>
<!-- Created with Inkscape (http://www.inkscape.org/) -->

<svg
   xmlns:dc="http://purl.org/dc/elements/1.1/"
   xmlns:cc="http://creativecommons.org/ns#"
   xmlns:rdf="http://www.w3.org/1999/02/22-rdf-syntax-ns#"
   xmlns:svg="http://www.w3.org/2000/svg"
   xmlns="http://www.w3.org/2000/svg"
   xmlns:sodipodi="http://sodipodi.sourceforge.net/DTD/sodipodi-0.dtd"
   xmlns:inkscape="http://www.inkscape.org/namespaces/inkscape"
   width="138.2924"
   height="632.0257"
   id="svg2"
   version="1.1"
   inkscape:version="0.48.4 r9939"
   sodipodi:docname="klammer.svg">
  <defs
     id="defs4" />
  <sodipodi:namedview
     id="base"
     pagecolor="#ffffff"
     bordercolor="#666666"
     borderopacity="1.0"
     inkscape:pageopacity="0.0"
     inkscape:pageshadow="2"
     inkscape:zoom="0.35"
     inkscape:cx="103.08983"
     inkscape:cy="482.72729"
     inkscape:document-units="px"
     inkscape:current-layer="layer1"
     showgrid="false"
     fit-margin-top="0"
     fit-margin-left="0"
     fit-margin-right="0"
     fit-margin-bottom="0"
     inkscape:window-width="1366"
     inkscape:window-height="744"
     inkscape:window-x="0"
     inkscape:window-y="24"
     inkscape:window-maximized="1" />
  <metadata
     id="metadata7">
    <rdf:RDF>
      <cc:Work
         rdf:about="">
        <dc:format>image/svg+xml</dc:format>
        <dc:type
           rdf:resource="http://purl.org/dc/dcmitype/StillImage" />
        <dc:title></dc:title>
      </cc:Work>
    </rdf:RDF>
  </metadata>
  <g
     inkscape:label="Ebene 1"
     inkscape:groupmode="layer"
     id="layer1"
     transform="translate(-246.91017,-383.0638)">
    <path
       inkscape:connector-curvature="0"
       id="path3019"
       style="font-size:564.5635376px;font-style:normal;font-variant:normal;font-weight:normal;font-stretch:normal;line-height:125%;letter-spacing:0px;word-spacing:0px;fill:#008000;fill-opacity:1;stroke:none;font-family:Open Sans;-inkscape-font-specification:Open Sans"
       d="m 332.9553,899.04395 c -1e-4,24.06366 4.15153,41.52161 12.45491,52.3739 8.4463,10.8522 20.75804,16.51424 36.93524,16.98614 l 0,49.54291 c -27.20049,-0.4719 -48.24497,-10.7344 -63.13349,-30.78739 -14.8887,-20.05313 -22.33301,-48.24537 -22.33294,-84.57679 l 0,-107.22496 c -7e-5,-24.5354 -4.50959,-41.99334 -13.52861,-52.37391 -9.01911,-10.61616 -22.11822,-15.92432 -39.29738,-15.9245 l 0,-49.89676 c 18.61076,-0.47161 32.06777,-6.13365 40.37108,-16.98614 8.30321,-10.85199 12.45484,-27.60219 12.45491,-50.25064 l 0,-108.2866 c -7e-5,-36.56693 7.73056,-64.99508 23.19189,-85.28454 15.46117,-20.28848 36.21932,-30.43298 62.27454,-30.43349 l 0,49.18902 c -32.92688,1.41596 -49.39025,24.88983 -49.39015,70.42167 l 0,104.39394 c -1e-4,50.72272 -15.96241,80.68434 -47.88697,89.88496 l 0,4.24653 c 31.92456,9.201 47.88687,39.16262 47.88697,89.88495 l 0,105.1017" />
  </g>
</svg>
