<?xml version="1.0" encoding="UTF-8" standalone="no"?>
<!-- Created with sK1/UniConvertor (http://sk1project.org/) -->

<svg
   xmlns:dc="http://purl.org/dc/elements/1.1/"
   xmlns:cc="http://creativecommons.org/ns#"
   xmlns:rdf="http://www.w3.org/1999/02/22-rdf-syntax-ns#"
   xmlns:svg="http://www.w3.org/2000/svg"
   xmlns="http://www.w3.org/2000/svg"
   xmlns:xlink="http://www.w3.org/1999/xlink"
   xmlns:sodipodi="http://sodipodi.sourceforge.net/DTD/sodipodi-0.dtd"
   xmlns:inkscape="http://www.inkscape.org/namespaces/inkscape"
   width="989.87579"
   height="216.96053"
   viewBox="0 0 791.90067 173.56841"
   id="svg2"
   version="1.1"
   inkscape:version="0.48.4 r9939"
   sodipodi:docname="Prophetic Perspective.svg">
  <metadata
     id="metadata30">
    <rdf:RDF>
      <cc:Work
         rdf:about="">
        <dc:format>image/svg+xml</dc:format>
        <dc:type
           rdf:resource="http://purl.org/dc/dcmitype/StillImage" />
        <dc:title></dc:title>
      </cc:Work>
    </rdf:RDF>
  </metadata>
  <sodipodi:namedview
     pagecolor="#ffffff"
     bordercolor="#666666"
     borderopacity="1"
     objecttolerance="10"
     gridtolerance="10"
     guidetolerance="10"
     inkscape:pageopacity="0"
     inkscape:pageshadow="2"
     inkscape:window-width="1366"
     inkscape:window-height="744"
     id="namedview28"
     showgrid="false"
     inkscape:zoom="0.44851463"
     inkscape:cx="550.31811"
     inkscape:cy="47.961404"
     inkscape:window-x="0"
     inkscape:window-y="24"
     inkscape:window-maximized="1"
     inkscape:current-layer="svg2"
     fit-margin-top="0"
     fit-margin-left="0"
     fit-margin-right="0"
     fit-margin-bottom="0" />
  <defs
     id="defs4">
    <linearGradient
       id="linearGradient3821">
      <stop
         style="stop-color:#4a4a4a;stop-opacity:1;"
         offset="0"
         id="stop3823" />
      <stop
         id="stop3859"
         offset="0.92105263"
         style="stop-color:#c5c5c5;stop-opacity:1;" />
      <stop
         style="stop-color:#c5c5c5;stop-opacity:0;"
         offset="1"
         id="stop3825" />
    </linearGradient>
    <marker
       id="ArrowEnd"
       viewBox="0 0 10 10"
       refX="0"
       refY="5"
       markerUnits="strokeWidth"
       markerWidth="4"
       markerHeight="3"
       orient="auto">
      <path
         d="M 0,0 10,5 0,10 z"
         id="path7"
         inkscape:connector-curvature="0" />
    </marker>
    <marker
       id="ArrowStart"
       viewBox="0 0 10 10"
       refX="10"
       refY="5"
       markerUnits="strokeWidth"
       markerWidth="4"
       markerHeight="3"
       orient="auto">
      <path
         d="M 10,0 0,5 10,10 z"
         id="path10"
         inkscape:connector-curvature="0" />
    </marker>
    <linearGradient
       inkscape:collect="always"
       xlink:href="#linearGradient3821"
       id="linearGradient3827"
       x1="210.19547"
       y1="1025.0502"
       x2="856.65936"
       y2="1025.0502"
       gradientUnits="userSpaceOnUse" />
    <linearGradient
       inkscape:collect="always"
       xlink:href="#linearGradient3821"
       id="linearGradient3874"
       gradientUnits="userSpaceOnUse"
       x1="210.19547"
       y1="1025.0502"
       x2="856.65936"
       y2="1025.0502" />
  </defs>
  <g
     id="g3861"
     transform="translate(102.83482,-731.08825)">
    <path
       transform="matrix(0.80000003,0,0,0.80000003,0,-3.6104905e-5)"
       inkscape:connector-curvature="0"
       id="path3039"
       d="m 210.69547,1007.7709 147.15239,33.4437 65.77266,-45.70638 153.84113,18.95148 13.37749,-44.59167 265.32022,5.57395 -26.75498,104.79032 -608.67579,-3.3444 z"
       style="fill:url(#linearGradient3874);fill-opacity:1;stroke:none" />
    <g
       transform="matrix(0.59874531,0,0,0.59874531,-102.98477,382.95494)"
       id="g12">
      <path
         inkscape:connector-curvature="0"
         id="path14"
         d="m 72.3756,584.192 6.887,-2.754 5.0087,2.003 5.2591,6.511 3.3809,9.392 0.3757,6.636 0.3756,8.515 22.1634,-0.376 5.76,1.253 -0.751,4.006 -11.896,-1.627 -15.652,2.504 -3.2557,8.515 -4.5078,7.388 -5.3844,2.88 -5.76,2.504 -4.1321,-1.628 -5.76,-6.636 -4.007,-8.14 -0.8765,-6.886 2.1287,-14.025 4.8835,-10.518 3.6313,-6.136 4.5078,-3.756 -2.3792,0.375 z"
         style="fill:#000000;stroke:none" />
      <path
         inkscape:connector-curvature="0"
         id="path16"
         d="m 86.7757,653.312 10.6434,-3.631 22.6639,-1.628 18.783,-1.628 21.037,-3.255 15.527,-0.501 20.535,-2.379 17.28,-1.252 0.376,2.504 -4.132,3.256 -15.527,0 1.252,4.007 -2.129,4.883 -4.132,3.256 -6.511,0 -5.385,-1.628 -2.003,-5.259 0,-3.256 -14.776,0.376 -6.135,1.628 -12.397,3.255 -17.656,2.129 -14.775,0.376 -9.7672,2.003 -9.0156,4.884 -3.7565,-4.884 2.5043,-4.508 2.0035,-1.127 -4.5078,2.379 z"
         style="fill:#000000;stroke:none" />
      <path
         inkscape:connector-curvature="0"
         id="path18"
         d="m 69.12,644.172 6.1357,1.126 7.3878,0 9.8922,4.884 3.6313,9.892 0.5008,13.524 -3.7565,15.026 -6.5113,14.4 -4.8835,12.271 -5.0087,17.155 -5.76,10.268 -7.2626,4.507 -6.2609,0 -7.2626,-4.507 -2.88,-6.637 0,-10.643 4.007,-13.9 3.3809,-19.158 1.1269,-23.791 -2.0035,-17.906 6.1357,-6.136 9.3913,-0.375 z"
         style="fill:#000000;stroke:none" />
      <path
         inkscape:connector-curvature="0"
         id="path20"
         d="m 45.9548,652.06 6.1356,-3.631 4.5079,0 2.88,2.88 -1.6279,5.635 -3.7565,3.756 -6.8869,3.632 -13.5235,5.384 -17.28,9.391 -6.51133,0.376 3.63133,8.64 7.3878,9.391 6.1357,11.52 2.5043,11.896 -1.2522,3.631 -3.6313,2.504 -5.0087,1.628 -4.8834,3.632 -2.0035,3.756 -1.2522,4.508 -3.75652,0 -1.25218,-3.381 2.50435,-5.259 7.01215,-3.631 4.1322,-3.757 3.6313,-2.003 1.2522,-3.757 -1.6278,-9.767 -5.76,-7.388 -4.8835,-6.511 -6.2609,-7.388 -3.6313,-7.012 0,-4.132 3.25565,-2.004 12.77215,-7.388 12.2713,-6.511 12.2713,-6.135 2.5044,-2.505 z"
         style="fill:#000000;stroke:none" />
      <path
         inkscape:connector-curvature="0"
         id="path22"
         d="m 65.2383,750.105 -4.8835,-6.511 1.6278,-5.009 4.8835,0 5.76,5.385 7.3878,11.019 4.1322,10.643 3.6313,10.268 1.2522,9.392 -0.3757,4.883 -3.7565,6.136 -6.1357,16.403 -7.0121,9.391 -1.6279,4.133 6.6366,0.751 8.5147,0 10.6435,3.631 -0.7513,2.88 -1.6278,3.256 -3.2557,1.628 -6.6365,-2.379 -6.8869,-3.632 -9.8922,-0.501 -6.1357,1.253 -2.5043,-2.004 0,-2.88 3.3809,-3.256 5.2591,-5.384 9.3913,-13.523 4.1322,-11.771 1.2521,-11.52 -0.3756,-6.136 -3.2557,-11.019 -8.64,-11.895 -6.1356,-6.136 2.0035,2.504 z"
         style="fill:#000000;stroke:none" />
      <path
         inkscape:connector-curvature="0"
         id="path24"
         d="m 32.5565,751.107 8.2644,-10.643 7.3878,-8.64 4.8835,0.876 2.5043,3.632 0,6.511 -4.5078,3.756 -7.8887,4.884 -6.1357,6.135 -6.8869,8.14 -2.88,6.135 -3.2557,7.388 -1.753,9.892 0,8.891 1.753,11.144 4.5079,10.644 3.6313,6.135 2.5043,4.007 0,3.381 -2.5043,1.127 -5.76,0 -9.0157,1.628 -7.0122,2.504 -4.00691,3.256 -3.75652,-1.252 -2.379135,-4.508 0.375652,-3.632 7.012173,-2.88 11.01914,-0.751 10.2678,0 -4.1322,-5.009 -2.0034,-6.135 -2.88,-8.515 -3.2557,-9.016 0,-10.643 0.7513,-10.268 3.7565,-9.391 6.5113,-12.272 4.8835,-6.511 z"
         style="fill:#000000;stroke:none" />
    </g>
    <g
       id="g26" />
    <path
       transform="matrix(0.80000003,0,0,0.80000003,0,-3.6104905e-5)"
       inkscape:connector-curvature="0"
       id="path3037"
       d="M -68.002241,1093.6098 30.099353,965.40886 95.872012,1050.133 211.81026,1003.3118 c 0,0 105.90513,54.6247 111.47908,52.3951 5.57396,-2.2296 101.44597,-59.08389 101.44597,-59.08389 l 94.75722,57.96909 69.11703,-85.83886 79.15015,73.57616 55.73954,-66.88742 74.69099,76.92052 c 0,0 66.88745,16.7219 62.42829,28.9846 -4.45917,12.2627 -20.06624,36.7881 -26.75498,32.3289 -6.68875,-4.4591 -93.64243,3.3444 -102.56076,-4.4591 -8.91833,-7.8036 -105.90513,-16.7219 -108.13471,-11.1479 -2.22958,5.5739 -115.93825,41.2472 -128.20095,30.0993 -12.2627,-11.1479 -12.2627,-12.2627 -12.2627,-12.2627 0,0 -50.16559,6.6888 -78.03536,3.3444 -27.86977,-3.3444 -103.67554,-26.755 -111.47908,-18.9514 -7.80354,7.8035 -164.98904,24.5254 -169.44821,16.7218 -4.45916,-7.8035 -70.23182,-18.9514 -70.23182,-18.9514 0,0 -69.117032,8.9183 -69.117032,3.3443 0,-5.5739 -52.395169,-7.8035 -52.395169,-7.8035 z"
       style="fill:#008000;stroke:#008000;stroke-width:1px;stroke-linecap:butt;stroke-linejoin:miter;stroke-opacity:1" />
    <path
       sodipodi:nodetypes="cc"
       inkscape:connector-curvature="0"
       id="path3831-3"
       d="M -8.0264983,743.78844 568.98926,778.56992"
       style="fill:none;stroke:#008000;stroke-width:3.20000005;stroke-linecap:butt;stroke-linejoin:miter;stroke-miterlimit:4;stroke-opacity:0;stroke-dasharray:3.20000013, 3.20000013;stroke-dashoffset:1.28000012" />
  </g>
</svg>
